<svg id="visual" viewBox="0 0 2620 1500" width="2620" height="1500" xmlns="http://www.w3.org/2000/svg" xmlns:xlink="http://www.w3.org/1999/xlink" version="1.1"><g transform="translate(-97.85198554683791 1540.7837020198895)"><path d="M354.9 -599.3C513.1 -523.3 731.1 -535.7 863.9 -450.5C996.8 -365.3 1044.4 -182.7 988.1 -32.5C931.8 117.7 771.6 235.3 662.4 361.5C553.3 487.6 495.1 622.3 393.2 695.8C291.3 769.3 145.7 781.6 -6.1 792.2C-157.8 802.7 -315.7 811.4 -474.3 770.7C-632.9 729.9 -792.3 639.7 -807.2 503C-822 366.3 -692.3 183.2 -696 -2.2C-699.8 -187.5 -837 -375 -812.8 -495.4C-788.5 -615.8 -602.8 -669 -440.4 -742.6C-278 -816.2 -139 -910.1 -20.3 -874.9C98.3 -839.7 196.7 -675.3 354.9 -599.3" fill="#050959"></path></g></svg>