<svg xmlns="http://www.w3.org/2000/svg" xmlns:xlink="http://www.w3.org/1999/xlink" width="4000" zoomAndPan="magnify" viewBox="0 0 3000 749.999995" height="1000" preserveAspectRatio="xMidYMid meet" version="1.0"><defs><g/></defs><g fill="#ffffff" fill-opacity="1"><g transform="translate(94.922263, 499.812382)"><g><path d="M 235.09375 -245 L 143.53125 -245 L 143.53125 0 L 94.859375 0 L 94.859375 -245 L 3.71875 -245 L 3.71875 -288.71875 L 235.09375 -288.71875 Z M 235.09375 -245 "/></g></g></g><g fill="#ffffff" fill-opacity="1"><g transform="translate(333.710555, 499.812382)"><g><path d="M 165.8125 -221.078125 C 191.382812 -221.078125 211.382812 -213.582031 225.8125 -198.59375 C 240.25 -183.613281 247.46875 -162.921875 247.46875 -136.515625 L 247.46875 0 L 200.046875 0 L 200.046875 -123.328125 C 200.046875 -139.828125 195.367188 -152.816406 186.015625 -162.296875 C 176.671875 -171.785156 163.75 -176.53125 147.25 -176.53125 C 128 -176.257812 112.734375 -169.726562 101.453125 -156.9375 C 90.179688 -144.15625 84.546875 -127.863281 84.546875 -108.0625 L 84.546875 0 L 37.125 0 L 37.125 -306.046875 L 84.546875 -306.046875 L 84.546875 -176.53125 C 99.671875 -206.226562 126.757812 -221.078125 165.8125 -221.078125 Z M 165.8125 -221.078125 "/></g></g></g><g fill="#ffffff" fill-opacity="1"><g transform="translate(609.616213, 499.812382)"><g><path d="M 125.390625 -221.078125 C 163.054688 -221.078125 190.34375 -209.734375 207.25 -187.046875 C 224.164062 -164.359375 231.113281 -132.53125 228.09375 -91.5625 L 62.28125 -91.5625 C 66.132812 -74.519531 74.109375 -61.113281 86.203125 -51.34375 C 98.296875 -41.582031 113.003906 -36.703125 130.328125 -36.703125 C 155.078125 -36.703125 175.703125 -45.226562 192.203125 -62.28125 L 217.359375 -35.46875 C 194.816406 -10.71875 164.570312 1.65625 126.625 1.65625 C 92.800781 1.65625 65.644531 -8.585938 45.15625 -29.078125 C 24.675781 -49.566406 14.4375 -76.304688 14.4375 -109.296875 C 14.4375 -142.296875 24.742188 -169.101562 45.359375 -189.71875 C 65.984375 -210.34375 92.660156 -220.796875 125.390625 -221.078125 Z M 61.453125 -126.203125 L 186.84375 -126.203125 C 186.019531 -143.804688 180.109375 -157.691406 169.109375 -167.859375 C 158.109375 -178.035156 143.671875 -183.125 125.796875 -183.125 C 108.472656 -183.125 94.101562 -178.035156 82.6875 -167.859375 C 71.28125 -157.691406 64.203125 -143.804688 61.453125 -126.203125 Z M 61.453125 -126.203125 "/></g></g></g><g fill="#ffffff" fill-opacity="1"><g transform="translate(852.116275, 499.812382)"><g><path d="M 129.09375 -221.078125 C 162.914062 -221.078125 190.410156 -210.832031 211.578125 -190.34375 C 232.753906 -169.863281 243.34375 -142.988281 243.34375 -109.71875 C 243.34375 -76.71875 232.753906 -49.90625 211.578125 -29.28125 C 190.410156 -8.65625 162.914062 1.65625 129.09375 1.65625 C 95 1.65625 67.363281 -8.65625 46.1875 -29.28125 C 25.019531 -49.90625 14.4375 -76.71875 14.4375 -109.71875 C 14.4375 -142.988281 25.019531 -169.863281 46.1875 -190.34375 C 67.363281 -210.832031 95 -221.078125 129.09375 -221.078125 Z M 129.09375 -180.234375 C 109.300781 -180.234375 93.148438 -173.632812 80.640625 -160.4375 C 68.128906 -147.238281 61.875 -130.191406 61.875 -109.296875 C 61.875 -88.128906 68.128906 -70.945312 80.640625 -57.75 C 93.148438 -44.550781 109.300781 -37.953125 129.09375 -37.953125 C 148.894531 -37.953125 164.984375 -44.550781 177.359375 -57.75 C 189.734375 -70.945312 195.921875 -88.128906 195.921875 -109.296875 C 195.921875 -130.191406 189.660156 -147.238281 177.140625 -160.4375 C 164.628906 -173.632812 148.613281 -180.234375 129.09375 -180.234375 Z M 129.09375 -180.234375 "/></g></g></g><g fill="#ffffff" fill-opacity="1"><g transform="translate(1109.875672, 499.812382)"><g><path d="M 82.484375 -219.421875 L 82.484375 -175.703125 C 97.609375 -205.953125 122.90625 -221.078125 158.375 -221.078125 L 158.375 -175.703125 C 136.65625 -176.804688 119.054688 -171.71875 105.578125 -160.4375 C 92.109375 -149.164062 84.410156 -133.90625 82.484375 -114.65625 L 82.484375 0 L 35.0625 0 L 35.0625 -219.421875 Z M 82.484375 -219.421875 "/></g></g></g><g fill="#ffffff" fill-opacity="1"><g transform="translate(1272.367199, 499.812382)"><g><path d="M 125.390625 -221.078125 C 163.054688 -221.078125 190.34375 -209.734375 207.25 -187.046875 C 224.164062 -164.359375 231.113281 -132.53125 228.09375 -91.5625 L 62.28125 -91.5625 C 66.132812 -74.519531 74.109375 -61.113281 86.203125 -51.34375 C 98.296875 -41.582031 113.003906 -36.703125 130.328125 -36.703125 C 155.078125 -36.703125 175.703125 -45.226562 192.203125 -62.28125 L 217.359375 -35.46875 C 194.816406 -10.71875 164.570312 1.65625 126.625 1.65625 C 92.800781 1.65625 65.644531 -8.585938 45.15625 -29.078125 C 24.675781 -49.566406 14.4375 -76.304688 14.4375 -109.296875 C 14.4375 -142.296875 24.742188 -169.101562 45.359375 -189.71875 C 65.984375 -210.34375 92.660156 -220.796875 125.390625 -221.078125 Z M 61.453125 -126.203125 L 186.84375 -126.203125 C 186.019531 -143.804688 180.109375 -157.691406 169.109375 -167.859375 C 158.109375 -178.035156 143.671875 -183.125 125.796875 -183.125 C 108.472656 -183.125 94.101562 -178.035156 82.6875 -167.859375 C 71.28125 -157.691406 64.203125 -143.804688 61.453125 -126.203125 Z M 61.453125 -126.203125 "/></g></g></g><g fill="#ffffff" fill-opacity="1"><g transform="translate(1514.867309, 499.812382)"><g><path d="M 321.296875 -221.078125 C 346.316406 -221.078125 365.976562 -213.515625 380.28125 -198.390625 C 394.582031 -183.265625 401.734375 -162.640625 401.734375 -136.515625 L 401.734375 0 L 354.296875 0 L 354.296875 -123.328125 C 354.296875 -140.097656 349.6875 -153.222656 340.46875 -162.703125 C 331.257812 -172.191406 318.546875 -176.9375 302.328125 -176.9375 C 283.898438 -176.394531 269.253906 -169.726562 258.390625 -156.9375 C 247.535156 -144.15625 242.109375 -128 242.109375 -108.46875 L 242.109375 0 L 194.671875 0 L 194.671875 -123.328125 C 194.671875 -140.097656 190.066406 -153.222656 180.859375 -162.703125 C 171.648438 -172.191406 159.070312 -176.9375 143.125 -176.9375 C 124.425781 -176.394531 109.578125 -169.726562 98.578125 -156.9375 C 87.578125 -144.15625 82.078125 -128 82.078125 -108.46875 L 82.078125 0 L 35.0625 0 L 35.0625 -219.421875 L 82.078125 -219.421875 L 82.078125 -176.9375 C 96.648438 -206.363281 123.1875 -221.078125 161.6875 -221.078125 C 181.207031 -221.078125 197.5 -216.46875 210.5625 -207.25 C 223.625 -198.039062 232.765625 -185.050781 237.984375 -168.28125 C 251.460938 -203.476562 279.234375 -221.078125 321.296875 -221.078125 Z M 321.296875 -221.078125 "/></g></g></g><g fill="#ffffff" fill-opacity="1"><g transform="translate(1945.016278, 499.812382)"><g><path d="M 202.515625 -187.25 L 77.125 -38.765625 L 206.234375 -38.359375 L 206.234375 0.40625 L 18.5625 0 L 18.5625 -32.171875 L 143.953125 -180.65625 L 22.265625 -180.65625 L 22.265625 -219.421875 L 202.515625 -219.015625 Z M 202.515625 -187.25 "/></g></g></g><g fill="#ffffff" fill-opacity="1"><g transform="translate(2152.727409, 532.803686)"><g><path d="M 101.601562 46.957031 C 102.410156 -18.621094 121.4375 -82.980469 157.058594 -138.4375 C 162.726562 -147.34375 143.292969 -164.75 138.03125 -157.058594 C 101.195312 -99.171875 80.957031 -32.789062 79.742188 36.027344 C 79.742188 45.335938 101.195312 59.910156 101.601562 46.957031 Z M 303.1875 -213.726562 C 275.253906 -241.660156 229.917969 -232.753906 195.917969 -224.65625 C 154.222656 -214.539062 113.746094 -197.941406 77.3125 -175.679688 C 51.40625 -160.296875 15.382812 -136.816406 11.738281 -103.625 C 10.523438 -94.71875 31.574219 -79.742188 33.191406 -93.101562 C 35.621094 -115.363281 61.933594 -133.984375 78.933594 -145.722656 C 107.671875 -165.964844 140.460938 -181.34375 173.652344 -192.679688 C 205.226562 -203.609375 244.492188 -216.5625 277.683594 -209.679688 C 325.855469 -199.558594 269.992188 -142.484375 252.992188 -127.914062 C 218.585938 -98.769531 176.890625 -80.148438 132.367188 -72.863281 C 121.839844 -71.242188 138.4375 -51.8125 145.722656 -51.8125 C 161.914062 -51.8125 182.964844 -52.21875 197.132812 -42.503906 C 216.15625 -29.550781 199.964844 -0.808594 187.820312 10.929688 C 172.441406 26.3125 151.390625 38.453125 131.554688 47.765625 C 110.507812 57.480469 85.816406 64.765625 63.957031 53.027344 C 59.503906 50.597656 54.242188 51.003906 53.433594 57.074219 C 53.027344 62.742188 59.910156 69.21875 64.359375 71.648438 C 91.886719 86.21875 121.839844 80.554688 148.960938 67.597656 C 174.058594 55.457031 205.226562 38.453125 219.394531 12.953125 C 232.753906 -10.929688 226.277344 -39.265625 204.417969 -55.859375 C 200.371094 -59.097656 196.320312 -61.527344 192.273438 -63.550781 C 221.015625 -73.671875 248.136719 -89.054688 271.613281 -109.292969 C 300.757812 -133.984375 339.210938 -177.703125 303.1875 -213.726562 Z M 303.1875 -213.726562 "/></g></g></g><g fill="#ffffff" fill-opacity="1"><g transform="translate(2423.511489, 532.803686)"><g><path d="M 92.695312 -49.382812 C 81.363281 -37.242188 41.691406 -16.191406 12.144531 -12.144531 C 10.523438 -27.121094 21.453125 -49.382812 25.097656 -59.910156 C 32.382812 -81.363281 39.667969 -102.816406 47.359375 -123.863281 C 63.148438 -167.175781 80.148438 -210.085938 97.957031 -252.585938 C 101.601562 -261.492188 81.363281 -278.492188 76.910156 -267.96875 C 60.71875 -229.109375 45.335938 -189.84375 30.765625 -150.175781 C 23.476562 -131.152344 17 -112.125 10.121094 -92.695312 C 4.046875 -74.480469 -3.644531 -55.859375 -7.691406 -36.835938 C -10.523438 -23.074219 -9.308594 -9.308594 0.40625 2.023438 C 9.308594 12.953125 21.453125 10.929688 34.003906 6.882812 C 59.910156 -0.808594 86.21875 -18.214844 104.839844 -38.050781 C 111.722656 -45.742188 99.578125 -57.074219 92.695312 -49.382812 Z M 92.695312 -49.382812 "/></g></g></g><g fill="#ffffff" fill-opacity="1"><g transform="translate(2517.820424, 532.803686)"><g><path d="M 151.796875 -51.40625 C 136.414062 -37.644531 93.507812 -5.667969 69.21875 -2.832031 C 68.8125 -2.832031 68.8125 -2.832031 68.410156 -2.832031 C 69.625 -8.90625 70.433594 -14.574219 72.863281 -21.050781 C 74.886719 -27.121094 77.3125 -33.191406 78.125 -39.667969 C 78.527344 -40.480469 78.527344 -41.691406 78.125 -43.3125 C 78.125 -47.359375 73.671875 -52.621094 68.8125 -55.859375 C 65.980469 -57.882812 62.742188 -59.097656 59.910156 -58.289062 C 57.480469 -57.882812 55.457031 -57.074219 53.027344 -56.265625 C 41.691406 -71.242188 21.050781 -74.074219 4.859375 -62.335938 C -14.976562 -47.359375 -28.335938 -22.261719 -33.597656 1.621094 C -35.214844 9.714844 -23.882812 23.074219 -15.382812 19.835938 C 8.90625 10.121094 27.121094 -10.929688 48.574219 -25.097656 C 46.550781 -18.214844 45.335938 -11.335938 47.765625 -3.644531 C 51.003906 7.691406 61.121094 17.40625 73.265625 19.023438 C 85.410156 20.238281 97.148438 13.761719 106.863281 8.097656 C 128.316406 -4.859375 147.34375 -21.453125 165.964844 -38.050781 C 173.25 -44.929688 159.488281 -58.695312 151.796875 -51.40625 Z M 5.667969 -24.691406 C 5.667969 -24.691406 6.070312 -25.097656 6.070312 -25.097656 C 10.523438 -30.765625 15.382812 -36.429688 20.644531 -40.882812 C 24.289062 -43.71875 27.929688 -46.957031 32.382812 -48.167969 C 34.003906 -48.167969 35.621094 -48.574219 37.242188 -48.980469 C 37.242188 -48.574219 37.242188 -48.574219 37.644531 -48.574219 C 26.3125 -42.097656 16.191406 -33.191406 5.667969 -24.691406 Z M 5.667969 -24.691406 "/></g></g></g><g fill="#ffffff" fill-opacity="1"><g transform="translate(2672.033781, 532.803686)"><g><path d="M 123.460938 -51.003906 C 94.316406 -38.453125 26.714844 -14.167969 7.691406 -12.546875 C 6.070312 -12.144531 2.429688 -13.359375 6.476562 -23.476562 C 10.523438 -34.8125 22.261719 -57.074219 37.644531 -47.765625 C 42.097656 -45.335938 47.765625 -46.144531 48.167969 -51.8125 C 48.980469 -57.882812 41.691406 -63.550781 37.242188 -66.386719 C -2.023438 -89.457031 -39.667969 -18.621094 -3.238281 4.453125 C 16.597656 16.597656 40.480469 2.832031 59.097656 -5.261719 C 83.386719 -15.785156 107.269531 -26.3125 131.554688 -36.835938 C 141.675781 -41.691406 132.367188 -55.050781 123.460938 -51.003906 Z M 123.460938 -51.003906 "/></g></g></g><g fill="#ffffff" fill-opacity="1"><g transform="translate(2798.31872, 532.803686)"><g><path d="M 79.339844 -224.65625 C 42.90625 -150.984375 10.121094 -75.289062 -18.621094 2.023438 C -21.453125 8.5 -11.335938 19.023438 -4.046875 20.644531 C -1.214844 21.050781 1.214844 20.238281 2.429688 17.40625 C 6.476562 7.691406 11.738281 -1.621094 18.214844 -9.714844 C 18.214844 11.335938 29.953125 30.359375 51.003906 39.667969 C 59.910156 43.71875 77.71875 24.289062 67.597656 19.835938 C 52.621094 12.953125 42.503906 0.40625 40.480469 -14.574219 C 61.121094 -22.261719 76.910156 -38.859375 82.171875 -60.3125 C 84.195312 -66.789062 77.3125 -74.886719 71.648438 -77.3125 C 59.503906 -82.578125 46.144531 -74.480469 34.8125 -64.765625 C 55.050781 -113.746094 76.910156 -161.914062 100.386719 -209.273438 C 104.433594 -218.179688 84.601562 -235.179688 79.339844 -224.65625 Z M 79.339844 -224.65625 "/></g></g></g></svg>