<?xml version="1.0" encoding="UTF-8"?>
<!DOCTYPE svg PUBLIC "-//W3C//DTD SVG 1.1//EN" "http://www.w3.org/Graphics/SVG/1.1/DTD/svg11.dtd">
<svg xmlns="http://www.w3.org/2000/svg" version="1.1" width="128px" height="128px" style="shape-rendering:geometricPrecision; text-rendering:geometricPrecision; image-rendering:optimizeQuality; fill-rule:evenodd; clip-rule:evenodd" xmlns:xlink="http://www.w3.org/1999/xlink">
<g><path style="opacity:0.98" fill="#fffbfa" d="M 127.5,23.5 C 127.5,24.1667 127.5,24.8333 127.5,25.5C 123.862,29.9696 119.695,33.9696 115,37.5C 114.249,76.5501 95.4157,102.05 58.5,114C 37.4837,118.538 17.817,115.371 -0.5,104.5C -0.5,104.167 -0.5,103.833 -0.5,103.5C 12.6798,104.699 24.6798,101.532 35.5,94C 24.9699,91.6367 17.6366,85.47 13.5,75.5C 16.4465,74.6786 19.4465,74.1786 22.5,74C 10.0156,69.5254 4.18227,60.6921 5,47.5C 7.58819,49.3648 10.4215,50.1981 13.5,50C 3.62722,39.6989 1.96056,28.1989 8.5,15.5C 22.0849,31.6283 39.4183,40.9616 60.5,43.5C 60.7223,20.1053 72.389,9.60534 95.5,12C 100.38,13.3549 104.547,15.8549 108,19.5C 113.2,18.0688 118.2,16.0688 123,13.5C 123.5,13.6667 124,13.8333 124.5,14C 122.648,18.523 119.982,22.523 116.5,26C 120.229,25.7073 123.896,24.874 127.5,23.5 Z"/></g>
</svg>
