<?xml version="1.0" encoding="UTF-8"?>
<!DOCTYPE svg PUBLIC "-//W3C//DTD SVG 1.1//EN" "http://www.w3.org/Graphics/SVG/1.1/DTD/svg11.dtd">
<svg xmlns="http://www.w3.org/2000/svg" version="1.1" width="3770px" height="581px" style="shape-rendering:geometricPrecision; text-rendering:geometricPrecision; image-rendering:optimizeQuality; fill-rule:evenodd; clip-rule:evenodd" xmlns:xlink="http://www.w3.org/1999/xlink">
<g><path style="opacity:1" fill="#fefefe" d="M -0.5,-0.5 C 1256.17,-0.5 2512.83,-0.5 3769.5,-0.5C 3769.5,193.167 3769.5,386.833 3769.5,580.5C 2512.83,580.5 1256.17,580.5 -0.5,580.5C -0.5,386.833 -0.5,193.167 -0.5,-0.5 Z"/></g>
<g><path style="opacity:1" fill="#010101" d="M 431.5,7.5 C 431.333,64.8343 431.5,122.168 432,179.5C 432.717,178.956 433.217,178.289 433.5,177.5C 452.1,144.508 480.433,126.008 518.5,122C 547.732,117.841 575.398,122.507 601.5,136C 628.814,154.096 644.314,179.596 648,212.5C 649.447,280.152 649.947,347.818 649.5,415.5C 628.167,415.5 606.833,415.5 585.5,415.5C 585.667,355.499 585.5,295.499 585,235.5C 576.821,198.661 553.821,180.327 516,180.5C 476.722,180.967 450.389,199.634 437,236.5C 434.693,244.368 433.026,252.368 432,260.5C 431.5,312.166 431.333,363.832 431.5,415.5C 410.5,415.5 389.5,415.5 368.5,415.5C 368.5,279.5 368.5,143.5 368.5,7.5C 389.5,7.5 410.5,7.5 431.5,7.5 Z"/></g>
<g><path style="opacity:1" fill="#909090" d="M 431.5,7.5 C 432.167,64.1667 432.833,120.833 433.5,177.5C 433.217,178.289 432.717,178.956 432,179.5C 431.5,122.168 431.333,64.8343 431.5,7.5 Z"/></g>
<g><path style="opacity:1" fill="#494949" d="M 192.5,89.5 C 232.663,88.5014 272.997,88.1681 313.5,88.5C 313.5,69.5 313.5,50.5 313.5,31.5C 211.167,31.5 108.833,31.5 6.5,31.5C 6.5,50.5 6.5,69.5 6.5,88.5C 6.16667,88.5 5.83333,88.5 5.5,88.5C 5.5,69.1667 5.5,49.8333 5.5,30.5C 108.5,30.5 211.5,30.5 314.5,30.5C 314.5,50.1667 314.5,69.8333 314.5,89.5C 273.833,89.5 233.167,89.5 192.5,89.5 Z"/></g>
<g><path style="opacity:1" fill="#010101" d="M 192.5,89.5 C 192.5,198.167 192.5,306.833 192.5,415.5C 170.833,415.5 149.167,415.5 127.5,415.5C 127.5,306.5 127.5,197.5 127.5,88.5C 87.1667,88.5 46.8333,88.5 6.5,88.5C 6.5,69.5 6.5,50.5 6.5,31.5C 108.833,31.5 211.167,31.5 313.5,31.5C 313.5,50.5 313.5,69.5 313.5,88.5C 272.997,88.1681 232.663,88.5014 192.5,89.5 Z"/></g>
<g><path style="opacity:1" fill="#b0b0b0" d="M 5.5,88.5 C 5.83333,88.5 6.16667,88.5 6.5,88.5C 46.8333,88.5 87.1667,88.5 127.5,88.5C 127.5,197.5 127.5,306.5 127.5,415.5C 126.501,307.001 126.167,198.335 126.5,89.5C 85.9966,89.8319 45.6632,89.4986 5.5,88.5 Z"/></g>
<g><path style="opacity:1" fill="#020202" d="M 3230.5,102.5 C 3242.52,103.666 3250.68,109.999 3255,121.5C 3255.67,123.167 3255.67,124.833 3255,126.5C 3212.46,227.107 3174.46,329.44 3141,433.5C 3140.5,438.155 3140.33,442.821 3140.5,447.5C 3171.69,442.153 3200.53,430.82 3227,413.5C 3237.47,394.694 3252.64,381.194 3272.5,373C 3291.14,368.905 3306.8,373.905 3319.5,388C 3323.31,387.741 3327.14,387.241 3331,386.5C 3339.29,387.65 3345.96,391.65 3351,398.5C 3354.96,404.443 3355.63,410.776 3353,417.5C 3347.42,431.398 3343.59,445.732 3341.5,460.5C 3357.56,457.475 3372.56,451.642 3386.5,443C 3403.83,432.669 3420.33,421.169 3436,408.5C 3443.78,389.047 3457.62,376.214 3477.5,370C 3495.14,368.574 3508.98,375.074 3519,389.5C 3520.37,394.437 3519.2,398.604 3515.5,402C 3514.33,402.167 3513.17,402.333 3512,402.5C 3506.64,400.406 3501.14,398.739 3495.5,397.5C 3491.01,397.72 3487.01,399.22 3483.5,402C 3471.09,413.978 3463.93,428.478 3462,445.5C 3462.96,446.894 3464.29,447.561 3466,447.5C 3482.41,444.382 3498.58,440.216 3514.5,435C 3552.18,422.441 3589.52,409.107 3626.5,395C 3658.17,316.153 3693,238.653 3731,162.5C 3735.83,160.044 3740.66,160.21 3745.5,163C 3753.11,167.9 3757.28,174.733 3758,183.5C 3726.74,247.332 3697.74,311.999 3671,377.5C 3681.5,366.917 3694.17,360.917 3709,359.5C 3724.93,360.429 3732.93,368.762 3733,384.5C 3724.82,413.344 3706.82,433.344 3679,444.5C 3679.36,454.562 3682.69,463.562 3689,471.5C 3697.19,480.359 3706.52,487.692 3717,493.5C 3717.5,501.675 3714.33,508.175 3707.5,513C 3700.42,518.563 3693.09,518.897 3685.5,514C 3661.63,500.111 3649.13,479.278 3648,451.5C 3639.02,463.956 3631.19,477.122 3624.5,491C 3613.41,491.266 3605.24,486.433 3600,476.5C 3598.79,473.232 3598.45,469.899 3599,466.5C 3605.26,451.406 3610.76,436.406 3615.5,421.5C 3580.96,436.181 3546.63,451.348 3512.5,467C 3497.52,473.863 3481.86,476.863 3465.5,476C 3449.31,471.972 3438.31,462.139 3432.5,446.5C 3415.54,460.653 3397.21,472.819 3377.5,483C 3363.87,490.226 3349.87,491.226 3335.5,486C 3315.12,473.004 3307.78,454.837 3313.5,431.5C 3295.4,444.761 3277.74,458.594 3260.5,473C 3250.45,480.027 3239.78,486.027 3228.5,491C 3220.17,491.082 3213.67,487.582 3209,480.5C 3204.99,473.414 3204.49,466.08 3207.5,458.5C 3207.17,458.167 3206.83,457.833 3206.5,457.5C 3188.33,468.057 3168.83,474.724 3148,477.5C 3138.7,477.847 3131.03,474.513 3125,467.5C 3114.12,453.311 3110.12,437.311 3113,419.5C 3114.53,411.038 3116.53,402.705 3119,394.5C 3131.24,359.453 3143.24,324.453 3155,289.5C 3117.48,330.349 3072.65,360.349 3020.5,379.5C 3063.32,404.476 3074.49,439.476 3054,484.5C 3045.96,496.88 3036.12,507.713 3024.5,517C 2991.33,542.414 2954.33,560.08 2913.5,570C 2889.49,573.499 2866.82,569.499 2845.5,558C 2840.42,554.263 2836.92,549.43 2835,543.5C 2833.41,537.002 2835.91,533.669 2842.5,533.5C 2850.6,536.879 2858.94,539.713 2867.5,542C 2877.5,542.667 2887.5,542.667 2897.5,542C 2934.07,532.047 2967.4,515.714 2997.5,493C 3016.04,480.07 3028.88,462.903 3036,441.5C 3040.44,427.383 3036.94,415.883 3025.5,407C 3014.21,401.023 3002.21,397.357 2989.5,396C 2978.17,395.667 2966.83,395.333 2955.5,395C 2947,390.5 2940.5,384 2936,375.5C 2935.33,373.167 2935.33,370.833 2936,368.5C 2997.58,358.105 3052.41,333.271 3100.5,294C 3115.81,280.031 3129.64,264.864 3142,248.5C 3148.91,238.67 3154.25,228.003 3158,216.5C 3160.81,200.324 3154.31,190.157 3138.5,186C 3132.92,184.485 3127.26,183.485 3121.5,183C 3109.17,182.333 3096.83,182.333 3084.5,183C 3017.69,195.714 2954.69,218.714 2895.5,252C 2869.08,267.47 2844.92,285.97 2823,307.5C 2813.83,318.177 2808.16,330.511 2806,344.5C 2802.58,347.848 2798.75,348.348 2794.5,346C 2788.64,342.508 2783.81,338.008 2780,332.5C 2779.13,330.419 2778.63,328.253 2778.5,326C 2781.33,308.179 2788.83,292.679 2801,279.5C 2815.72,264.44 2831.88,251.274 2849.5,240C 2919.43,194.687 2995.76,166.354 3078.5,155C 3106.35,150.973 3132.35,155.973 3156.5,170C 3170.39,179.589 3180.05,192.422 3185.5,208.5C 3198.76,175.907 3211.92,143.24 3225,110.5C 3226.13,107.206 3227.96,104.54 3230.5,102.5 Z"/></g>
<g><path style="opacity:1" fill="#010101" d="M 835.5,121.5 C 870.406,117.983 903.406,124.149 934.5,140C 960.214,157.408 977.047,181.242 985,211.5C 987.797,222.356 989.797,233.356 991,244.5C 991.5,260.83 991.667,277.163 991.5,293.5C 917.833,293.5 844.167,293.5 770.5,293.5C 780.162,334.662 805.829,358.829 847.5,366C 884.724,369.706 916.557,358.539 943,332.5C 954.35,344.349 965.517,356.349 976.5,368.5C 949.207,397.476 915.541,413.643 875.5,417C 838.558,420.76 803.892,413.76 771.5,396C 727.284,365.742 705.618,323.575 706.5,269.5C 706.572,203.644 736.572,157.477 796.5,131C 809.399,126.855 822.399,123.689 835.5,121.5 Z"/></g>
<g><path style="opacity:1" fill="#010101" d="M 1160.5,121.5 C 1191.48,118.996 1221.48,123.163 1250.5,134C 1294.66,154.162 1321.83,187.995 1332,235.5C 1337.46,267.579 1334.79,298.913 1324,329.5C 1302.75,377.407 1266.25,405.907 1214.5,415C 1171.5,422.779 1131.17,415.779 1093.5,394C 1049.33,362.655 1027.99,319.655 1029.5,265C 1031.3,200.689 1061.63,156.022 1120.5,131C 1133.73,126.859 1147.07,123.692 1160.5,121.5 Z"/></g>
<g><path style="opacity:1" fill="#000000" d="M 1564.5,121.5 C 1564.5,141.167 1564.5,160.833 1564.5,180.5C 1558.64,180.178 1552.98,180.511 1547.5,181.5C 1509.68,184.485 1483.52,203.485 1469,238.5C 1466.71,245.69 1465.05,253.024 1464,260.5C 1463.5,312.166 1463.33,363.832 1463.5,415.5C 1442.83,415.5 1422.17,415.5 1401.5,415.5C 1401.5,318.167 1401.5,220.833 1401.5,123.5C 1422.17,123.5 1442.83,123.5 1463.5,123.5C 1463.33,142.503 1463.5,161.503 1464,180.5C 1464.72,179.956 1465.22,179.289 1465.5,178.5C 1486.84,139.654 1519.84,120.654 1564.5,121.5 Z"/></g>
<g><path style="opacity:1" fill="#484848" d="M 1564.5,121.5 C 1565.5,141.326 1565.83,161.326 1565.5,181.5C 1559.5,181.5 1553.5,181.5 1547.5,181.5C 1552.98,180.511 1558.64,180.178 1564.5,180.5C 1564.5,160.833 1564.5,141.167 1564.5,121.5 Z"/></g>
<g><path style="opacity:1" fill="#000000" d="M 1717.5,121.5 C 1747.38,119.026 1776.38,122.859 1804.5,133C 1831.17,145.466 1850.34,165.299 1862,192.5C 1874.12,225.102 1878.28,258.768 1874.5,293.5C 1800.83,293.167 1727.16,293.5 1653.5,294.5C 1666.14,340.798 1696.47,364.798 1744.5,366.5C 1776.83,366.566 1804.33,355.232 1827,332.5C 1838.17,344.333 1849.33,356.167 1860.5,368C 1835.49,395.339 1804.49,411.339 1767.5,416C 1734.78,420.917 1703.11,417.25 1672.5,405C 1626.14,382.96 1599.31,346.46 1592,295.5C 1583.78,244.659 1596.78,200.326 1631,162.5C 1655.49,139.723 1684.32,126.056 1717.5,121.5 Z"/></g>
<g><path style="opacity:1" fill="#000000" d="M 1941.5,415.5 C 1941.5,318.167 1941.5,220.833 1941.5,123.5C 1962.17,123.5 1982.83,123.5 2003.5,123.5C 2003.33,141.836 2003.5,160.17 2004,178.5C 2020.69,147.391 2046.52,128.891 2081.5,123C 2113.23,117.351 2143.23,122.018 2171.5,137C 2190.85,150.168 2204.02,168.001 2211,190.5C 2227.51,150.473 2257.34,127.64 2300.5,122C 2320.93,120.263 2341.1,121.763 2361,126.5C 2402.49,142.085 2425.15,172.085 2429,216.5C 2429.5,282.832 2429.67,349.166 2429.5,415.5C 2408.5,415.5 2387.5,415.5 2366.5,415.5C 2366.67,356.499 2366.5,297.499 2366,238.5C 2360.17,201.17 2338.33,181.503 2300.5,179.5C 2261.72,180.628 2235.55,199.295 2222,235.5C 2219.44,243.313 2217.77,251.313 2217,259.5C 2216.5,311.499 2216.33,363.499 2216.5,415.5C 2195.5,415.5 2174.5,415.5 2153.5,415.5C 2153.67,356.499 2153.5,297.499 2153,238.5C 2146.88,200.22 2124.38,180.554 2085.5,179.5C 2038.18,183.653 2011.01,209.32 2004,256.5C 2003.5,309.499 2003.33,362.499 2003.5,415.5C 1982.83,415.5 1962.17,415.5 1941.5,415.5 Z"/></g>
<g><path style="opacity:1" fill="#4b4b4b" d="M 1463.5,123.5 C 1442.83,123.5 1422.17,123.5 1401.5,123.5C 1401.5,220.833 1401.5,318.167 1401.5,415.5C 1400.5,318.001 1400.17,220.335 1400.5,122.5C 1421.67,122.169 1442.67,122.503 1463.5,123.5 Z"/></g>
<g><path style="opacity:1" fill="#7f7f7f" d="M 1463.5,123.5 C 1464.17,141.833 1464.83,160.167 1465.5,178.5C 1465.22,179.289 1464.72,179.956 1464,180.5C 1463.5,161.503 1463.33,142.503 1463.5,123.5 Z"/></g>
<g><path style="opacity:1" fill="#494949" d="M 2003.5,123.5 C 1982.83,123.5 1962.17,123.5 1941.5,123.5C 1941.5,220.833 1941.5,318.167 1941.5,415.5C 1940.5,318.001 1940.17,220.335 1940.5,122.5C 1961.67,122.169 1982.67,122.503 2003.5,123.5 Z"/></g>
<g><path style="opacity:1" fill="#010101" d="M 2571.5,362.5 C 2570.96,362.56 2570.62,362.893 2570.5,363.5C 2592.16,364.5 2613.82,364.833 2635.5,364.5C 2671.17,364.5 2706.83,364.5 2742.5,364.5C 2742.5,381.833 2742.5,399.167 2742.5,416.5C 2659.16,416.65 2575.83,416.316 2492.5,415.5C 2492.33,400.83 2492.5,386.163 2493,371.5C 2548.5,306 2604,240.5 2659.5,175C 2605.5,174.5 2551.5,174.333 2497.5,174.5C 2497.5,157.5 2497.5,140.5 2497.5,123.5C 2577.5,123.5 2657.5,123.5 2737.5,123.5C 2737.67,137.837 2737.5,152.171 2737,166.5C 2681.59,231.731 2626.43,297.064 2571.5,362.5 Z"/></g>
<g><path style="opacity:1" fill="#fefefe" d="M 935.5,243.5 C 935.5,244.5 935.5,245.5 935.5,246.5C 879.997,246.832 824.664,246.499 769.5,245.5C 775.964,204.871 799.297,180.371 839.5,172C 864.696,168.384 887.696,173.717 908.5,188C 925.674,202.514 934.674,221.014 935.5,243.5 Z"/></g>
<g><path style="opacity:1" fill="#fefefe" d="M 1819.5,246.5 C 1764.17,246.5 1708.83,246.5 1653.5,246.5C 1653.5,245.5 1653.5,244.5 1653.5,243.5C 1660,206.503 1681.33,183.003 1717.5,173C 1740.57,168.604 1762.57,171.604 1783.5,182C 1806.79,197.064 1818.79,218.564 1819.5,246.5 Z"/></g>
<g><path style="opacity:1" fill="#fefefe" d="M 1168.5,175.5 C 1222.67,171.864 1256.5,196.197 1270,248.5C 1274.27,274.397 1270.61,299.064 1259,322.5C 1236.98,356.198 1205.82,370.031 1165.5,364C 1125.26,354.422 1101.42,329.255 1094,288.5C 1088.95,257.335 1095.95,229.335 1115,204.5C 1129.4,188.385 1147.23,178.718 1168.5,175.5 Z"/></g>
<g><path style="opacity:1" fill="#bbbbbb" d="M 935.5,243.5 C 936.434,244.568 936.768,245.901 936.5,247.5C 880.496,247.833 824.496,247.5 768.5,246.5C 768.624,245.893 768.957,245.56 769.5,245.5C 824.664,246.499 879.997,246.832 935.5,246.5C 935.5,245.5 935.5,244.5 935.5,243.5 Z"/></g>
<g><path style="opacity:1" fill="#bdbdbd" d="M 1653.5,243.5 C 1653.5,244.5 1653.5,245.5 1653.5,246.5C 1708.83,246.5 1764.17,246.5 1819.5,246.5C 1764,247.499 1708.34,247.832 1652.5,247.5C 1652.23,245.901 1652.57,244.568 1653.5,243.5 Z"/></g>
<g><path style="opacity:1" fill="#020202" d="M 2949.5,252.5 C 2964.89,254.385 2972.72,263.052 2973,278.5C 2924.29,354.976 2899.29,438.643 2898,529.5C 2895.95,533.292 2892.78,534.458 2888.5,533C 2879.64,529.474 2873.47,523.308 2870,514.5C 2870.63,419.123 2897.13,331.79 2949.5,252.5 Z"/></g>
<g><path style="opacity:1" fill="#9c9c9c" d="M 2571.5,362.5 C 2592.83,363.167 2614.17,363.833 2635.5,364.5C 2613.82,364.833 2592.16,364.5 2570.5,363.5C 2570.62,362.893 2570.96,362.56 2571.5,362.5 Z"/></g>
<g><path style="opacity:1" fill="#e6e6e6" d="M 3292.5,399.5 C 3294.86,399.337 3297.19,399.503 3299.5,400C 3285.71,408.981 3272.54,418.814 3260,429.5C 3268.03,416.639 3278.87,406.639 3292.5,399.5 Z"/></g>
</svg>
