<?xml version="1.0" encoding="UTF-8"?>
<!DOCTYPE svg PUBLIC "-//W3C//DTD SVG 1.1//EN" "http://www.w3.org/Graphics/SVG/1.1/DTD/svg11.dtd">
<svg xmlns="http://www.w3.org/2000/svg" version="1.1" width="512px" height="512px" style="shape-rendering:geometricPrecision; text-rendering:geometricPrecision; image-rendering:optimizeQuality; fill-rule:evenodd; clip-rule:evenodd" xmlns:xlink="http://www.w3.org/1999/xlink">
<g><path style="opacity:0.988" fill="#010100" d="M 114.5,-0.5 C 225.5,-0.5 336.5,-0.5 447.5,-0.5C 465.907,9.11025 470.074,23.1102 460,41.5C 456.159,46.0034 451.326,48.8367 445.5,50C 435.362,70.0244 435.029,90.1911 444.5,110.5C 454.791,113.625 461.625,120.291 465,130.5C 465.667,250.833 465.667,371.167 465,491.5C 462.485,501.176 456.651,507.842 447.5,511.5C 336.5,511.5 225.5,511.5 114.5,511.5C 84.5865,505.599 63.4198,488.599 51,460.5C 45.8215,444.902 44.1548,428.902 46,412.5C 47.1641,409.505 49.3308,407.839 52.5,407.5C 54.3885,408.322 56.3885,409.155 58.5,410C 59.1258,410.75 59.6258,411.584 60,412.5C 56.625,442.278 66.4583,466.445 89.5,485C 100.979,492.771 113.646,496.604 127.5,496.5C 232.501,496.667 337.501,496.5 442.5,496C 446.391,494.943 448.724,492.443 449.5,488.5C 450.666,370.667 450.833,252.667 450,134.5C 448.923,131.087 446.756,128.587 443.5,127C 429.167,126.667 414.833,126.333 400.5,126C 397.038,123.761 395.705,120.594 396.5,116.5C 396.916,114.248 398.249,112.748 400.5,112C 409.518,111.832 418.518,111.332 427.5,110.5C 426.5,107.833 425.5,105.167 424.5,102.5C 361.17,101.5 297.837,101.167 234.5,101.5C 234.5,104.833 234.5,108.167 234.5,111.5C 281.835,111.333 329.168,111.5 376.5,112C 379.222,113.272 380.556,115.439 380.5,118.5C 380.673,122.17 379.007,124.67 375.5,126C 328.501,126.5 281.501,126.667 234.5,126.5C 234.5,135.833 234.5,145.167 234.5,154.5C 234.667,168.837 234.5,183.171 234,197.5C 232.604,200.784 230.104,202.451 226.5,202.5C 211.122,195.978 196.122,188.644 181.5,180.5C 167.656,187.922 153.656,195.089 139.5,202C 134.572,203.643 131.072,202.143 129,197.5C 128.5,183.171 128.333,168.837 128.5,154.5C 128.5,145.167 128.5,135.833 128.5,126.5C 105.655,125.49 90.4885,114.156 83,92.5C 78.6721,65.9864 88.8387,47.4864 113.5,37C 223.124,35.6749 332.79,35.0082 442.5,35C 450.213,31.4162 452.046,25.9162 448,18.5C 446.681,16.5125 444.848,15.3459 442.5,15C 333.833,14.3333 225.167,14.3333 116.5,15C 85.326,22.5066 66.826,42.0066 61,73.5C 60.6667,178.833 60.3333,284.167 60,389.5C 58.117,392.024 55.617,393.358 52.5,393.5C 49.7374,393.256 47.5707,391.923 46,389.5C 45.3333,283.167 45.3333,176.833 46,70.5C 50.9602,38.4037 68.4602,16.237 98.5,4C 103.874,2.16036 109.207,0.660356 114.5,-0.5 Z"/></g>
<g><path style="opacity:1" fill="#eecc72" d="M 128.5,154.5 C 127.5,268.332 127.167,382.332 127.5,496.5C 113.646,496.604 100.979,492.771 89.5,485C 66.4583,466.445 56.625,442.278 60,412.5C 59.6258,411.584 59.1258,410.75 58.5,410C 56.3885,409.155 54.3885,408.322 52.5,407.5C 52.5,402.833 52.5,398.167 52.5,393.5C 55.617,393.358 58.117,392.024 60,389.5C 60.3333,284.167 60.6667,178.833 61,73.5C 66.826,42.0066 85.326,22.5066 116.5,15C 225.167,14.3333 333.833,14.3333 442.5,15C 444.848,15.3459 446.681,16.5125 448,18.5C 452.046,25.9162 450.213,31.4162 442.5,35C 332.79,35.0082 223.124,35.6749 113.5,37C 88.8387,47.4864 78.6721,65.9864 83,92.5C 90.4885,114.156 105.655,125.49 128.5,126.5C 128.5,135.833 128.5,145.167 128.5,154.5 Z"/></g>
<g><path style="opacity:1" fill="#4e5054" d="M 123.5,50.5 C 225.001,49.1678 326.667,49.1678 428.5,50.5C 428.376,51.1067 428.043,51.44 427.5,51.5C 326.335,50.5006 225.001,50.1672 123.5,50.5 Z"/></g>
<g><path style="opacity:1" fill="#eaf2fd" d="M 123.5,50.5 C 225.001,50.1672 326.335,50.5006 427.5,51.5C 426.423,54.3071 425.423,57.1405 424.5,60C 347.167,60.3333 269.833,60.6667 192.5,61C 187.188,65.5724 187.188,70.2391 192.5,75C 268.833,75.5 345.166,75.6667 421.5,75.5C 421.5,79.1667 421.5,82.8333 421.5,86.5C 321.332,86.1672 221.332,86.5006 121.5,87.5C 114.875,91.9169 114.875,96.4169 121.5,101C 123.81,101.497 126.143,101.663 128.5,101.5C 128.5,104.5 128.5,107.5 128.5,110.5C 125.833,110.5 123.167,110.5 120.5,110.5C 101.326,103.826 93.8263,90.4923 98,70.5C 102.668,58.9194 111.168,52.2527 123.5,50.5 Z"/></g>
<g><path style="opacity:1" fill="#313336" d="M 421.5,75.5 C 422.483,79.2984 422.817,83.2984 422.5,87.5C 322.167,87.5 221.833,87.5 121.5,87.5C 221.332,86.5006 321.332,86.1672 421.5,86.5C 421.5,82.8333 421.5,79.1667 421.5,75.5 Z"/></g>
<g><path style="opacity:1" fill="#d84953" d="M 144.5,101.5 C 169.167,101.5 193.833,101.5 218.5,101.5C 218.5,112.167 218.5,122.833 218.5,133.5C 193.833,133.5 169.167,133.5 144.5,133.5C 144.5,122.833 144.5,112.167 144.5,101.5 Z"/></g>
<g><path style="opacity:1" fill="#e5ecf7" d="M 396.5,116.5 C 391.468,118.37 386.135,119.037 380.5,118.5C 380.556,115.439 379.222,113.272 376.5,112C 329.168,111.5 281.835,111.333 234.5,111.5C 234.5,108.167 234.5,104.833 234.5,101.5C 297.837,101.167 361.17,101.5 424.5,102.5C 425.5,105.167 426.5,107.833 427.5,110.5C 418.518,111.332 409.518,111.832 400.5,112C 398.249,112.748 396.916,114.248 396.5,116.5 Z"/></g>
<g><path style="opacity:1" fill="#8c9197" d="M 128.5,101.5 C 129.479,104.625 129.813,107.958 129.5,111.5C 126.287,111.81 123.287,111.477 120.5,110.5C 123.167,110.5 125.833,110.5 128.5,110.5C 128.5,107.5 128.5,104.5 128.5,101.5 Z"/></g>
<g><path style="opacity:1" fill="#ebc971" d="M 396.5,116.5 C 395.705,120.594 397.038,123.761 400.5,126C 414.833,126.333 429.167,126.667 443.5,127C 446.756,128.587 448.923,131.087 450,134.5C 450.833,252.667 450.666,370.667 449.5,488.5C 449.667,376.166 449.5,263.833 449,151.5C 447.581,152.46 446.081,153.293 444.5,154C 374.501,154.5 304.501,154.667 234.5,154.5C 234.5,145.167 234.5,135.833 234.5,126.5C 281.501,126.667 328.501,126.5 375.5,126C 379.007,124.67 380.673,122.17 380.5,118.5C 386.135,119.037 391.468,118.37 396.5,116.5 Z"/></g>
<g><path style="opacity:1" fill="#d9616c" d="M 144.5,101.5 C 144.5,112.167 144.5,122.833 144.5,133.5C 169.167,133.5 193.833,133.5 218.5,133.5C 219.151,149.868 218.485,165.868 216.5,181.5C 204.832,175.415 192.999,169.749 181,164.5C 168.541,170.647 156.041,176.647 143.5,182.5C 143.169,155.328 143.502,128.328 144.5,101.5 Z"/></g>
<g><path style="opacity:1" fill="#89393f" d="M 218.5,101.5 C 219.498,128.328 219.831,155.328 219.5,182.5C 218.209,182.737 217.209,182.404 216.5,181.5C 218.485,165.868 219.151,149.868 218.5,133.5C 218.5,122.833 218.5,112.167 218.5,101.5 Z"/></g>
<g><path style="opacity:1" fill="#f3dc86" d="M 449.5,488.5 C 448.724,492.443 446.391,494.943 442.5,496C 337.501,496.5 232.501,496.667 127.5,496.5C 127.167,382.332 127.5,268.332 128.5,154.5C 128.333,168.837 128.5,183.171 129,197.5C 131.072,202.143 134.572,203.643 139.5,202C 153.656,195.089 167.656,187.922 181.5,180.5C 196.122,188.644 211.122,195.978 226.5,202.5C 230.104,202.451 232.604,200.784 234,197.5C 234.5,183.171 234.667,168.837 234.5,154.5C 304.501,154.667 374.501,154.5 444.5,154C 446.081,153.293 447.581,152.46 449,151.5C 449.5,263.833 449.667,376.166 449.5,488.5 Z"/></g>
<g><path style="opacity:1" fill="#060606" d="M 174.5,217.5 C 253.167,217.333 331.834,217.5 410.5,218C 422.864,221.698 430.364,229.864 433,242.5C 433.667,300.833 433.667,359.167 433,417.5C 430.617,431.55 422.45,440.05 408.5,443C 330.5,443.667 252.5,443.667 174.5,443C 163.333,439.833 156.167,432.667 153,421.5C 152.333,361.167 152.333,300.833 153,240.5C 155.909,228.76 163.076,221.094 174.5,217.5 Z"/></g>
<g><path style="opacity:1" fill="#eaf2fd" d="M 176.5,232.5 C 253.501,232.333 330.501,232.5 407.5,233C 413,234.5 416.5,238 418,243.5C 418.667,301.5 418.667,359.5 418,417.5C 416.5,423 413,426.5 407.5,428C 330.5,428.667 253.5,428.667 176.5,428C 172.585,425.754 169.752,422.588 168,418.5C 167.333,359.5 167.333,300.5 168,241.5C 169.688,237.315 172.521,234.315 176.5,232.5 Z"/></g>
<g><path style="opacity:1" fill="#050506" d="M 196.5,248.5 C 198.989,248.298 201.323,248.798 203.5,250C 208.632,256.448 213.632,262.948 218.5,269.5C 223.368,262.948 228.368,256.448 233.5,250C 238.242,247.771 242.075,248.938 245,253.5C 245.706,255.971 245.373,258.305 244,260.5C 238.211,267.782 233.044,275.448 228.5,283.5C 234.159,292.808 240.326,301.808 247,310.5C 249.211,316.969 247.044,320.969 240.5,322.5C 239.062,322.281 237.729,321.781 236.5,321C 230.661,313 224.661,305.167 218.5,297.5C 212.339,305.167 206.339,313 200.5,321C 196.334,323.251 192.834,322.417 190,318.5C 189.21,315.366 189.543,312.366 191,309.5C 196.973,300.694 203.139,292.028 209.5,283.5C 203.805,275.637 198.305,267.637 193,259.5C 191.662,254.96 192.829,251.293 196.5,248.5 Z"/></g>
<g><path style="opacity:1" fill="#030303" d="M 294.5,273.5 C 326.502,273.333 358.502,273.5 390.5,274C 396.281,276.072 397.781,279.906 395,285.5C 394.097,286.701 392.931,287.535 391.5,288C 361.833,288.333 332.167,288.667 302.5,289C 289.474,328.411 276.641,367.911 264,407.5C 262.053,411.557 258.886,413.057 254.5,412C 251.894,410.062 250.061,407.562 249,404.5C 241.667,386.5 234.333,368.5 227,350.5C 216.577,349.679 206.077,349.179 195.5,349C 191.788,346.442 190.622,342.942 192,338.5C 192.5,336.667 193.667,335.5 195.5,335C 208.5,334.333 221.5,334.333 234.5,335C 236.378,336.543 237.878,338.376 239,340.5C 244.391,354.281 250.057,367.948 256,381.5C 267.787,347.368 279.12,313.035 290,278.5C 291.025,276.313 292.525,274.646 294.5,273.5 Z"/></g>
<g><path style="opacity:1" fill="#060607" d="M 310.5,332.5 C 312.857,332.337 315.19,332.503 317.5,333C 322.867,339.567 327.867,346.4 332.5,353.5C 337.121,346.438 342.121,339.605 347.5,333C 356.695,331.899 359.862,335.732 357,344.5C 351.667,352.5 346.333,360.5 341,368.5C 340.667,378.833 340.333,389.167 340,399.5C 336.077,406.423 331.41,407.09 326,401.5C 325.667,390.833 325.333,380.167 325,369.5C 318.752,360.672 312.752,351.672 307,342.5C 305.756,338.191 306.923,334.858 310.5,332.5 Z"/></g>
</svg>
