<?xml version="1.0" encoding="UTF-8"?>
<!DOCTYPE svg PUBLIC "-//W3C//DTD SVG 1.1//EN" "http://www.w3.org/Graphics/SVG/1.1/DTD/svg11.dtd">
<svg xmlns="http://www.w3.org/2000/svg" version="1.1" width="128px" height="128px" style="shape-rendering:geometricPrecision; text-rendering:geometricPrecision; image-rendering:optimizeQuality; fill-rule:evenodd; clip-rule:evenodd" xmlns:xlink="http://www.w3.org/1999/xlink">
<g><path style="opacity:1" fill="#1c1063" d="M 26.5,4.5 C 51.1689,4.33336 75.8356,4.50003 100.5,5C 105.598,6.43286 109.098,9.59953 111,14.5C 111.667,49.8333 111.667,85.1667 111,120.5C 107.181,123.072 103.348,122.905 99.5,120C 87.6682,112.25 75.6682,104.75 63.5,97.5C 50.2987,105.865 36.9653,114.032 23.5,122C 20.6529,122.944 18.1529,122.444 16,120.5C 15.3333,85.1667 15.3333,49.8333 16,14.5C 18.1059,9.55732 21.6059,6.22399 26.5,4.5 Z M 31.5,15.5 C 52.8359,15.3334 74.1693,15.5 95.5,16C 96.7659,16.3095 97.9326,16.8095 99,17.5C 100.152,32.4104 100.652,47.4104 100.5,62.5C 100.167,76.8333 99.8333,91.1667 99.5,105.5C 89.1667,99 78.8333,92.5 68.5,86C 65.1667,84 61.8333,84 58.5,86C 48.1667,92.5 37.8333,99 27.5,105.5C 26.3335,76.8391 26.1668,48.1725 27,19.5C 27.9066,17.3909 29.4066,16.0576 31.5,15.5 Z"/></g>
</svg>
