<?xml version="1.0" encoding="UTF-8"?>
<!DOCTYPE svg PUBLIC "-//W3C//DTD SVG 1.1//EN" "http://www.w3.org/Graphics/SVG/1.1/DTD/svg11.dtd">
<svg xmlns="http://www.w3.org/2000/svg" version="1.1" width="128px" height="128px" style="shape-rendering:geometricPrecision; text-rendering:geometricPrecision; image-rendering:optimizeQuality; fill-rule:evenodd; clip-rule:evenodd" xmlns:xlink="http://www.w3.org/1999/xlink">
<g><path style="opacity:0.843" fill="#fefffe" d="M 102.5,11.5 C 104.527,11.3379 106.527,11.5045 108.5,12C 113.3,16.1217 117.3,20.7884 120.5,26C 117.385,32.9489 112.385,38.1156 105.5,41.5C 100.195,38.1474 100.195,34.6474 105.5,31C 88.1667,30.6667 70.8333,30.3333 53.5,30C 50.8333,27.3333 50.8333,24.6667 53.5,22C 70.8333,21.6667 88.1667,21.3333 105.5,21C 101.634,18.6937 100.634,15.5271 102.5,11.5 Z"/></g>
<g><path style="opacity:0.799" fill="#fefffe" d="M 8.5,21.5 C 12.1817,21.3347 15.8484,21.5014 19.5,22C 23.4319,24.7127 23.4319,27.3794 19.5,30C 15.8333,30.6667 12.1667,30.6667 8.5,30C 5.8987,27.1705 5.8987,24.3371 8.5,21.5 Z"/></g>
<g><path style="opacity:0.774" fill="#fefffe" d="M 31.5,21.5 C 35.6372,21.1463 39.6372,21.6463 43.5,23C 45.4093,28.7677 43.2427,31.2677 37,30.5C 34.3701,30.536 31.8701,30.036 29.5,29C 27.8397,25.7773 28.5064,23.2773 31.5,21.5 Z"/></g>
<g><path style="opacity:0.937" fill="#fefffe" d="M 127.5,55.5 C 127.5,72.8333 127.5,90.1667 127.5,107.5C 125.688,110.81 123.021,113.31 119.5,115C 82.1667,115.667 44.8333,115.667 7.5,115C 3.97911,113.31 1.31244,110.81 -0.5,107.5C -0.5,90.1667 -0.5,72.8333 -0.5,55.5C 1.72286,52.1141 4.72286,49.6141 8.5,48C 45.1667,47.3333 81.8333,47.3333 118.5,48C 122.277,49.6141 125.277,52.1141 127.5,55.5 Z M 11.5,55.5 C 27.5,55.5 43.5,55.5 59.5,55.5C 59.5,72.8333 59.5,90.1667 59.5,107.5C 43.1633,107.667 26.8299,107.5 10.5,107C 9.66667,106.167 8.83333,105.333 8,104.5C 7.33333,89.5 7.33333,74.5 8,59.5C 8.68972,57.6498 9.85639,56.3164 11.5,55.5 Z M 67.5,55.5 C 84.2616,55.0291 100.928,55.5291 117.5,57C 118.126,57.7504 118.626,58.5838 119,59.5C 119.667,74.5 119.667,89.5 119,104.5C 118.167,105.333 117.333,106.167 116.5,107C 100.17,107.5 83.8367,107.667 67.5,107.5C 67.5,90.1667 67.5,72.8333 67.5,55.5 Z M 100.5,73.5 C 105.241,78.1561 105.574,83.1561 101.5,88.5C 96.9397,93.1477 91.9397,93.6477 86.5,90C 85.1667,89.3333 85.1667,88.6667 86.5,88C 94.0603,85.94 98.727,81.1067 100.5,73.5 Z M 31.5,78.5 C 35.485,78.6294 36.8183,80.4628 35.5,84C 30.7282,84.8104 29.3948,82.9771 31.5,78.5 Z"/></g>
<g><path style="opacity:0.78" fill="#fefffe" d="M 31.5,57.5 C 37.7577,58.4774 39.0911,61.6441 35.5,67C 33.5594,67.7429 31.7261,67.5762 30,66.5C 29.068,63.1769 29.568,60.1769 31.5,57.5 Z"/></g>
<g><path style="opacity:0.874" fill="#fefffe" d="M 93.5,62.5 C 108.371,64.2042 114.538,72.5375 112,87.5C 107.517,98.6101 99.3501,102.777 87.5,100C 78.3758,96.7272 74.3758,90.3939 75.5,81C 84.6027,82.042 90.2694,78.2087 92.5,69.5C 91.7052,67.1451 92.0385,64.8118 93.5,62.5 Z M 100.5,73.5 C 98.727,81.1067 94.0603,85.94 86.5,88C 85.1667,88.6667 85.1667,89.3333 86.5,90C 91.9397,93.6477 96.9397,93.1477 101.5,88.5C 105.574,83.1561 105.241,78.1561 100.5,73.5 Z"/></g>
<g><path style="opacity:0.791" fill="#fefffe" d="M 17.5,63.5 C 23.2919,63.7787 25.2919,66.612 23.5,72C 15.749,73.0913 13.749,70.258 17.5,63.5 Z"/></g>
<g><path style="opacity:0.769" fill="#fefffe" d="M 45.5,63.5 C 51.6426,64.0262 52.9759,66.8595 49.5,72C 43.3333,73.8333 41.1667,71.6667 43,65.5C 43.9947,64.9341 44.828,64.2674 45.5,63.5 Z"/></g>
<g><path style="opacity:0.861" fill="#fefffe" d="M 32.5,69.5 C 43.8544,71.5444 47.3544,77.8777 43,88.5C 35.987,95.3321 29.3203,94.9987 23,87.5C 19.6732,77.9424 22.8399,71.9424 32.5,69.5 Z M 31.5,78.5 C 29.3948,82.9771 30.7282,84.8104 35.5,84C 36.8183,80.4628 35.485,78.6294 31.5,78.5 Z"/></g>
<g><path style="opacity:0.781" fill="#fefffe" d="M 11.5,77.5 C 16.9933,76.178 19.4933,78.178 19,83.5C 16.4449,85.6496 13.6116,85.9829 10.5,84.5C 9.07301,81.8845 9.40634,79.5511 11.5,77.5 Z"/></g>
<g><path style="opacity:0.781" fill="#fefffe" d="M 49.5,77.5 C 54.9515,76.1325 57.4515,78.1325 57,83.5C 54.5027,85.4782 51.6693,85.9782 48.5,85C 47.0825,82.2565 47.4159,79.7565 49.5,77.5 Z"/></g>
<g><path style="opacity:0.737" fill="#fefffe" d="M 17.5,90.5 C 24.6758,89.9846 26.3425,92.8179 22.5,99C 15.2372,99.8209 13.5705,96.9876 17.5,90.5 Z"/></g>
<g><path style="opacity:0.792" fill="#fefffe" d="M 43.5,90.5 C 48.8351,90.005 51.3351,92.3384 51,97.5C 48.3333,100.167 45.6667,100.167 43,97.5C 42.2967,95.0709 42.4634,92.7375 43.5,90.5 Z"/></g>
<g><path style="opacity:0.781" fill="#fefffe" d="M 31.5,95.5 C 36.9885,95.504 38.8219,98.1707 37,103.5C 33.1473,106.58 30.6473,105.747 29.5,101C 29.3948,98.8218 30.0615,96.9885 31.5,95.5 Z"/></g>
</svg>
