<svg xmlns="http://www.w3.org/2000/svg" xmlns:xlink="http://www.w3.org/1999/xlink" width="2000" zoomAndPan="magnify" viewBox="0 0 1500 1124.99995" height="1500" preserveAspectRatio="xMidYMid meet" version="1.0"><defs><clipPath id="2e104afbc9"><path d="M 196.109375 0 L 1321.109375 0 L 1321.109375 1125 L 196.109375 1125 Z M 196.109375 0 " clip-rule="nonzero"/></clipPath></defs><g clip-path="url(#2e104afbc9)"><path fill="#ffffff" d="M 758.609375 0 C 448.460938 0 196.109375 252.351562 196.109375 562.5 C 196.109375 872.648438 448.460938 1125 758.609375 1125 C 1068.757812 1125 1321.109375 872.648438 1321.109375 562.5 C 1321.109375 252.351562 1068.757812 0 758.609375 0 Z M 442.695312 939.410156 C 447.933594 769.5 587.433594 632.8125 758.609375 632.8125 C 929.785156 632.8125 1069.285156 769.5 1074.523438 939.410156 C 988.953125 1011.234375 878.808594 1054.6875 758.609375 1054.6875 C 638.410156 1054.6875 528.265625 1011.234375 442.695312 939.410156 Z M 582.828125 386.71875 C 582.828125 289.792969 661.683594 210.9375 758.609375 210.9375 C 855.535156 210.9375 934.390625 289.792969 934.390625 386.71875 C 934.390625 483.644531 855.535156 562.5 758.609375 562.5 C 661.683594 562.5 582.828125 483.644531 582.828125 386.71875 Z M 1138.085938 875.566406 C 1112.632812 744.152344 1020.453125 636.574219 898.355469 589.007812 C 962.515625 544.570312 1004.703125 470.496094 1004.703125 386.71875 C 1004.703125 251.050781 894.277344 140.625 758.609375 140.625 C 622.941406 140.625 512.515625 251.050781 512.515625 386.71875 C 512.515625 470.496094 554.703125 544.570312 618.863281 589.042969 C 496.765625 636.609375 404.585938 744.1875 379.097656 875.601562 C 308.75 790.453125 266.421875 681.328125 266.421875 562.5 C 266.421875 291.09375 487.203125 70.3125 758.609375 70.3125 C 1030.015625 70.3125 1250.796875 291.09375 1250.796875 562.5 C 1250.796875 681.328125 1208.46875 790.453125 1138.085938 875.566406 Z M 1138.085938 875.566406 " fill-opacity="1" fill-rule="nonzero"/></g></svg>