<?xml version="1.0" encoding="UTF-8"?>
<!DOCTYPE svg PUBLIC "-//W3C//DTD SVG 1.1//EN" "http://www.w3.org/Graphics/SVG/1.1/DTD/svg11.dtd">
<svg xmlns="http://www.w3.org/2000/svg" version="1.1" width="512px" height="512px" style="shape-rendering:geometricPrecision; text-rendering:geometricPrecision; image-rendering:optimizeQuality; fill-rule:evenodd; clip-rule:evenodd" xmlns:xlink="http://www.w3.org/1999/xlink">
<g><path style="opacity:0.997" fill="#5046af" d="M 232.5,-0.5 C 247.833,-0.5 263.167,-0.5 278.5,-0.5C 368.144,10.3879 435.644,54.7213 481,132.5C 497.695,163.971 507.861,197.304 511.5,232.5C 511.5,247.833 511.5,263.167 511.5,278.5C 500.612,368.144 456.279,435.644 378.5,481C 347.029,497.695 313.696,507.861 278.5,511.5C 263.167,511.5 247.833,511.5 232.5,511.5C 142.856,500.612 75.3562,456.279 30,378.5C 13.3053,347.029 3.1386,313.696 -0.5,278.5C -0.5,263.167 -0.5,247.833 -0.5,232.5C 10.3875,142.857 54.7208,75.3573 132.5,30C 163.971,13.3053 197.304,3.1386 232.5,-0.5 Z"/></g>
<g><path style="opacity:1" fill="#fefefe" d="M 372.5,152.5 C 372.833,229.335 372.499,306.002 371.5,382.5C 351.564,365.739 331.731,348.739 312,331.5C 313.703,338.792 315.536,346.126 317.5,353.5C 264.499,353.667 211.499,353.5 158.5,353C 148.226,349.727 141.726,342.894 139,332.5C 138.333,270.833 138.333,209.167 139,147.5C 142.167,137.667 148.667,131.167 158.5,128C 221.833,127.333 285.167,127.333 348.5,128C 362.078,130.744 370.078,138.911 372.5,152.5 Z"/></g>
<g><path style="opacity:1" fill="#8780c8" d="M 372.5,152.5 C 373.832,229.334 373.832,306.334 372.5,383.5C 371.893,383.376 371.56,383.043 371.5,382.5C 372.499,306.002 372.833,229.335 372.5,152.5 Z"/></g>
<g><path style="opacity:1" fill="#5147af" d="M 224.5,188.5 C 228.182,188.335 231.848,188.501 235.5,189C 224.522,192.324 214.189,196.99 204.5,203C 203.304,203.654 203.304,204.154 204.5,204.5C 237.811,189.835 271.144,189.835 304.5,204.5C 304.833,204.333 305.167,204.167 305.5,204C 296.938,198.053 287.605,193.72 277.5,191C 276.167,190.333 276.167,189.667 277.5,189C 290.265,189.032 301.932,192.699 312.5,200C 327.359,223.3 334.526,248.8 334,276.5C 322.617,289.109 308.45,294.942 291.5,294C 289.167,291 286.833,288 284.5,285C 292.816,281.844 300.149,277.177 306.5,271C 272.535,289.064 238.535,288.897 204.5,270.5C 204.167,270.667 203.833,270.833 203.5,271C 209.906,277.239 217.239,282.072 225.5,285.5C 223.36,288.807 221.026,291.974 218.5,295C 201.913,296.143 188.413,290.31 178,277.5C 177.831,250.326 184.331,224.826 197.5,201C 205.82,195.17 214.82,191.004 224.5,188.5 Z"/></g>
<g><path style="opacity:1" fill="#fcfcfd" d="M 225.5,235.5 C 237.974,234.478 244.141,240.145 244,252.5C 239.861,262.986 232.695,265.819 222.5,261C 213.805,251.367 214.805,242.867 225.5,235.5 Z"/></g>
<g><path style="opacity:1" fill="#fbfafd" d="M 274.5,235.5 C 289.772,234.731 295.606,241.731 292,256.5C 288.061,262.373 282.561,264.54 275.5,263C 262.524,254.304 262.19,245.137 274.5,235.5 Z"/></g>
</svg>
