<?xml version="1.0" encoding="UTF-8"?>
<!DOCTYPE svg PUBLIC "-//W3C//DTD SVG 1.1//EN" "http://www.w3.org/Graphics/SVG/1.1/DTD/svg11.dtd">
<svg xmlns="http://www.w3.org/2000/svg" version="1.1" width="1505px" height="1500px" style="shape-rendering:geometricPrecision; text-rendering:geometricPrecision; image-rendering:optimizeQuality; fill-rule:evenodd; clip-rule:evenodd" xmlns:xlink="http://www.w3.org/1999/xlink">
<g><path style="opacity:0.441" fill="#ecf1ed" d="M 700.5,-0.5 C 708.833,-0.5 717.167,-0.5 725.5,-0.5C 715.01,0.559728 704.344,1.22639 693.5,1.5C 695.833,0.833333 698.167,0.166667 700.5,-0.5 Z"/></g>
<g><path style="opacity:0.342" fill="#ccdacf" d="M 761.5,-0.5 C 775.167,-0.5 788.833,-0.5 802.5,-0.5C 805.997,0.402473 809.663,1.06914 813.5,1.5C 813.5,1.83333 813.5,2.16667 813.5,2.5C 796.028,1.2497 778.695,0.249697 761.5,-0.5 Z"/></g>
<g><path style="opacity:0.998" fill="#004710" d="M 725.5,-0.5 C 737.5,-0.5 749.5,-0.5 761.5,-0.5C 778.695,0.249697 796.028,1.2497 813.5,2.5C 920.157,11.578 1020.49,41.578 1114.5,92.5C 1278.04,185.862 1392.71,320.862 1458.5,497.5C 1471.6,536.979 1482.27,576.979 1490.5,617.5C 1521.63,811.508 1485.13,991.508 1381,1157.5C 1271.98,1321.34 1121.81,1428.17 930.5,1478C 875.38,1490.7 819.714,1497.86 763.5,1499.5C 750.167,1499.5 736.833,1499.5 723.5,1499.5C 519.431,1488.37 346.598,1409.7 205,1263.5C 71.6475,1117.72 3.81421,945.388 1.5,746.5C 5.05736,549.887 72.8907,379.554 205,235.5C 337.376,98.2351 498.876,20.2351 689.5,1.5C 690.833,1.5 692.167,1.5 693.5,1.5C 704.344,1.22639 715.01,0.559728 725.5,-0.5 Z"/></g>
<g><path style="opacity:0.075" fill="#edf2ee" d="M 813.5,2.5 C 813.5,2.16667 813.5,1.83333 813.5,1.5C 826.515,1.57211 839.515,2.07211 852.5,3C 859.73,3.94864 866.73,5.6153 873.5,8C 881.209,8.67362 888.875,9.67362 896.5,11C 898.044,11.2896 899.377,11.9563 900.5,13C 910.721,13.8574 920.721,15.5241 930.5,18C 931.167,18.6667 931.833,19.3333 932.5,20C 940.646,20.6249 948.313,22.6249 955.5,26C 967.353,28.1712 979.019,31.1712 990.5,35C 996.599,38.7184 1003.27,41.0517 1010.5,42C 1016.46,45.2499 1022.8,47.7499 1029.5,49.5C 1033.71,52.2315 1038.37,54.0649 1043.5,55C 1048.11,58.9121 1053.44,61.2454 1059.5,62C 1060.36,62.6891 1061.02,63.5224 1061.5,64.5C 1067.41,65.9492 1072.75,68.4492 1077.5,72C 1083.6,72.9493 1088.93,75.4493 1093.5,79.5C 1100.41,82.4288 1107.08,85.7621 1113.5,89.5C 1114.39,90.325 1114.72,91.325 1114.5,92.5C 1020.49,41.578 920.157,11.578 813.5,2.5 Z"/></g>
<g><path style="opacity:0.089" fill="#f5f7f5" d="M 1114.5,92.5 C 1117.95,92.8143 1121.28,93.6476 1124.5,95C 1129.7,97.5279 1134.37,100.861 1138.5,105C 1140.61,105.36 1142.61,106.027 1144.5,107C 1149.29,110.583 1154.12,114.083 1159,117.5C 1164.27,120.217 1169.44,123.051 1174.5,126C 1177.67,129.412 1181.34,132.078 1185.5,134C 1186.34,135.011 1186.67,136.178 1186.5,137.5C 1190.15,138.316 1193.48,139.816 1196.5,142C 1211.69,154.129 1227.02,166.129 1242.5,178C 1247.56,183.696 1253.23,188.696 1259.5,193C 1261.04,194.11 1261.7,195.61 1261.5,197.5C 1262.55,197.351 1263.55,197.517 1264.5,198C 1266.85,200.677 1269.51,203.01 1272.5,205C 1275.04,208.708 1278.21,211.875 1282,214.5C 1282.48,215.448 1282.65,216.448 1282.5,217.5C 1283.55,217.351 1284.55,217.517 1285.5,218C 1296.28,229.447 1307.11,240.947 1318,252.5C 1318.49,253.793 1318.66,255.127 1318.5,256.5C 1321.91,256.384 1323.24,258.05 1322.5,261.5C 1323.55,261.351 1324.55,261.517 1325.5,262C 1330.36,267.525 1335.2,273.025 1340,278.5C 1343.98,284.472 1348.31,290.139 1353,295.5C 1354.13,297.345 1354.63,299.345 1354.5,301.5C 1356.39,301.297 1357.89,301.963 1359,303.5C 1367.83,315.168 1375.66,327.501 1382.5,340.5C 1383.5,340.5 1384.5,340.5 1385.5,340.5C 1387.47,344.678 1389.14,349.012 1390.5,353.5C 1391.5,353.5 1392.5,353.5 1393.5,353.5C 1393.34,354.873 1393.51,356.207 1394,357.5C 1402.62,368.819 1409.62,381.153 1415,394.5C 1416.16,394.998 1416.99,395.831 1417.5,397C 1417.94,400.491 1419.27,403.491 1421.5,406C 1422.08,408.137 1422.41,410.304 1422.5,412.5C 1424.59,412.561 1426.09,413.561 1427,415.5C 1434.39,430.991 1441.05,446.991 1447,463.5C 1449.12,467.16 1451.12,470.827 1453,474.5C 1454.11,478.086 1454.61,481.753 1454.5,485.5C 1455.5,485.5 1456.5,485.5 1457.5,485.5C 1458.02,489.481 1458.35,493.481 1458.5,497.5C 1392.71,320.862 1278.04,185.862 1114.5,92.5 Z"/></g>
<g><path style="opacity:1" fill="#7dd856" d="M 722.5,303.5 C 872.642,298.349 996.809,352.016 1095,464.5C 1191.86,587.476 1219.86,724.81 1179,876.5C 1143.06,992.271 1072.56,1080.1 967.5,1140C 856.387,1198.99 740.387,1210.99 619.5,1176C 487.814,1132.32 394.314,1046.82 339,919.5C 287.596,787.452 294.929,658.785 361,533.5C 429.102,415.989 529.602,342.156 662.5,312C 682.6,308.823 702.6,305.99 722.5,303.5 Z"/></g>
<g><path style="opacity:0.087" fill="#f5f8f6" d="M 1458.5,497.5 C 1459.5,497.5 1460.5,497.5 1461.5,497.5C 1463.36,503.574 1465.52,509.574 1468,515.5C 1468.45,518.84 1468.95,522.174 1469.5,525.5C 1469.7,527.286 1470.53,528.619 1472,529.5C 1476.42,544.875 1480.26,560.542 1483.5,576.5C 1484.09,576.709 1484.59,577.043 1485,577.5C 1486.01,583.796 1486.51,590.129 1486.5,596.5C 1487.5,596.5 1488.5,596.5 1489.5,596.5C 1490,603.49 1490.33,610.49 1490.5,617.5C 1482.27,576.979 1471.6,536.979 1458.5,497.5 Z"/></g>
<g><path style="opacity:0.063" fill="#f2f6f3" d="M 689.5,1.5 C 498.876,20.2351 337.376,98.2351 205,235.5C 72.8907,379.554 5.05736,549.887 1.5,746.5C 3.81421,945.388 71.6475,1117.72 205,1263.5C 346.598,1409.7 519.431,1488.37 723.5,1499.5C 708.5,1499.5 693.5,1499.5 678.5,1499.5C 677.391,1498.71 676.058,1498.21 674.5,1498C 665.859,1497.02 657.192,1496.35 648.5,1496C 641.27,1495.05 634.27,1493.38 627.5,1491C 612.663,1489.5 597.996,1487.17 583.5,1484C 560.206,1477.55 536.873,1470.88 513.5,1464C 502.252,1460.11 491.252,1455.78 480.5,1451C 477.832,1450.43 475.166,1449.93 472.5,1449.5C 472.5,1448.5 472.5,1447.5 472.5,1446.5C 468.447,1445.99 464.447,1445.15 460.5,1444C 440.94,1435.28 421.607,1426.28 402.5,1417C 398.665,1413.93 394.332,1411.59 389.5,1410C 388.167,1408.67 386.833,1407.33 385.5,1406C 378.754,1403.76 372.421,1400.76 366.5,1397C 364.739,1394.06 362.072,1392.39 358.5,1392C 356.02,1390.52 353.853,1388.69 352,1386.5C 346.417,1382.96 340.584,1379.79 334.5,1377C 329.701,1372.02 324.034,1368.02 317.5,1365C 313.327,1361.66 309.327,1358.16 305.5,1354.5C 303.885,1353.85 302.218,1353.35 300.5,1353C 291.579,1345.2 282.245,1337.86 272.5,1331C 266.287,1324.14 259.287,1318.14 251.5,1313C 245.615,1306.74 239.615,1300.57 233.5,1294.5C 230.763,1292.73 228.096,1291.06 225.5,1289.5C 225.649,1288.45 225.483,1287.45 225,1286.5C 215.686,1278.19 206.686,1269.52 198,1260.5C 184.954,1245.95 172.454,1230.95 160.5,1215.5C 159.675,1214.61 158.675,1214.28 157.5,1214.5C 157.643,1212.74 157.309,1211.07 156.5,1209.5C 151.762,1204.35 147.262,1199.02 143,1193.5C 138.885,1186.72 134.385,1180.22 129.5,1174C 128.852,1172.56 128.519,1171.06 128.5,1169.5C 127.325,1169.72 126.325,1169.39 125.5,1168.5C 122.431,1163.37 119.098,1158.37 115.5,1153.5C 113.945,1151.06 113.278,1148.39 113.5,1145.5C 112.5,1145.5 111.5,1145.5 110.5,1145.5C 110.649,1144.45 110.483,1143.45 110,1142.5C 102.841,1132.51 97.0073,1121.84 92.5,1110.5C 91.5,1110.5 90.5,1110.5 89.5,1110.5C 89.4249,1107.79 89.0916,1105.13 88.5,1102.5C 87.5,1102.5 86.5,1102.5 85.5,1102.5C 85.7852,1100.71 85.4519,1099.05 84.5,1097.5C 80.7286,1092.55 77.5619,1087.22 75,1081.5C 69.9323,1069.93 65.099,1058.27 60.5,1046.5C 57.1818,1042.87 55.8485,1038.54 56.5,1033.5C 55.5,1033.5 54.5,1033.5 53.5,1033.5C 53.6602,1031.8 53.4935,1030.13 53,1028.5C 48.8083,1021.13 45.475,1013.46 43,1005.5C 37.6593,987.63 31.9927,969.963 26,952.5C 24.3477,941.655 22.1811,930.988 19.5,920.5C 18.914,920.291 18.414,919.957 18,919.5C 17.9214,915.844 16.9214,912.51 15,909.5C 13.7247,896.706 11.8914,884.206 9.5,872C 9.48643,869.399 8.6531,867.232 7,865.5C 2.82576,832.131 0.325756,798.798 -0.5,765.5C -0.5,748.5 -0.5,731.5 -0.5,714.5C 1.3562,688.27 3.8562,661.937 7,635.5C 7.41395,635.043 7.91395,634.709 8.5,634.5C 9.3995,626.508 10.2328,618.508 11,610.5C 11.414,610.043 11.914,609.709 12.5,609.5C 13.5244,598.607 15.1911,587.94 17.5,577.5C 18.5,577.5 19.5,577.5 20.5,577.5C 21.8045,566.394 23.4711,555.394 25.5,544.5C 26.5,544.5 27.5,544.5 28.5,544.5C 29.011,539.46 29.8443,534.46 31,529.5C 34.6512,519.216 38.3178,508.883 42,498.5C 42.4955,496.527 42.6621,494.527 42.5,492.5C 43.5,492.5 44.5,492.5 45.5,492.5C 45.8981,484.412 48.3981,477.078 53,470.5C 53.4935,468.866 53.6602,467.199 53.5,465.5C 54.5,465.5 55.5,465.5 56.5,465.5C 57.042,459.439 58.542,453.772 61,448.5C 61.3678,447.09 62.2011,446.09 63.5,445.5C 66.5207,437.722 69.6874,430.056 73,422.5C 76.6616,419.023 78.6616,414.69 79,409.5C 81.1067,406.993 82.94,404.326 84.5,401.5C 85.4519,399.955 85.7852,398.288 85.5,396.5C 86.5,396.5 87.5,396.5 88.5,396.5C 89.0916,393.873 89.4249,391.206 89.5,388.5C 90.5,388.5 91.5,388.5 92.5,388.5C 92.9926,386.194 93.3259,383.861 93.5,381.5C 94.5,381.5 95.5,381.5 96.5,381.5C 99.895,372.596 104.395,364.262 110,356.5C 114.577,347.546 119.744,338.879 125.5,330.5C 126.325,329.614 127.325,329.281 128.5,329.5C 128.687,327.436 129.187,325.436 130,323.5C 137.42,314.089 144.42,304.422 151,294.5C 152.684,292.649 154.517,290.982 156.5,289.5C 157.309,287.929 157.643,286.262 157.5,284.5C 158.675,284.719 159.675,284.386 160.5,283.5C 167.964,274.05 175.464,264.717 183,255.5C 190.39,247.448 197.723,239.448 205,231.5C 211.38,224.784 218.047,218.451 225,212.5C 225.483,211.552 225.649,210.552 225.5,209.5C 228.096,207.941 230.763,206.274 233.5,204.5C 239.615,198.43 245.615,192.263 251.5,186C 255.45,184.044 258.784,181.377 261.5,178C 262.448,177.517 263.448,177.351 264.5,177.5C 264.238,176.022 264.571,174.689 265.5,173.5C 277.063,164.894 288.397,156.061 299.5,147C 321.816,132.025 344.149,117.025 366.5,102C 368.218,101.654 369.885,101.154 371.5,100.5C 377.331,96.4171 383.331,92.5838 389.5,89C 394.332,87.4052 398.665,85.0719 402.5,82C 406.036,81.119 409.37,79.7857 412.5,78C 413.5,77 414.5,76 415.5,75C 432.946,66.2834 450.946,58.6168 469.5,52C 470.167,51.3333 470.833,50.6667 471.5,50C 506.007,37.5878 541.007,26.5878 576.5,17C 584.653,15.1028 592.986,13.7695 601.5,13C 602.328,12.0853 603.328,11.4186 604.5,11C 615.573,9.13336 626.573,7.46669 637.5,6C 640.911,5.09139 644.245,4.09139 647.5,3C 661.484,2.00068 675.484,1.50068 689.5,1.5 Z"/></g>
<g><path style="opacity:0.084" fill="#f1f5f2" d="M 1490.5,617.5 C 1491.5,617.5 1492.5,617.5 1493.5,617.5C 1495.62,628.861 1496.95,640.361 1497.5,652C 1497.62,654.786 1498.45,657.286 1500,659.5C 1500.55,676.182 1501.39,692.849 1502.5,709.5C 1503.18,710.243 1503.85,710.909 1504.5,711.5C 1504.5,737.5 1504.5,763.5 1504.5,789.5C 1503.85,789.804 1503.18,790.137 1502.5,790.5C 1501.31,807.481 1500.48,824.481 1500,841.5C 1498.37,843.059 1497.54,845.059 1497.5,847.5C 1497.35,858.492 1495.69,869.158 1492.5,879.5C 1491.91,879.709 1491.41,880.043 1491,880.5C 1490.37,887.829 1489.87,895.163 1489.5,902.5C 1488.5,902.5 1487.5,902.5 1486.5,902.5C 1486.51,908.871 1486.01,915.204 1485,921.5C 1484.59,921.957 1484.09,922.291 1483.5,922.5C 1480.29,935.833 1477.12,949.166 1474,962.5C 1470.25,975.647 1466.09,988.647 1461.5,1001.5C 1460.5,1001.5 1459.5,1001.5 1458.5,1001.5C 1457.98,1005.48 1457.65,1009.48 1457.5,1013.5C 1456.5,1013.5 1455.5,1013.5 1454.5,1013.5C 1454.61,1017.25 1454.11,1020.91 1453,1024.5C 1446.69,1037.45 1441.02,1050.78 1436,1064.5C 1434.23,1067.54 1432.39,1070.54 1430.5,1073.5C 1429.07,1078.01 1427.41,1082.34 1425.5,1086.5C 1424.5,1086.5 1423.5,1086.5 1422.5,1086.5C 1423.12,1090.55 1421.95,1093.88 1419,1096.5C 1413.43,1109.21 1407.09,1121.54 1400,1133.5C 1398,1136.11 1396,1138.78 1394,1141.5C 1393.52,1142.45 1393.35,1143.45 1393.5,1144.5C 1392.5,1144.5 1391.5,1144.5 1390.5,1144.5C 1390.17,1146.5 1389.83,1148.5 1389.5,1150.5C 1388.5,1150.5 1387.5,1150.5 1386.5,1150.5C 1386.33,1152.86 1385.99,1155.19 1385.5,1157.5C 1384.5,1157.5 1383.5,1157.5 1382.5,1157.5C 1382.79,1159.29 1382.45,1160.95 1381.5,1162.5C 1373.7,1174.47 1365.7,1186.14 1357.5,1197.5C 1356.5,1197.5 1355.5,1197.5 1354.5,1197.5C 1354.63,1199.65 1354.13,1201.65 1353,1203.5C 1343.84,1214.66 1334.68,1225.82 1325.5,1237C 1324.55,1237.48 1323.55,1237.65 1322.5,1237.5C 1323.24,1240.95 1321.91,1242.62 1318.5,1242.5C 1318.81,1246.19 1317.15,1248.53 1313.5,1249.5C 1308.54,1256.62 1303.04,1263.29 1297,1269.5C 1294.98,1271.36 1292.81,1273.02 1290.5,1274.5C 1289.35,1277.07 1287.68,1279.24 1285.5,1281C 1284.55,1281.48 1283.55,1281.65 1282.5,1281.5C 1282.7,1283.39 1282.04,1284.89 1280.5,1286C 1270.78,1294.39 1261.45,1303.06 1252.5,1312C 1246.4,1315.73 1241.07,1320.39 1236.5,1326C 1222.55,1336.19 1208.89,1346.86 1195.5,1358C 1192.72,1359.72 1189.72,1360.89 1186.5,1361.5C 1186.67,1362.82 1186.34,1363.99 1185.5,1365C 1181.34,1366.92 1177.67,1369.59 1174.5,1373C 1169.44,1375.95 1164.27,1378.78 1159,1381.5C 1154.12,1384.92 1149.29,1388.42 1144.5,1392C 1140.21,1392.48 1136.88,1394.48 1134.5,1398C 1130.63,1399.01 1127.3,1401.01 1124.5,1404C 1121.28,1405.35 1117.95,1406.19 1114.5,1406.5C 1114.26,1408.97 1112.93,1410.64 1110.5,1411.5C 1097.96,1416.94 1085.96,1423.1 1074.5,1430C 1070.31,1431.79 1065.98,1433.29 1061.5,1434.5C 1061.02,1435.48 1060.36,1436.31 1059.5,1437C 1053.41,1437.77 1048.07,1440.1 1043.5,1444C 1039.24,1445.29 1034.91,1446.29 1030.5,1447C 1029.83,1448.33 1028.83,1449.33 1027.5,1450C 1021.46,1451.58 1015.8,1453.92 1010.5,1457C 1004.96,1457.3 999.962,1458.96 995.5,1462C 982.539,1465.99 969.539,1469.66 956.5,1473C 948.943,1476.47 940.943,1478.47 932.5,1479C 931.833,1479.67 931.167,1480.33 930.5,1481C 920.621,1483.39 910.621,1485.06 900.5,1486C 898.51,1487.75 896.177,1488.75 893.5,1489C 873.718,1491.25 854.051,1493.92 834.5,1497C 831.621,1497.55 828.954,1498.38 826.5,1499.5C 823.167,1499.5 819.833,1499.5 816.5,1499.5C 814.167,1498.17 811.833,1498.17 809.5,1499.5C 794.167,1499.5 778.833,1499.5 763.5,1499.5C 819.714,1497.86 875.38,1490.7 930.5,1478C 1121.81,1428.17 1271.98,1321.34 1381,1157.5C 1485.13,991.508 1521.63,811.508 1490.5,617.5 Z"/></g>
</svg>
