<?xml version="1.0" encoding="UTF-8"?>
<!DOCTYPE svg PUBLIC "-//W3C//DTD SVG 1.1//EN" "http://www.w3.org/Graphics/SVG/1.1/DTD/svg11.dtd">
<svg xmlns="http://www.w3.org/2000/svg" version="1.1" width="512px" height="512px" style="shape-rendering:geometricPrecision; text-rendering:geometricPrecision; image-rendering:optimizeQuality; fill-rule:evenodd; clip-rule:evenodd" xmlns:xlink="http://www.w3.org/1999/xlink">
<g><path style="opacity:0.994" fill="#010100" d="M 95.5,-0.5 C 202.167,-0.5 308.833,-0.5 415.5,-0.5C 420.564,2.0678 424.064,6.0678 426,11.5C 426.333,51.5 426.667,91.5 427,131.5C 452.254,148.877 477.421,166.377 502.5,184C 506.571,187.882 509.571,192.382 511.5,197.5C 511.5,293.5 511.5,389.5 511.5,485.5C 507.167,498.5 498.5,507.167 485.5,511.5C 332.167,511.5 178.833,511.5 25.5,511.5C 12.5,507.167 3.83333,498.5 -0.5,485.5C -0.5,389.5 -0.5,293.5 -0.5,197.5C 1.42933,192.382 4.42933,187.882 8.5,184C 33.5794,166.377 58.7461,148.877 84,131.5C 84.3333,91.5 84.6667,51.5 85,11.5C 86.9363,6.0678 90.4363,2.0678 95.5,-0.5 Z"/></g>
<g><path style="opacity:1" fill="#f1f1f1" d="M 392.5,16.5 C 392.831,43.3386 392.498,70.0052 391.5,96.5C 387.453,82.6386 378.12,75.8053 363.5,76C 358.845,73.1034 357.345,68.9367 359,63.5C 361.602,59.7882 365.102,58.6215 369.5,60C 372.463,61.9606 375.129,64.294 377.5,67C 386.333,68.1667 390.167,64.3333 389,55.5C 381.043,43.6072 370.209,39.7739 356.5,44C 337.597,56.3663 335.597,71.0329 350.5,88C 356.112,92.2036 362.445,94.2036 369.5,94C 374.224,96.4353 375.724,100.269 374,105.5C 371.774,109.861 368.274,111.361 363.5,110C 360.486,107.981 357.82,105.648 355.5,103C 346.833,101.337 343,104.837 344,113.5C 351.88,126.683 363.046,130.516 377.5,125C 385.383,121.282 390.049,115.115 391.5,106.5C 392.833,123.5 392.833,140.5 391.5,157.5C 389.747,151.246 385.747,147.079 379.5,145C 296.833,144.333 214.167,144.333 131.5,145C 126.065,146.769 122.232,150.269 120,155.5C 119.333,170.833 119.333,186.167 120,201.5C 122.167,206.333 125.667,209.833 130.5,212C 213.5,212.667 296.5,212.667 379.5,212C 384.567,210.431 388.234,207.264 390.5,202.5C 391.833,212.833 391.833,223.167 390.5,233.5C 389.251,231.864 387.584,230.697 385.5,230C 298.833,229.333 212.167,229.333 125.5,230C 119.905,232.354 118.072,236.521 120,242.5C 121.167,243.667 122.333,244.833 123.5,246C 211.5,246.667 299.5,246.667 387.5,246C 389.041,244.629 390.375,243.129 391.5,241.5C 392.655,248.655 392.822,255.988 392,263.5C 362.894,286.962 333.727,310.295 304.5,333.5C 295.043,326.549 285.709,319.382 276.5,312C 262.477,304.845 248.477,304.845 234.5,312C 223.024,320.642 211.69,329.476 200.5,338.5C 167.758,312.047 134.925,285.713 102,259.5C 101.5,178.501 101.333,97.5007 101.5,16.5C 198.5,16.5 295.5,16.5 392.5,16.5 Z"/></g>
<g><path style="opacity:1" fill="#c9d2d6" d="M 392.5,16.5 C 398.167,16.5 403.833,16.5 409.5,16.5C 409.667,97.5007 409.5,178.501 409,259.5C 376,285.833 343,312.167 310,338.5C 308.188,336.7 306.355,335.033 304.5,333.5C 333.727,310.295 362.894,286.962 392,263.5C 392.822,255.988 392.655,248.655 391.5,241.5C 391.721,238.721 391.388,236.054 390.5,233.5C 391.833,223.167 391.833,212.833 390.5,202.5C 391.483,187.578 391.816,172.578 391.5,157.5C 392.833,140.5 392.833,123.5 391.5,106.5C 391.5,103.167 391.5,99.8333 391.5,96.5C 392.498,70.0052 392.831,43.3386 392.5,16.5 Z"/></g>
<g><path style="opacity:1" fill="#040404" d="M 151.5,79.5 C 151.461,80.7562 151.961,81.7562 153,82.5C 153.5,71.1716 153.667,59.8382 153.5,48.5C 155.588,42.8726 159.588,41.0392 165.5,43C 167.378,44.5429 168.878,46.3762 170,48.5C 170.971,73.5627 170.638,98.5627 169,123.5C 164.62,128.343 159.954,128.677 155,124.5C 149.153,112.807 143.32,101.14 137.5,89.5C 137.217,88.7109 136.717,88.0442 136,87.5C 135.5,98.495 135.333,109.495 135.5,120.5C 134.661,125.167 131.828,127.5 127,127.5C 123.599,127.302 121.266,125.635 120,122.5C 119.333,97.1667 119.333,71.8333 120,46.5C 125,41.1667 130,41.1667 135,46.5C 140.513,57.5266 146.013,68.5266 151.5,79.5 Z"/></g>
<g><path style="opacity:1" fill="#030303" d="M 192.5,42.5 C 206.171,42.3334 219.837,42.5001 233.5,43C 239.825,47.4745 240.158,52.4745 234.5,58C 224.58,59.4234 214.58,59.9234 204.5,59.5C 204.5,65.1667 204.5,70.8333 204.5,76.5C 211.016,75.237 216.516,76.9036 221,81.5C 222.202,85.7929 221.035,89.2929 217.5,92C 213.27,93.2899 208.936,93.7899 204.5,93.5C 204.5,99.1667 204.5,104.833 204.5,110.5C 213.839,110.334 223.173,110.5 232.5,111C 238.455,113.573 239.955,117.739 237,123.5C 235.681,125.487 233.848,126.654 231.5,127C 218.5,127.667 205.5,127.667 192.5,127C 191.421,126.044 190.255,125.211 189,124.5C 187.352,98.9205 187.019,73.2539 188,47.5C 189.025,45.313 190.525,43.6464 192.5,42.5 Z"/></g>
<g><path style="opacity:1" fill="#070707" d="M 259.5,42.5 C 262.187,42.3359 264.854,42.5026 267.5,43C 269.667,43.8333 271.167,45.3333 272,47.5C 274,61.5 276,75.5 278,89.5C 285.741,72.2023 293.575,72.2023 301.5,89.5C 303.333,75.5035 305.166,61.5035 307,47.5C 311.331,41.6906 316.331,41.024 322,45.5C 323.036,47.8701 323.536,50.3701 323.5,53C 320.872,75.8582 318.039,98.6915 315,121.5C 311.96,127.368 307.46,128.868 301.5,126C 297.373,118.914 293.373,111.747 289.5,104.5C 286.138,112.061 282.138,119.228 277.5,126C 271.028,129.014 266.528,127.181 264,120.5C 260.588,96.2121 257.922,71.8788 256,47.5C 256.997,45.6769 258.164,44.0103 259.5,42.5 Z"/></g>
<g><path style="opacity:1" fill="#050505" d="M 391.5,96.5 C 391.5,99.8333 391.5,103.167 391.5,106.5C 390.049,115.115 385.383,121.282 377.5,125C 363.046,130.516 351.88,126.683 344,113.5C 343,104.837 346.833,101.337 355.5,103C 357.82,105.648 360.486,107.981 363.5,110C 368.274,111.361 371.774,109.861 374,105.5C 375.724,100.269 374.224,96.4353 369.5,94C 362.445,94.2036 356.112,92.2036 350.5,88C 335.597,71.0329 337.597,56.3663 356.5,44C 370.209,39.7739 381.043,43.6072 389,55.5C 390.167,64.3333 386.333,68.1667 377.5,67C 375.129,64.294 372.463,61.9606 369.5,60C 365.102,58.6215 361.602,59.7882 359,63.5C 357.345,68.9367 358.845,73.1034 363.5,76C 378.12,75.8053 387.453,82.6386 391.5,96.5 Z"/></g>
<g><path style="opacity:1" fill="#929292" d="M 153.5,48.5 C 153.667,59.8382 153.5,71.1716 153,82.5C 151.961,81.7562 151.461,80.7562 151.5,79.5C 152.167,69.1667 152.833,58.8333 153.5,48.5 Z"/></g>
<g><path style="opacity:1" fill="#737373" d="M 137.5,89.5 C 136.833,99.8333 136.167,110.167 135.5,120.5C 135.333,109.495 135.5,98.495 136,87.5C 136.717,88.0442 137.217,88.7109 137.5,89.5 Z"/></g>
<g><path style="opacity:1" fill="#020102" d="M 391.5,157.5 C 391.816,172.578 391.483,187.578 390.5,202.5C 388.234,207.264 384.567,210.431 379.5,212C 296.5,212.667 213.5,212.667 130.5,212C 125.667,209.833 122.167,206.333 120,201.5C 119.333,186.167 119.333,170.833 120,155.5C 122.232,150.269 126.065,146.769 131.5,145C 214.167,144.333 296.833,144.333 379.5,145C 385.747,147.079 389.747,151.246 391.5,157.5 Z"/></g>
<g><path style="opacity:1" fill="#fd9601" d="M 83.5,153.5 C 84.4981,183.995 84.8315,214.662 84.5,245.5C 63.7081,229.214 43.0414,212.714 22.5,196C 42.7133,181.613 63.0466,167.447 83.5,153.5 Z"/></g>
<g><path style="opacity:1" fill="#553300" d="M 83.5,153.5 C 83.56,152.957 83.8933,152.624 84.5,152.5C 85.8298,183.664 85.8298,214.664 84.5,245.5C 84.8315,214.662 84.4981,183.995 83.5,153.5 Z"/></g>
<g><path style="opacity:1" fill="#ef7900" d="M 427.5,153.5 C 447.953,167.447 468.287,181.613 488.5,196C 467.985,212.749 447.319,229.249 426.5,245.5C 426.5,242.167 426.5,238.833 426.5,235.5C 443.136,223.166 459.469,210.333 475.5,197C 473.874,194.372 471.874,192.039 469.5,190C 455.138,180.157 440.804,170.323 426.5,160.5C 426.198,157.941 426.532,155.607 427.5,153.5 Z"/></g>
<g><path style="opacity:1" fill="#543100" d="M 427.5,153.5 C 426.532,155.607 426.198,157.941 426.5,160.5C 426.5,185.5 426.5,210.5 426.5,235.5C 426.5,238.833 426.5,242.167 426.5,245.5C 425.17,214.664 425.17,183.664 426.5,152.5C 427.107,152.624 427.44,152.957 427.5,153.5 Z"/></g>
<g><path style="opacity:1" fill="#fe9700" d="M 426.5,160.5 C 440.804,170.323 455.138,180.157 469.5,190C 471.874,192.039 473.874,194.372 475.5,197C 459.469,210.333 443.136,223.166 426.5,235.5C 426.5,210.5 426.5,185.5 426.5,160.5 Z"/></g>
<g><path style="opacity:1" fill="#9b26ae" d="M 135.5,161.5 C 215.5,161.5 295.5,161.5 375.5,161.5C 375.5,172.833 375.5,184.167 375.5,195.5C 295.5,195.5 215.5,195.5 135.5,195.5C 135.5,184.167 135.5,172.833 135.5,161.5 Z"/></g>
<g><path style="opacity:1" fill="#eccb00" d="M 18.5,215.5 C 17.5006,304.332 17.1673,393.332 17.5,482.5C 16.3343,393.001 16.1676,303.334 17,213.5C 17.7172,214.044 18.2172,214.711 18.5,215.5 Z"/></g>
<g><path style="opacity:1" fill="#fdda00" d="M 18.5,215.5 C 74.7938,259.793 130.794,304.46 186.5,349.5C 130.813,394.516 74.8127,439.183 18.5,483.5C 17.8933,483.376 17.56,483.043 17.5,482.5C 17.1673,393.332 17.5006,304.332 18.5,215.5 Z"/></g>
<g><path style="opacity:1" fill="#fcbf07" d="M 476.5,470.5 C 477.833,451.167 477.833,431.833 476.5,412.5C 477.829,367.47 477.829,322.47 476.5,277.5C 477.497,261.008 477.83,244.342 477.5,227.5C 482.836,222.733 488.336,218.066 494,213.5C 494.667,302.833 494.667,392.167 494,481.5C 493.577,482.956 492.744,483.456 491.5,483C 486.429,478.815 481.429,474.648 476.5,470.5 Z"/></g>
<g><path style="opacity:1" fill="#fdda00" d="M 477.5,227.5 C 477.83,244.342 477.497,261.008 476.5,277.5C 471.29,271.02 466.123,271.02 461,277.5C 460.333,322.167 460.333,366.833 461,411.5C 463.433,417.448 467.6,418.948 473.5,416C 474.71,414.961 475.71,413.794 476.5,412.5C 477.833,431.833 477.833,451.167 476.5,470.5C 425.825,430.164 375.158,389.831 324.5,349.5C 374.944,308.114 425.944,267.448 477.5,227.5 Z"/></g>
<g><path style="opacity:1" fill="#080808" d="M 390.5,233.5 C 391.388,236.054 391.721,238.721 391.5,241.5C 390.375,243.129 389.041,244.629 387.5,246C 299.5,246.667 211.5,246.667 123.5,246C 122.333,244.833 121.167,243.667 120,242.5C 118.072,236.521 119.905,232.354 125.5,230C 212.167,229.333 298.833,229.333 385.5,230C 387.584,230.697 389.251,231.864 390.5,233.5 Z"/></g>
<g><path style="opacity:1" fill="#080808" d="M 149.5,264.5 C 220.167,264.333 290.834,264.5 361.5,265C 366.568,267.983 367.735,272.149 365,277.5C 363.421,279.041 361.587,280.208 359.5,281C 289.833,281.667 220.167,281.667 150.5,281C 143.078,275.783 142.745,270.283 149.5,264.5 Z"/></g>
<g><path style="opacity:1" fill="#030200" d="M 39.5,272.5 C 43.9869,272.161 47.4869,273.827 50,277.5C 50.6667,322.167 50.6667,366.833 50,411.5C 48.8601,415.735 46.0268,417.735 41.5,417.5C 37.5823,416.751 35.0823,414.418 34,410.5C 33.3333,366.5 33.3333,322.5 34,278.5C 35.3597,275.977 37.193,273.977 39.5,272.5 Z"/></g>
<g><path style="opacity:1" fill="#030200" d="M 476.5,277.5 C 477.829,322.47 477.829,367.47 476.5,412.5C 475.71,413.794 474.71,414.961 473.5,416C 467.6,418.948 463.433,417.448 461,411.5C 460.333,366.833 460.333,322.167 461,277.5C 466.123,271.02 471.29,271.02 476.5,277.5 Z"/></g>
<g><path style="opacity:1" fill="#feea39" d="M 250.5,324.5 C 251.873,324.343 253.207,324.51 254.5,325C 325.066,381.744 395.732,438.244 466.5,494.5C 321.833,494.667 177.166,494.5 32.5,494C 101.682,439.24 170.682,384.24 239.5,329C 242.729,326.384 246.396,324.884 250.5,324.5 Z"/></g>
<g><path style="opacity:1" fill="#f7d332" d="M 250.5,324.5 C 257.996,322.871 264.996,324.371 271.5,329C 340.5,384 409.5,439 478.5,494C 474.514,494.499 470.514,494.666 466.5,494.5C 395.732,438.244 325.066,381.744 254.5,325C 253.207,324.51 251.873,324.343 250.5,324.5 Z"/></g>
<g><path style="opacity:1" fill="#030200" d="M 166.5,460.5 C 225.501,460.333 284.501,460.5 343.5,461C 349.455,463.573 350.955,467.739 348,473.5C 346.681,475.487 344.848,476.654 342.5,477C 284.167,477.667 225.833,477.667 167.5,477C 159.959,471.925 159.626,466.425 166.5,460.5 Z"/></g>
</svg>
