<?xml version="1.0" encoding="UTF-8"?>
<!DOCTYPE svg PUBLIC "-//W3C//DTD SVG 1.1//EN" "http://www.w3.org/Graphics/SVG/1.1/DTD/svg11.dtd">
<svg xmlns="http://www.w3.org/2000/svg" version="1.1" width="512px" height="512px" style="shape-rendering:geometricPrecision; text-rendering:geometricPrecision; image-rendering:optimizeQuality; fill-rule:evenodd; clip-rule:evenodd" xmlns:xlink="http://www.w3.org/1999/xlink">
<g><path style="opacity:0.983" fill="#010102" d="M 65.5,-0.5 C 76.5,-0.5 87.5,-0.5 98.5,-0.5C 103.841,1.33948 108.841,4.00614 113.5,7.5C 116.912,3.80492 120.912,1.13825 125.5,-0.5C 225.833,-0.5 326.167,-0.5 426.5,-0.5C 450.793,5.96414 465.293,21.6308 470,46.5C 470.667,191.833 470.667,337.167 470,482.5C 466.526,497.138 457.693,506.804 443.5,511.5C 379.5,511.5 315.5,511.5 251.5,511.5C 249.331,509.66 247.998,507.326 247.5,504.5C 248.043,501.246 249.71,498.746 252.5,497C 311.832,496.5 371.166,496.333 430.5,496.5C 443.415,497.629 451.582,491.962 455,479.5C 455.667,468.833 455.667,458.167 455,447.5C 452.833,438.667 447.333,433.167 438.5,431C 336.999,430.167 235.666,430.334 134.5,431.5C 129.911,432.58 126.244,435.08 123.5,439C 118.994,441.814 114.327,442.147 109.5,440C 106.326,435.817 102.326,432.817 97.5,431C 88.5,430.333 79.5,430.333 70.5,431C 63,433.167 58.1667,438 56,445.5C 55.0779,458.557 55.4112,471.557 57,484.5C 59.5,489.667 63.3333,493.5 68.5,496C 78.8333,496.667 89.1667,496.667 99.5,496C 102.797,493.705 105.797,491.038 108.5,488C 115.739,483.982 121.739,485.316 126.5,492C 128.67,493.586 131.004,494.92 133.5,496C 165.167,496.333 196.833,496.667 228.5,497C 232.046,498.256 234.046,500.756 234.5,504.5C 233.937,507.295 232.604,509.628 230.5,511.5C 197.167,511.5 163.833,511.5 130.5,511.5C 125.149,509.656 120.149,506.989 115.5,503.5C 111.614,507.085 107.281,509.751 102.5,511.5C 90.1667,511.5 77.8333,511.5 65.5,511.5C 52.3381,507.166 44.1714,498.166 41,484.5C 40.3333,350.167 40.3333,215.833 41,81.5C 42.3296,77.9933 44.8296,76.3266 48.5,76.5C 51.1955,76.933 53.3621,78.2663 55,80.5C 55.5,193.833 55.6667,307.166 55.5,420.5C 59.7386,418.92 64.0719,417.42 68.5,416C 80.9447,414.966 93.2781,415.466 105.5,417.5C 106.209,418.404 107.209,418.737 108.5,418.5C 108.833,287.999 108.5,157.666 107.5,27.5C 105.747,21.2458 101.747,17.0792 95.5,15C 86.5,14.3333 77.5,14.3333 68.5,15C 61.9028,17.2634 57.7361,21.7634 56,28.5C 55.6667,38.5 55.3333,48.5 55,58.5C 53.4369,61.0229 51.2702,62.6896 48.5,63.5C 45.2077,62.9428 42.7077,61.2761 41,58.5C 40.1058,46.1179 40.4391,33.7845 42,21.5C 46.2032,10.1254 54.0365,2.79205 65.5,-0.5 Z"/></g>
<g><path style="opacity:1" fill="#5664c8" d="M 107.5,27.5 C 108.165,157.838 107.498,287.838 105.5,417.5C 93.2781,415.466 80.9447,414.966 68.5,416C 64.0719,417.42 59.7386,418.92 55.5,420.5C 55.6667,307.166 55.5,193.833 55,80.5C 53.3621,78.2663 51.1955,76.933 48.5,76.5C 48.5,72.1667 48.5,67.8333 48.5,63.5C 51.2702,62.6896 53.4369,61.0229 55,58.5C 55.3333,48.5 55.6667,38.5 56,28.5C 57.7361,21.7634 61.9028,17.2634 68.5,15C 77.5,14.3333 86.5,14.3333 95.5,15C 101.747,17.0792 105.747,21.2458 107.5,27.5 Z"/></g>
<g><path style="opacity:1" fill="#8892d9" d="M 417.5,14.5 C 428.864,22.537 435.697,33.537 438,47.5C 438.5,170.166 438.667,292.833 438.5,415.5C 336.833,415.333 235.166,415.5 133.5,416C 130.097,416.578 126.93,417.745 124,419.5C 123.333,286.167 123.333,152.833 124,19.5C 125.543,17.6217 127.376,16.1217 129.5,15C 225.499,14.5 321.499,14.3333 417.5,14.5 Z"/></g>
<g><path style="opacity:1" fill="#6c79cc" d="M 417.5,14.5 C 438.084,16.9172 450.584,28.2505 455,48.5C 455.833,172.835 455.667,297.168 454.5,421.5C 449.273,418.873 443.94,416.873 438.5,415.5C 438.667,292.833 438.5,170.166 438,47.5C 435.697,33.537 428.864,22.537 417.5,14.5 Z"/></g>
<g><path style="opacity:1" fill="#3c468d" d="M 107.5,27.5 C 108.5,157.666 108.833,287.999 108.5,418.5C 107.209,418.737 106.209,418.404 105.5,417.5C 107.498,287.838 108.165,157.838 107.5,27.5 Z"/></g>
<g><path style="opacity:1" fill="#030304" d="M 206.5,52.5 C 251.168,52.3333 295.835,52.5 340.5,53C 344.251,54.4151 347.084,56.9151 349,60.5C 349.667,70.5 349.667,80.5 349,90.5C 347.5,94.6667 344.667,97.5 340.5,99C 296.167,99.6667 251.833,99.6667 207.5,99C 203.333,97.5 200.5,94.6667 199,90.5C 198.333,80.8333 198.333,71.1667 199,61.5C 200.642,57.6997 203.142,54.6997 206.5,52.5 Z"/></g>
<g><path style="opacity:1" fill="#d1ced3" d="M 214.5,67.5 C 214.5,72.8333 214.5,78.1667 214.5,83.5C 249.833,83.5 285.167,83.5 320.5,83.5C 324.833,83.5 329.167,83.5 333.5,83.5C 333.5,78.1667 333.5,72.8333 333.5,67.5C 334.489,72.9753 334.822,78.642 334.5,84.5C 294.167,84.5 253.833,84.5 213.5,84.5C 213.178,78.642 213.511,72.9753 214.5,67.5 Z"/></g>
<g><path style="opacity:1" fill="#dddaec" d="M 320.5,67.5 C 324.833,67.5 329.167,67.5 333.5,67.5C 333.5,72.8333 333.5,78.1667 333.5,83.5C 329.167,83.5 324.833,83.5 320.5,83.5C 320.5,78.1667 320.5,72.8333 320.5,67.5 Z"/></g>
<g><path style="opacity:1" fill="#f8f6f8" d="M 214.5,67.5 C 249.833,67.5 285.167,67.5 320.5,67.5C 320.5,72.8333 320.5,78.1667 320.5,83.5C 285.167,83.5 249.833,83.5 214.5,83.5C 214.5,78.1667 214.5,72.8333 214.5,67.5 Z"/></g>
<g><path style="opacity:1" fill="#030303" d="M 327.5,130.5 C 327.201,133.642 325.534,135.809 322.5,137C 269.929,137.169 217.429,137.669 165,138.5C 164.333,197.833 164.333,257.167 165,316.5C 234.096,317.498 303.262,317.831 372.5,317.5C 376.167,317.5 379.833,317.5 383.5,317.5C 383.5,257.5 383.5,197.5 383.5,137.5C 379.833,137.5 376.167,137.5 372.5,137.5C 363.827,137.666 355.16,137.5 346.5,137C 344.356,136.208 343.023,134.708 342.5,132.5C 341.704,128.361 343.037,125.195 346.5,123C 353,122.833 359.5,122.667 366,122.5C 373.574,122.385 381.074,122.885 388.5,124C 393,125.833 396.167,129 398,133.5C 398.667,195.833 398.667,258.167 398,320.5C 396.066,326.767 391.9,330.601 385.5,332C 310.833,332.667 236.167,332.667 161.5,332C 155.269,330.037 151.436,325.87 150,319.5C 149.333,257.833 149.333,196.167 150,134.5C 151.833,128.667 155.667,124.833 161.5,123C 215.167,122.333 268.833,122.333 322.5,123C 326.007,124.33 327.673,126.83 327.5,130.5 Z"/></g>
<g><path style="opacity:1" fill="#f7f4f7" d="M 327.5,130.5 C 332.807,129.974 337.807,130.64 342.5,132.5C 343.023,134.708 344.356,136.208 346.5,137C 355.16,137.5 363.827,137.666 372.5,137.5C 372.5,197.5 372.5,257.5 372.5,317.5C 303.262,317.831 234.096,317.498 165,316.5C 164.333,257.167 164.333,197.833 165,138.5C 217.429,137.669 269.929,137.169 322.5,137C 325.534,135.809 327.201,133.642 327.5,130.5 Z"/></g>
<g><path style="opacity:1" fill="#dddaec" d="M 372.5,137.5 C 376.167,137.5 379.833,137.5 383.5,137.5C 383.5,197.5 383.5,257.5 383.5,317.5C 379.833,317.5 376.167,317.5 372.5,317.5C 372.5,257.5 372.5,197.5 372.5,137.5 Z"/></g>
<g><path style="opacity:1" fill="#040303" d="M 207.5,157.5 C 222.504,157.333 237.504,157.5 252.5,158C 253.667,159.167 254.833,160.333 256,161.5C 256.333,184.833 256.667,208.167 257,231.5C 262.921,244.029 272.088,247.196 284.5,241C 287.807,238.222 289.974,234.722 291,230.5C 291.333,207.5 291.667,184.5 292,161.5C 293.167,160.333 294.333,159.167 295.5,158C 310.5,157.333 325.5,157.333 340.5,158C 341.931,158.465 343.097,159.299 344,160.5C 345.647,185.079 345.98,209.746 345,234.5C 335.217,279.267 307.384,300.1 261.5,297C 237.191,291.682 219.691,277.849 209,255.5C 205.899,247.431 203.899,239.098 203,230.5C 202.333,207.833 202.333,185.167 203,162.5C 204.025,160.313 205.525,158.646 207.5,157.5 Z"/></g>
<g><path style="opacity:1" fill="#746e77" d="M 218.5,172.5 C 226.167,172.5 233.833,172.5 241.5,172.5C 241.5,175.5 241.5,178.5 241.5,181.5C 233.833,181.5 226.167,181.5 218.5,181.5C 218.5,178.5 218.5,175.5 218.5,172.5 Z"/></g>
<g><path style="opacity:1" fill="#6e6771" d="M 306.5,172.5 C 314.5,172.5 322.5,172.5 330.5,172.5C 330.5,175.833 330.5,179.167 330.5,182.5C 322.5,182.5 314.5,182.5 306.5,182.5C 306.5,179.167 306.5,175.833 306.5,172.5 Z"/></g>
<g><path style="opacity:1" fill="#3f3b40" d="M 218.5,172.5 C 218.5,175.5 218.5,178.5 218.5,181.5C 226.167,181.5 233.833,181.5 241.5,181.5C 233.684,182.492 225.684,182.826 217.5,182.5C 217.187,178.958 217.521,175.625 218.5,172.5 Z"/></g>
<g><path style="opacity:1" fill="#78363b" d="M 241.5,197.5 C 233.833,197.5 226.167,197.5 218.5,197.5C 218.5,209.167 218.5,220.833 218.5,232.5C 217.505,220.678 217.172,208.678 217.5,196.5C 225.684,196.174 233.684,196.508 241.5,197.5 Z"/></g>
<g><path style="opacity:1" fill="#db626d" d="M 241.5,197.5 C 241.102,210.219 241.602,222.886 243,235.5C 246.667,247.167 254.333,254.833 266,258.5C 266.5,266.159 266.666,273.826 266.5,281.5C 243.309,277.819 227.809,264.819 220,242.5C 219.174,239.207 218.674,235.874 218.5,232.5C 218.5,220.833 218.5,209.167 218.5,197.5C 226.167,197.5 233.833,197.5 241.5,197.5 Z"/></g>
<g><path style="opacity:1" fill="#8791d7" d="M 306.5,197.5 C 314.167,197.5 321.833,197.5 329.5,197.5C 329.5,209.167 329.5,220.833 329.5,232.5C 325.583,260.087 309.916,276.754 282.5,282.5C 281.502,274.193 281.169,265.86 281.5,257.5C 294.838,254.328 303.005,245.995 306,232.5C 306.5,220.838 306.667,209.171 306.5,197.5 Z"/></g>
<g><path style="opacity:1" fill="#5b6292" d="M 306.5,197.5 C 314.316,196.508 322.316,196.174 330.5,196.5C 330.828,208.678 330.495,220.678 329.5,232.5C 329.5,220.833 329.5,209.167 329.5,197.5C 321.833,197.5 314.167,197.5 306.5,197.5 Z"/></g>
<g><path style="opacity:1" fill="#040407" d="M 214.5,357.5 C 254.168,357.333 293.835,357.5 333.5,358C 340.648,361.742 341.315,366.408 335.5,372C 294.5,372.667 253.5,372.667 212.5,372C 208.054,366.397 208.721,361.564 214.5,357.5 Z"/></g>
<g><path style="opacity:1" fill="#f6f3f6" d="M 134.5,431.5 C 233.167,431.333 331.834,431.5 430.5,432C 434.423,435.677 436.923,440.177 438,445.5C 438.826,456.674 438.659,467.674 437.5,478.5C 437.764,473.926 435.764,470.759 431.5,469C 336.167,468.333 240.833,468.333 145.5,469C 141.723,471.955 140.557,475.788 142,480.5C 142.903,481.701 144.069,482.535 145.5,483C 241.167,483.667 336.833,483.667 432.5,483C 434.324,482.34 435.657,481.173 436.5,479.5C 437.124,479.917 437.457,480.584 437.5,481.5C 436.495,487.175 434.161,492.175 430.5,496.5C 371.166,496.333 311.832,496.5 252.5,497C 249.71,498.746 248.043,501.246 247.5,504.5C 243.167,504.5 238.833,504.5 234.5,504.5C 234.046,500.756 232.046,498.256 228.5,497C 196.833,496.667 165.167,496.333 133.5,496C 131.004,494.92 128.67,493.586 126.5,492C 121.739,485.316 115.739,483.982 108.5,488C 105.797,491.038 102.797,493.705 99.5,496C 89.1667,496.667 78.8333,496.667 68.5,496C 63.3333,493.5 59.5,489.667 57,484.5C 55.4112,471.557 55.0779,458.557 56,445.5C 58.1667,438 63,433.167 70.5,431C 79.5,430.333 88.5,430.333 97.5,431C 102.326,432.817 106.326,435.817 109.5,440C 114.327,442.147 118.994,441.814 123.5,439C 126.244,435.08 129.911,432.58 134.5,431.5 Z"/></g>
<g><path style="opacity:1" fill="#cecbda" d="M 134.5,431.5 C 235.666,430.334 336.999,430.167 438.5,431C 447.333,433.167 452.833,438.667 455,447.5C 455.667,458.167 455.667,468.833 455,479.5C 451.582,491.962 443.415,497.629 430.5,496.5C 434.161,492.175 436.495,487.175 437.5,481.5C 437.457,480.584 437.124,479.917 436.5,479.5C 436.5,478.833 436.833,478.5 437.5,478.5C 438.659,467.674 438.826,456.674 438,445.5C 436.923,440.177 434.423,435.677 430.5,432C 331.834,431.5 233.167,431.333 134.5,431.5 Z"/></g>
<g><path style="opacity:1" fill="#030303" d="M 145.5,443.5 C 240.834,443.333 336.167,443.5 431.5,444C 437.292,446.09 438.792,449.924 436,455.5C 435.097,456.701 433.931,457.535 432.5,458C 336.833,458.667 241.167,458.667 145.5,458C 142.634,456.607 141.301,454.274 141.5,451C 141.603,449.439 141.937,447.939 142.5,446.5C 143.77,445.712 144.77,444.712 145.5,443.5 Z"/></g>
<g><path style="opacity:1" fill="#050405" d="M 437.5,478.5 C 436.833,478.5 436.5,478.833 436.5,479.5C 435.657,481.173 434.324,482.34 432.5,483C 336.833,483.667 241.167,483.667 145.5,483C 144.069,482.535 142.903,481.701 142,480.5C 140.557,475.788 141.723,471.955 145.5,469C 240.833,468.333 336.167,468.333 431.5,469C 435.764,470.759 437.764,473.926 437.5,478.5 Z"/></g>
</svg>
