<?xml version="1.0" encoding="UTF-8"?>
<!DOCTYPE svg PUBLIC "-//W3C//DTD SVG 1.1//EN" "http://www.w3.org/Graphics/SVG/1.1/DTD/svg11.dtd">
<svg xmlns="http://www.w3.org/2000/svg" version="1.1" width="3323px" height="3323px" style="shape-rendering:geometricPrecision; text-rendering:geometricPrecision; image-rendering:optimizeQuality; fill-rule:evenodd; clip-rule:evenodd" xmlns:xlink="http://www.w3.org/1999/xlink">
<g><path style="opacity:1" fill="#fefefe" d="M 1687.5,-0.5 C 2232.5,-0.5 2777.5,-0.5 3322.5,-0.5C 3322.5,543.833 3322.5,1088.17 3322.5,1632.5C 3322.17,1632.5 3321.83,1632.5 3321.5,1632.5C 3319.49,1421.43 3275.99,1219.43 3191,1026.5C 3174.37,989.07 3156.53,952.237 3137.5,916C 3128.9,913.266 3125.06,916.433 3126,925.5C 3255.23,1196.79 3308.56,1482.45 3286,1782.5C 3254.22,2115.36 3134.55,2411.7 2927,2671.5C 2851.3,2764.87 2766.63,2849.2 2673,2924.5C 2664.78,2892.5 2653.78,2861.5 2640,2831.5C 2616.12,2777.74 2589.12,2725.74 2559,2675.5C 2532.25,2638.21 2500.08,2606.37 2462.5,2580C 2394.74,2532.1 2322.07,2492.44 2244.5,2461C 2193.91,2440.47 2143.25,2420.14 2092.5,2400C 2071.6,2391.55 2050.93,2382.55 2030.5,2373C 2087.97,2342.23 2137.8,2301.73 2180,2251.5C 2237.74,2180.06 2282.07,2100.72 2313,2013.5C 2342.55,1932.32 2360.88,1848.65 2368,1762.5C 2370.37,1730.87 2372.04,1699.2 2373,1667.5C 2373.07,1603.5 2372.73,1539.5 2372,1475.5C 2373.29,1407.21 2381.95,1339.87 2398,1273.5C 2400.77,1256.9 2403.1,1240.24 2405,1223.5C 2443.32,1178.92 2465.99,1127.26 2473,1068.5C 2475.73,1043.94 2472.4,1020.27 2463,997.5C 2457.83,985.816 2451.66,974.816 2444.5,964.5C 2470.67,910.508 2482.83,853.508 2481,793.5C 2471.23,693.404 2424.4,616.237 2340.5,562C 2306.77,541.234 2270.11,530.067 2230.5,528.5C 2200.62,528.952 2175.45,539.952 2155,561.5C 2140.11,585.888 2118.61,601.388 2090.5,608C 2071.44,612.533 2052.1,615.199 2032.5,616C 1987.42,617.398 1942.42,616.065 1897.5,612C 1790.66,601.525 1683.66,593.192 1576.5,587C 1528.52,584.838 1480.52,584.171 1432.5,585C 1363.72,586.954 1297.72,601.287 1234.5,628C 1138.95,672.904 1078.45,746.737 1053,849.5C 1043.32,889.252 1037.99,929.585 1037,970.5C 1015.05,984.825 995.719,1002.16 979,1022.5C 942.825,1069.19 918.158,1121.53 905,1179.5C 891.224,1241.82 886.89,1304.82 892,1368.5C 899.543,1440.01 919.21,1508.01 951,1572.5C 969.641,1610.46 990.307,1647.13 1013,1682.5C 1033.59,1714.02 1054.93,1745.02 1077,1775.5C 1122.05,1833.93 1165.38,1893.59 1207,1954.5C 1214.4,1966.24 1221.4,1978.24 1228,1990.5C 1228.31,2040.03 1225.31,2089.36 1219,2138.5C 1217.66,2149.26 1215.82,2159.93 1213.5,2170.5C 1192.6,2173.45 1171.93,2177.61 1151.5,2183C 1136.57,2191.91 1123.41,2203.08 1112,2216.5C 1090.98,2239.56 1071.65,2263.89 1054,2289.5C 1049.64,2296.89 1045.81,2304.55 1042.5,2312.5C 921.563,2337.65 804.563,2375.15 691.5,2425C 654.378,2442.72 618.711,2462.72 584.5,2485C 560.118,2504.3 539.285,2526.8 522,2552.5C 496.566,2592.04 475.899,2634.04 460,2678.5C 455.729,2692.65 451.062,2706.65 446,2720.5C 223.741,2463.19 93.4072,2164.52 55,1824.5C 24.6709,1491.47 88.3376,1177.81 246,883.5C 407.209,594.29 634.709,373.457 928.5,221C 1261.36,53.21 1611.36,2.87668 1978.5,70C 2352.22,146.473 2664.39,326.973 2915,611.5C 2934.55,634.71 2953.71,658.21 2972.5,682C 2978.84,685.935 2983.67,684.435 2987,677.5C 2987.63,675.365 2987.3,673.365 2986,671.5C 2790.29,405.18 2537.12,214.68 2226.5,100C 2052.18,37.393 1872.52,3.89304 1687.5,-0.5 Z"/></g>
<g><path style="opacity:1" fill="#000000" d="M 1637.5,-0.5 C 1654.17,-0.5 1670.83,-0.5 1687.5,-0.5C 1872.52,3.89304 2052.18,37.393 2226.5,100C 2537.12,214.68 2790.29,405.18 2986,671.5C 2987.3,673.365 2987.63,675.365 2987,677.5C 2983.67,684.435 2978.84,685.935 2972.5,682C 2953.71,658.21 2934.55,634.71 2915,611.5C 2664.39,326.973 2352.22,146.473 1978.5,70C 1611.36,2.87668 1261.36,53.21 928.5,221C 634.709,373.457 407.209,594.29 246,883.5C 88.3376,1177.81 24.6709,1491.47 55,1824.5C 93.4072,2164.52 223.741,2463.19 446,2720.5C 451.062,2706.65 455.729,2692.65 460,2678.5C 475.899,2634.04 496.566,2592.04 522,2552.5C 539.285,2526.8 560.118,2504.3 584.5,2485C 618.711,2462.72 654.378,2442.72 691.5,2425C 804.563,2375.15 921.563,2337.65 1042.5,2312.5C 1045.81,2304.55 1049.64,2296.89 1054,2289.5C 1071.65,2263.89 1090.98,2239.56 1112,2216.5C 1123.41,2203.08 1136.57,2191.91 1151.5,2183C 1171.93,2177.61 1192.6,2173.45 1213.5,2170.5C 1215.82,2159.93 1217.66,2149.26 1219,2138.5C 1225.31,2089.36 1228.31,2040.03 1228,1990.5C 1221.4,1978.24 1214.4,1966.24 1207,1954.5C 1165.38,1893.59 1122.05,1833.93 1077,1775.5C 1054.93,1745.02 1033.59,1714.02 1013,1682.5C 990.307,1647.13 969.641,1610.46 951,1572.5C 919.21,1508.01 899.543,1440.01 892,1368.5C 886.89,1304.82 891.224,1241.82 905,1179.5C 918.158,1121.53 942.825,1069.19 979,1022.5C 995.719,1002.16 1015.05,984.825 1037,970.5C 1037.99,929.585 1043.32,889.252 1053,849.5C 1078.45,746.737 1138.95,672.904 1234.5,628C 1297.72,601.287 1363.72,586.954 1432.5,585C 1480.52,584.171 1528.52,584.838 1576.5,587C 1683.66,593.192 1790.66,601.525 1897.5,612C 1942.42,616.065 1987.42,617.398 2032.5,616C 2052.1,615.199 2071.44,612.533 2090.5,608C 2118.61,601.388 2140.11,585.888 2155,561.5C 2175.45,539.952 2200.62,528.952 2230.5,528.5C 2270.11,530.067 2306.77,541.234 2340.5,562C 2424.4,616.237 2471.23,693.404 2481,793.5C 2482.83,853.508 2470.67,910.508 2444.5,964.5C 2451.66,974.816 2457.83,985.816 2463,997.5C 2472.4,1020.27 2475.73,1043.94 2473,1068.5C 2465.99,1127.26 2443.32,1178.92 2405,1223.5C 2403.1,1240.24 2400.77,1256.9 2398,1273.5C 2381.95,1339.87 2373.29,1407.21 2372,1475.5C 2372.73,1539.5 2373.07,1603.5 2373,1667.5C 2372.04,1699.2 2370.37,1730.87 2368,1762.5C 2360.88,1848.65 2342.55,1932.32 2313,2013.5C 2282.07,2100.72 2237.74,2180.06 2180,2251.5C 2137.8,2301.73 2087.97,2342.23 2030.5,2373C 2050.93,2382.55 2071.6,2391.55 2092.5,2400C 2143.25,2420.14 2193.91,2440.47 2244.5,2461C 2322.07,2492.44 2394.74,2532.1 2462.5,2580C 2500.08,2606.37 2532.25,2638.21 2559,2675.5C 2589.12,2725.74 2616.12,2777.74 2640,2831.5C 2653.78,2861.5 2664.78,2892.5 2673,2924.5C 2766.63,2849.2 2851.3,2764.87 2927,2671.5C 3134.55,2411.7 3254.22,2115.36 3286,1782.5C 3308.56,1482.45 3255.23,1196.79 3126,925.5C 3125.06,916.433 3128.9,913.266 3137.5,916C 3156.53,952.237 3174.37,989.07 3191,1026.5C 3275.99,1219.43 3319.49,1421.43 3321.5,1632.5C 3325.23,1984.75 3229.06,2306.42 3033,2597.5C 2837.61,2879.2 2580.44,3083.37 2261.5,3210C 2058.63,3288.25 1848.29,3325.42 1630.5,3321.5C 1236.78,3311.03 889.447,3180.53 588.5,2930C 360.745,2735.12 195.911,2496.29 94,2213.5C 16.2024,1986.67 -12.7976,1753.67 7,1514.5C 41.1214,1183.44 159.455,887.107 362,625.5C 567.869,369.752 826.702,188.919 1138.5,83C 1300.75,30.0688 1467.09,2.2355 1637.5,-0.5 Z"/></g>
<g><path style="opacity:1" fill="#fefefe" d="M 1703.5,1012.5 C 1781.6,1009.92 1857.6,1021.09 1931.5,1046C 1973.68,1061.73 2016.35,1076.06 2059.5,1089C 2101.74,1100.99 2144.74,1108.99 2188.5,1113C 2239.75,1117.59 2288.75,1109.42 2335.5,1088.5C 2346.5,1121.83 2355,1155.83 2361,1190.5C 2361.6,1209.18 2361.27,1227.85 2360,1246.5C 2355.79,1285.09 2352.45,1323.76 2350,1362.5C 2337.04,1336.21 2317.88,1315.71 2292.5,1301C 2266.49,1284.66 2238.15,1276.66 2207.5,1277C 2188.43,1281.27 2175.26,1292.44 2168,1310.5C 2165.6,1321.94 2168.1,1332.11 2175.5,1341C 2184.53,1346.01 2194.2,1349.35 2204.5,1351C 2242.52,1363.67 2280.52,1376.34 2318.5,1389C 2328.32,1392.26 2338.32,1393.09 2348.5,1391.5C 2348.35,1466.34 2349.02,1541.17 2350.5,1616C 2354.95,1763.52 2326.78,1904.36 2266,2038.5C 2234.38,2107.04 2193.72,2169.38 2144,2225.5C 2101.92,2272.26 2052.75,2309.43 1996.5,2337C 1925.68,2369.08 1852.02,2377.74 1775.5,2363C 1712.89,2350.69 1653.56,2329.36 1597.5,2299C 1538.62,2266.74 1482.29,2230.74 1428.5,2191C 1421.83,2190.01 1418.66,2192.84 1419,2199.5C 1459.22,2240.97 1503.06,2277.8 1550.5,2310C 1587.74,2351.93 1629.74,2387.93 1676.5,2418C 1731.31,2451.49 1790.31,2474.16 1853.5,2486C 1877.77,2490.03 1902.1,2493.53 1926.5,2496.5C 1932.58,2507.68 1939.42,2518.34 1947,2528.5C 1950.91,2533.08 1955.41,2536.92 1960.5,2540C 1963.48,2540.5 1966.48,2540.66 1969.5,2540.5C 1977.03,2572.42 1979.53,2604.75 1977,2637.5C 1971.24,2690.91 1944.07,2728.75 1895.5,2751C 1853.04,2767.35 1809.04,2774.02 1763.5,2771C 1589.36,2756.68 1443.86,2685.18 1327,2556.5C 1276.8,2498.49 1234.8,2434.82 1201,2365.5C 1199.79,2363.95 1198.29,2362.78 1196.5,2362C 1193.33,2361.75 1190.33,2361.58 1187.5,2361.5C 1183.09,2352.51 1179.09,2343.34 1175.5,2334C 1203.78,2295.92 1223.95,2253.76 1236,2207.5C 1245.76,2171.4 1252.43,2134.73 1256,2097.5C 1261.57,2024.26 1263.07,1950.93 1260.5,1877.5C 1266.05,1879.19 1271.72,1879.69 1277.5,1879C 1280.92,1875.53 1281.25,1871.86 1278.5,1868C 1234.31,1851.75 1193.98,1829.08 1157.5,1800C 1083.82,1736.3 1053.98,1656.14 1068,1559.5C 1075.48,1525.02 1092.31,1496.19 1118.5,1473C 1138.03,1460.29 1159.53,1455.12 1183,1457.5C 1212.85,1457.35 1239.68,1466.18 1263.5,1484C 1296.8,1510.39 1320.96,1543.56 1336,1583.5C 1342.23,1586.8 1345.73,1584.97 1346.5,1578C 1345.6,1568.86 1343.94,1559.86 1341.5,1551C 1341.83,1550.5 1342.17,1550 1342.5,1549.5C 1358.94,1562.24 1374.44,1561.24 1389,1546.5C 1397.23,1534.51 1403.56,1521.51 1408,1507.5C 1415.81,1477.62 1421.15,1447.29 1424,1416.5C 1427.97,1367.25 1429.97,1317.92 1430,1268.5C 1439.44,1143.08 1504.27,1062.24 1624.5,1026C 1650.57,1019.1 1676.9,1014.6 1703.5,1012.5 Z"/></g>
<g><path style="opacity:1" fill="#010101" d="M 1840.5,1247.5 C 1853.17,1247.33 1865.84,1247.5 1878.5,1248C 1900.3,1252.47 1915.47,1264.97 1924,1285.5C 1926.68,1295.7 1925.35,1305.37 1920,1314.5C 1915.16,1321.34 1908.66,1325.84 1900.5,1328C 1849.17,1334.25 1798.17,1342.58 1747.5,1353C 1731.83,1355.22 1716.16,1357.56 1700.5,1360C 1633.83,1369.24 1626.5,1352.58 1678.5,1310C 1727.42,1276.08 1781.42,1255.25 1840.5,1247.5 Z"/></g>
<g><path style="opacity:1" fill="#010101" d="M 1686.5,1503.5 C 1687.8,1501.31 1687.8,1498.97 1686.5,1496.5C 1685.89,1496.62 1685.56,1496.96 1685.5,1497.5C 1679.34,1500.09 1674.01,1503.92 1669.5,1509C 1661.67,1509.82 1658.83,1506.32 1661,1498.5C 1665.77,1482.45 1675.61,1470.62 1690.5,1463C 1721.73,1446.35 1754.06,1444.01 1787.5,1456C 1813.03,1466.87 1831.2,1485.03 1842,1510.5C 1843.87,1519.96 1840.04,1524.46 1830.5,1524C 1814.88,1513.35 1798.21,1504.52 1780.5,1497.5C 1779.3,1511.81 1778.47,1526.14 1778,1540.5C 1772.8,1566.7 1756.8,1580.36 1730,1581.5C 1705.16,1579.33 1690.49,1565.99 1686,1541.5C 1685.71,1528.83 1685.87,1516.17 1686.5,1503.5 Z"/></g>
<g><path style="opacity:1" fill="#010101" d="M 2122.5,1461.5 C 2124.47,1461.26 2126.3,1461.59 2128,1462.5C 2131.45,1479.4 2135.78,1496.06 2141,1512.5C 2149.75,1492.68 2164.91,1480.85 2186.5,1477C 2224.02,1472 2250.85,1486.5 2267,1520.5C 2269.85,1525.68 2270.01,1530.85 2267.5,1536C 2264.97,1537.42 2262.3,1537.75 2259.5,1537C 2252.7,1528.7 2244.53,1522.2 2235,1517.5C 2234.85,1532.2 2234.18,1546.86 2233,1561.5C 2225.67,1587.48 2208.51,1599.31 2181.5,1597C 2177.45,1596.37 2173.78,1594.87 2170.5,1592.5C 2170.17,1592.83 2169.83,1593.17 2169.5,1593.5C 2182.42,1623.34 2196.92,1652.34 2213,1680.5C 2226.91,1719.77 2220.58,1755.44 2194,1787.5C 2163.61,1821.94 2125.44,1838.78 2079.5,1838C 2074.17,1833.67 2074.17,1829.33 2079.5,1825C 2110.36,1815.83 2136.86,1799.66 2159,1776.5C 2177.2,1755.03 2184.53,1730.36 2181,1702.5C 2169.51,1679.86 2158.85,1656.86 2149,1633.5C 2127.34,1578.87 2118.01,1522.2 2121,1463.5C 2121.72,1462.96 2122.22,1462.29 2122.5,1461.5 Z"/></g>
<g><path style="opacity:1" fill="#757575" d="M 1685.5,1497.5 C 1685.56,1496.96 1685.89,1496.62 1686.5,1496.5C 1687.8,1498.97 1687.8,1501.31 1686.5,1503.5C 1686.79,1501.26 1686.46,1499.26 1685.5,1497.5 Z"/></g>
<g><path style="opacity:1" fill="#020202" d="M 1174.5,1534.5 C 1218.7,1530.9 1245.87,1550.56 1256,1593.5C 1258.92,1616.76 1257.59,1639.76 1252,1662.5C 1250.15,1675.78 1252.15,1688.44 1258,1700.5C 1261.83,1708.16 1266.16,1715.5 1271,1722.5C 1271.5,1729.33 1268.33,1732.5 1261.5,1732C 1233.81,1717.15 1218.81,1693.98 1216.5,1662.5C 1218,1644.52 1218.5,1626.52 1218,1608.5C 1217.07,1583.07 1203.9,1570.4 1178.5,1570.5C 1172.9,1570.09 1167.9,1571.59 1163.5,1575C 1150.58,1587.01 1143.08,1601.84 1141,1619.5C 1135.74,1623.98 1131.74,1622.98 1129,1616.5C 1122.32,1588.7 1129.49,1565.2 1150.5,1546C 1157.93,1540.78 1165.93,1536.95 1174.5,1534.5 Z"/></g>
<g><path style="opacity:1" fill="#fefefe" d="M -0.5,-0.5 C 545.5,-0.5 1091.5,-0.5 1637.5,-0.5C 1467.09,2.2355 1300.75,30.0688 1138.5,83C 826.702,188.919 567.869,369.752 362,625.5C 159.455,887.107 41.1214,1183.44 7,1514.5C -12.7976,1753.67 16.2024,1986.67 94,2213.5C 195.911,2496.29 360.745,2735.12 588.5,2930C 889.447,3180.53 1236.78,3311.03 1630.5,3321.5C 1630.5,3321.83 1630.5,3322.17 1630.5,3322.5C 1086.83,3322.5 543.167,3322.5 -0.5,3322.5C -0.5,2214.83 -0.5,1107.17 -0.5,-0.5 Z"/></g>
<g><path style="opacity:1" fill="#fefefe" d="M 3321.5,1632.5 C 3321.83,1632.5 3322.17,1632.5 3322.5,1632.5C 3322.5,2195.83 3322.5,2759.17 3322.5,3322.5C 2758.5,3322.5 2194.5,3322.5 1630.5,3322.5C 1630.5,3322.17 1630.5,3321.83 1630.5,3321.5C 1848.29,3325.42 2058.63,3288.25 2261.5,3210C 2580.44,3083.37 2837.61,2879.2 3033,2597.5C 3229.06,2306.42 3325.23,1984.75 3321.5,1632.5 Z"/></g>
<g><path style="opacity:1" fill="#010101" d="M 1822.5,1871.5 C 1825.52,1871.34 1828.52,1871.5 1831.5,1872C 1877.2,1899.18 1925.87,1919.18 1977.5,1932C 2001.01,1936.22 2024.68,1937.56 2048.5,1936C 2055.05,1938.78 2057.22,1943.61 2055,1950.5C 2049.1,1957.4 2042.27,1963.23 2034.5,1968C 2010.1,1980.96 1984.1,1985.96 1956.5,1983C 1899.49,1974.76 1854.99,1946.93 1823,1899.5C 1820.67,1894.83 1818.33,1890.17 1816,1885.5C 1814.67,1879.16 1816.84,1874.5 1822.5,1871.5 Z"/></g>
<g><path style="opacity:1" fill="#fefefe" d="M 1025.5,2371.5 C 1027.17,2371.5 1028.83,2371.5 1030.5,2371.5C 1029.71,2401.85 1032.54,2431.85 1039,2461.5C 1051.11,2513.82 1068.77,2564.15 1092,2612.5C 1166.04,2764.22 1272.21,2888.72 1410.5,2986C 1443.08,3008.2 1477.41,3027.54 1513.5,3044C 1524.97,3048.6 1536.64,3052.6 1548.5,3056C 1562.83,3059.3 1577.16,3059.3 1591.5,3056C 1618.14,3047.01 1642.81,3034.35 1665.5,3018C 1714.61,2981.25 1760.44,2940.42 1803,2895.5C 1818.68,2878.32 1834.51,2861.32 1850.5,2844.5C 1867.35,2860.52 1884.35,2876.35 1901.5,2892C 1907.73,2897.89 1913.56,2904.06 1919,2910.5C 1919.89,2934.24 1921.89,2957.91 1925,2981.5C 1929.79,3014.6 1935.13,3047.6 1941,3080.5C 1944.66,3085.96 1947.49,3085.46 1949.5,3079C 1940.34,3033.19 1933.5,2987.02 1929,2940.5C 1928.33,2932.83 1928.33,2925.17 1929,2917.5C 1956.23,2943.68 1985.73,2966.85 2017.5,2987C 2023.72,2989.94 2030.05,2992.61 2036.5,2995C 2040.83,2995.67 2045.17,2995.67 2049.5,2995C 2060.48,2989.36 2069.65,2981.52 2077,2971.5C 2101.03,2936.11 2117.69,2897.44 2127,2855.5C 2146.19,2767.03 2143.19,2679.36 2118,2592.5C 2102.73,2534.31 2078.07,2480.64 2044,2431.5C 2043.31,2430.67 2043.48,2430 2044.5,2429.5C 2089.05,2446.64 2133.71,2463.47 2178.5,2480C 2246.2,2505.46 2312.2,2534.79 2376.5,2568C 2427.23,2595.12 2473.06,2628.96 2514,2669.5C 2520.71,2677.21 2527.05,2685.21 2533,2693.5C 2582.23,2771.64 2619.39,2855.3 2644.5,2944.5C 2644.43,2945.77 2644.1,2946.94 2643.5,2948C 2350.71,3168.76 2020.04,3278.93 1651.5,3278.5C 1340.36,3275.94 1054.36,3190.77 793.5,3023C 675.374,2945.94 568.207,2855.1 472,2750.5C 488.347,2697.15 510.347,2646.15 538,2597.5C 563.42,2554.41 598.254,2521.25 642.5,2498C 707.136,2464.35 774.469,2437.35 844.5,2417C 904.26,2399.14 964.593,2383.98 1025.5,2371.5 Z"/></g>
<g><path style="opacity:1" fill="#030303" d="M 1840.5,2929.5 C 1859.07,2928.91 1869.4,2937.75 1871.5,2956C 1871.34,2966.98 1866.34,2974.98 1856.5,2980C 1840.11,2985.05 1828.28,2979.89 1821,2964.5C 1817.63,2947.24 1824.13,2935.57 1840.5,2929.5 Z"/></g>
<g><path style="opacity:1" fill="#020202" d="M 1848.5,3032.5 C 1870.49,3031.32 1880.99,3041.66 1880,3063.5C 1875.35,3079.25 1864.85,3086.08 1848.5,3084C 1833.3,3078.46 1826.8,3067.62 1829,3051.5C 1832.8,3042.2 1839.3,3035.87 1848.5,3032.5 Z"/></g>
</svg>
