<?xml version="1.0" encoding="UTF-8"?>
<!DOCTYPE svg PUBLIC "-//W3C//DTD SVG 1.1//EN" "http://www.w3.org/Graphics/SVG/1.1/DTD/svg11.dtd">
<svg xmlns="http://www.w3.org/2000/svg" version="1.1" width="3323px" height="3323px" style="shape-rendering:geometricPrecision; text-rendering:geometricPrecision; image-rendering:optimizeQuality; fill-rule:evenodd; clip-rule:evenodd" xmlns:xlink="http://www.w3.org/1999/xlink">
<g><path style="opacity:1" fill="#fefefe" d="M 1671.5,-0.5 C 2221.83,-0.5 2772.17,-0.5 3322.5,-0.5C 3322.5,542.5 3322.5,1085.5 3322.5,1628.5C 3322.17,1628.5 3321.83,1628.5 3321.5,1628.5C 3319.31,1496.97 3301.47,1367.64 3268,1240.5C 3235.85,1128.53 3192.85,1020.86 3139,917.5C 3134.96,913.65 3130.96,913.65 3127,917.5C 3125.58,920.03 3125.25,922.697 3126,925.5C 3266.41,1220.66 3317.08,1530.66 3278,1855.5C 3231.77,2183.87 3100.77,2472.54 2885,2721.5C 2819.75,2795.09 2749.09,2862.75 2673,2924.5C 2669.61,2910.65 2665.61,2896.98 2661,2883.5C 2645.28,2843.72 2629.28,2804.05 2613,2764.5C 2593.71,2720.55 2569.38,2679.89 2540,2642.5C 2526.06,2628.22 2511.23,2615.05 2495.5,2603C 2447.37,2568.57 2397.37,2536.9 2345.5,2508C 2311.82,2489.49 2277.82,2471.49 2243.5,2454C 2214.25,2403.25 2178.25,2357.58 2135.5,2317C 2128.73,2310.89 2121.39,2305.56 2113.5,2301C 2142.11,2274.06 2168.94,2245.56 2194,2215.5C 2222.52,2182.32 2249.52,2147.98 2275,2112.5C 2297.11,2078.56 2314.44,2042.22 2327,2003.5C 2355.57,1927.38 2367.91,1848.72 2364,1767.5C 2361.18,1721.18 2360.85,1674.85 2363,1628.5C 2364.04,1618.46 2365.37,1608.46 2367,1598.5C 2376.57,1552.41 2386.57,1506.41 2397,1460.5C 2409.46,1403.76 2417.79,1346.42 2422,1288.5C 2422.49,1266.83 2422.33,1245.16 2421.5,1223.5C 2461.65,1229.79 2498.32,1221.29 2531.5,1198C 2596.3,1149.56 2627.8,1084.73 2626,1003.5C 2621.76,962.408 2606.09,926.408 2579,895.5C 2548.12,862.294 2511.96,836.461 2470.5,818C 2458.8,812.816 2447.14,807.65 2435.5,802.5C 2461.67,740.188 2450.01,686.355 2400.5,641C 2378.18,624.844 2353.51,613.511 2326.5,607C 2280.16,597.426 2233.32,593.593 2186,595.5C 2131.66,596.322 2077.33,597.322 2023,598.5C 1978.7,599.72 1934.87,595.887 1891.5,587C 1839.33,570.042 1786.33,556.375 1732.5,546C 1658.19,532.349 1583.52,530.016 1508.5,539C 1386.6,556.191 1285.1,610.691 1204,702.5C 1190.52,718.804 1177.52,735.471 1165,752.5C 1148,779.167 1131,805.833 1114,832.5C 1102.72,848.048 1090.72,863.048 1078,877.5C 1050.86,904.396 1023.53,931.063 996,957.5C 957.116,1004.59 929.783,1057.93 914,1117.5C 887.444,1220.09 885.777,1323.09 909,1426.5C 929.045,1509.3 959.712,1587.97 1001,1662.5C 1036.5,1727.19 1078.16,1787.52 1126,1843.5C 1141.95,1865.12 1158.28,1886.45 1175,1907.5C 1196.57,1941.3 1215.57,1976.64 1232,2013.5C 1231.1,2055.59 1228.6,2097.59 1224.5,2139.5C 1209.63,2140.26 1194.97,2142.42 1180.5,2146C 1146.19,2154.91 1112.86,2166.58 1080.5,2181C 1069.69,2185.9 1059.35,2191.57 1049.5,2198C 1012.17,2234.47 986.506,2277.97 972.5,2328.5C 875.98,2352.4 782.314,2384.56 691.5,2425C 654.378,2442.72 618.711,2462.72 584.5,2485C 553.556,2510.27 528.056,2540.1 508,2574.5C 481.289,2620.8 461.122,2669.8 447.5,2721.5C 252.504,2497.48 127.337,2238.48 72,1944.5C 17.1605,1620.89 54.8271,1308.55 185,1007.5C 310.246,728.218 498.746,501.385 750.5,327C 1052.16,123.368 1385.49,28.701 1750.5,43C 2076.95,61.4707 2372.29,165.804 2636.5,356C 2763.45,448.944 2875.45,557.611 2972.5,682C 2978.84,685.935 2983.67,684.435 2987,677.5C 2987.46,674.07 2986.46,671.07 2984,668.5C 2795.8,413.324 2553.96,227.824 2258.5,112C 2069.47,39.3099 1873.8,1.80994 1671.5,-0.5 Z"/></g>
<g><path style="opacity:1" fill="#000000" d="M 1625.5,-0.5 C 1640.83,-0.5 1656.17,-0.5 1671.5,-0.5C 1873.8,1.80994 2069.47,39.3099 2258.5,112C 2553.96,227.824 2795.8,413.324 2984,668.5C 2986.46,671.07 2987.46,674.07 2987,677.5C 2983.67,684.435 2978.84,685.935 2972.5,682C 2875.45,557.611 2763.45,448.944 2636.5,356C 2372.29,165.804 2076.95,61.4707 1750.5,43C 1385.49,28.701 1052.16,123.368 750.5,327C 498.746,501.385 310.246,728.218 185,1007.5C 54.8271,1308.55 17.1605,1620.89 72,1944.5C 127.337,2238.48 252.504,2497.48 447.5,2721.5C 461.122,2669.8 481.289,2620.8 508,2574.5C 528.056,2540.1 553.556,2510.27 584.5,2485C 618.711,2462.72 654.378,2442.72 691.5,2425C 782.314,2384.56 875.98,2352.4 972.5,2328.5C 986.506,2277.97 1012.17,2234.47 1049.5,2198C 1059.35,2191.57 1069.69,2185.9 1080.5,2181C 1112.86,2166.58 1146.19,2154.91 1180.5,2146C 1194.97,2142.42 1209.63,2140.26 1224.5,2139.5C 1228.6,2097.59 1231.1,2055.59 1232,2013.5C 1215.57,1976.64 1196.57,1941.3 1175,1907.5C 1158.28,1886.45 1141.95,1865.12 1126,1843.5C 1078.16,1787.52 1036.5,1727.19 1001,1662.5C 959.712,1587.97 929.045,1509.3 909,1426.5C 885.777,1323.09 887.444,1220.09 914,1117.5C 929.783,1057.93 957.116,1004.59 996,957.5C 1023.53,931.063 1050.86,904.396 1078,877.5C 1090.72,863.048 1102.72,848.048 1114,832.5C 1131,805.833 1148,779.167 1165,752.5C 1177.52,735.471 1190.52,718.804 1204,702.5C 1285.1,610.691 1386.6,556.191 1508.5,539C 1583.52,530.016 1658.19,532.349 1732.5,546C 1786.33,556.375 1839.33,570.042 1891.5,587C 1934.87,595.887 1978.7,599.72 2023,598.5C 2077.33,597.322 2131.66,596.322 2186,595.5C 2233.32,593.593 2280.16,597.426 2326.5,607C 2353.51,613.511 2378.18,624.844 2400.5,641C 2450.01,686.355 2461.67,740.188 2435.5,802.5C 2447.14,807.65 2458.8,812.816 2470.5,818C 2511.96,836.461 2548.12,862.294 2579,895.5C 2606.09,926.408 2621.76,962.408 2626,1003.5C 2627.8,1084.73 2596.3,1149.56 2531.5,1198C 2498.32,1221.29 2461.65,1229.79 2421.5,1223.5C 2422.33,1245.16 2422.49,1266.83 2422,1288.5C 2417.79,1346.42 2409.46,1403.76 2397,1460.5C 2386.57,1506.41 2376.57,1552.41 2367,1598.5C 2365.37,1608.46 2364.04,1618.46 2363,1628.5C 2360.85,1674.85 2361.18,1721.18 2364,1767.5C 2367.91,1848.72 2355.57,1927.38 2327,2003.5C 2314.44,2042.22 2297.11,2078.56 2275,2112.5C 2249.52,2147.98 2222.52,2182.32 2194,2215.5C 2168.94,2245.56 2142.11,2274.06 2113.5,2301C 2121.39,2305.56 2128.73,2310.89 2135.5,2317C 2178.25,2357.58 2214.25,2403.25 2243.5,2454C 2277.82,2471.49 2311.82,2489.49 2345.5,2508C 2397.37,2536.9 2447.37,2568.57 2495.5,2603C 2511.23,2615.05 2526.06,2628.22 2540,2642.5C 2569.38,2679.89 2593.71,2720.55 2613,2764.5C 2629.28,2804.05 2645.28,2843.72 2661,2883.5C 2665.61,2896.98 2669.61,2910.65 2673,2924.5C 2749.09,2862.75 2819.75,2795.09 2885,2721.5C 3100.77,2472.54 3231.77,2183.87 3278,1855.5C 3317.08,1530.66 3266.41,1220.66 3126,925.5C 3125.25,922.697 3125.58,920.03 3127,917.5C 3130.96,913.65 3134.96,913.65 3139,917.5C 3192.85,1020.86 3235.85,1128.53 3268,1240.5C 3301.47,1367.64 3319.31,1496.97 3321.5,1628.5C 3325.86,1992.54 3224.36,2323.21 3017,2620.5C 2829.51,2881.33 2587.67,3073.83 2291.5,3198C 2079.02,3284.33 1858.02,3325.5 1628.5,3321.5C 1235.48,3310.6 888.812,3180.1 588.5,2930C 360.745,2735.12 195.911,2496.29 94,2213.5C 15.2645,1983.61 -13.4022,1747.61 8,1505.5C 43.1707,1177.81 161.171,884.477 362,625.5C 567.876,369.742 826.71,188.909 1138.5,83C 1296.81,30.9973 1459.14,3.16399 1625.5,-0.5 Z"/></g>
<g><path style="opacity:1" fill="#fefefe" d="M 2002.5,2694.5 C 2003.49,2701.31 2003.82,2708.31 2003.5,2715.5C 2001.78,2769.5 1993.61,2822.5 1979,2874.5C 1968.53,2910.58 1956.86,2946.25 1944,2981.5C 1823.38,2993.63 1704.54,2983.13 1587.5,2950C 1520.43,2930.46 1458.43,2900.79 1401.5,2861C 1397.82,2860.32 1395.32,2861.82 1394,2865.5C 1393.37,2867.64 1393.7,2869.64 1395,2871.5C 1464.82,2922.32 1541.65,2959.15 1625.5,2982C 1725.51,3007.38 1827.18,3018.88 1930.5,3016.5C 1915.21,3055.42 1898.54,3093.75 1880.5,3131.5C 1861.64,3134.68 1842.64,3136.51 1823.5,3137C 1764.83,3140.39 1706.83,3135.72 1649.5,3123C 1563.89,3102.46 1481.55,3072.8 1402.5,3034C 1298.81,2984.36 1203.81,2922.03 1117.5,2847C 1074.66,2808.52 1038.16,2765.02 1008,2716.5C 994.356,2693.21 984.022,2668.55 977,2642.5C 969.946,2612.75 971.279,2583.42 981,2554.5C 984.204,2538.66 985.871,2522.66 986,2506.5C 1015.08,2554.1 1049.58,2597.6 1089.5,2637C 1099.5,2645.67 1109.5,2654.33 1119.5,2663C 1123.02,2666.68 1126.85,2667.18 1131,2664.5C 1132.3,2662.64 1132.63,2660.64 1132,2658.5C 1085.58,2613.1 1047.25,2561.76 1017,2504.5C 1004.79,2481.41 993.124,2458.08 982,2434.5C 980.105,2406.54 983.438,2379.2 992,2352.5C 1002.08,2317.34 1016.75,2284.34 1036,2253.5C 1044.79,2242.37 1053.96,2231.54 1063.5,2221C 1074.72,2213.89 1086.39,2207.56 1098.5,2202C 1128.06,2189.15 1158.39,2178.48 1189.5,2170C 1197.07,2168.18 1204.74,2167.02 1212.5,2166.5C 1215.39,2165.99 1217.72,2166.66 1219.5,2168.5C 1213.99,2219.88 1199.49,2268.55 1176,2314.5C 1172.67,2319.83 1169.33,2325.17 1166,2330.5C 1165.39,2339.45 1169.56,2343.29 1178.5,2342C 1199.51,2314.82 1216.01,2284.99 1228,2252.5C 1250.25,2186.67 1262.25,2119.01 1264,2049.5C 1265.81,1994.17 1265.97,1938.84 1264.5,1883.5C 1269.74,1885.1 1275.08,1885.93 1280.5,1886C 1284.89,1882.57 1285.56,1878.57 1282.5,1874C 1238.77,1857.84 1198.77,1835.51 1162.5,1807C 1088.49,1743.99 1057.99,1664.15 1071,1567.5C 1077.96,1533.08 1094.12,1503.91 1119.5,1480C 1130.07,1471.58 1142.07,1466.25 1155.5,1464C 1211.01,1455.72 1257.51,1472.22 1295,1513.5C 1314.21,1535.9 1329.38,1560.9 1340.5,1588.5C 1347.66,1592 1351.49,1589.66 1352,1581.5C 1377.66,1562.54 1394.66,1537.54 1403,1506.5C 1405.43,1495.24 1407.43,1483.91 1409,1472.5C 1409.67,1451.83 1409.67,1431.17 1409,1410.5C 1405.84,1370.03 1401.5,1329.69 1396,1289.5C 1395.17,1285.79 1395.34,1282.12 1396.5,1278.5C 1420.69,1267.24 1442.69,1252.74 1462.5,1235C 1504.89,1195.62 1538.39,1149.79 1563,1097.5C 1581.75,1124.92 1604.58,1148.42 1631.5,1168C 1649.74,1180.19 1669.74,1187.86 1691.5,1191C 1728.9,1193.72 1756.4,1178.55 1774,1145.5C 1783.75,1125.84 1790.41,1105.18 1794,1083.5C 1861.06,1173.23 1946.23,1239.73 2049.5,1283C 2089.1,1298.23 2129.77,1309.4 2171.5,1316.5C 2164.67,1329.91 2164.84,1343.25 2172,1356.5C 2175.57,1361.03 2180.07,1364.2 2185.5,1366C 2231.37,1367.81 2277.2,1370.31 2323,1373.5C 2335.57,1374 2347.73,1372.16 2359.5,1368C 2364.08,1364.56 2365.58,1360.06 2364,1354.5C 2357.41,1341.9 2348.57,1331.07 2337.5,1322C 2329.01,1315.58 2320.01,1309.92 2310.5,1305C 2335.08,1296.03 2357.42,1283.37 2377.5,1267C 2378.45,1266.52 2379.45,1266.35 2380.5,1266.5C 2382.98,1331.82 2379.48,1396.82 2370,1461.5C 2361.74,1509.99 2352.74,1558.32 2343,1606.5C 2339.47,1631.37 2337.63,1656.37 2337.5,1681.5C 2353.77,1812.89 2330.94,1936.89 2269,2053.5C 2246.6,2090.3 2221.27,2124.96 2193,2157.5C 2152.51,2204.28 2109.01,2248.12 2062.5,2289C 2052.97,2296.85 2042.64,2303.52 2031.5,2309C 1988.34,2318.06 1944.67,2322.23 1900.5,2321.5C 1793.78,2321.92 1691.78,2300.42 1594.5,2257C 1499.03,2213.53 1422.7,2147.86 1365.5,2060C 1361.18,2057.53 1357.68,2058.36 1355,2062.5C 1354.33,2064.5 1354.33,2066.5 1355,2068.5C 1379.62,2126.89 1415.45,2177.39 1462.5,2220C 1477.33,2232.17 1492.17,2244.33 1507,2256.5C 1548.4,2313.9 1597.23,2364.06 1653.5,2407C 1737.22,2465.13 1830.22,2497.47 1932.5,2504C 1940.27,2520.55 1950.93,2534.88 1964.5,2547C 1968.3,2548.05 1972.14,2548.88 1976,2549.5C 1984.82,2585.12 1986.82,2621.12 1982,2657.5C 1970.67,2714.97 1936.84,2751.8 1880.5,2768C 1850.48,2776.5 1819.81,2780.67 1788.5,2780.5C 1644.81,2775.12 1517.48,2727.28 1406.5,2637C 1342.05,2583.13 1288.55,2520.3 1246,2448.5C 1231.37,2422.75 1216.87,2396.91 1202.5,2371C 1196.23,2368.03 1191.39,2369.53 1188,2375.5C 1187.3,2378.93 1187.63,2382.26 1189,2385.5C 1234.14,2483.31 1295.64,2569.48 1373.5,2644C 1424.15,2690.86 1481.15,2728.52 1544.5,2757C 1594.14,2780.77 1645.8,2798.77 1699.5,2811C 1756.72,2824.01 1814.06,2824.67 1871.5,2813C 1919.34,2801.02 1957.18,2774.85 1985,2734.5C 1992.75,2722 1998.59,2708.66 2002.5,2694.5 Z"/></g>
<g><path style="opacity:1" fill="#010101" d="M 1791.5,1260.5 C 1814.57,1260.16 1837.57,1261.33 1860.5,1264C 1875.86,1266.23 1890.19,1271.23 1903.5,1279C 1919.6,1292.99 1926.44,1310.49 1924,1331.5C 1918.57,1346.76 1907.74,1354.42 1891.5,1354.5C 1876.87,1352.67 1862.21,1351.17 1847.5,1350C 1795.13,1347.12 1742.8,1343.79 1690.5,1340C 1673.7,1339.04 1657.7,1335.04 1642.5,1328C 1637.02,1323.95 1636.19,1319.12 1640,1313.5C 1652.61,1301.25 1667.11,1291.75 1683.5,1285C 1718.31,1271.13 1754.31,1262.96 1791.5,1260.5 Z"/></g>
<g><path style="opacity:1" fill="#010101" d="M 2269.5,1522.5 C 2258.17,1522.5 2246.83,1522.5 2235.5,1522.5C 2235.5,1525.5 2235.5,1528.5 2235.5,1531.5C 2235.88,1544.33 2234.71,1557 2232,1569.5C 2220.22,1593.39 2201.55,1601.72 2176,1594.5C 2175.83,1595 2175.67,1595.5 2175.5,1596C 2180.47,1606.77 2185.3,1617.61 2190,1628.5C 2201.62,1650.74 2212.95,1673.07 2224,1695.5C 2233.29,1734.67 2224.29,1769.01 2197,1798.5C 2166.88,1829.81 2130.05,1844.97 2086.5,1844C 2081.18,1839.71 2081.18,1835.38 2086.5,1831C 2123.13,1821 2152.63,1800.84 2175,1770.5C 2183.67,1755.67 2188.83,1739.67 2190.5,1722.5C 2190.05,1713.71 2187.89,1705.38 2184,1697.5C 2143.5,1626.5 2124.83,1550.17 2128,1468.5C 2130.07,1466.35 2132.41,1466.02 2135,1467.5C 2136.6,1476.32 2138.76,1484.98 2141.5,1493.5C 2143.62,1492.11 2145.95,1491.44 2148.5,1491.5C 2194.21,1496.28 2239.88,1501.45 2285.5,1507C 2290.77,1511.49 2290.77,1516.16 2285.5,1521C 2280.29,1522.4 2274.96,1522.9 2269.5,1522.5 Z"/></g>
<g><path style="opacity:1" fill="#010101" d="M 1663.5,1468.5 C 1727.57,1472.23 1791.57,1476.73 1855.5,1482C 1862.9,1486.24 1864.4,1492.07 1860,1499.5C 1858.68,1501.49 1856.85,1502.65 1854.5,1503C 1829.83,1503.59 1805.16,1503.42 1780.5,1502.5C 1779.85,1514.82 1779.35,1527.15 1779,1539.5C 1774.51,1565.32 1759.18,1579.32 1733,1581.5C 1707.75,1579.59 1692.42,1566.26 1687,1541.5C 1686.86,1527.84 1687.03,1514.17 1687.5,1500.5C 1680.16,1500.67 1672.83,1500.5 1665.5,1500C 1654.48,1493.6 1651.98,1484.77 1658,1473.5C 1659.81,1471.7 1661.65,1470.03 1663.5,1468.5 Z"/></g>
<g><path style="opacity:1" fill="#b3b3b3" d="M 2269.5,1522.5 C 2258.68,1523.49 2247.68,1523.83 2236.5,1523.5C 2236.81,1526.39 2236.47,1529.05 2235.5,1531.5C 2235.5,1528.5 2235.5,1525.5 2235.5,1522.5C 2246.83,1522.5 2258.17,1522.5 2269.5,1522.5 Z"/></g>
<g><path style="opacity:1" fill="#020202" d="M 1180.5,1539.5 C 1226.38,1536.88 1253.21,1558.21 1261,1603.5C 1263.51,1625.48 1261.85,1647.14 1256,1668.5C 1254.52,1680.62 1256.19,1692.28 1261,1703.5C 1265.16,1711.83 1269.83,1719.83 1275,1727.5C 1276.29,1735.79 1272.79,1738.95 1264.5,1737C 1230.67,1717.51 1216.5,1688.34 1222,1649.5C 1222.67,1637.17 1222.67,1624.83 1222,1612.5C 1220.24,1587.51 1206.74,1575.18 1181.5,1575.5C 1172.2,1576.61 1164.7,1580.95 1159,1588.5C 1151.52,1599.76 1146.69,1612.09 1144.5,1625.5C 1140.68,1628.39 1137.18,1628.06 1134,1624.5C 1124.77,1593.94 1132.61,1568.77 1157.5,1549C 1164.75,1544.54 1172.41,1541.37 1180.5,1539.5 Z"/></g>
<g><path style="opacity:1" fill="#fefefe" d="M -0.5,-0.5 C 541.5,-0.5 1083.5,-0.5 1625.5,-0.5C 1459.14,3.16399 1296.81,30.9973 1138.5,83C 826.71,188.909 567.876,369.742 362,625.5C 161.171,884.477 43.1707,1177.81 8,1505.5C -13.4022,1747.61 15.2645,1983.61 94,2213.5C 195.911,2496.29 360.745,2735.12 588.5,2930C 888.812,3180.1 1235.48,3310.6 1628.5,3321.5C 1628.5,3321.83 1628.5,3322.17 1628.5,3322.5C 1085.5,3322.5 542.5,3322.5 -0.5,3322.5C -0.5,2214.83 -0.5,1107.17 -0.5,-0.5 Z"/></g>
<g><path style="opacity:1" fill="#fefefe" d="M 3321.5,1628.5 C 3321.83,1628.5 3322.17,1628.5 3322.5,1628.5C 3322.5,2193.17 3322.5,2757.83 3322.5,3322.5C 2757.83,3322.5 2193.17,3322.5 1628.5,3322.5C 1628.5,3322.17 1628.5,3321.83 1628.5,3321.5C 1858.02,3325.5 2079.02,3284.33 2291.5,3198C 2587.67,3073.83 2829.51,2881.33 3017,2620.5C 3224.36,2323.21 3325.86,1992.54 3321.5,1628.5 Z"/></g>
<g><path style="opacity:1" fill="#010101" d="M 1822.5,1871.5 C 1825.52,1871.34 1828.52,1871.5 1831.5,1872C 1877.21,1899.19 1925.87,1919.19 1977.5,1932C 2001,1936.34 2024.66,1937.67 2048.5,1936C 2055.05,1938.73 2057.22,1943.56 2055,1950.5C 2044.72,1962.09 2032.22,1970.59 2017.5,1976C 1985.12,1986.16 1952.78,1985.82 1920.5,1975C 1879.22,1961.05 1846.72,1935.88 1823,1899.5C 1820.39,1894.62 1818.06,1889.62 1816,1884.5C 1814.97,1878.55 1817.14,1874.22 1822.5,1871.5 Z"/></g>
<g><path style="opacity:1" fill="#9c9c9c" d="M 1212.5,2166.5 C 1214.95,2165.53 1217.61,2165.19 1220.5,2165.5C 1220.74,2166.79 1220.4,2167.79 1219.5,2168.5C 1217.72,2166.66 1215.39,2165.99 1212.5,2166.5 Z"/></g>
<g><path style="opacity:1" fill="#fefefe" d="M 2106.5,2332.5 C 2108.02,2332.51 2109.18,2333.18 2110,2334.5C 2111.61,2337.38 2112.94,2340.38 2114,2343.5C 2174.6,2400.46 2221.6,2467.13 2255,2543.5C 2286.93,2617.22 2308.6,2693.89 2320,2773.5C 2329.97,2845.83 2333.97,2918.49 2332,2991.5C 2329.8,3040.56 2326.96,3089.56 2323.5,3138.5C 2280.92,3157.59 2237.58,3174.92 2193.5,3190.5C 2196.04,3170.88 2199.21,3151.22 2203,3131.5C 2212.87,3072.19 2219.54,3012.52 2223,2952.5C 2225.43,2900.26 2223.09,2848.26 2216,2796.5C 2212.09,2791.57 2207.75,2791.24 2203,2795.5C 2203.54,2810.51 2204.54,2825.51 2206,2840.5C 2207.67,2887.93 2206.34,2935.27 2202,2982.5C 2198.8,3011.24 2195.13,3039.9 2191,3068.5C 2183.62,3112.36 2175.45,3156.03 2166.5,3199.5C 2073.3,3229.57 1978.14,3250.91 1881,3263.5C 1880.17,3263.17 1879.33,3262.83 1878.5,3262.5C 1884.33,3225.88 1892.83,3189.88 1904,3154.5C 1922.82,3113.85 1940.82,3072.85 1958,3031.5C 1980.87,2975.89 1999.53,2918.89 2014,2860.5C 2031.7,2782.77 2033.04,2704.77 2018,2626.5C 2010.28,2595 2001.95,2563.67 1993,2532.5C 1986.78,2514.06 1979.45,2496.06 1971,2478.5C 1963.44,2450.01 1956.94,2421.51 1951.5,2393C 2005.99,2379.57 2057.65,2359.4 2106.5,2332.5 Z"/></g>
<g><path style="opacity:1" fill="#ececec" d="M 1961.5,2365.5 C 1964.85,2365.33 1968.18,2365.5 1971.5,2366C 1962.12,2369.07 1952.79,2372.24 1943.5,2375.5C 1941.71,2373.14 1940.71,2370.47 1940.5,2367.5C 1947.67,2367.09 1954.67,2366.43 1961.5,2365.5 Z"/></g>
<g><path style="opacity:1" fill="#040404" d="M 2036.5,2419.5 C 2038.2,2419.34 2039.87,2419.51 2041.5,2420C 2089.14,2470.48 2113.8,2530.65 2115.5,2600.5C 2115.49,2606.08 2115.16,2611.58 2114.5,2617C 2111.47,2618.14 2109.31,2617.31 2108,2614.5C 2098.38,2583.31 2087.38,2552.65 2075,2522.5C 2060.94,2492.05 2046.61,2461.71 2032,2431.5C 2030.47,2426.24 2031.97,2422.24 2036.5,2419.5 Z"/></g>
<g><path style="opacity:1" fill="#474747" d="M 2003.5,2715.5 C 2003.82,2708.31 2003.49,2701.31 2002.5,2694.5C 2002.78,2693.71 2003.28,2693.04 2004,2692.5C 2004.82,2700.34 2004.66,2708.01 2003.5,2715.5 Z"/></g>
</svg>
