<?xml version="1.0" encoding="UTF-8"?>
<!DOCTYPE svg PUBLIC "-//W3C//DTD SVG 1.1//EN" "http://www.w3.org/Graphics/SVG/1.1/DTD/svg11.dtd">
<svg xmlns="http://www.w3.org/2000/svg" version="1.1" width="3706px" height="1507px" style="shape-rendering:geometricPrecision; text-rendering:geometricPrecision; image-rendering:optimizeQuality; fill-rule:evenodd; clip-rule:evenodd" xmlns:xlink="http://www.w3.org/1999/xlink">
<g><path style="opacity:0.191" fill="#fcfafb" d="M 683.5,-0.5 C 1462.17,-0.5 2240.83,-0.5 3019.5,-0.5C 3026.77,1.30526 3034.43,2.1386 3042.5,2C 3047.24,2.89974 3051.9,4.0664 3056.5,5.5C 3066.48,6.33223 3076.48,6.83223 3086.5,7C 3091.88,9.11476 3097.55,10.1148 3103.5,10C 3107.26,11.0192 3110.93,12.3525 3114.5,14C 3118.5,14.3333 3122.5,14.6667 3126.5,15C 3131.89,17.4322 3137.55,19.0989 3143.5,20C 3143.96,20.414 3144.29,20.914 3144.5,21.5C 3157.92,24.0327 3171.25,27.0327 3184.5,30.5C 3184.5,31.5 3184.5,32.5 3184.5,33.5C 3187.85,33.335 3191.18,33.5017 3194.5,34C 3198.29,37.8054 3202.96,39.3054 3208.5,38.5C 3208.5,39.5 3208.5,40.5 3208.5,41.5C 3214.87,40.5302 3220.53,42.0302 3225.5,46C 3228.17,46.3333 3230.83,46.6667 3233.5,47C 3238.13,50.5442 3243.13,53.0442 3248.5,54.5C 3248.5,55.5 3248.5,56.5 3248.5,57.5C 3254.14,57.3131 3259.47,58.4798 3264.5,61C 3269.62,64.02 3274.95,66.8534 3280.5,69.5C 3282.77,70.3142 3285.1,70.8142 3287.5,71C 3291.14,74.2567 3295.47,76.2567 3300.5,77C 3306.5,81.0516 3312.83,84.5516 3319.5,87.5C 3321.38,88.8026 3323.04,90.3026 3324.5,92C 3331.7,96.0297 3339.03,99.6964 3346.5,103C 3347.5,104.667 3348.83,106 3350.5,107C 3353.5,108.339 3356.5,109.673 3359.5,111C 3362.2,113.674 3365.2,115.841 3368.5,117.5C 3370.05,118.452 3371.71,118.785 3373.5,118.5C 3373.5,119.5 3373.5,120.5 3373.5,121.5C 3374.5,121.5 3375.5,121.5 3376.5,121.5C 3376.5,123.167 3376.5,124.833 3376.5,126.5C 3381.54,125.666 3385.88,126.999 3389.5,130.5C 3390.25,131.736 3390.58,133.07 3390.5,134.5C 3392.17,134.5 3393.83,134.5 3395.5,134.5C 3395.5,135.5 3395.5,136.5 3395.5,137.5C 3399.46,137.627 3402.63,139.294 3405,142.5C 3409.53,143.971 3413.03,146.638 3415.5,150.5C 3417.29,152.46 3419.46,153.793 3422,154.5C 3422.49,155.793 3422.66,157.127 3422.5,158.5C 3424.29,158.215 3425.95,158.548 3427.5,159.5C 3431,162.752 3435,165.252 3439.5,167C 3440.38,168.356 3440.71,169.856 3440.5,171.5C 3443.17,172.5 3445.83,173.5 3448.5,174.5C 3448.5,175.5 3448.5,176.5 3448.5,177.5C 3449.55,177.351 3450.55,177.517 3451.5,178C 3455.65,181.399 3459.31,185.233 3462.5,189.5C 3463.73,190.281 3465.06,190.781 3466.5,191C 3468.67,194.5 3471.5,197.333 3475,199.5C 3475.49,200.793 3475.66,202.127 3475.5,203.5C 3476.87,203.343 3478.21,203.51 3479.5,204C 3480.67,205.836 3482.34,207.002 3484.5,207.5C 3485.43,208.689 3485.76,210.022 3485.5,211.5C 3486.5,211.5 3487.5,211.5 3488.5,211.5C 3488.5,212.5 3488.5,213.5 3488.5,214.5C 3492.22,214.05 3494.39,215.717 3495,219.5C 3498.34,223.564 3502.17,227.231 3506.5,230.5C 3507.39,231.325 3507.72,232.325 3507.5,233.5C 3511.99,234.159 3513.66,236.825 3512.5,241.5C 3513.5,241.5 3514.5,241.5 3515.5,241.5C 3515.5,242.5 3515.5,243.5 3515.5,244.5C 3519.5,243.833 3521.17,245.5 3520.5,249.5C 3522.14,249.286 3523.64,249.62 3525,250.5C 3527.27,253.085 3528.43,256.085 3528.5,259.5C 3532.52,260.309 3536.02,262.309 3539,265.5C 3540.18,268.932 3541.35,272.265 3542.5,275.5C 3546.91,275.062 3548.57,277.062 3547.5,281.5C 3551.5,280.833 3553.17,282.5 3552.5,286.5C 3553.5,286.5 3554.5,286.5 3555.5,286.5C 3555.5,289.167 3555.5,291.833 3555.5,294.5C 3557.17,294.5 3558.83,294.5 3560.5,294.5C 3560.5,295.5 3560.5,296.5 3560.5,297.5C 3562.14,297.286 3563.64,297.62 3565,298.5C 3566.48,302.446 3567.65,306.446 3568.5,310.5C 3572.42,309.93 3574.59,311.597 3575,315.5C 3576.21,316.071 3577.37,316.738 3578.5,317.5C 3578.85,320.309 3580.02,322.642 3582,324.5C 3582.49,326.134 3582.66,327.801 3582.5,329.5C 3586.99,330.159 3588.66,332.825 3587.5,337.5C 3589.17,337.5 3590.83,337.5 3592.5,337.5C 3592.5,340.167 3592.5,342.833 3592.5,345.5C 3593.5,345.5 3594.5,345.5 3595.5,345.5C 3595.5,347.167 3595.5,348.833 3595.5,350.5C 3597.17,350.5 3598.83,350.5 3600.5,350.5C 3600.5,353.167 3600.5,355.833 3600.5,358.5C 3602.17,358.5 3603.83,358.5 3605.5,358.5C 3607.38,363.807 3609.05,369.141 3610.5,374.5C 3611.55,374.351 3612.55,374.517 3613.5,375C 3613.91,378.382 3615.58,380.882 3618.5,382.5C 3619.48,385.086 3619.81,387.753 3619.5,390.5C 3621.59,390.561 3623.09,391.561 3624,393.5C 3624.1,395.619 3624.93,397.286 3626.5,398.5C 3627.48,401.086 3627.81,403.753 3627.5,406.5C 3629.17,406.5 3630.83,406.5 3632.5,406.5C 3632.5,409.167 3632.5,411.833 3632.5,414.5C 3634.91,414.137 3636.41,415.137 3637,417.5C 3637.5,420.146 3637.66,422.813 3637.5,425.5C 3638.5,425.5 3639.5,425.5 3640.5,425.5C 3640.5,428.167 3640.5,430.833 3640.5,433.5C 3642.14,433.286 3643.64,433.62 3645,434.5C 3645.83,437.5 3646.67,440.5 3647.5,443.5C 3650.17,447.315 3652.33,451.315 3654,455.5C 3654.5,458.817 3654.67,462.15 3654.5,465.5C 3656.17,465.5 3657.83,465.5 3659.5,465.5C 3659.18,468.898 3659.51,472.232 3660.5,475.5C 3661.75,476.04 3662.91,476.707 3664,477.5C 3666.13,483.894 3667.63,490.561 3668.5,497.5C 3669.75,498.04 3670.91,498.707 3672,499.5C 3672.5,504.155 3672.67,508.821 3672.5,513.5C 3674.17,513.5 3675.83,513.5 3677.5,513.5C 3678.8,523.139 3679.8,532.806 3680.5,542.5C 3682.29,542.215 3683.95,542.548 3685.5,543.5C 3686.11,547.489 3686.77,551.489 3687.5,555.5C 3688.85,556.685 3690.02,558.019 3691,559.5C 3690.88,565.454 3691.88,571.121 3694,576.5C 3694.5,583.826 3694.67,591.159 3694.5,598.5C 3696.17,598.5 3697.83,598.5 3699.5,598.5C 3699.17,604.537 3699.5,610.537 3700.5,616.5C 3701.74,617.246 3703.07,617.579 3704.5,617.5C 3704.17,628.679 3704.51,639.679 3705.5,650.5C 3705.5,718.167 3705.5,785.833 3705.5,853.5C 3704.67,864.659 3704.17,875.993 3704,887.5C 3702.64,888.38 3701.14,888.714 3699.5,888.5C 3699.67,892.846 3699.5,897.179 3699,901.5C 3698.41,903.863 3696.91,904.863 3694.5,904.5C 3694.67,912.507 3694.5,920.507 3694,928.5C 3691.89,932.491 3690.89,936.824 3691,941.5C 3690.41,943.863 3688.91,944.863 3686.5,944.5C 3686.67,949.179 3686.5,953.845 3686,958.5C 3684.6,960.192 3682.77,960.859 3680.5,960.5C 3679.72,970.186 3678.72,979.852 3677.5,989.5C 3675.83,989.5 3674.17,989.5 3672.5,989.5C 3672.67,993.514 3672.5,997.514 3672,1001.5C 3670.91,1002.29 3669.75,1002.96 3668.5,1003.5C 3667.67,1007.46 3667.17,1011.46 3667,1015.5C 3664.99,1017.68 3663.99,1020.35 3664,1023.5C 3662.64,1024.38 3661.14,1024.71 3659.5,1024.5C 3659.67,1028.85 3659.5,1033.18 3659,1037.5C 3657.85,1038.74 3656.51,1039.74 3655,1040.5C 3653.32,1045.72 3651.82,1051.06 3650.5,1056.5C 3650.17,1058.17 3649.17,1059.17 3647.5,1059.5C 3646.67,1062.5 3645.83,1065.5 3645,1068.5C 3643.64,1069.38 3642.14,1069.71 3640.5,1069.5C 3640.5,1072.17 3640.5,1074.83 3640.5,1077.5C 3639.5,1077.5 3638.5,1077.5 3637.5,1077.5C 3638.34,1082.06 3637.01,1085.73 3633.5,1088.5C 3632.52,1091.09 3632.19,1093.75 3632.5,1096.5C 3630.83,1096.5 3629.17,1096.5 3627.5,1096.5C 3627.66,1098.86 3627.5,1101.19 3627,1103.5C 3625.08,1105.89 3623.58,1108.56 3622.5,1111.5C 3621.68,1112.39 3620.68,1112.72 3619.5,1112.5C 3619.71,1114.92 3619.37,1117.25 3618.5,1119.5C 3617.31,1120.43 3615.98,1120.76 3614.5,1120.5C 3614.66,1122.86 3614.5,1125.19 3614,1127.5C 3612.99,1128.34 3611.82,1128.67 3610.5,1128.5C 3608.29,1133.61 3606.62,1138.94 3605.5,1144.5C 3603.83,1144.5 3602.17,1144.5 3600.5,1144.5C 3600.5,1147.17 3600.5,1149.83 3600.5,1152.5C 3598.83,1152.5 3597.17,1152.5 3595.5,1152.5C 3595.5,1154.17 3595.5,1155.83 3595.5,1157.5C 3594.5,1157.5 3593.5,1157.5 3592.5,1157.5C 3592.5,1160.17 3592.5,1162.83 3592.5,1165.5C 3590.83,1165.5 3589.17,1165.5 3587.5,1165.5C 3587.71,1167.92 3587.37,1170.25 3586.5,1172.5C 3585.31,1173.43 3583.98,1173.76 3582.5,1173.5C 3582.5,1174.5 3582.5,1175.5 3582.5,1176.5C 3581.5,1176.5 3580.5,1176.5 3579.5,1176.5C 3579.66,1178.86 3579.5,1181.19 3579,1183.5C 3577.64,1184.38 3576.14,1184.71 3574.5,1184.5C 3575.37,1189.45 3573.37,1192.12 3568.5,1192.5C 3567.47,1196.49 3566.3,1200.49 3565,1204.5C 3563.64,1205.38 3562.14,1205.71 3560.5,1205.5C 3560.5,1206.5 3560.5,1207.5 3560.5,1208.5C 3559.13,1208.34 3557.79,1208.51 3556.5,1209C 3556.1,1213.33 3554.6,1217.17 3552,1220.5C 3550.64,1221.38 3549.14,1221.71 3547.5,1221.5C 3547.26,1223.97 3545.93,1225.64 3543.5,1226.5C 3542.61,1230.19 3541.11,1233.52 3539,1236.5C 3537.64,1237.38 3536.14,1237.71 3534.5,1237.5C 3534.65,1240.97 3532.98,1242.97 3529.5,1243.5C 3528.47,1246.84 3526.97,1249.84 3525,1252.5C 3523.64,1253.38 3522.14,1253.71 3520.5,1253.5C 3520.66,1254.87 3520.49,1256.21 3520,1257.5C 3517.33,1258.71 3514.83,1260.05 3512.5,1261.5C 3513.17,1264.83 3511.83,1266.83 3508.5,1267.5C 3508.17,1271.17 3506.17,1273.17 3502.5,1273.5C 3501.36,1275.8 3500.03,1277.97 3498.5,1280C 3497.21,1280.49 3495.87,1280.66 3494.5,1280.5C 3494.51,1284.45 3492.51,1286.11 3488.5,1285.5C 3488.61,1290.8 3485.95,1293.47 3480.5,1293.5C 3481.57,1297.94 3479.91,1299.94 3475.5,1299.5C 3475.66,1300.87 3475.49,1302.21 3475,1303.5C 3467.22,1309.65 3459.72,1316.15 3452.5,1323C 3451.21,1323.49 3449.87,1323.66 3448.5,1323.5C 3448.26,1326.26 3446.92,1328.43 3444.5,1330C 3441.91,1332.27 3438.91,1333.43 3435.5,1333.5C 3435.79,1335.29 3435.45,1336.95 3434.5,1338.5C 3432.21,1339.71 3429.87,1340.71 3427.5,1341.5C 3427.5,1342.5 3427.5,1343.5 3427.5,1344.5C 3425.83,1344.5 3424.17,1344.5 3422.5,1344.5C 3422.71,1346.14 3422.38,1347.64 3421.5,1349C 3418.25,1350.58 3415.25,1352.58 3412.5,1355C 3411.21,1355.49 3409.87,1355.66 3408.5,1355.5C 3408.9,1359.76 3406.9,1361.59 3402.5,1361C 3400.96,1362.11 3400.3,1363.61 3400.5,1365.5C 3398.83,1365.5 3397.17,1365.5 3395.5,1365.5C 3395.5,1366.5 3395.5,1367.5 3395.5,1368.5C 3391.14,1369.17 3387.81,1371.5 3385.5,1375.5C 3382.37,1377.29 3379.03,1378.63 3375.5,1379.5C 3374.38,1380.91 3373.38,1382.41 3372.5,1384C 3350.21,1396.73 3327.88,1409.9 3305.5,1423.5C 3301.68,1425.19 3298.02,1427.02 3294.5,1429C 3290.85,1429.5 3287.18,1429.67 3283.5,1429.5C 3283.5,1430.5 3283.5,1431.5 3283.5,1432.5C 3274.65,1435.64 3266.31,1439.8 3258.5,1445C 3255.18,1445.5 3251.85,1445.67 3248.5,1445.5C 3248.5,1446.5 3248.5,1447.5 3248.5,1448.5C 3242.84,1450.97 3236.84,1452.97 3230.5,1454.5C 3226.77,1456.36 3223.11,1458.52 3219.5,1461C 3212.7,1463.04 3205.7,1464.54 3198.5,1465.5C 3197.39,1466.89 3196.06,1468.06 3194.5,1469C 3191.18,1469.5 3187.85,1469.67 3184.5,1469.5C 3184.5,1470.5 3184.5,1471.5 3184.5,1472.5C 3181.75,1472.19 3179.09,1472.52 3176.5,1473.5C 3166.69,1479.04 3156.02,1481.71 3144.5,1481.5C 3144.29,1482.09 3143.96,1482.59 3143.5,1483C 3126.27,1486.83 3108.94,1490.49 3091.5,1494C 3090.67,1494.91 3089.67,1495.58 3088.5,1496C 3079.5,1496.33 3070.5,1496.67 3061.5,1497C 3060.38,1498.04 3059.04,1498.71 3057.5,1499C 3045.35,1500.87 3033.01,1501.87 3020.5,1502C 3020.04,1502.41 3019.71,1502.91 3019.5,1503.5C 2631.17,1503.83 2242.83,1504.17 1854.5,1504.5C 1466.17,1504.17 1077.83,1503.83 689.5,1503.5C 689.291,1502.91 688.957,1502.41 688.5,1502C 664.043,1500.38 639.71,1498.38 615.5,1496C 614.328,1495.58 613.328,1494.91 612.5,1494C 602.505,1492.33 592.505,1490.33 582.5,1488C 581.833,1487.33 581.167,1486.67 580.5,1486C 575.112,1485.28 569.778,1484.28 564.5,1483C 564.043,1482.59 563.709,1482.09 563.5,1481.5C 558.533,1480.67 553.533,1480.17 548.5,1480C 540.289,1477.08 531.956,1474.58 523.5,1472.5C 523.5,1471.5 523.5,1470.5 523.5,1469.5C 520.102,1469.82 516.768,1469.49 513.5,1468.5C 505.619,1465.47 497.619,1462.97 489.5,1461C 485.438,1457.81 480.772,1456.15 475.5,1456C 467.678,1450.08 459.011,1446.42 449.5,1445C 446.102,1442.75 442.435,1441.25 438.5,1440.5C 438.5,1439.5 438.5,1438.5 438.5,1437.5C 434.788,1436.97 431.121,1436.14 427.5,1435C 414.674,1429.57 402.34,1423.4 390.5,1416.5C 390.5,1415.5 390.5,1414.5 390.5,1413.5C 384.332,1412.29 378.332,1410.46 372.5,1408C 371.62,1406.64 371.286,1405.14 371.5,1403.5C 370.127,1403.66 368.793,1403.49 367.5,1403C 355.938,1395.05 343.938,1387.89 331.5,1381.5C 331.5,1380.5 331.5,1379.5 331.5,1378.5C 327.026,1377.09 322.693,1375.43 318.5,1373.5C 318.5,1371.83 318.5,1370.17 318.5,1368.5C 316.801,1368.66 315.134,1368.49 313.5,1368C 306.071,1362.92 298.738,1357.75 291.5,1352.5C 291.5,1351.5 291.5,1350.5 291.5,1349.5C 289.833,1349.5 288.167,1349.5 286.5,1349.5C 286.5,1347.83 286.5,1346.17 286.5,1344.5C 281.825,1345.66 279.159,1343.99 278.5,1339.5C 272.175,1338.5 267.509,1335.17 264.5,1329.5C 261.154,1327.85 257.988,1325.85 255,1323.5C 254.517,1322.55 254.351,1321.55 254.5,1320.5C 253.5,1320.5 252.5,1320.5 251.5,1320.5C 251.5,1318.83 251.5,1317.17 251.5,1315.5C 249.833,1315.5 248.167,1315.5 246.5,1315.5C 246.5,1314.5 246.5,1313.5 246.5,1312.5C 244.833,1312.5 243.167,1312.5 241.5,1312.5C 239.639,1310.25 238.639,1307.59 238.5,1304.5C 234.488,1305.11 232.488,1303.45 232.5,1299.5C 231.07,1299.58 229.736,1299.25 228.5,1298.5C 225.844,1295.68 223.011,1293.01 220,1290.5C 219.506,1288.87 219.34,1287.2 219.5,1285.5C 214.054,1285.47 211.388,1282.8 211.5,1277.5C 208.015,1277.41 205.015,1276.24 202.5,1274C 199.973,1271.32 198.64,1268.15 198.5,1264.5C 194.488,1265.11 192.488,1263.45 192.5,1259.5C 188.554,1259.51 186.887,1257.51 187.5,1253.5C 184.891,1253.17 183.224,1251.67 182.5,1249C 181.552,1248.52 180.552,1248.35 179.5,1248.5C 179.5,1246.83 179.5,1245.17 179.5,1243.5C 173.447,1242.44 170.114,1238.78 169.5,1232.5C 168.5,1232.5 167.5,1232.5 166.5,1232.5C 166.5,1230.83 166.5,1229.17 166.5,1227.5C 162.076,1228.01 159.743,1226.01 159.5,1221.5C 155.86,1218.9 153.527,1215.56 152.5,1211.5C 148.554,1211.51 146.887,1209.51 147.5,1205.5C 143.486,1204.46 141.82,1201.79 142.5,1197.5C 141.5,1197.5 140.5,1197.5 139.5,1197.5C 139.5,1195.83 139.5,1194.17 139.5,1192.5C 137.833,1192.5 136.167,1192.5 134.5,1192.5C 134.5,1190.83 134.5,1189.17 134.5,1187.5C 132.61,1187.7 131.11,1187.04 130,1185.5C 127.711,1182.65 126.377,1179.32 126,1175.5C 124.829,1174.11 123.329,1173.27 121.5,1173C 120.912,1169.98 119.245,1167.82 116.5,1166.5C 116.148,1163.69 114.982,1161.36 113,1159.5C 112.503,1157.19 112.337,1154.86 112.5,1152.5C 110.856,1152.71 109.356,1152.38 108,1151.5C 107.503,1149.19 107.337,1146.86 107.5,1144.5C 106.127,1144.66 104.793,1144.49 103.5,1144C 99.9609,1140.61 98.6276,1136.45 99.5,1131.5C 97.8561,1131.71 96.3561,1131.38 95,1130.5C 94.6667,1128.5 94.3333,1126.5 94,1124.5C 92.197,1123.69 90.697,1122.52 89.5,1121C 87.4719,1116.72 86.4719,1112.22 86.5,1107.5C 84.712,1107.79 83.0453,1107.45 81.5,1106.5C 81.3163,1102.56 79.6496,1099.56 76.5,1097.5C 75.3126,1091.75 73.9792,1086.09 72.5,1080.5C 70.8561,1080.71 69.3561,1080.38 68,1079.5C 68.157,1075.17 66.4903,1071.84 63,1069.5C 62.5026,1066.85 62.3359,1064.19 62.5,1061.5C 61.5,1061.5 60.5,1061.5 59.5,1061.5C 59.5,1058.83 59.5,1056.17 59.5,1053.5C 57.8561,1053.71 56.3561,1053.38 55,1052.5C 54.5012,1048.51 54.3345,1044.51 54.5,1040.5C 52.2341,1040.86 50.4007,1040.19 49,1038.5C 47.7091,1032.22 46.8757,1025.88 46.5,1019.5C 44.8561,1019.71 43.3561,1019.38 42,1018.5C 40.958,1014.24 40.1246,1009.91 39.5,1005.5C 38.1861,1004.69 37.0195,1003.69 36,1002.5C 35.8612,999.175 34.8612,996.175 33,993.5C 32.5008,988.845 32.3342,984.179 32.5,979.5C 30.8561,979.714 29.3561,979.38 28,978.5C 27.5017,975.183 27.335,971.85 27.5,968.5C 25.6096,968.703 24.1096,968.037 23,966.5C 22.5006,960.843 22.3339,955.176 22.5,949.5C 21.5,949.5 20.5,949.5 19.5,949.5C 19.5,943.5 19.5,937.5 19.5,931.5C 17.8561,931.714 16.3561,931.38 15,930.5C 14.5002,921.84 14.3336,913.173 14.5,904.5C 12.2341,904.859 10.4007,904.192 9,902.5C 7.75746,891.524 6.92412,880.524 6.5,869.5C 4.85613,869.714 3.35613,869.38 2,868.5C 0.97848,862.731 0.145146,857.064 -0.5,851.5C -0.5,825.833 -0.5,800.167 -0.5,774.5C 9.82429,986.813 92.491,1164.98 247.5,1309C 380.751,1426.91 536.751,1490.91 715.5,1501C 1471.17,1501.67 2226.83,1501.67 2982.5,1501C 3182.54,1491.86 3353.04,1417.03 3494,1276.5C 3609.18,1156.8 3678.51,1014.13 3702,848.5C 3726.24,637.039 3673.24,448.039 3543,281.5C 3415.01,126.555 3250.84,35.0552 3050.5,7C 3028.2,4.85383 3005.87,3.18716 2983.5,2C 2229.83,1.33333 1476.17,1.33333 722.5,2C 518.242,12.1367 345.409,90.3034 204,236.5C 78.3215,372.592 10.1548,533.592 -0.5,719.5C -0.5,699.5 -0.5,679.5 -0.5,659.5C 0.328254,653.013 0.828254,646.346 1,639.5C 1.66216,636.583 3.49549,635.25 6.5,635.5C 7.72495,622.315 8.55829,608.981 9,595.5C 8.79127,591.541 10.6246,589.874 14.5,590.5C 14.3338,584.491 14.5005,578.491 15,572.5C 16.3561,571.62 17.8561,571.286 19.5,571.5C 19.5,565.5 19.5,559.5 19.5,553.5C 20.5,553.5 21.5,553.5 22.5,553.5C 22.3342,548.821 22.5008,544.155 23,539.5C 24.049,537.893 25.549,537.227 27.5,537.5C 27.3343,533.154 27.501,528.821 28,524.5C 29.3561,523.62 30.8561,523.286 32.5,523.5C 32.3345,519.486 32.5012,515.486 33,511.5C 33.414,511.043 33.914,510.709 34.5,510.5C 35.3265,506.541 35.8265,502.541 36,498.5C 37.3561,497.62 38.8561,497.286 40.5,497.5C 40.2725,493.61 40.6058,489.776 41.5,486C 42.619,484.124 44.2856,483.291 46.5,483.5C 46.3509,476.305 47.3509,469.305 49.5,462.5C 51.1667,462.5 52.8333,462.5 54.5,462.5C 54.3345,458.486 54.5012,454.486 55,450.5C 56.3561,449.62 57.8561,449.286 59.5,449.5C 59.5,446.833 59.5,444.167 59.5,441.5C 60.5,441.5 61.5,441.5 62.5,441.5C 61.5142,436.842 62.8476,433.176 66.5,430.5C 67.3142,428.234 67.8142,425.9 68,423.5C 69.3561,422.62 70.8561,422.286 72.5,422.5C 73.6445,416.865 74.9778,411.198 76.5,405.5C 79.6496,403.436 81.3163,400.436 81.5,396.5C 83.0453,395.548 84.712,395.215 86.5,395.5C 86.7126,390.253 88.0459,385.253 90.5,380.5C 91.7362,379.754 93.0695,379.421 94.5,379.5C 94.1924,377.076 94.5258,374.743 95.5,372.5C 96.7362,371.754 98.0695,371.421 99.5,371.5C 99.1924,369.076 99.5258,366.743 100.5,364.5C 102.069,363.286 102.902,361.619 103,359.5C 104.356,358.62 105.856,358.286 107.5,358.5C 107.26,355.421 107.593,352.421 108.5,349.5C 110.852,348.015 113.186,346.682 115.5,345.5C 115.26,342.421 115.593,339.421 116.5,336.5C 119.158,335.349 120.825,333.349 121.5,330.5C 123.045,329.548 124.712,329.215 126.5,329.5C 126.5,326.833 126.5,324.167 126.5,321.5C 127.5,321.5 128.5,321.5 129.5,321.5C 129.595,318.728 130.929,316.728 133.5,315.5C 134.452,313.955 134.785,312.288 134.5,310.5C 136.167,310.5 137.833,310.5 139.5,310.5C 139.5,308.833 139.5,307.167 139.5,305.5C 140.5,305.5 141.5,305.5 142.5,305.5C 141.773,301.776 143.106,299.109 146.5,297.5C 147.386,296.675 147.719,295.675 147.5,294.5C 149.167,294.5 150.833,294.5 152.5,294.5C 151.856,288.626 154.189,284.293 159.5,281.5C 160.025,277.304 162.359,275.304 166.5,275.5C 166.5,273.833 166.5,272.167 166.5,270.5C 167.5,270.5 168.5,270.5 169.5,270.5C 169.343,269.127 169.51,267.793 170,266.5C 172.043,264.792 173.71,262.792 175,260.5C 176.356,259.62 177.856,259.286 179.5,259.5C 179.5,257.833 179.5,256.167 179.5,254.5C 181.39,254.703 182.89,254.037 184,252.5C 186.191,250.294 187.691,247.628 188.5,244.5C 191.982,243.965 193.649,241.965 193.5,238.5C 195.167,238.5 196.833,238.5 198.5,238.5C 198.806,233.199 201.472,229.866 206.5,228.5C 206.5,227.5 206.5,226.5 206.5,225.5C 208.167,225.5 209.833,225.5 211.5,225.5C 211.34,223.801 211.506,222.134 212,220.5C 213.585,219.624 214.585,218.291 215,216.5C 217.333,215.587 219.166,214.087 220.5,212C 221.793,211.51 223.127,211.343 224.5,211.5C 224.343,210.127 224.51,208.793 225,207.5C 227.098,205.236 229.598,203.57 232.5,202.5C 233.246,201.264 233.579,199.93 233.5,198.5C 235.167,198.5 236.833,198.5 238.5,198.5C 238.308,195.191 239.641,192.691 242.5,191C 243.793,190.51 245.127,190.343 246.5,190.5C 246.5,189.5 246.5,188.5 246.5,187.5C 248.167,187.5 249.833,187.5 251.5,187.5C 251.5,185.833 251.5,184.167 251.5,182.5C 254.885,180.629 257.885,178.129 260.5,175C 264.236,173.454 267.236,170.954 269.5,167.5C 273.935,165.235 277.935,162.401 281.5,159C 283.134,158.506 284.801,158.34 286.5,158.5C 286.5,156.833 286.5,155.167 286.5,153.5C 288.167,153.5 289.833,153.5 291.5,153.5C 291.5,152.5 291.5,151.5 291.5,150.5C 298.959,145.596 306.292,140.429 313.5,135C 315.134,134.506 316.801,134.34 318.5,134.5C 318.286,132.856 318.62,131.356 319.5,130C 321.618,129.74 323.284,128.74 324.5,127C 326.81,126.503 329.143,126.337 331.5,126.5C 331.5,124.833 331.5,123.167 331.5,121.5C 339.04,118.362 346.04,114.195 352.5,109C 358.248,107.101 363.248,104.101 367.5,100C 372.126,98.9619 375.793,96.6285 378.5,93C 382.482,91.4588 386.482,90.2921 390.5,89.5C 390.5,88.5 390.5,87.5 390.5,86.5C 396.731,83.7107 402.731,80.5441 408.5,77C 413.647,76.6393 417.98,74.6393 421.5,71C 424.482,70.502 427.482,70.3354 430.5,70.5C 430.5,69.5 430.5,68.5 430.5,67.5C 433.025,66.36 435.692,65.6933 438.5,65.5C 438.5,64.5 438.5,63.5 438.5,62.5C 444.426,60.5815 450.426,58.7482 456.5,57C 462.899,53.9652 469.232,50.6319 475.5,47C 480.772,46.8544 485.438,45.1877 489.5,42C 500.216,39.7856 510.549,36.119 520.5,31C 526.138,29.6727 531.805,28.1727 537.5,26.5C 542.132,25.6717 546.798,25.1717 551.5,25C 560.476,20.1506 570.142,17.4839 580.5,17C 581.167,16.3333 581.833,15.6667 582.5,15C 596.034,12.5043 609.368,9.83759 622.5,7C 631.186,6.83186 639.852,6.33186 648.5,5.5C 649.025,4.80762 649.692,4.30762 650.5,4C 661.846,2.90741 672.846,1.40741 683.5,-0.5 Z"/></g>
<g><path style="opacity:0.998" fill="#66001c" d="M -0.5,774.5 C -0.5,756.167 -0.5,737.833 -0.5,719.5C 10.1548,533.592 78.3215,372.592 204,236.5C 345.409,90.3034 518.242,12.1367 722.5,2C 1476.17,1.33333 2229.83,1.33333 2983.5,2C 3005.87,3.18716 3028.2,4.85383 3050.5,7C 3250.84,35.0552 3415.01,126.555 3543,281.5C 3673.24,448.039 3726.24,637.039 3702,848.5C 3678.51,1014.13 3609.18,1156.8 3494,1276.5C 3353.04,1417.03 3182.54,1491.86 2982.5,1501C 2226.83,1501.67 1471.17,1501.67 715.5,1501C 536.751,1490.91 380.751,1426.91 247.5,1309C 92.491,1164.98 9.82429,986.813 -0.5,774.5 Z"/></g>
<g><path style="opacity:1" fill="#fe5656" d="M 728.5,305.5 C 887.4,302.898 1014.9,364.231 1111,489.5C 1188.22,599.952 1212.56,721.285 1184,853.5C 1145.39,1001.44 1055.89,1105.61 915.5,1166C 783.652,1215.56 655.652,1207.22 531.5,1141C 412.808,1071.25 339.308,968.75 311,833.5C 287.671,693.017 321.338,568.35 412,459.5C 496.268,364.952 601.768,313.618 728.5,305.5 Z"/></g>
<g><path style="opacity:1" fill="#fc5050" d="M 1827.5,305.5 C 1980.76,300.376 2106.59,356.043 2205,472.5C 2294.28,588.884 2322.28,718.884 2289,862.5C 2247.39,1009.43 2155.89,1111.6 2014.5,1169C 1900.67,1209.77 1788,1206.77 1676.5,1160C 1552.88,1102.37 1470.38,1008.54 1429,878.5C 1391.82,744.426 1410.82,619.093 1486,502.5C 1569.24,384.608 1683.07,318.941 1827.5,305.5 Z"/></g>
<g><path style="opacity:1" fill="#fc5050" d="M 2937.5,305.5 C 3080.34,300.915 3200.18,350.581 3297,454.5C 3380.95,551.348 3417.95,664.014 3408,792.5C 3391.61,936.551 3323.44,1048.38 3203.5,1128C 3100.11,1191.44 2988.77,1211.44 2869.5,1188C 2728.82,1153.96 2625.99,1072.46 2561,943.5C 2517.64,849.516 2506.97,751.85 2529,650.5C 2559.21,530.347 2626.38,437.18 2730.5,371C 2794.17,332.166 2863.17,310.333 2937.5,305.5 Z"/></g>
</svg>
