<?xml version="1.0" encoding="UTF-8"?>
<!DOCTYPE svg PUBLIC "-//W3C//DTD SVG 1.1//EN" "http://www.w3.org/Graphics/SVG/1.1/DTD/svg11.dtd">
<svg xmlns="http://www.w3.org/2000/svg" version="1.1" width="512px" height="512px" style="shape-rendering:geometricPrecision; text-rendering:geometricPrecision; image-rendering:optimizeQuality; fill-rule:evenodd; clip-rule:evenodd" xmlns:xlink="http://www.w3.org/1999/xlink">
<g><path style="opacity:0.989" fill="#092947" d="M 511.5,83.5 C 511.5,202.833 511.5,322.167 511.5,441.5C 510.254,443.901 508.254,445.401 505.5,446C 468.168,446.5 430.835,446.667 393.5,446.5C 393.667,457.838 393.5,469.172 393,480.5C 388.077,494.639 378.077,500.306 363,497.5C 352.9,499.243 344.233,496.576 337,489.5C 335.107,486.382 333.774,483.049 333,479.5C 332.5,468.505 332.333,457.505 332.5,446.5C 317.83,446.333 303.163,446.5 288.5,447C 285.066,451.19 281.4,455.19 277.5,459C 262.833,459.667 248.167,459.667 233.5,459C 229.6,455.19 225.934,451.19 222.5,447C 150.167,446.667 77.8333,446.333 5.5,446C 2.74583,445.401 0.745833,443.901 -0.5,441.5C -0.5,322.167 -0.5,202.833 -0.5,83.5C 1.08167,81.0303 3.41501,79.5303 6.5,79C 14.8267,78.5003 23.16,78.3336 31.5,78.5C 31.3334,59.1638 31.5,39.8305 32,20.5C 32.3459,18.1523 33.5125,16.3189 35.5,15C 68.2496,13.8399 101.083,13.3399 134,13.5C 166.167,13.6667 198.333,13.8333 230.5,14C 240.118,15.1438 248.451,18.9771 255.5,25.5C 262.549,18.9771 270.882,15.1438 280.5,14C 344.833,13.3333 409.167,13.3333 473.5,14C 476.428,15.2598 478.261,17.4265 479,20.5C 479.5,39.8305 479.667,59.1638 479.5,78.5C 487.84,78.3336 496.173,78.5003 504.5,79C 507.585,79.5303 509.918,81.0303 511.5,83.5 Z"/></g>
<g><path style="opacity:1" fill="#fdfefe" d="M 409.5,372.5 C 404.167,372.5 398.833,372.5 393.5,372.5C 393.667,290.499 393.5,208.499 393,126.5C 385.167,108.167 377.333,89.8333 369.5,71.5C 364.667,67.2615 360.167,67.5949 356,72.5C 347.928,90.6377 340.428,108.971 333.5,127.5C 332.501,208.998 332.167,290.665 332.5,372.5C 327.073,372.782 321.74,372.449 316.5,371.5C 316.256,368.737 314.923,366.571 312.5,365C 300.833,364.333 289.167,364.333 277.5,365C 269.168,366.999 261.835,370.832 255.5,376.5C 249.176,370.837 241.843,367.004 233.5,365C 171.834,364.5 110.168,364.333 48.5,364.5C 48.5,253.167 48.5,141.833 48.5,30.5C 108.168,30.3333 167.834,30.5 227.5,31C 231.377,31.2565 235.043,32.2565 238.5,34C 243.134,37.6321 247.467,41.6321 251.5,46C 252.872,46.4017 254.205,46.9017 255.5,47.5C 256.795,46.9017 258.128,46.4017 259.5,46C 263.533,41.6321 267.866,37.6321 272.5,34C 275.405,32.7138 278.405,31.7138 281.5,31C 341.832,30.5 402.166,30.3333 462.5,30.5C 462.5,141.833 462.5,253.167 462.5,364.5C 446.163,364.333 429.83,364.5 413.5,365C 410.976,366.883 409.642,369.383 409.5,372.5 Z"/></g>
<g><path style="opacity:1" fill="#082947" d="M 80.5,57.5 C 124.168,57.3333 167.835,57.5 211.5,58C 217.471,60.4957 218.971,64.6623 216,70.5C 215.097,71.7014 213.931,72.5348 212.5,73C 168.5,73.6667 124.5,73.6667 80.5,73C 77.5927,71.2007 75.9261,68.534 75.5,65C 76.5892,62.0844 78.2558,59.5844 80.5,57.5 Z"/></g>
<g><path style="opacity:1" fill="#082947" d="M 252.5,63.5 C 257.28,62.6409 260.78,64.3075 263,68.5C 263.667,162.5 263.667,256.5 263,350.5C 258,357.167 253,357.167 248,350.5C 247.333,256.5 247.333,162.5 248,68.5C 249.025,66.313 250.525,64.6464 252.5,63.5 Z"/></g>
<g><path style="opacity:1" fill="#93d2cf" d="M 40.5,380.5 C 40.5,385.833 40.5,391.167 40.5,396.5C 33.7105,397.736 31.2105,401.736 33,408.5C 33.9299,410.552 35.4299,412.052 37.5,413C 101.5,413.333 165.5,413.667 229.5,414C 232.595,414.714 235.595,415.714 238.5,417C 243.134,420.632 247.467,424.632 251.5,429C 254.167,431 256.833,431 259.5,429C 264.775,422.047 271.442,417.047 279.5,414C 289.5,413.667 299.5,413.333 309.5,413C 314.552,412.391 316.886,409.558 316.5,404.5C 321.833,404.5 327.167,404.5 332.5,404.5C 332.5,393.833 332.5,383.167 332.5,372.5C 332.167,290.665 332.501,208.998 333.5,127.5C 333.5,228.167 333.5,328.833 333.5,429.5C 316.83,429.333 300.163,429.5 283.5,430C 277.929,433.233 273.262,437.566 269.5,443C 260.167,443.667 250.833,443.667 241.5,443C 237.738,437.566 233.071,433.233 227.5,430C 156.834,429.5 86.1675,429.333 15.5,429.5C 15.5,318.167 15.5,206.833 15.5,95.5C 21.1667,95.5 26.8333,95.5 32.5,95.5C 32.3333,188.834 32.5,282.167 33,375.5C 34.4103,378.789 36.9103,380.456 40.5,380.5 Z"/></g>
<g><path style="opacity:1" fill="#082947" d="M 80.5,96.5 C 124.501,96.3333 168.501,96.5 212.5,97C 219.059,101.916 219.059,106.916 212.5,112C 168.5,112.667 124.5,112.667 80.5,112C 73.9142,106.84 73.9142,101.673 80.5,96.5 Z"/></g>
<g><path style="opacity:1" fill="#92d2cf" d="M 393.5,404.5 C 398.833,404.5 404.167,404.5 409.5,404.5C 409.64,408.602 411.64,411.436 415.5,413C 434.167,413.667 452.833,413.667 471.5,413C 478.463,410.77 480.296,406.27 477,399.5C 474.948,398.207 472.781,397.207 470.5,396.5C 470.5,391.167 470.5,385.833 470.5,380.5C 474.09,380.456 476.59,378.789 478,375.5C 478.5,282.167 478.667,188.834 478.5,95.5C 484.167,95.5 489.833,95.5 495.5,95.5C 495.5,206.833 495.5,318.167 495.5,429.5C 461.5,429.5 427.5,429.5 393.5,429.5C 393.5,421.167 393.5,412.833 393.5,404.5 Z"/></g>
<g><path style="opacity:0.998" fill="#ece6d5" d="M 362.5,98.5 C 366.191,105.191 369.524,112.191 372.5,119.5C 366.193,120.664 359.859,120.831 353.5,120C 356.644,112.88 359.644,105.713 362.5,98.5 Z"/></g>
<g><path style="opacity:0.998" fill="#092947" d="M 80.5,135.5 C 103.836,135.333 127.169,135.5 150.5,136C 154.753,139.42 155.587,143.587 153,148.5C 152.097,149.701 150.931,150.535 149.5,151C 126.5,151.667 103.5,151.667 80.5,151C 73.9971,145.614 73.9971,140.448 80.5,135.5 Z"/></g>
<g><path style="opacity:1" fill="#fecb74" d="M 349.5,136.5 C 358.5,136.5 367.5,136.5 376.5,136.5C 376.5,228.5 376.5,320.5 376.5,412.5C 367.5,412.5 358.5,412.5 349.5,412.5C 349.5,320.5 349.5,228.5 349.5,136.5 Z"/></g>
<g><path style="opacity:1" fill="#0e2c4a" d="M 82.5,173.5 C 125.168,173.333 167.835,173.5 210.5,174C 216.842,176.183 218.675,180.35 216,186.5C 214.681,188.487 212.848,189.654 210.5,190C 167.5,190.667 124.5,190.667 81.5,190C 73.2293,183.932 73.5627,178.432 82.5,173.5 Z"/></g>
<g><path style="opacity:1" fill="#0d2c4a" d="M 81.5,212.5 C 124.501,212.333 167.501,212.5 210.5,213C 216.842,215.183 218.675,219.35 216,225.5C 214.681,227.487 212.848,228.654 210.5,229C 167.833,229.667 125.167,229.667 82.5,229C 76.5396,226.665 74.7062,222.498 77,216.5C 78.3968,214.93 79.8968,213.596 81.5,212.5 Z"/></g>
<g><path style="opacity:1" fill="#0d2c49" d="M 80.5,251.5 C 85.814,250.74 89.6473,252.74 92,257.5C 92.5,278.497 92.6666,299.497 92.5,320.5C 98.5,320.5 104.5,320.5 110.5,320.5C 110.333,309.828 110.5,299.161 111,288.5C 114.42,284.247 118.587,283.413 123.5,286C 124.701,286.903 125.535,288.069 126,289.5C 126.5,299.828 126.666,310.161 126.5,320.5C 132.5,320.5 138.5,320.5 144.5,320.5C 144.333,299.497 144.5,278.497 145,257.5C 147.573,251.545 151.739,250.045 157.5,253C 159.487,254.319 160.654,256.152 161,258.5C 161.5,279.164 161.667,299.831 161.5,320.5C 167.5,320.5 173.5,320.5 179.5,320.5C 179.333,309.828 179.5,299.161 180,288.5C 183.42,284.247 187.587,283.413 192.5,286C 193.701,286.903 194.535,288.069 195,289.5C 195.5,299.828 195.666,310.161 195.5,320.5C 200.511,320.334 205.511,320.501 210.5,321C 216.842,323.183 218.675,327.35 216,333.5C 214.421,335.041 212.587,336.208 210.5,337C 167.833,337.667 125.167,337.667 82.5,337C 79,336.167 76.8333,334 76,330.5C 75.3333,306.167 75.3333,281.833 76,257.5C 77.332,255.34 78.832,253.34 80.5,251.5 Z"/></g>
<g><path style="opacity:1" fill="#bfe6e4" d="M 316.5,371.5 C 321.74,372.449 327.073,372.782 332.5,372.5C 332.5,383.167 332.5,393.833 332.5,404.5C 327.167,404.5 321.833,404.5 316.5,404.5C 316.101,400.266 313.768,397.766 309.5,397C 299.833,396.333 290.167,396.333 280.5,397C 274.857,397.936 269.524,399.77 264.5,402.5C 263.341,398.878 263.175,395.211 264,391.5C 268.655,386.087 274.488,382.587 281.5,381C 291.5,380.667 301.5,380.333 311.5,380C 315.089,378.326 316.755,375.493 316.5,371.5 Z"/></g>
<g><path style="opacity:1" fill="#c0e7e5" d="M 393.5,372.5 C 398.833,372.5 404.167,372.5 409.5,372.5C 409.544,376.09 411.211,378.59 414.5,380C 433.164,380.5 451.83,380.667 470.5,380.5C 470.5,385.833 470.5,391.167 470.5,396.5C 452.164,396.333 433.83,396.5 415.5,397C 412.143,398.512 410.143,401.012 409.5,404.5C 404.167,404.5 398.833,404.5 393.5,404.5C 393.5,393.833 393.5,383.167 393.5,372.5 Z"/></g>
<g><path style="opacity:1" fill="#c0e7e5" d="M 40.5,380.5 C 102.168,380.333 163.834,380.5 225.5,381C 234.188,381.427 241.354,384.927 247,391.5C 247.825,395.211 247.659,398.878 246.5,402.5C 240.487,399.58 234.154,397.747 227.5,397C 165.168,396.5 102.834,396.333 40.5,396.5C 40.5,391.167 40.5,385.833 40.5,380.5 Z"/></g>
<g><path style="opacity:0.999" fill="#0b2b49" d="M 470.5,396.5 C 472.781,397.207 474.948,398.207 477,399.5C 480.296,406.27 478.463,410.77 471.5,413C 452.833,413.667 434.167,413.667 415.5,413C 411.64,411.436 409.64,408.602 409.5,404.5C 410.143,401.012 412.143,398.512 415.5,397C 433.83,396.5 452.164,396.333 470.5,396.5 Z"/></g>
<g><path style="opacity:1" fill="#6da8d6" d="M 349.5,428.5 C 358.5,428.5 367.5,428.5 376.5,428.5C 376.5,433.833 376.5,439.167 376.5,444.5C 367.5,444.5 358.5,444.5 349.5,444.5C 349.5,439.167 349.5,433.833 349.5,428.5 Z"/></g>
<g><path style="opacity:0.999" fill="#f1474a" d="M 349.5,461.5 C 358.5,461.5 367.5,461.5 376.5,461.5C 376.666,467.176 376.499,472.843 376,478.5C 375.5,479 375,479.5 374.5,480C 366.833,480.667 359.167,480.667 351.5,480C 351,479.5 350.5,479 350,478.5C 349.501,472.843 349.334,467.176 349.5,461.5 Z"/></g>
</svg>
