<?xml version="1.0" encoding="UTF-8"?>
<!DOCTYPE svg PUBLIC "-//W3C//DTD SVG 1.1//EN" "http://www.w3.org/Graphics/SVG/1.1/DTD/svg11.dtd">
<svg xmlns="http://www.w3.org/2000/svg" version="1.1" width="1024px" height="1024px" style="shape-rendering:geometricPrecision; text-rendering:geometricPrecision; image-rendering:optimizeQuality; fill-rule:evenodd; clip-rule:evenodd" xmlns:xlink="http://www.w3.org/1999/xlink">
<g><path style="opacity:1" fill="#fefefe" d="M -0.5,-0.5 C 340.833,-0.5 682.167,-0.5 1023.5,-0.5C 1023.5,340.833 1023.5,682.167 1023.5,1023.5C 682.167,1023.5 340.833,1023.5 -0.5,1023.5C -0.5,682.167 -0.5,340.833 -0.5,-0.5 Z"/></g>
<g><path style="opacity:1" fill="#05095a" d="M 681.5,299.5 C 681.054,302.01 681.72,304.01 683.5,305.5C 706.288,380.786 751.621,438.286 819.5,478C 842.85,490.669 867.516,500.002 893.5,506C 896.886,509.373 897.386,513.206 895,517.5C 817.956,537.233 757.623,580.233 714,646.5C 709.977,654.658 705.81,662.658 701.5,670.5C 700.094,670.973 699.427,671.973 699.5,673.5C 692.803,687.594 687.47,702.261 683.5,717.5C 681.517,720.799 680.517,724.466 680.5,728.5C 677.871,733.356 673.871,734.689 668.5,732.5C 666.421,729.102 665.087,725.436 664.5,721.5C 664.741,719.102 664.074,717.102 662.5,715.5C 648.441,668.207 623.774,627.373 588.5,593C 551.994,557.24 508.994,532.574 459.5,519C 453.938,513.837 454.271,509.171 460.5,505C 543.783,482.75 605.283,433.25 645,356.5C 652.078,340.752 658.245,324.752 663.5,308.5C 665.277,305.495 666.277,302.162 666.5,298.5C 667.613,290.528 671.779,288.528 679,292.5C 680.903,294.441 681.736,296.774 681.5,299.5 Z"/></g>
<g><path style="opacity:1" fill="#5f5a90" d="M 681.5,299.5 C 682.738,301.214 683.405,303.214 683.5,305.5C 681.72,304.01 681.054,302.01 681.5,299.5 Z"/></g>
<g><path style="opacity:1" fill="#5b598f" d="M 666.5,298.5 C 666.277,302.162 665.277,305.495 663.5,308.5C 663.723,304.838 664.723,301.505 666.5,298.5 Z"/></g>
<g><path style="opacity:1" fill="#2277e9" d="M 160.5,332.5 C 180.169,332.333 199.836,332.5 219.5,333C 253.268,339.761 266.434,359.927 259,393.5C 251.844,410.149 239.344,419.649 221.5,422C 200.833,422.667 180.167,422.667 159.5,422C 134.878,416.873 121.878,401.707 120.5,376.5C 123.048,351.955 136.381,337.288 160.5,332.5 Z"/></g>
<g><path style="opacity:1" fill="#2076e9" d="M 331.5,333.5 C 388.168,333.333 444.834,333.5 501.5,334C 526.873,340.711 539.373,357.211 539,383.5C 534.84,403.656 523.007,416.822 503.5,423C 445.167,423.667 386.833,423.667 328.5,423C 306.511,416.013 295.178,401.013 294.5,378C 294.562,359.872 302.562,346.538 318.5,338C 322.801,336.178 327.135,334.678 331.5,333.5 Z"/></g>
<g><path style="opacity:1" fill="#2276e9" d="M 243.5,529.5 C 243.317,522.132 243.65,514.799 244.5,507.5C 249.679,492.155 260.012,481.988 275.5,477C 297.801,475.412 320.134,475.078 342.5,476C 367.375,480.039 381.042,494.539 383.5,519.5C 382.083,545.086 368.75,560.253 343.5,565C 320.463,565.936 297.463,565.603 274.5,564C 257.969,557.974 247.636,546.474 243.5,529.5 Z"/></g>
<g><path style="opacity:1" fill="#73a9f1" d="M 244.5,507.5 C 243.65,514.799 243.317,522.132 243.5,529.5C 242.347,523.347 242.18,517.014 243,510.5C 243.232,509.263 243.732,508.263 244.5,507.5 Z"/></g>
<g><path style="opacity:1" fill="#2176e9" d="M 271.5,675.5 C 269.755,677.033 268.755,679.033 268.5,681.5C 261.621,690.618 252.621,696.785 241.5,700C 228.702,701.092 215.868,701.592 203,701.5C 190.788,701.614 178.621,701.114 166.5,700C 146.138,691.961 135.472,676.961 134.5,655C 136.511,632.99 148.178,618.99 169.5,613C 193.883,612.039 218.216,612.373 242.5,614C 267.365,622.218 278.199,639.384 275,665.5C 273.83,668.857 272.663,672.191 271.5,675.5 Z"/></g>
<g><path style="opacity:1" fill="#2276e9" d="M 547.5,642.5 C 547.94,651.276 548.273,659.943 548.5,668.5C 543.354,687.435 531.021,698.602 511.5,702C 455.531,703.642 399.531,703.975 343.5,703C 319.412,697.302 306.745,682.136 305.5,657.5C 306.307,633.185 318.641,618.351 342.5,613C 399.5,612.333 456.5,612.333 513.5,613C 530.335,616.679 541.669,626.513 547.5,642.5 Z"/></g>
<g><path style="opacity:1" fill="#5493ed" d="M 547.5,642.5 C 551.046,651.048 551.379,659.715 548.5,668.5C 548.273,659.943 547.94,651.276 547.5,642.5 Z"/></g>
<g><path style="opacity:1" fill="#7877a3" d="M 701.5,670.5 C 701.573,672.027 700.906,673.027 699.5,673.5C 699.427,671.973 700.094,670.973 701.5,670.5 Z"/></g>
<g><path style="opacity:1" fill="#a6c6f6" d="M 271.5,675.5 C 271.245,677.967 270.245,679.967 268.5,681.5C 268.755,679.033 269.755,677.033 271.5,675.5 Z"/></g>
<g><path style="opacity:1" fill="#7e7da8" d="M 662.5,715.5 C 664.074,717.102 664.741,719.102 664.5,721.5C 662.926,719.898 662.259,717.898 662.5,715.5 Z"/></g>
<g><path style="opacity:1" fill="#a8a8c3" d="M 683.5,717.5 C 683.074,721.427 682.074,725.093 680.5,728.5C 680.517,724.466 681.517,720.799 683.5,717.5 Z"/></g>
</svg>
