<?xml version="1.0" encoding="UTF-8"?>
<!DOCTYPE svg PUBLIC "-//W3C//DTD SVG 1.1//EN" "http://www.w3.org/Graphics/SVG/1.1/DTD/svg11.dtd">
<svg xmlns="http://www.w3.org/2000/svg" version="1.1" width="3323px" height="3323px" style="shape-rendering:geometricPrecision; text-rendering:geometricPrecision; image-rendering:optimizeQuality; fill-rule:evenodd; clip-rule:evenodd" xmlns:xlink="http://www.w3.org/1999/xlink">
<g><path style="opacity:1" fill="#fefefe" d="M 1684.5,-0.5 C 2230.5,-0.5 2776.5,-0.5 3322.5,-0.5C 3322.5,543.833 3322.5,1088.17 3322.5,1632.5C 3322.17,1632.5 3321.83,1632.5 3321.5,1632.5C 3319.5,1497.18 3301,1364.18 3266,1233.5C 3233.66,1124.14 3191.33,1018.81 3139,917.5C 3134.37,913.354 3130.04,913.687 3126,918.5C 3125.33,920.833 3125.33,923.167 3126,925.5C 3273.9,1236.82 3322.24,1563.15 3271,1904.5C 3212.21,2242.08 3065.55,2534.08 2831,2780.5C 2782.01,2831.34 2730.18,2878.67 2675.5,2922.5C 2656.02,2864.22 2634.85,2806.56 2612,2749.5C 2589.87,2697.07 2558.7,2650.9 2518.5,2611C 2483.79,2580.96 2445.13,2556.96 2402.5,2539C 2360.09,2523.2 2318.25,2506.03 2277,2487.5C 2261.82,2422.11 2239.98,2359.11 2211.5,2298.5C 2221.47,2278.43 2228.97,2257.43 2234,2235.5C 2241.39,2199.57 2248.39,2163.57 2255,2127.5C 2257.49,2115.7 2260.49,2104.04 2264,2092.5C 2288.95,2050.61 2311.28,2007.28 2331,1962.5C 2372.87,1860.64 2391.2,1754.64 2386,1644.5C 2383.19,1597.2 2381.36,1549.87 2380.5,1502.5C 2380.3,1476.47 2381.13,1450.47 2383,1424.5C 2405.09,1399.08 2426.42,1373.08 2447,1346.5C 2472.65,1312.9 2493.98,1276.56 2511,1237.5C 2539.96,1167.69 2549.3,1095.35 2539,1020.5C 2528.82,963.451 2502.98,915.118 2461.5,875.5C 2490.8,771.498 2474.63,675.165 2413,586.5C 2303.09,439.297 2158.59,388.797 1979.5,435C 1934.52,446.662 1890.85,461.996 1848.5,481C 1823.62,493.106 1798.29,504.106 1772.5,514C 1763.56,515.161 1754.9,514.161 1746.5,511C 1719.68,501.393 1693.01,491.393 1666.5,481C 1595.69,454.217 1522.69,445.217 1447.5,454C 1378.8,463.7 1318.13,490.7 1265.5,535C 1223.15,575.831 1193.65,624.664 1177,681.5C 1171.33,700.5 1165.67,719.5 1160,738.5C 1157.42,747.493 1152.92,755.327 1146.5,762C 1113.3,778.898 1081.97,798.565 1052.5,821C 996.021,868.416 955.188,926.916 930,996.5C 895.141,1087.9 890.141,1180.9 915,1275.5C 935.857,1330.8 939.191,1387.14 925,1444.5C 894.77,1540.2 904.77,1631.53 955,1718.5C 972.854,1746.7 994.688,1771.53 1020.5,1793C 1051.5,1816.67 1082.5,1840.33 1113.5,1864C 1161.07,1904.12 1196.4,1953.12 1219.5,2011C 1191.94,2014.25 1164.27,2015.92 1136.5,2016C 1078.67,2028.39 1022.67,2046.39 968.5,2070C 910.089,2096.1 859.256,2132.6 816,2179.5C 805.179,2193.14 794.845,2207.14 785,2221.5C 771.454,2243.69 766.454,2267.69 770,2293.5C 770.896,2302.9 772.229,2312.23 774,2321.5C 775.785,2336.9 774.119,2351.9 769,2366.5C 750.6,2379.95 731.767,2392.78 712.5,2405C 668.329,2431.58 624.662,2458.92 581.5,2487C 571.855,2494.82 561.855,2502.16 551.5,2509C 531.553,2526.42 515.053,2546.59 502,2569.5C 474.843,2616.63 456.176,2666.97 446,2720.5C 218.647,2457.08 87.6472,2151.08 53,1802.5C 27.6038,1477.12 91.9371,1170.78 246,883.5C 406.822,595.01 633.655,374.51 926.5,222C 1269.8,48.6252 1630.13,-0.0414866 2007.5,76C 2341.7,150.128 2626.87,309.628 2863,554.5C 2901.75,595.232 2938.25,637.732 2972.5,682C 2978.84,685.935 2983.67,684.435 2987,677.5C 2987.67,675.833 2987.67,674.167 2987,672.5C 2775.34,385.316 2499.18,186.816 2158.5,77C 2004.07,28.7832 1846.07,2.94984 1684.5,-0.5 Z"/></g>
<g><path style="opacity:1" fill="#000000" d="M 1637.5,-0.5 C 1653.17,-0.5 1668.83,-0.5 1684.5,-0.5C 1846.07,2.94984 2004.07,28.7832 2158.5,77C 2499.18,186.816 2775.34,385.316 2987,672.5C 2987.67,674.167 2987.67,675.833 2987,677.5C 2983.67,684.435 2978.84,685.935 2972.5,682C 2938.25,637.732 2901.75,595.232 2863,554.5C 2626.87,309.628 2341.7,150.128 2007.5,76C 1630.13,-0.0414866 1269.8,48.6252 926.5,222C 633.655,374.51 406.822,595.01 246,883.5C 91.9371,1170.78 27.6038,1477.12 53,1802.5C 87.6472,2151.08 218.647,2457.08 446,2720.5C 456.176,2666.97 474.843,2616.63 502,2569.5C 515.053,2546.59 531.553,2526.42 551.5,2509C 561.855,2502.16 571.855,2494.82 581.5,2487C 624.662,2458.92 668.329,2431.58 712.5,2405C 731.767,2392.78 750.6,2379.95 769,2366.5C 774.119,2351.9 775.785,2336.9 774,2321.5C 772.229,2312.23 770.896,2302.9 770,2293.5C 766.454,2267.69 771.454,2243.69 785,2221.5C 794.845,2207.14 805.179,2193.14 816,2179.5C 859.256,2132.6 910.089,2096.1 968.5,2070C 1022.67,2046.39 1078.67,2028.39 1136.5,2016C 1164.27,2015.92 1191.94,2014.25 1219.5,2011C 1196.4,1953.12 1161.07,1904.12 1113.5,1864C 1082.5,1840.33 1051.5,1816.67 1020.5,1793C 994.688,1771.53 972.854,1746.7 955,1718.5C 904.77,1631.53 894.77,1540.2 925,1444.5C 939.191,1387.14 935.857,1330.8 915,1275.5C 890.141,1180.9 895.141,1087.9 930,996.5C 955.188,926.916 996.021,868.416 1052.5,821C 1081.97,798.565 1113.3,778.898 1146.5,762C 1152.92,755.327 1157.42,747.493 1160,738.5C 1165.67,719.5 1171.33,700.5 1177,681.5C 1193.65,624.664 1223.15,575.831 1265.5,535C 1318.13,490.7 1378.8,463.7 1447.5,454C 1522.69,445.217 1595.69,454.217 1666.5,481C 1693.01,491.393 1719.68,501.393 1746.5,511C 1754.9,514.161 1763.56,515.161 1772.5,514C 1798.29,504.106 1823.62,493.106 1848.5,481C 1890.85,461.996 1934.52,446.662 1979.5,435C 2158.59,388.797 2303.09,439.297 2413,586.5C 2474.63,675.165 2490.8,771.498 2461.5,875.5C 2502.98,915.118 2528.82,963.451 2539,1020.5C 2549.3,1095.35 2539.96,1167.69 2511,1237.5C 2493.98,1276.56 2472.65,1312.9 2447,1346.5C 2426.42,1373.08 2405.09,1399.08 2383,1424.5C 2381.13,1450.47 2380.3,1476.47 2380.5,1502.5C 2381.36,1549.87 2383.19,1597.2 2386,1644.5C 2391.2,1754.64 2372.87,1860.64 2331,1962.5C 2311.28,2007.28 2288.95,2050.61 2264,2092.5C 2260.49,2104.04 2257.49,2115.7 2255,2127.5C 2248.39,2163.57 2241.39,2199.57 2234,2235.5C 2228.97,2257.43 2221.47,2278.43 2211.5,2298.5C 2239.98,2359.11 2261.82,2422.11 2277,2487.5C 2318.25,2506.03 2360.09,2523.2 2402.5,2539C 2445.13,2556.96 2483.79,2580.96 2518.5,2611C 2558.7,2650.9 2589.87,2697.07 2612,2749.5C 2634.85,2806.56 2656.02,2864.22 2675.5,2922.5C 2730.18,2878.67 2782.01,2831.34 2831,2780.5C 3065.55,2534.08 3212.21,2242.08 3271,1904.5C 3322.24,1563.15 3273.9,1236.82 3126,925.5C 3125.33,923.167 3125.33,920.833 3126,918.5C 3130.04,913.687 3134.37,913.354 3139,917.5C 3191.33,1018.81 3233.66,1124.14 3266,1233.5C 3301,1364.18 3319.5,1497.18 3321.5,1632.5C 3325.14,1986.02 3228.31,2308.69 3031,2600.5C 2819.63,2903.12 2539.13,3114.96 2189.5,3236C 2008.45,3296.26 1822.45,3324.76 1631.5,3321.5C 1237.32,3311.21 889.652,3180.71 588.5,2930C 340.59,2717.85 168.09,2455.35 71,2142.5C -44.6229,1742.9 -17.9563,1353.23 151,973.5C 316.655,613.846 576.488,345.346 930.5,168C 1153.69,59.4514 1389.36,3.28478 1637.5,-0.5 Z"/></g>
<g><path style="opacity:1" fill="#fefefe" d="M 1577.5,1024.5 C 1595.39,1053.64 1620.06,1075.14 1651.5,1089C 1700.53,1108.85 1751.2,1114.52 1803.5,1106C 1837.63,1100.76 1868.96,1088.59 1897.5,1069.5C 1969.44,1107.2 2045.77,1130.7 2126.5,1140C 2182.89,1145.48 2237.23,1137.48 2289.5,1116C 2309.33,1106.48 2327.83,1094.98 2345,1081.5C 2358.05,1118.47 2367.05,1156.47 2372,1195.5C 2372.16,1227.69 2369.83,1259.69 2365,1291.5C 2348.6,1277.72 2329.77,1268.89 2308.5,1265C 2276.01,1259.59 2244.35,1262.59 2213.5,1274C 2200.45,1278.73 2189.28,1286.23 2180,1296.5C 2168.25,1314.54 2167.58,1332.87 2178,1351.5C 2183.21,1357.05 2189.54,1360.39 2197,1361.5C 2241.85,1347.66 2287.02,1334.83 2332.5,1323C 2343.18,1319.82 2353.18,1315.32 2362.5,1309.5C 2362.83,1311.17 2363.17,1312.83 2363.5,1314.5C 2357.8,1418.19 2358.3,1521.86 2365,1625.5C 2370.61,1740.17 2348.61,1849.17 2299,1952.5C 2279.44,1992.64 2257.11,2030.97 2232,2067.5C 2223.36,2085.71 2217.03,2104.71 2213,2124.5C 2205.92,2161.36 2197.92,2198.03 2189,2234.5C 2184.21,2252.56 2176.54,2269.23 2166,2284.5C 2151.17,2298.66 2134.67,2310.49 2116.5,2320C 2062.19,2347.88 2004.52,2363.55 1943.5,2367C 1884.63,2370.68 1826.63,2365.35 1769.5,2351C 1734,2342.61 1699.33,2331.61 1665.5,2318C 1648.52,2310.18 1632.52,2300.85 1617.5,2290C 1582.91,2261.08 1546.91,2234.08 1509.5,2209C 1502.66,2204.75 1495.66,2200.75 1488.5,2197C 1485.59,2196.15 1483.26,2196.98 1481.5,2199.5C 1478.83,2197.83 1476.17,2196.17 1473.5,2194.5C 1511.39,2257.47 1558.05,2313.97 1613.5,2364C 1704.94,2442.51 1811.27,2485.51 1932.5,2493C 1940.27,2509.55 1950.93,2523.88 1964.5,2536C 1968.3,2537.05 1972.14,2537.88 1976,2538.5C 1983.51,2568.74 1986.17,2599.41 1984,2630.5C 1979.73,2682.93 1954.56,2721.43 1908.5,2746C 1880.5,2758.45 1851.16,2765.78 1820.5,2768C 1733.08,2772.18 1649.08,2757.18 1568.5,2723C 1452.29,2673.46 1357.46,2597.3 1284,2494.5C 1254.14,2452.82 1227.81,2408.82 1205,2362.5C 1199.04,2356.97 1193.37,2357.3 1188,2363.5C 1187.11,2368.07 1187.78,2372.41 1190,2376.5C 1234.76,2473.2 1295.59,2558.37 1372.5,2632C 1433,2687.39 1501.66,2730.39 1578.5,2761C 1640.19,2787.74 1704.52,2804.07 1771.5,2810C 1809.12,2812.34 1846.12,2808.67 1882.5,2799C 1927.62,2785.04 1962.79,2758.21 1988,2718.5C 2000.29,2695.73 2007.29,2671.4 2009,2645.5C 2012.27,2591.2 2002.94,2539.2 1981,2489.5C 1977.67,2482.17 1974.33,2474.83 1971,2467.5C 1966.19,2449.94 1962.19,2432.27 1959,2414.5C 2020.44,2409.01 2078.6,2392.18 2133.5,2364C 2151.87,2353.82 2169.2,2342.15 2185.5,2329C 2186.64,2328.25 2187.64,2328.42 2188.5,2329.5C 2212.56,2385.17 2231.72,2442.51 2246,2501.5C 2251.87,2617.12 2228.53,2726.46 2176,2829.5C 2153.99,2870.17 2127.32,2907.51 2096,2941.5C 2082.33,2955.17 2068.67,2968.83 2055,2982.5C 2053.33,2989 2055.83,2992.66 2062.5,2993.5C 2064.79,2993.38 2066.79,2992.54 2068.5,2991C 2146.44,2923.68 2203.27,2841.51 2239,2744.5C 2263.95,2675.71 2277.45,2604.71 2279.5,2531.5C 2332.09,2547.98 2383.09,2568.48 2432.5,2593C 2463.66,2609.34 2490.82,2630.84 2514,2657.5C 2538.91,2686.95 2559.58,2719.28 2576,2754.5C 2602.85,2816.2 2626.35,2879.2 2646.5,2943.5C 2646.12,2945.38 2645.12,2946.88 2643.5,2948C 2352.2,3167.65 2023.2,3277.82 1656.5,3278.5C 1343.6,3277.02 1055.94,3191.85 793.5,3023C 677.361,2947.21 571.861,2858.05 477,2755.5C 485.053,2690.34 506.053,2629.67 540,2573.5C 549.726,2558.44 561.559,2545.27 575.5,2534C 588.167,2525 600.833,2516 613.5,2507C 666.5,2473.5 719.5,2440 772.5,2406.5C 810.371,2539.07 876.538,2655.07 971,2754.5C 1052.05,2837.59 1144.22,2905.43 1247.5,2958C 1292.67,2981.05 1339.01,3001.39 1386.5,3019C 1394.67,3022.9 1399.67,3020.56 1401.5,3012C 1401.01,3009.5 1399.68,3007.5 1397.5,3006C 1295.94,2964.58 1201.94,2910.92 1115.5,2845C 1016.18,2767.39 937.018,2673.22 878,2562.5C 847.071,2502.38 825.738,2439.05 814,2372.5C 812.318,2367.5 809.818,2363 806.5,2359C 809.269,2346.98 810.103,2334.81 809,2322.5C 806.028,2307.61 803.861,2292.61 802.5,2277.5C 803.065,2261.64 807.565,2246.97 816,2233.5C 835.848,2201.98 860.348,2174.48 889.5,2151C 943.12,2110.68 1002.12,2080.02 1066.5,2059C 1089.61,2051.52 1112.95,2044.85 1136.5,2039C 1167.84,2039.05 1199.17,2039.55 1230.5,2040.5C 1228.45,2098.42 1221.62,2155.75 1210,2212.5C 1202.6,2244.04 1191.27,2274.04 1176,2302.5C 1161.87,2270.3 1153.53,2236.63 1151,2201.5C 1146.83,2195.27 1142.16,2194.94 1137,2200.5C 1133.47,2249.43 1140.47,2296.76 1158,2342.5C 1159.17,2343.67 1160.33,2344.83 1161.5,2346C 1169.35,2348.81 1176.52,2347.64 1183,2342.5C 1182.28,2338.08 1181.28,2333.74 1180,2329.5C 1205.83,2294.77 1224.83,2256.43 1237,2214.5C 1256.14,2145.51 1265.47,2075.17 1265,2003.5C 1265.62,1959.83 1265.45,1916.16 1264.5,1872.5C 1270.05,1874.19 1275.72,1874.69 1281.5,1874C 1285.03,1870.61 1285.37,1866.94 1282.5,1863C 1224.81,1843.1 1174.98,1811.26 1133,1767.5C 1079.59,1706.59 1058.92,1635.92 1071,1555.5C 1078.24,1521.5 1094.41,1492.67 1119.5,1469C 1138.39,1454.78 1159.72,1448.95 1183.5,1451.5C 1220.63,1451.15 1252.96,1463.32 1280.5,1488C 1307.09,1513.33 1327.09,1543.17 1340.5,1577.5C 1346.82,1581.01 1350.49,1579.17 1351.5,1572C 1349.5,1562.51 1348,1553.01 1347,1543.5C 1373.42,1506.83 1385.09,1465.83 1382,1420.5C 1379.56,1398.09 1376.56,1375.76 1373,1353.5C 1364.43,1294.18 1384.6,1247.68 1433.5,1214C 1456.35,1199.41 1478.69,1184.07 1500.5,1168C 1545.63,1130.93 1571.3,1083.09 1577.5,1024.5 Z"/></g>
<g><path style="opacity:1" fill="#010101" d="M 1728.5,1232.5 C 1772.31,1230.41 1815.31,1235.24 1857.5,1247C 1874.21,1251.67 1889.55,1259 1903.5,1269C 1918.82,1284.3 1923.99,1302.47 1919,1323.5C 1911.93,1338.45 1900.1,1345.29 1883.5,1344C 1866.9,1338.68 1850.23,1333.68 1833.5,1329C 1786.39,1318.14 1739.39,1306.81 1692.5,1295C 1674.29,1290.71 1657.29,1283.71 1641.5,1274C 1638.16,1270.82 1636.99,1266.98 1638,1262.5C 1646.33,1254.25 1656.16,1248.41 1667.5,1245C 1687.48,1238.44 1707.82,1234.27 1728.5,1232.5 Z"/></g>
<g><path style="opacity:1" fill="#010101" d="M 1686.5,1504.5 C 1687.8,1501.98 1687.8,1499.31 1686.5,1496.5C 1685.89,1496.62 1685.56,1496.96 1685.5,1497.5C 1679.34,1500.09 1674.01,1503.92 1669.5,1509C 1663.82,1510.48 1660.82,1508.31 1660.5,1502.5C 1663.47,1486.69 1671.81,1474.52 1685.5,1466C 1717.78,1446.44 1751.78,1443.1 1787.5,1456C 1812.61,1466.77 1830.77,1484.61 1842,1509.5C 1843.55,1522.3 1838.38,1526.46 1826.5,1522C 1812.21,1512.02 1796.88,1503.86 1780.5,1497.5C 1779.48,1514.18 1778.31,1530.85 1777,1547.5C 1766.66,1573.76 1747.5,1584.59 1719.5,1580C 1700.61,1574.38 1689.44,1561.88 1686,1542.5C 1685.83,1529.84 1686,1517.17 1686.5,1504.5 Z"/></g>
<g><path style="opacity:1" fill="#010101" d="M 2130.5,1454.5 C 2132.39,1454.3 2133.89,1454.96 2135,1456.5C 2138.37,1471.63 2142.2,1486.63 2146.5,1501.5C 2159.86,1484.32 2177.53,1475.99 2199.5,1476.5C 2229.09,1476.54 2250.93,1489.54 2265,1515.5C 2267.11,1520.15 2268.61,1524.98 2269.5,1530C 2269.02,1536.25 2265.69,1538.58 2259.5,1537C 2252.7,1528.7 2244.53,1522.2 2235,1517.5C 2234.3,1531.83 2233.64,1546.17 2233,1560.5C 2230.55,1576.28 2222.05,1587.45 2207.5,1594C 2199.02,1596.47 2190.35,1597.97 2181.5,1598.5C 2193.36,1625.22 2206.52,1651.22 2221,1676.5C 2233.95,1715.06 2227.62,1750.06 2202,1781.5C 2171.6,1816.64 2133.1,1833.81 2086.5,1833C 2081.17,1828.67 2081.17,1824.33 2086.5,1820C 2117.89,1810.73 2144.73,1794.23 2167,1770.5C 2182.42,1751.25 2190.08,1729.25 2190,1704.5C 2189.41,1700.72 2188.41,1697.06 2187,1693.5C 2165.03,1653.27 2148.37,1610.93 2137,1566.5C 2128.95,1530.6 2125.95,1494.26 2128,1457.5C 2129.04,1456.63 2129.88,1455.63 2130.5,1454.5 Z"/></g>
<g><path style="opacity:1" fill="#686868" d="M 1685.5,1497.5 C 1685.56,1496.96 1685.89,1496.62 1686.5,1496.5C 1687.8,1499.31 1687.8,1501.98 1686.5,1504.5C 1686.8,1501.94 1686.47,1499.61 1685.5,1497.5 Z"/></g>
<g><path style="opacity:1" fill="#020202" d="M 1178.5,1528.5 C 1220.57,1524.26 1247.41,1542.26 1259,1582.5C 1264.09,1607.72 1263.09,1632.72 1256,1657.5C 1254.56,1670.4 1256.56,1682.73 1262,1694.5C 1265.83,1702.16 1270.16,1709.5 1275,1716.5C 1276,1724.5 1272.5,1727.66 1264.5,1726C 1237.28,1711.09 1222.61,1688.09 1220.5,1657C 1222.23,1638.86 1222.73,1620.7 1222,1602.5C 1222.16,1580.34 1211.33,1567.84 1189.5,1565C 1181.56,1563.42 1174.22,1564.75 1167.5,1569C 1154.41,1581.34 1146.75,1596.5 1144.5,1614.5C 1140.68,1617.39 1137.18,1617.06 1134,1613.5C 1125.2,1584.54 1132.03,1560.04 1154.5,1540C 1161.93,1534.78 1169.93,1530.95 1178.5,1528.5 Z"/></g>
<g><path style="opacity:1" fill="#fefefe" d="M -0.5,-0.5 C 545.5,-0.5 1091.5,-0.5 1637.5,-0.5C 1389.36,3.28478 1153.69,59.4514 930.5,168C 576.488,345.346 316.655,613.846 151,973.5C -17.9563,1353.23 -44.6229,1742.9 71,2142.5C 168.09,2455.35 340.59,2717.85 588.5,2930C 889.652,3180.71 1237.32,3311.21 1631.5,3321.5C 1631.5,3321.83 1631.5,3322.17 1631.5,3322.5C 1087.5,3322.5 543.5,3322.5 -0.5,3322.5C -0.5,2214.83 -0.5,1107.17 -0.5,-0.5 Z"/></g>
<g><path style="opacity:1" fill="#fefefe" d="M 3321.5,1632.5 C 3321.83,1632.5 3322.17,1632.5 3322.5,1632.5C 3322.5,2195.83 3322.5,2759.17 3322.5,3322.5C 2758.83,3322.5 2195.17,3322.5 1631.5,3322.5C 1631.5,3322.17 1631.5,3321.83 1631.5,3321.5C 1822.45,3324.76 2008.45,3296.26 2189.5,3236C 2539.13,3114.96 2819.63,2903.12 3031,2600.5C 3228.31,2308.69 3325.14,1986.02 3321.5,1632.5 Z"/></g>
<g><path style="opacity:1" fill="#010101" d="M 1821.5,1871.5 C 1824.85,1871.33 1828.18,1871.5 1831.5,1872C 1868.85,1894.01 1908.18,1911.67 1949.5,1925C 1981.87,1934.34 2014.87,1938 2048.5,1936C 2055.05,1938.73 2057.22,1943.56 2055,1950.5C 2048.71,1958.12 2041.21,1964.28 2032.5,1969C 2002.58,1983.99 1971.25,1987.65 1938.5,1980C 1891.54,1968.67 1854.04,1943.51 1826,1904.5C 1822.75,1898.99 1819.75,1893.32 1817,1887.5C 1815.68,1884.59 1815.35,1881.59 1816,1878.5C 1817.67,1876 1819.5,1873.67 1821.5,1871.5 Z"/></g>
<g><path style="opacity:1" fill="#020202" d="M 995.5,2467.5 C 998.482,2467.1 1001.15,2467.77 1003.5,2469.5C 1055.32,2578.52 1122.49,2676.85 1205,2764.5C 1253.38,2815.24 1305.05,2861.9 1360,2904.5C 1362.39,2908.46 1361.55,2911.62 1357.5,2914C 1356.17,2914.67 1354.83,2914.67 1353.5,2914C 1208.67,2843.83 1101.17,2736.33 1031,2591.5C 1012.72,2552.94 1000.22,2512.61 993.5,2470.5C 994.193,2469.48 994.859,2468.48 995.5,2467.5 Z"/></g>
<g><path style="opacity:1" fill="#010101" d="M 1973.5,2916.5 C 1980.47,2916.95 1984.97,2920.62 1987,2927.5C 2004.42,2966.33 2019.59,3006 2032.5,3046.5C 2049.57,3045.29 2063.4,3051.29 2074,3064.5C 2084.92,3086.01 2095.59,3107.68 2106,3129.5C 2113.97,3157.6 2105.81,3179.43 2081.5,3195C 2049.62,3207.93 2025.45,3199.43 2009,3169.5C 2001.17,3143.36 1995.01,3116.86 1990.5,3090C 1991.87,3075.76 1997.87,3063.93 2008.5,3054.5C 1997.11,3011.83 1983.61,2969.83 1968,2928.5C 1967.33,2926.17 1967.33,2923.83 1968,2921.5C 1969.73,2919.6 1971.56,2917.93 1973.5,2916.5 Z"/></g>
<g><path style="opacity:1" fill="#020202" d="M 1623.5,2926.5 C 1631.08,2924.78 1636.08,2927.45 1638.5,2934.5C 1624.04,2983.7 1613.04,3033.7 1605.5,3084.5C 1605.83,3085.83 1606.17,3087.17 1606.5,3088.5C 1618.46,3096.32 1625.96,3107.32 1629,3121.5C 1629.95,3147.54 1629.62,3173.54 1628,3199.5C 1622.09,3221.41 1607.92,3234.24 1585.5,3238C 1556.29,3239.82 1536.79,3226.98 1527,3199.5C 1525.7,3192.87 1525.36,3186.21 1526,3179.5C 1530.51,3157.12 1535.18,3134.79 1540,3112.5C 1547.04,3094.27 1560.21,3084.27 1579.5,3082.5C 1588.63,3030.66 1602.13,2979.99 1620,2930.5C 1621.38,2929.29 1622.54,2927.96 1623.5,2926.5 Z"/></g>
</svg>
