<?xml version="1.0" encoding="UTF-8"?>
<!DOCTYPE svg PUBLIC "-//W3C//DTD SVG 1.1//EN" "http://www.w3.org/Graphics/SVG/1.1/DTD/svg11.dtd">
<svg xmlns="http://www.w3.org/2000/svg" version="1.1" width="512px" height="512px" style="shape-rendering:geometricPrecision; text-rendering:geometricPrecision; image-rendering:optimizeQuality; fill-rule:evenodd; clip-rule:evenodd" xmlns:xlink="http://www.w3.org/1999/xlink">
<g><path style="opacity:0.985" fill="#030302" d="M 72.5,-0.5 C 188.5,-0.5 304.5,-0.5 420.5,-0.5C 422.27,1.11327 423.436,3.11327 424,5.5C 424.5,12.8258 424.666,20.1591 424.5,27.5C 433.506,27.3336 442.506,27.5002 451.5,28C 453.667,28.8333 455.167,30.3333 456,32.5C 456.667,73.8333 456.667,115.167 456,156.5C 454.67,160.007 452.17,161.673 448.5,161.5C 444.403,161.531 441.903,159.531 441,155.5C 440.5,118.168 440.333,80.8348 440.5,43.5C 435.025,42.5111 429.358,42.1778 423.5,42.5C 423.5,147.167 423.5,251.833 423.5,356.5C 429.31,357.49 435.31,357.823 441.5,357.5C 441.5,300.5 441.5,243.5 441.5,186.5C 442.559,183.131 444.892,181.464 448.5,181.5C 452.17,181.327 454.67,182.993 456,186.5C 456.5,243.166 456.667,299.832 456.5,356.5C 469.782,358.281 478.282,365.614 482,378.5C 482.667,389.5 482.667,400.5 482,411.5C 478.357,424.142 470.024,431.475 457,433.5C 456.667,457.833 456.333,482.167 456,506.5C 455.003,508.323 453.836,509.99 452.5,511.5C 336.5,511.5 220.5,511.5 104.5,511.5C 103.878,510.373 103.045,509.373 102,508.5C 101.5,500.173 101.334,491.84 101.5,483.5C 92.1607,483.666 82.8274,483.5 73.5,483C 72.0692,482.535 70.9025,481.701 70,480.5C 68.8598,463.248 68.0264,445.914 67.5,428.5C 55.3077,419.141 42.9744,409.974 30.5,401C 27.6326,396.409 27.966,392.076 31.5,388C 43.9499,379.218 56.1166,370.051 68,360.5C 68.3333,339.167 68.6667,317.833 69,296.5C 69.8635,292.482 72.3635,290.482 76.5,290.5C 80.0241,291.018 82.3575,293.018 83.5,296.5C 83.5,316.833 83.5,337.167 83.5,357.5C 164.5,357.5 245.5,357.5 326.5,357.5C 329.908,358.578 331.908,360.911 332.5,364.5C 331.817,368.02 329.817,370.52 326.5,372C 243.5,372.333 160.5,372.667 77.5,373C 71.5,377.667 65.5,382.333 59.5,387C 63.5634,387.038 67.3967,387.872 71,389.5C 73.3397,393.948 72.8397,397.948 69.5,401.5C 66.2129,402.161 62.8796,402.661 59.5,403C 65.6554,407.911 71.9888,412.577 78.5,417C 188.499,417.5 298.499,417.667 408.5,417.5C 408.5,412.5 408.5,407.5 408.5,402.5C 408.5,392.5 408.5,382.5 408.5,372.5C 391.497,372.667 374.497,372.5 357.5,372C 354.211,370.59 352.544,368.09 352.5,364.5C 352.78,361.713 354.113,359.547 356.5,358C 373.83,357.5 391.163,357.333 408.5,357.5C 408.5,243.167 408.5,128.833 408.5,14.5C 300.5,14.5 192.5,14.5 84.5,14.5C 84.6667,98.1673 84.5,181.834 84,265.5C 82.4583,268.892 79.9583,270.892 76.5,271.5C 72.3635,271.518 69.8635,269.518 69,265.5C 68.3333,178.5 68.3333,91.5 69,4.5C 69.9973,2.67694 71.1639,1.01027 72.5,-0.5 Z"/></g>
<g><path style="opacity:1" fill="#e3eaef" d="M 352.5,364.5 C 345.833,364.5 339.167,364.5 332.5,364.5C 331.908,360.911 329.908,358.578 326.5,357.5C 246.002,356.501 165.335,356.167 84.5,356.5C 84.8305,336.326 84.4971,316.326 83.5,296.5C 82.3575,293.018 80.0241,291.018 76.5,290.5C 76.5,284.167 76.5,277.833 76.5,271.5C 79.9583,270.892 82.4583,268.892 84,265.5C 84.5,181.834 84.6667,98.1673 84.5,14.5C 192.5,14.5 300.5,14.5 408.5,14.5C 408.5,128.833 408.5,243.167 408.5,357.5C 391.163,357.333 373.83,357.5 356.5,358C 354.113,359.547 352.78,361.713 352.5,364.5 Z"/></g>
<g><path style="opacity:1" fill="#060607" d="M 204.5,39.5 C 258.168,39.3333 311.834,39.5 365.5,40C 370.224,42.4353 371.724,46.2686 370,51.5C 369.097,52.7014 367.931,53.5348 366.5,54C 314.83,54.1667 263.163,54.6667 211.5,55.5C 198.333,86.5 185.167,117.5 172,148.5C 168.264,152.012 164.264,152.345 160,149.5C 149.392,126.618 139.059,103.618 129,80.5C 124.92,79.6998 120.753,79.1998 116.5,79C 110.479,74.6106 110.146,69.9439 115.5,65C 122.5,64.3333 129.5,64.3333 136.5,65C 137.416,65.3742 138.25,65.8742 139,66.5C 147.576,85.9832 156.409,105.317 165.5,124.5C 176.937,98.6248 188.104,72.6248 199,46.5C 199.967,43.3794 201.8,41.046 204.5,39.5 Z"/></g>
<g><path style="opacity:1" fill="#a3adb7" d="M 440.5,43.5 C 435.167,43.5 429.833,43.5 424.5,43.5C 424.5,147.833 424.5,252.167 424.5,356.5C 424.167,356.5 423.833,356.5 423.5,356.5C 423.5,251.833 423.5,147.167 423.5,42.5C 429.358,42.1778 435.025,42.5111 440.5,43.5 Z"/></g>
<g><path style="opacity:1" fill="#b5c0cb" d="M 440.5,43.5 C 440.333,80.8348 440.5,118.168 441,155.5C 441.903,159.531 444.403,161.531 448.5,161.5C 448.5,168.167 448.5,174.833 448.5,181.5C 444.892,181.464 442.559,183.131 441.5,186.5C 440.501,242.998 440.168,299.664 440.5,356.5C 435.167,356.5 429.833,356.5 424.5,356.5C 424.5,252.167 424.5,147.833 424.5,43.5C 429.833,43.5 435.167,43.5 440.5,43.5 Z"/></g>
<g><path style="opacity:1" fill="#050606" d="M 231.5,76.5 C 233.527,76.3379 235.527,76.5045 237.5,77C 244.075,84.4062 250.075,92.2395 255.5,100.5C 260.956,93.0879 266.289,85.5879 271.5,78C 277.993,74.9162 282.326,76.7495 284.5,83.5C 278.718,94.2264 272.051,104.393 264.5,114C 271.391,123.226 277.891,132.726 284,142.5C 283.704,151.101 279.537,153.601 271.5,150C 266.289,142.412 260.956,134.912 255.5,127.5C 250.044,134.912 244.711,142.412 239.5,150C 230.961,153.451 226.794,150.618 227,141.5C 233.5,132.333 240,123.167 246.5,114C 240,104.833 233.5,95.6667 227,86.5C 226.077,82.0165 227.577,78.6832 231.5,76.5 Z"/></g>
<g><path style="opacity:1" fill="#070707" d="M 115.5,173.5 C 137.836,173.333 160.169,173.5 182.5,174C 189.266,178.997 188.933,183.663 181.5,188C 159.833,188.667 138.167,188.667 116.5,188C 110.292,183.58 109.958,178.747 115.5,173.5 Z"/></g>
<g><path style="opacity:1" fill="#060606" d="M 299.5,173.5 C 321.836,173.333 344.169,173.5 366.5,174C 367.931,174.465 369.097,175.299 370,176.5C 371.724,181.731 370.224,185.565 365.5,188C 343.833,188.667 322.167,188.667 300.5,188C 294.292,183.58 293.958,178.747 299.5,173.5 Z"/></g>
<g><path style="opacity:1" fill="#4e5258" d="M 441.5,186.5 C 441.5,243.5 441.5,300.5 441.5,357.5C 435.31,357.823 429.31,357.49 423.5,356.5C 423.833,356.5 424.167,356.5 424.5,356.5C 429.833,356.5 435.167,356.5 440.5,356.5C 440.168,299.664 440.501,242.998 441.5,186.5 Z"/></g>
<g><path style="opacity:1" fill="#030303" d="M 116.5,207.5 C 138.169,207.333 159.836,207.5 181.5,208C 189.073,212.187 189.406,216.854 182.5,222C 160.5,222.667 138.5,222.667 116.5,222C 109.899,217.171 109.899,212.338 116.5,207.5 Z"/></g>
<g><path style="opacity:1" fill="#020202" d="M 300.5,207.5 C 322.169,207.333 343.836,207.5 365.5,208C 370.689,210.913 371.856,215.08 369,220.5C 368.25,221.126 367.416,221.626 366.5,222C 344.167,222.667 321.833,222.667 299.5,222C 294.003,216.683 294.336,211.85 300.5,207.5 Z"/></g>
<g><path style="opacity:1" fill="#040505" d="M 129.5,254.5 C 139.148,253.48 142.315,257.48 139,266.5C 125.138,281.467 122.804,298.134 132,316.5C 134.186,320.198 136.853,323.532 140,326.5C 140.939,335.566 137.106,338.732 128.5,336C 110.529,316.14 107.029,293.973 118,269.5C 121.358,264.11 125.191,259.11 129.5,254.5 Z"/></g>
<g><path style="opacity:1" fill="#040405" d="M 300.5,254.5 C 302.857,254.337 305.19,254.503 307.5,255C 326.726,274.766 330.56,297.266 319,322.5C 315.882,327.286 312.382,331.786 308.5,336C 301.833,339.332 297.833,337.332 296.5,330C 297.092,326.399 298.926,323.566 302,321.5C 314.793,301.13 313.126,282.13 297,264.5C 296.333,262.5 296.333,260.5 297,258.5C 298.376,257.295 299.542,255.962 300.5,254.5 Z"/></g>
<g><path style="opacity:1" fill="#050505" d="M 154.5,266.5 C 156.655,266.372 158.655,266.872 160.5,268C 164.531,272.564 168.198,277.397 171.5,282.5C 174.579,278.676 177.412,274.676 180,270.5C 185.115,264.925 189.781,265.258 194,271.5C 194.706,273.971 194.373,276.305 193,278.5C 188.711,284.245 184.544,290.079 180.5,296C 185.37,302.239 189.87,308.739 194,315.5C 193.704,324.101 189.537,326.601 181.5,323C 178.328,318.335 174.995,313.835 171.5,309.5C 167.712,314.244 164.045,319.077 160.5,324C 151.667,325.833 148.167,322.333 150,313.5C 154.289,307.755 158.456,301.921 162.5,296C 158.21,289.92 154.043,283.753 150,277.5C 148.393,272.438 149.893,268.772 154.5,266.5 Z"/></g>
<g><path style="opacity:1" fill="#050505" d="M 251.5,266.5 C 253.655,266.372 255.655,266.872 257.5,268C 261.531,272.564 265.198,277.397 268.5,282.5C 271.579,278.676 274.412,274.676 277,270.5C 283.614,264.422 288.448,265.589 291.5,274C 291.375,275.627 290.875,277.127 290,278.5C 279.535,293.931 268.701,309.097 257.5,324C 248.667,325.833 245.167,322.333 247,313.5C 251.289,307.755 255.456,301.921 259.5,296C 255.21,289.92 251.043,283.753 247,277.5C 245.393,272.438 246.893,268.772 251.5,266.5 Z"/></g>
<g><path style="opacity:1" fill="#030303" d="M 216.5,273.5 C 226.475,273.508 230.142,278.508 227.5,288.5C 230.85,288.335 234.183,288.502 237.5,289C 243.353,292.451 244.019,296.785 239.5,302C 235.637,303.354 231.637,303.854 227.5,303.5C 227.665,306.85 227.498,310.183 227,313.5C 223.455,319.209 219.121,319.875 214,315.5C 212.646,311.637 212.146,307.637 212.5,303.5C 208.363,303.854 204.363,303.354 200.5,302C 196.231,297.291 196.564,292.958 201.5,289C 205.152,288.501 208.818,288.335 212.5,288.5C 211.555,282.764 212.889,277.764 216.5,273.5 Z"/></g>
<g><path style="opacity:1" fill="#080808" d="M 340.5,274.5 C 349.173,274.334 357.84,274.5 366.5,275C 370.212,277.513 371.378,281.013 370,285.5C 368.786,287.049 367.286,288.215 365.5,289C 357.167,289.667 348.833,289.667 340.5,289C 333.848,283.986 333.848,279.153 340.5,274.5 Z"/></g>
<g><path style="opacity:1" fill="#030303" d="M 340.5,302.5 C 348.84,302.334 357.173,302.5 365.5,303C 370.913,306.156 371.913,310.49 368.5,316C 359.242,317.584 349.909,317.917 340.5,317C 337.634,315.607 336.301,313.274 336.5,310C 336.603,308.439 336.937,306.939 337.5,305.5C 338.77,304.712 339.77,303.712 340.5,302.5 Z"/></g>
<g><path style="opacity:1" fill="#7e8285" d="M 83.5,296.5 C 84.4971,316.326 84.8305,336.326 84.5,356.5C 165.335,356.167 246.002,356.501 326.5,357.5C 245.5,357.5 164.5,357.5 83.5,357.5C 83.5,337.167 83.5,316.833 83.5,296.5 Z"/></g>
<g><path style="opacity:1" fill="#fbdc2d" d="M 332.5,364.5 C 339.167,364.5 345.833,364.5 352.5,364.5C 352.544,368.09 354.211,370.59 357.5,372C 374.497,372.5 391.497,372.667 408.5,372.5C 408.5,382.5 408.5,392.5 408.5,402.5C 295.332,402.833 182.332,402.5 69.5,401.5C 72.8397,397.948 73.3397,393.948 71,389.5C 67.3967,387.872 63.5634,387.038 59.5,387C 65.5,382.333 71.5,377.667 77.5,373C 160.5,372.667 243.5,372.333 326.5,372C 329.817,370.52 331.817,368.02 332.5,364.5 Z"/></g>
<g><path style="opacity:1" fill="#f97e84" d="M 466.5,408.5 C 466.817,405.428 466.484,402.428 465.5,399.5C 464.088,400.806 462.421,401.64 460.5,402C 448.171,402.5 435.838,402.667 423.5,402.5C 423.5,392.5 423.5,382.5 423.5,372.5C 436.266,372.039 448.933,372.539 461.5,374C 464.106,375.938 465.939,378.438 467,381.5C 467.824,390.676 467.657,399.676 466.5,408.5 Z"/></g>
<g><path style="opacity:1" fill="#f84a54" d="M 466.5,408.5 C 465.313,413.186 462.313,416.019 457.5,417C 446.172,417.5 434.838,417.667 423.5,417.5C 423.5,412.5 423.5,407.5 423.5,402.5C 435.838,402.667 448.171,402.5 460.5,402C 462.421,401.64 464.088,400.806 465.5,399.5C 466.484,402.428 466.817,405.428 466.5,408.5 Z"/></g>
<g><path style="opacity:1" fill="#f8c302" d="M 69.5,401.5 C 182.332,402.5 295.332,402.833 408.5,402.5C 408.5,407.5 408.5,412.5 408.5,417.5C 298.499,417.667 188.499,417.5 78.5,417C 71.9888,412.577 65.6554,407.911 59.5,403C 62.8796,402.661 66.2129,402.161 69.5,401.5 Z"/></g>
<g><path style="opacity:1" fill="#e2e8ed" d="M 84.5,432.5 C 192.5,432.5 300.5,432.5 408.5,432.5C 408.5,444.5 408.5,456.5 408.5,468.5C 300.5,468.5 192.5,468.5 84.5,468.5C 84.5,456.5 84.5,444.5 84.5,432.5 Z"/></g>
<g><path style="opacity:1" fill="#b5c0cb" d="M 423.5,432.5 C 429.167,432.5 434.833,432.5 440.5,432.5C 440.5,453.833 440.5,475.167 440.5,496.5C 332.5,496.5 224.5,496.5 116.5,496.5C 116.5,492.167 116.5,487.833 116.5,483.5C 216.834,483.667 317.167,483.5 417.5,483C 420.232,482.602 422.065,481.102 423,478.5C 423.5,463.17 423.667,447.837 423.5,432.5 Z"/></g>
</svg>
