<?xml version="1.0" encoding="UTF-8"?>
<!DOCTYPE svg PUBLIC "-//W3C//DTD SVG 1.1//EN" "http://www.w3.org/Graphics/SVG/1.1/DTD/svg11.dtd">
<svg xmlns="http://www.w3.org/2000/svg" version="1.1" width="2609px" height="1506px" style="shape-rendering:geometricPrecision; text-rendering:geometricPrecision; image-rendering:optimizeQuality; fill-rule:evenodd; clip-rule:evenodd" xmlns:xlink="http://www.w3.org/1999/xlink">
<g><path style="opacity:0.131" fill="#faf8f7" d="M 690.5,-0.5 C 1098.17,-0.5 1505.83,-0.5 1913.5,-0.5C 1931.06,0.454639 1948.73,1.95464 1966.5,4C 1966.96,4.41395 1967.29,4.91395 1967.5,5.5C 1972.47,6.32895 1977.47,6.82895 1982.5,7C 1992.44,10.4553 2002.77,12.122 2013.5,12C 2014.17,12.6667 2014.83,13.3333 2015.5,14C 2018.83,14.3333 2022.17,14.6667 2025.5,15C 2030.62,17.219 2035.95,18.8857 2041.5,20C 2041.96,20.414 2042.29,20.914 2042.5,21.5C 2047.47,22.329 2052.47,22.829 2057.5,23C 2070.74,28.3831 2084.41,32.8831 2098.5,36.5C 2102.95,37.9802 2107.29,39.9802 2111.5,42.5C 2115.46,43.3265 2119.46,43.8265 2123.5,44C 2126.14,46.9631 2129.48,48.6298 2133.5,49C 2135.91,50.5281 2138.24,52.0281 2140.5,53.5C 2147.47,53.4816 2153.13,56.1483 2157.5,61.5C 2164.57,63.5159 2171.57,65.6826 2178.5,68C 2193.09,76.957 2208.09,84.7903 2223.5,91.5C 2223.5,92.5 2223.5,93.5 2223.5,94.5C 2225.53,94.3379 2227.53,94.5045 2229.5,95C 2237.86,100.969 2246.52,106.136 2255.5,110.5C 2255.29,112.144 2255.62,113.644 2256.5,115C 2258.81,115.497 2261.14,115.663 2263.5,115.5C 2263.5,116.5 2263.5,117.5 2263.5,118.5C 2265.29,118.215 2266.95,118.548 2268.5,119.5C 2270.13,121.503 2272.13,122.836 2274.5,123.5C 2274.5,124.5 2274.5,125.5 2274.5,126.5C 2279.23,125.524 2282.89,127.024 2285.5,131C 2289.46,130.791 2291.13,132.625 2290.5,136.5C 2297.42,137.227 2301.75,140.893 2303.5,147.5C 2305.86,147.337 2308.19,147.503 2310.5,148C 2311.31,149.706 2312.64,150.539 2314.5,150.5C 2314.5,152.167 2314.5,153.833 2314.5,155.5C 2316.17,155.5 2317.83,155.5 2319.5,155.5C 2319.5,156.5 2319.5,157.5 2319.5,158.5C 2321.29,158.215 2322.95,158.548 2324.5,159.5C 2325.73,162.071 2327.73,163.405 2330.5,163.5C 2330.5,164.5 2330.5,165.5 2330.5,166.5C 2334.07,167.96 2337.41,169.96 2340.5,172.5C 2342.3,173.695 2343.3,175.362 2343.5,177.5C 2345.9,178.049 2348.23,178.882 2350.5,180C 2352.47,185.797 2356.47,189.297 2362.5,190.5C 2362.5,192.167 2362.5,193.833 2362.5,195.5C 2363.87,195.343 2365.21,195.51 2366.5,196C 2368.85,197.961 2371.02,200.127 2373,202.5C 2373.49,203.793 2373.66,205.127 2373.5,206.5C 2378.77,206.797 2382.11,209.464 2383.5,214.5C 2385.17,214.5 2386.83,214.5 2388.5,214.5C 2389.06,217.374 2390.06,220.04 2391.5,222.5C 2395.5,221.833 2397.17,223.5 2396.5,227.5C 2397.5,227.5 2398.5,227.5 2399.5,227.5C 2399.5,228.5 2399.5,229.5 2399.5,230.5C 2401.73,231.704 2404.07,232.87 2406.5,234C 2407.38,235.356 2407.71,236.856 2407.5,238.5C 2408.5,238.5 2409.5,238.5 2410.5,238.5C 2411.94,240.96 2412.94,243.626 2413.5,246.5C 2415.17,246.5 2416.83,246.5 2418.5,246.5C 2418.5,248.167 2418.5,249.833 2418.5,251.5C 2419.5,251.5 2420.5,251.5 2421.5,251.5C 2423.77,255.673 2426.77,259.339 2430.5,262.5C 2431.45,264.045 2431.79,265.712 2431.5,267.5C 2432.87,267.343 2434.21,267.51 2435.5,268C 2437.11,270.421 2438.45,272.921 2439.5,275.5C 2440.5,275.5 2441.5,275.5 2442.5,275.5C 2442.5,277.167 2442.5,278.833 2442.5,280.5C 2446.45,280.488 2448.11,282.488 2447.5,286.5C 2448.5,286.5 2449.5,286.5 2450.5,286.5C 2450.5,288.167 2450.5,289.833 2450.5,291.5C 2452.83,292.953 2455.33,294.286 2458,295.5C 2459.6,298.409 2461.1,301.409 2462.5,304.5C 2465.38,307.723 2468.21,311.057 2471,314.5C 2471.5,316.473 2471.66,318.473 2471.5,320.5C 2472.87,320.343 2474.21,320.51 2475.5,321C 2476.3,322.771 2477.47,324.271 2479,325.5C 2479.5,327.473 2479.66,329.473 2479.5,331.5C 2480.5,331.5 2481.5,331.5 2482.5,331.5C 2482.74,333.973 2484.07,335.64 2486.5,336.5C 2487.47,338.396 2487.8,340.396 2487.5,342.5C 2488.5,342.5 2489.5,342.5 2490.5,342.5C 2490.21,344.288 2490.55,345.955 2491.5,347.5C 2494.89,349.109 2496.23,351.776 2495.5,355.5C 2496.5,355.5 2497.5,355.5 2498.5,355.5C 2500.47,358.467 2501.64,361.8 2502,365.5C 2503.33,366.167 2504.67,366.833 2506,367.5C 2509.16,372.802 2510.99,378.469 2511.5,384.5C 2513.14,384.286 2514.64,384.62 2516,385.5C 2518.57,389.454 2519.74,393.787 2519.5,398.5C 2523.99,399.159 2525.66,401.825 2524.5,406.5C 2525.5,406.5 2526.5,406.5 2527.5,406.5C 2527.15,409.045 2527.98,411.045 2530,412.5C 2530.5,414.81 2530.66,417.143 2530.5,419.5C 2532.39,419.297 2533.89,419.963 2535,421.5C 2536.7,426.062 2538.2,430.729 2539.5,435.5C 2540.09,435.709 2540.59,436.043 2541,436.5C 2541.5,439.817 2541.67,443.15 2541.5,446.5C 2543.17,446.5 2544.83,446.5 2546.5,446.5C 2548.33,453.113 2550.17,459.78 2552,466.5C 2553.73,468.842 2555.39,471.175 2557,473.5C 2558.64,478.712 2559.8,484.045 2560.5,489.5C 2561.52,490.853 2562.86,491.52 2564.5,491.5C 2566.5,497.65 2567.5,503.983 2567.5,510.5C 2568.5,510.5 2569.5,510.5 2570.5,510.5C 2570.33,513.85 2570.5,517.183 2571,520.5C 2572.51,521.257 2573.85,522.257 2575,523.5C 2575.5,527.152 2575.67,530.818 2575.5,534.5C 2576.5,534.5 2577.5,534.5 2578.5,534.5C 2578,538.835 2578.83,542.835 2581,546.5C 2581.5,551.155 2581.67,555.821 2581.5,560.5C 2583.14,560.286 2584.64,560.62 2586,561.5C 2586.33,565.167 2586.67,568.833 2587,572.5C 2587.67,573.167 2588.33,573.833 2589,574.5C 2589.17,580.528 2589.67,586.528 2590.5,592.5C 2591.9,592.865 2592.9,593.699 2593.5,595C 2593.76,600.437 2594.93,605.604 2597,610.5C 2598.14,625.833 2599.31,641.167 2600.5,656.5C 2603.42,657.919 2604.92,660.252 2605,663.5C 2608.46,724.313 2608.29,784.98 2604.5,845.5C 2602.83,845.5 2601.17,845.5 2599.5,845.5C 2599.84,860.679 2599.01,875.679 2597,890.5C 2595.16,894.267 2594.16,898.267 2594,902.5C 2592.49,903.505 2591.33,904.838 2590.5,906.5C 2589.67,913.476 2589.17,920.476 2589,927.5C 2586.99,929.682 2585.99,932.349 2586,935.5C 2584.32,936.061 2582.99,937.061 2582,938.5C 2581.67,943.167 2581.33,947.833 2581,952.5C 2578.99,956.186 2577.99,960.186 2578,964.5C 2577.59,964.957 2577.09,965.291 2576.5,965.5C 2575.51,969.783 2575.17,974.116 2575.5,978.5C 2573.86,978.286 2572.36,978.62 2571,979.5C 2570.5,982.817 2570.33,986.15 2570.5,989.5C 2569.5,989.5 2568.5,989.5 2567.5,989.5C 2567.77,995.782 2566.6,1001.78 2564,1007.5C 2562.98,1008.69 2561.81,1009.69 2560.5,1010.5C 2559.99,1019.18 2557.16,1026.85 2552,1033.5C 2550.24,1040.64 2548.24,1047.64 2546,1054.5C 2544.89,1056.04 2543.39,1056.7 2541.5,1056.5C 2541.66,1058.86 2541.5,1061.19 2541,1063.5C 2539.23,1066.43 2537.56,1069.43 2536,1072.5C 2536.44,1076.41 2534.94,1079.08 2531.5,1080.5C 2530.9,1085.24 2529.56,1089.57 2527.5,1093.5C 2526.5,1093.5 2525.5,1093.5 2524.5,1093.5C 2524.7,1095.99 2524.2,1098.32 2523,1100.5C 2521.99,1101.34 2520.82,1101.67 2519.5,1101.5C 2519.75,1105.82 2518.75,1109.82 2516.5,1113.5C 2514.95,1114.45 2513.29,1114.79 2511.5,1114.5C 2511.11,1120.95 2509.27,1126.95 2506,1132.5C 2502.23,1133.22 2500.56,1135.56 2501,1139.5C 2499.61,1141.76 2497.94,1143.76 2496,1145.5C 2496.33,1149.11 2494.83,1151.44 2491.5,1152.5C 2490.55,1154.05 2490.21,1155.71 2490.5,1157.5C 2489.5,1157.5 2488.5,1157.5 2487.5,1157.5C 2488.66,1162.17 2486.99,1164.84 2482.5,1165.5C 2482.5,1166.5 2482.5,1167.5 2482.5,1168.5C 2481.5,1168.5 2480.5,1168.5 2479.5,1168.5C 2480.29,1174.74 2477.62,1178.07 2471.5,1178.5C 2471.66,1180.86 2471.5,1183.19 2471,1185.5C 2466.31,1191.54 2461.98,1197.87 2458,1204.5C 2456.67,1205.17 2455.33,1205.83 2454,1206.5C 2452,1210.25 2449.83,1213.91 2447.5,1217.5C 2445.95,1218.45 2444.29,1218.79 2442.5,1218.5C 2442.66,1220.2 2442.49,1221.87 2442,1223.5C 2439.26,1225.58 2437.26,1228.24 2436,1231.5C 2434.64,1232.38 2433.14,1232.71 2431.5,1232.5C 2431.79,1234.29 2431.45,1235.95 2430.5,1237.5C 2427.28,1240.26 2424.28,1243.26 2421.5,1246.5C 2419.7,1248.13 2418.54,1250.13 2418,1252.5C 2416.64,1253.38 2415.14,1253.71 2413.5,1253.5C 2412.94,1256.37 2411.94,1259.04 2410.5,1261.5C 2409.5,1261.5 2408.5,1261.5 2407.5,1261.5C 2408.17,1265.5 2406.5,1267.17 2402.5,1266.5C 2402.5,1267.5 2402.5,1268.5 2402.5,1269.5C 2401.5,1269.5 2400.5,1269.5 2399.5,1269.5C 2399.5,1270.5 2399.5,1271.5 2399.5,1272.5C 2398.5,1272.5 2397.5,1272.5 2396.5,1272.5C 2396.84,1276.15 2395.17,1277.82 2391.5,1277.5C 2390.62,1279.91 2389.45,1282.24 2388,1284.5C 2386.64,1285.38 2385.14,1285.71 2383.5,1285.5C 2383.17,1288.5 2381.5,1290.17 2378.5,1290.5C 2378.66,1291.87 2378.49,1293.21 2378,1294.5C 2375.03,1295.64 2372.86,1297.64 2371.5,1300.5C 2370.26,1301.25 2368.93,1301.58 2367.5,1301.5C 2367.5,1304.83 2365.83,1306.5 2362.5,1306.5C 2362.5,1307.5 2362.5,1308.5 2362.5,1309.5C 2359.17,1311.73 2355.5,1313.4 2351.5,1314.5C 2351.2,1319.47 2348.53,1322.13 2343.5,1322.5C 2340.74,1327.91 2336.41,1331.58 2330.5,1333.5C 2330.66,1334.87 2330.49,1336.21 2330,1337.5C 2326.59,1338.59 2323.43,1340.09 2320.5,1342C 2319.62,1343.36 2319.29,1344.86 2319.5,1346.5C 2317.83,1346.5 2316.17,1346.5 2314.5,1346.5C 2314.5,1347.5 2314.5,1348.5 2314.5,1349.5C 2312.13,1350.16 2310.13,1351.5 2308.5,1353.5C 2306.95,1354.45 2305.29,1354.79 2303.5,1354.5C 2303.08,1356.91 2301.75,1358.74 2299.5,1360C 2295.27,1361.28 2291.94,1363.78 2289.5,1367.5C 2288.21,1368.1 2286.87,1368.6 2285.5,1369C 2277.76,1375.61 2269.42,1381.27 2260.5,1386C 2258.87,1386.49 2257.2,1386.66 2255.5,1386.5C 2253.01,1391.97 2248.67,1394.63 2242.5,1394.5C 2242.5,1395.5 2242.5,1396.5 2242.5,1397.5C 2237.81,1399.23 2233.48,1401.73 2229.5,1405C 2227.53,1405.5 2225.53,1405.66 2223.5,1405.5C 2222.46,1409.51 2219.79,1411.18 2215.5,1410.5C 2215.5,1411.5 2215.5,1412.5 2215.5,1413.5C 2212.3,1415.02 2208.96,1416.35 2205.5,1417.5C 2199.28,1423.24 2191.94,1426.24 2183.5,1426.5C 2183.5,1427.5 2183.5,1428.5 2183.5,1429.5C 2178.18,1431.5 2172.84,1433.5 2167.5,1435.5C 2155.95,1443.07 2143.28,1448.23 2129.5,1451C 2127.49,1452.68 2125.32,1454.18 2123,1455.5C 2117.59,1457.05 2112.09,1458.05 2106.5,1458.5C 2106.5,1459.5 2106.5,1460.5 2106.5,1461.5C 2102.11,1460.9 2098.45,1462.23 2095.5,1465.5C 2091.17,1466.17 2086.83,1466.83 2082.5,1467.5C 2082.29,1468.09 2081.96,1468.59 2081.5,1469C 2073.97,1471.37 2066.31,1473.54 2058.5,1475.5C 2058.29,1476.09 2057.96,1476.59 2057.5,1477C 2053.5,1477.33 2049.5,1477.67 2045.5,1478C 2044.83,1478.67 2044.17,1479.33 2043.5,1480C 2038.02,1481.69 2032.35,1482.86 2026.5,1483.5C 2026.29,1484.09 2025.96,1484.59 2025.5,1485C 2011.47,1487.45 1997.47,1489.61 1983.5,1491.5C 1982.97,1492.19 1982.31,1492.69 1981.5,1493C 1976.8,1493.17 1972.13,1493.67 1967.5,1494.5C 1963.57,1495.92 1959.57,1497.08 1955.5,1498C 1945.15,1498.17 1934.82,1498.67 1924.5,1499.5C 1924.29,1500.09 1923.96,1500.59 1923.5,1501C 1714.17,1501.17 1504.83,1501.67 1295.5,1502.5C 1295.29,1503.09 1294.96,1503.59 1294.5,1504C 1290.5,1504.67 1286.5,1504.67 1282.5,1504C 1281.33,1503.58 1280.33,1502.91 1279.5,1502C 1078.83,1501.67 878.167,1501.33 677.5,1501C 676.833,1500.33 676.167,1499.67 675.5,1499C 665.5,1498.67 655.5,1498.33 645.5,1498C 635.319,1495.88 624.986,1494.22 614.5,1493C 614.043,1492.59 613.709,1492.09 613.5,1491.5C 600.393,1489.39 587.393,1487.22 574.5,1485C 569.439,1482.98 564.439,1480.82 559.5,1478.5C 554.198,1477.67 548.864,1477.17 543.5,1477C 540.428,1475.23 537.095,1474.06 533.5,1473.5C 532.263,1472.72 531.263,1471.72 530.5,1470.5C 523.427,1469.1 516.427,1467.6 509.5,1466C 507.5,1464.67 505.5,1463.33 503.5,1462C 491.352,1458.36 479.352,1454.36 467.5,1450C 463.922,1446.43 459.589,1444.77 454.5,1445C 451.624,1442.62 448.624,1440.45 445.5,1438.5C 439.728,1437.19 434.062,1435.69 428.5,1434C 425.215,1432.22 422.882,1429.72 421.5,1426.5C 419.143,1426.66 416.81,1426.5 414.5,1426C 411.151,1423.66 407.485,1421.99 403.5,1421C 390.02,1412.6 376.353,1404.77 362.5,1397.5C 362.5,1396.5 362.5,1395.5 362.5,1394.5C 355.098,1393.47 348.765,1390.3 343.5,1385C 341.5,1384.33 339.5,1383.67 337.5,1383C 336.534,1380.9 335.2,1379.07 333.5,1377.5C 328.524,1374.85 323.524,1372.35 318.5,1370C 317.62,1368.64 317.286,1367.14 317.5,1365.5C 316.5,1365.5 315.5,1365.5 314.5,1365.5C 314.5,1364.5 314.5,1363.5 314.5,1362.5C 307.957,1363.61 304.29,1360.94 303.5,1354.5C 298.584,1353.36 293.918,1351.53 289.5,1349C 287.536,1343.85 283.87,1341.02 278.5,1340.5C 276.939,1336.77 274.272,1334.27 270.5,1333C 268.59,1331.11 266.59,1329.28 264.5,1327.5C 263.691,1325.93 263.357,1324.26 263.5,1322.5C 261.473,1322.66 259.473,1322.5 257.5,1322C 256.624,1320.41 255.624,1318.91 254.5,1317.5C 249.868,1314.86 245.535,1311.86 241.5,1308.5C 240.015,1306.15 238.682,1303.81 237.5,1301.5C 236.5,1301.5 235.5,1301.5 234.5,1301.5C 234.5,1300.5 234.5,1299.5 234.5,1298.5C 230.5,1299.17 228.833,1297.5 229.5,1293.5C 228.5,1293.5 227.5,1293.5 226.5,1293.5C 226.5,1292.5 226.5,1291.5 226.5,1290.5C 224.09,1289.62 221.757,1288.45 219.5,1287C 218.62,1285.64 218.286,1284.14 218.5,1282.5C 211.833,1280.5 207.5,1276.17 205.5,1269.5C 204.07,1269.58 202.736,1269.25 201.5,1268.5C 200.015,1266.15 198.682,1263.81 197.5,1261.5C 196.5,1261.5 195.5,1261.5 194.5,1261.5C 194.5,1259.83 194.5,1258.17 194.5,1256.5C 193.127,1256.66 191.793,1256.49 190.5,1256C 187.851,1254.18 186.184,1251.68 185.5,1248.5C 181.409,1247.15 178.742,1244.48 177.5,1240.5C 172.795,1236.96 168.962,1232.63 166,1227.5C 165.505,1225.53 165.338,1223.53 165.5,1221.5C 160.2,1221.62 157.534,1218.95 157.5,1213.5C 156.325,1213.72 155.325,1213.39 154.5,1212.5C 153.459,1210.41 151.959,1208.75 150,1207.5C 149.506,1205.87 149.34,1204.2 149.5,1202.5C 148.5,1202.5 147.5,1202.5 146.5,1202.5C 146.5,1200.83 146.5,1199.17 146.5,1197.5C 144.833,1197.5 143.167,1197.5 141.5,1197.5C 141.539,1195.64 140.706,1194.31 139,1193.5C 138.503,1191.19 138.337,1188.86 138.5,1186.5C 135.957,1185.64 133.623,1184.31 131.5,1182.5C 128.036,1177.24 125.369,1171.57 123.5,1165.5C 121.088,1165.76 119.421,1164.76 118.5,1162.5C 117.52,1159.91 117.187,1157.25 117.5,1154.5C 115.712,1154.79 114.045,1154.45 112.5,1153.5C 111.059,1150.28 109.392,1147.28 107.5,1144.5C 106.534,1142.6 106.201,1140.6 106.5,1138.5C 104.856,1138.71 103.356,1138.38 102,1137.5C 101.755,1135.34 100.755,1133.67 99,1132.5C 98.5034,1130.19 98.3367,1127.86 98.5,1125.5C 97.5,1125.5 96.5,1125.5 95.5,1125.5C 95.9561,1121.88 94.4561,1119.55 91,1118.5C 90.7506,1115.82 89.7506,1113.49 88,1111.5C 87.5065,1109.87 87.3398,1108.2 87.5,1106.5C 86.1779,1106.67 85.0113,1106.34 84,1105.5C 79.7452,1098.38 77.5786,1090.71 77.5,1082.5C 75.712,1082.79 74.0453,1082.45 72.5,1081.5C 70.2465,1077.82 69.2465,1073.82 69.5,1069.5C 68.5,1069.5 67.5,1069.5 66.5,1069.5C 66.5,1066.83 66.5,1064.17 66.5,1061.5C 64.8561,1061.71 63.3561,1061.38 62,1060.5C 61.5034,1058.19 61.3367,1055.86 61.5,1053.5C 60.5,1053.5 59.5,1053.5 58.5,1053.5C 58.5,1050.83 58.5,1048.17 58.5,1045.5C 57.325,1045.72 56.325,1045.39 55.5,1044.5C 54.4217,1041.56 52.9217,1038.89 51,1036.5C 50.6982,1032.94 49.6982,1029.61 48,1026.5C 47.5017,1023.18 47.335,1019.85 47.5,1016.5C 45.6096,1016.7 44.1096,1016.04 43,1014.5C 42.9464,1011.14 41.9464,1008.14 40,1005.5C 38.4842,999.249 37.6509,992.915 37.5,986.5C 35.8333,986.5 34.1667,986.5 32.5,986.5C 32.1703,982.658 31.3369,978.991 30,975.5C 29.501,971.179 29.3343,966.846 29.5,962.5C 28.5,962.5 27.5,962.5 26.5,962.5C 24.9423,958.392 24.2756,954.059 24.5,949.5C 23.5,949.5 22.5,949.5 21.5,949.5C 19.6272,940.147 18.6272,930.48 18.5,920.5C 17.0695,920.579 15.7362,920.246 14.5,919.5C 11.8766,908.436 10.2099,897.103 9.5,885.5C 8.91395,885.291 8.41395,884.957 8,884.5C 7.83174,876.147 7.33174,867.813 6.5,859.5C 5.2519,858.96 4.08524,858.293 3,857.5C 2.66667,850.167 2.33333,842.833 2,835.5C 1.2917,834.619 0.458367,833.953 -0.5,833.5C -0.5,778.5 -0.5,723.5 -0.5,668.5C 0.14987,668.196 0.816537,667.863 1.5,667.5C 2.33197,658.518 2.83197,649.518 3,640.5C 4.04899,638.893 5.54899,638.227 7.5,638.5C 7.33371,631.492 7.50038,624.492 8,617.5C 10.0892,610.714 11.0892,603.714 11,596.5C 11.414,596.043 11.914,595.709 12.5,595.5C 13.3283,590.868 13.8283,586.202 14,581.5C 15.1096,579.963 16.6096,579.297 18.5,579.5C 18.5,574.167 18.5,568.833 18.5,563.5C 19.5,563.5 20.5,563.5 21.5,563.5C 21.5,559.833 21.5,556.167 21.5,552.5C 22.5,552.5 23.5,552.5 24.5,552.5C 24.3766,546.4 25.0432,540.4 26.5,534.5C 27.5,534.5 28.5,534.5 29.5,534.5C 29.335,531.15 29.5017,527.817 30,524.5C 31.1985,521.495 32.0319,518.329 32.5,515C 33.619,513.124 35.2856,512.291 37.5,512.5C 38.0048,505.805 38.8381,499.138 40,492.5C 41.9814,490.641 42.9814,488.308 43,485.5C 44.1096,483.963 45.6096,483.297 47.5,483.5C 47.3347,479.818 47.5014,476.152 48,472.5C 49.5781,469.772 51.0781,467.106 52.5,464.5C 53.1962,461.444 54.0296,458.444 55,455.5C 56.0113,454.663 57.1779,454.33 58.5,454.5C 58.5,452.5 58.5,450.5 58.5,448.5C 59.5,448.5 60.5,448.5 61.5,448.5C 61.5,445.167 61.5,441.833 61.5,438.5C 63.1667,438.5 64.8333,438.5 66.5,438.5C 66.5,435.833 66.5,433.167 66.5,430.5C 67.5,430.5 68.5,430.5 69.5,430.5C 69.2616,425.787 70.4283,421.454 73,417.5C 74.3561,416.62 75.8561,416.286 77.5,416.5C 77.3354,413.482 77.502,410.482 78,407.5C 79.9463,403.942 81.6129,400.275 83,396.5C 84.3561,395.62 85.8561,395.286 87.5,395.5C 87.8804,390.627 89.0471,385.96 91,381.5C 96.2288,378.384 98.8955,373.717 99,367.5C 100.706,366.692 101.539,365.359 101.5,363.5C 103.167,363.5 104.833,363.5 106.5,363.5C 106.337,361.143 106.503,358.81 107,356.5C 109.207,352.921 111.374,349.254 113.5,345.5C 114.736,344.754 116.07,344.421 117.5,344.5C 117.784,341.368 118.617,338.368 120,335.5C 121.011,334.663 122.178,334.33 123.5,334.5C 125.306,331.019 126.639,327.353 127.5,323.5C 128.5,323.5 129.5,323.5 130.5,323.5C 130.34,321.801 130.506,320.134 131,318.5C 133.262,316.616 135.428,314.616 137.5,312.5C 138.452,310.955 138.785,309.288 138.5,307.5C 139.5,307.5 140.5,307.5 141.5,307.5C 141.5,305.833 141.5,304.167 141.5,302.5C 143.167,302.5 144.833,302.5 146.5,302.5C 146.34,300.801 146.506,299.134 147,297.5C 149.381,294.78 151.381,291.78 153,288.5C 154.11,286.963 155.61,286.297 157.5,286.5C 157.868,281.465 160.535,278.798 165.5,278.5C 164.82,274.209 166.486,271.543 170.5,270.5C 170.343,269.127 170.51,267.793 171,266.5C 175.159,264.683 177.826,261.683 179,257.5C 182.129,254.885 184.629,251.885 186.5,248.5C 187.5,248.5 188.5,248.5 189.5,248.5C 188.833,244.5 190.5,242.833 194.5,243.5C 194.5,242.5 194.5,241.5 194.5,240.5C 195.5,240.5 196.5,240.5 197.5,240.5C 197.215,238.712 197.548,237.045 198.5,235.5C 199.799,234.91 200.632,233.91 201,232.5C 202.789,230.771 204.956,230.104 207.5,230.5C 207.34,228.801 207.506,227.134 208,225.5C 212.881,221.62 217.048,217.12 220.5,212C 223.988,211.676 225.988,209.842 226.5,206.5C 227.5,206.5 228.5,206.5 229.5,206.5C 229.343,205.127 229.51,203.793 230,202.5C 233.695,201.301 236.195,198.968 237.5,195.5C 239.96,194.063 242.626,193.063 245.5,192.5C 245.561,189.27 247.228,187.437 250.5,187C 254.53,181.134 259.863,176.967 266.5,174.5C 266.26,170.422 268.26,168.256 272.5,168C 274.037,166.89 274.703,165.39 274.5,163.5C 278.039,161.564 281.706,159.897 285.5,158.5C 286.848,154.827 289.515,152.494 293.5,151.5C 296.764,146.894 301.098,143.894 306.5,142.5C 306.5,141.5 306.5,140.5 306.5,139.5C 310.058,137.645 313.725,135.978 317.5,134.5C 317.5,133.5 317.5,132.5 317.5,131.5C 319.288,131.785 320.955,131.452 322.5,130.5C 331.717,121.437 342.383,114.771 354.5,110.5C 354.5,109.5 354.5,108.5 354.5,107.5C 357.947,105.91 361.613,104.91 365.5,104.5C 364.974,101.192 366.307,99.0255 369.5,98C 374.067,96.2178 378.734,94.7178 383.5,93.5C 384.791,92.1752 386.124,90.8419 387.5,89.5C 400.745,82.046 414.079,74.8793 427.5,68C 433.281,65.3468 439.281,63.5134 445.5,62.5C 445.5,61.5 445.5,60.5 445.5,59.5C 452.243,56.8031 459.243,54.8031 466.5,53.5C 469.596,51.7753 472.596,49.7753 475.5,47.5C 484.063,44.8245 492.73,42.1579 501.5,39.5C 503.162,38.6733 504.495,37.5067 505.5,36C 519.802,33.0203 533.469,28.687 546.5,23C 551.823,22.5006 557.156,22.334 562.5,22.5C 562.5,21.5 562.5,20.5 562.5,19.5C 565.247,19.8134 567.914,19.48 570.5,18.5C 577.262,15.7096 584.262,13.543 591.5,12C 597.859,11.8306 604.193,11.3306 610.5,10.5C 611.025,9.80762 611.692,9.30762 612.5,9C 619.178,7.92227 625.844,6.7556 632.5,5.5C 632.709,4.91395 633.043,4.41395 633.5,4C 652.568,1.4812 671.568,-0.0187978 690.5,-0.5 Z"/></g>
<g><path style="opacity:0.998" fill="#622f00" d="M 715.5,0.5 C 1102.5,0.333333 1489.5,0.5 1876.5,1C 2095.49,10.9221 2277.32,97.4221 2422,260.5C 2559.16,424.022 2618.5,612.689 2600,826.5C 2574.42,1041.58 2476.92,1215.41 2307.5,1348C 2178.26,1444.53 2032.59,1495.2 1870.5,1500C 1487.83,1500.67 1105.17,1500.67 722.5,1500C 516.853,1489.24 343.353,1409.74 202,1261.5C 63.3268,1108.55 -3.33986,928.216 2,720.5C 13.4835,508.394 97.3168,331.228 253.5,189C 385.775,74.0642 539.775,11.2308 715.5,0.5 Z"/></g>
<g><path style="opacity:1" fill="#fe904c" d="M 723.5,304.5 C 863.654,299.53 982.154,347.197 1079,447.5C 1172.01,551.9 1210.01,673.9 1193,813.5C 1169.15,955.914 1095.65,1064.08 972.5,1138C 882.793,1187.47 787.126,1205.47 685.5,1192C 552.587,1169.29 449.087,1102.13 375,990.5C 304.237,874.723 287.237,751.389 324,620.5C 367.115,489.386 451.615,395.552 577.5,339C 624.459,319.683 673.125,308.183 723.5,304.5 Z"/></g>
<g><path style="opacity:1" fill="#fe904c" d="M 1831.5,304.5 C 1977.2,299.754 2098.7,351.088 2196,458.5C 2293.16,576.168 2324.83,709.835 2291,859.5C 2253.53,996.631 2170.7,1095.8 2042.5,1157C 1932.97,1204.4 1821.64,1209.06 1708.5,1171C 1593.62,1128.12 1509.12,1051.62 1455,941.5C 1404.61,829.764 1398.94,715.764 1438,599.5C 1490.28,463.885 1585.11,372.385 1722.5,325C 1758.15,313.839 1794.48,307.006 1831.5,304.5 Z"/></g>
</svg>
