<?xml version="1.0" encoding="UTF-8"?>
<!DOCTYPE svg PUBLIC "-//W3C//DTD SVG 1.1//EN" "http://www.w3.org/Graphics/SVG/1.1/DTD/svg11.dtd">
<svg xmlns="http://www.w3.org/2000/svg" version="1.1" width="256px" height="256px" style="shape-rendering:geometricPrecision; text-rendering:geometricPrecision; image-rendering:optimizeQuality; fill-rule:evenodd; clip-rule:evenodd" xmlns:xlink="http://www.w3.org/1999/xlink">
<g><path style="opacity:0.999" fill="#3f76df" d="M 187.5,116.5 C 188.918,118.308 190.918,118.975 193.5,118.5C 196.649,118.211 199.649,118.711 202.5,120C 203.807,121.943 203.807,123.777 202.5,125.5C 198.833,127.167 196.167,129.833 194.5,133.5C 195.148,138.828 195.315,144.162 195,149.5C 190.807,150.99 187.307,149.99 184.5,146.5C 183.177,144.318 181.51,143.651 179.5,144.5C 176.45,146.692 173.117,148.358 169.5,149.5C 168.448,149.229 167.115,149.062 165.5,149C 164.891,147.052 164.224,145.218 163.5,143.5C 164.1,140.668 164.767,137.835 165.5,135C 163.03,132.695 160.697,130.195 158.5,127.5C 158.08,125.906 157.414,124.406 156.5,123C 156.989,121.862 157.322,120.695 157.5,119.5C 161.842,118.807 166.175,117.974 170.5,117C 172.461,113.579 174.294,110.079 176,106.5C 177.884,104.424 180.051,104.09 182.5,105.5C 184.453,109.069 186.119,112.736 187.5,116.5 Z"/></g>
<g><path style="opacity:0.999" fill="#4077df" d="M 24.5,104.5 C 25.3403,106.853 26.6736,108.853 28.5,110.5C 29.8641,112.22 30.8641,114.22 31.5,116.5C 36.7323,117.697 41.899,119.03 47,120.5C 47.6347,122.635 47.3014,124.635 46,126.5C 43.0372,128.461 40.3706,130.794 38,133.5C 37.9822,135.797 38.1489,138.131 38.5,140.5C 37.5155,142.598 37.8489,144.598 39.5,146.5C 39.9228,149.243 38.7561,150.576 36,150.5C 31.4242,149.046 27.0909,147.046 23,144.5C 19.0095,146.912 14.8429,148.912 10.5,150.5C 9.5,148.833 8.16667,147.5 6.5,146.5C 7.30071,144.958 7.63404,143.292 7.5,141.5C 8.11742,141.389 8.61742,141.056 9,140.5C 9.66667,137.833 9.66667,135.167 9,132.5C 5.19382,129.208 2.02716,125.541 -0.5,121.5C -0.5,121.167 -0.5,120.833 -0.5,120.5C 4.43862,119.063 9.43862,117.729 14.5,116.5C 16.3333,112.833 18.1667,109.167 20,105.5C 21.3561,104.62 22.8561,104.286 24.5,104.5 Z"/></g>
<g><path style="opacity:1" fill="#3d77e0" d="M 72.5,105.5 C 73.8734,105.343 75.2068,105.51 76.5,106C 77.8505,108.264 79.5172,110.098 81.5,111.5C 82.1098,112.391 82.4431,113.391 82.5,114.5C 82.2852,116.179 82.9519,117.179 84.5,117.5C 88.3597,117.808 92.0264,118.475 95.5,119.5C 98.5705,121.052 99.2372,123.385 97.5,126.5C 94.9696,129.528 92.3029,132.362 89.5,135C 90.4894,138.447 91.1561,141.947 91.5,145.5C 90.9373,147.32 89.7706,148.653 88,149.5C 85.1063,148.303 82.273,146.97 79.5,145.5C 78.8933,145.624 78.56,145.957 78.5,146.5C 77.5178,145.859 76.5178,145.193 75.5,144.5C 73.2612,145.788 70.9279,146.788 68.5,147.5C 66.6336,148.014 64.8003,148.68 63,149.5C 61.4009,148.929 60.2342,147.929 59.5,146.5C 60.0965,142.168 60.2632,137.835 60,133.5C 58.6244,132.295 57.4577,130.962 56.5,129.5C 56.9382,129.565 57.2716,129.399 57.5,129C 56.7562,127.961 55.7562,127.461 54.5,127.5C 51.746,125.947 50.9126,123.614 52,120.5C 56.6789,118.856 61.5122,117.69 66.5,117C 68.6554,113.187 70.6554,109.354 72.5,105.5 Z"/></g>
<g><path style="opacity:0.999" fill="#3e77df" d="M 134.5,114.5 C 134.062,114.435 133.728,114.601 133.5,115C 134.803,118.044 137.136,119.211 140.5,118.5C 141.167,118.5 141.833,118.5 142.5,118.5C 145.443,119.367 148.443,120.367 151.5,121.5C 151.88,123.698 151.213,125.365 149.5,126.5C 147.167,126.833 145.833,128.167 145.5,130.5C 144.761,130.369 144.094,130.536 143.5,131C 142.262,131.69 142.262,132.19 143.5,132.5C 143.047,133.458 142.381,134.292 141.5,135C 143.328,139.939 143.661,144.939 142.5,150C 140.833,150.667 139.167,150.667 137.5,150C 134.294,147.966 130.96,146.133 127.5,144.5C 123.656,147.172 119.489,149.172 115,150.5C 112.052,150.251 110.886,148.584 111.5,145.5C 111.795,141.89 112.462,138.39 113.5,135C 110.296,131.964 107.296,128.797 104.5,125.5C 104.028,122.642 105.028,120.642 107.5,119.5C 109.607,118.532 111.941,118.198 114.5,118.5C 116.199,118.66 117.866,118.494 119.5,118C 120.5,116.333 121.5,114.667 122.5,113C 122.272,112.601 121.938,112.435 121.5,112.5C 122.072,108.659 124.072,105.993 127.5,104.5C 131.277,106.686 133.61,110.019 134.5,114.5 Z"/></g>
<g><path style="opacity:0.999" fill="#4677dc" d="M 255.5,120.5 C 255.5,122.167 255.5,123.833 255.5,125.5C 251.334,128.321 248.334,131.988 246.5,136.5C 245.355,138.953 245.688,141.287 247.5,143.5C 249.406,147.12 248.406,149.453 244.5,150.5C 240.14,148.904 235.974,146.904 232,144.5C 228.579,146.461 225.079,148.294 221.5,150C 219.559,150.743 217.726,150.576 216,149.5C 215.567,144.59 216.067,139.757 217.5,135C 215.346,131.512 212.512,128.679 209,126.5C 206.404,122.687 207.237,120.187 211.5,119C 215.491,118.358 219.491,117.858 223.5,117.5C 228.385,100.651 234.051,100.318 240.5,116.5C 245.599,117.651 250.599,118.985 255.5,120.5 Z"/></g>
<g><path style="opacity:0.008" fill="#6da772" d="M 24.5,104.5 C 26.8218,105.802 28.1551,107.802 28.5,110.5C 26.6736,108.853 25.3403,106.853 24.5,104.5 Z"/></g>
<g><path style="opacity:0.933" fill="#6c7a78" d="M 72.5,105.5 C 73.9464,104.387 75.6131,104.22 77.5,105C 79.2206,106.944 80.554,109.11 81.5,111.5C 79.5172,110.098 77.8505,108.264 76.5,106C 75.2068,105.51 73.8734,105.343 72.5,105.5 Z"/></g>
<g><path style="opacity:0.98" fill="#a5917f" d="M 121.5,112.5 C 121.938,112.435 122.272,112.601 122.5,113C 121.5,114.667 120.5,116.333 119.5,118C 117.866,118.494 116.199,118.66 114.5,118.5C 115.609,117.71 116.942,117.21 118.5,117C 119.399,115.348 120.399,113.848 121.5,112.5 Z"/></g>
<g><path style="opacity:0.035" fill="#60cc7f" d="M 82.5,114.5 C 83.4013,115.29 84.0679,116.29 84.5,117.5C 82.9519,117.179 82.2852,116.179 82.5,114.5 Z"/></g>
<g><path style="opacity:0.396" fill="#a69e69" d="M 134.5,114.5 C 135.929,116.69 137.929,118.024 140.5,118.5C 137.136,119.211 134.803,118.044 133.5,115C 133.728,114.601 134.062,114.435 134.5,114.5 Z"/></g>
<g><path style="opacity:0.267" fill="#6ba066" d="M 187.5,116.5 C 189.626,117.048 191.626,117.715 193.5,118.5C 190.918,118.975 188.918,118.308 187.5,116.5 Z"/></g>
<g><path style="opacity:0.651" fill="#a3d18b" d="M 95.5,119.5 C 99.2253,119.78 100.392,121.78 99,125.5C 98.6174,126.056 98.1174,126.389 97.5,126.5C 99.2372,123.385 98.5705,121.052 95.5,119.5 Z"/></g>
<g><path style="opacity:0.945" fill="#9cae8f" d="M 142.5,118.5 C 146.155,117.925 149.155,118.925 151.5,121.5C 148.443,120.367 145.443,119.367 142.5,118.5 Z"/></g>
<g><path style="opacity:0.945" fill="#beb487" d="M 107.5,119.5 C 105.028,120.642 104.028,122.642 104.5,125.5C 103.387,124.054 103.22,122.387 104,120.5C 105.011,119.663 106.178,119.33 107.5,119.5 Z"/></g>
<g><path style="opacity:0.533" fill="#6fc576" d="M 157.5,119.5 C 157.322,120.695 156.989,121.862 156.5,123C 157.414,124.406 158.08,125.906 158.5,127.5C 155.024,125.141 154.691,122.474 157.5,119.5 Z"/></g>
<g><path style="opacity:0.835" fill="#73d575" d="M 54.5,127.5 C 55.7562,127.461 56.7562,127.961 57.5,129C 57.2716,129.399 56.9382,129.565 56.5,129.5C 55.5,129.167 54.8333,128.5 54.5,127.5 Z"/></g>
<g><path style="opacity:0.055" fill="#96b07e" d="M 149.5,126.5 C 148.5,128.167 147.167,129.5 145.5,130.5C 145.833,128.167 147.167,126.833 149.5,126.5 Z"/></g>
<g><path style="opacity:0.898" fill="#9d9f8c" d="M -0.5,121.5 C 2.02716,125.541 5.19382,129.208 9,132.5C 9.66667,135.167 9.66667,137.833 9,140.5C 8.61742,141.056 8.11742,141.389 7.5,141.5C 8.43488,138.887 8.60155,136.221 8,133.5C 5.2972,130.629 2.46387,127.962 -0.5,125.5C -0.5,124.167 -0.5,122.833 -0.5,121.5 Z"/></g>
<g><path style="opacity:0.075" fill="#bd7c5a" d="M 202.5,125.5 C 200.167,128.5 197.5,131.167 194.5,133.5C 196.167,129.833 198.833,127.167 202.5,125.5 Z"/></g>
<g><path style="opacity:0.024" fill="#d1cd6c" d="M 145.5,130.5 C 145.167,131.5 144.5,132.167 143.5,132.5C 142.262,132.19 142.262,131.69 143.5,131C 144.094,130.536 144.761,130.369 145.5,130.5 Z"/></g>
<g><path style="opacity:0.055" fill="#93c78c" d="M 246.5,136.5 C 246.993,138.806 247.326,141.139 247.5,143.5C 245.688,141.287 245.355,138.953 246.5,136.5 Z"/></g>
<g><path style="opacity:0.812" fill="#b3c5a8" d="M 38.5,140.5 C 39.1495,142.435 39.4828,144.435 39.5,146.5C 37.8489,144.598 37.5155,142.598 38.5,140.5 Z"/></g>
<g><path style="opacity:0.6" fill="#76cd6a" d="M 179.5,144.5 C 181.51,143.651 183.177,144.318 184.5,146.5C 182.716,146.107 181.05,145.441 179.5,144.5 Z"/></g>
<g><path style="opacity:0.282" fill="#c3aba7" d="M 163.5,143.5 C 164.224,145.218 164.891,147.052 165.5,149C 167.115,149.062 168.448,149.229 169.5,149.5C 164.164,151.504 162.164,149.504 163.5,143.5 Z"/></g>
<g><path style="opacity:0.341" fill="#94c880" d="M 6.5,146.5 C 8.16667,147.5 9.5,148.833 10.5,150.5C 8.16667,150.167 6.83333,148.833 6.5,146.5 Z"/></g>
<g><path style="opacity:0.576" fill="#959694" d="M 59.5,146.5 C 60.2342,147.929 61.4009,148.929 63,149.5C 64.8003,148.68 66.6336,148.014 68.5,147.5C 64.8715,151.604 61.5382,151.437 58.5,147C 58.7284,146.601 59.0618,146.435 59.5,146.5 Z"/></g>
<g><path style="opacity:0.584" fill="#ba8da4" d="M 78.5,146.5 C 78.56,145.957 78.8933,145.624 79.5,145.5C 82.273,146.97 85.1063,148.303 88,149.5C 89.7706,148.653 90.9373,147.32 91.5,145.5C 92.17,148.59 91.0033,150.257 88,150.5C 84.6469,149.572 81.4802,148.239 78.5,146.5 Z"/></g>
</svg>
