<?xml version="1.0" encoding="UTF-8"?>
<!DOCTYPE svg PUBLIC "-//W3C//DTD SVG 1.1//EN" "http://www.w3.org/Graphics/SVG/1.1/DTD/svg11.dtd">
<svg xmlns="http://www.w3.org/2000/svg" version="1.1" width="512px" height="512px" style="shape-rendering:geometricPrecision; text-rendering:geometricPrecision; image-rendering:optimizeQuality; fill-rule:evenodd; clip-rule:evenodd" xmlns:xlink="http://www.w3.org/1999/xlink">
<g><path style="opacity:0.992" fill="#070707" d="M 114.5,-0.5 C 221.5,-0.5 328.5,-0.5 435.5,-0.5C 446.79,3.2912 454.29,10.9579 458,22.5C 458.667,124.833 458.667,227.167 458,329.5C 456.836,332.495 454.669,334.161 451.5,334.5C 448.042,333.892 445.542,331.892 444,328.5C 443.667,227.5 443.333,126.5 443,25.5C 440.833,20.6667 437.333,17.1667 432.5,15C 423.506,14.5002 414.506,14.3336 405.5,14.5C 313.5,14.5 221.5,14.5 129.5,14.5C 129.5,139.5 129.5,264.5 129.5,389.5C 221.5,389.5 313.5,389.5 405.5,389.5C 414.173,389.666 422.84,389.5 431.5,389C 436.91,387.257 440.744,383.757 443,378.5C 443.333,372.167 443.667,365.833 444,359.5C 445.715,356.603 448.215,355.269 451.5,355.5C 454.099,355.549 456.266,356.549 458,358.5C 462.217,375.05 458.051,388.883 445.5,400C 442.378,401.645 439.212,403.145 436,404.5C 435.5,424.497 435.333,444.497 435.5,464.5C 452.924,467.002 460.424,477.002 458,494.5C 455.744,502.919 450.577,508.585 442.5,511.5C 333.5,511.5 224.5,511.5 115.5,511.5C 81.0941,503.593 60.2608,482.259 53,447.5C 52.3333,345.833 52.3333,244.167 53,142.5C 54.4133,140.586 56.2466,139.253 58.5,138.5C 59.8333,130.5 59.8333,122.5 58.5,114.5C 56.2466,113.747 54.4133,112.414 53,110.5C 52.0918,93.7938 52.4252,77.1272 54,60.5C 61.7205,27.6135 81.8871,7.28013 114.5,-0.5 Z"/></g>
<g><path style="opacity:1" fill="#73d74a" d="M 405.5,14.5 C 406.973,17.4469 408.473,20.4469 410,23.5C 410.667,142.167 410.667,260.833 410,379.5C 408.76,382.978 407.26,386.311 405.5,389.5C 313.5,389.5 221.5,389.5 129.5,389.5C 129.5,264.5 129.5,139.5 129.5,14.5C 221.5,14.5 313.5,14.5 405.5,14.5 Z"/></g>
<g><path style="opacity:1" fill="#56c828" d="M 405.5,14.5 C 414.506,14.3336 423.506,14.5002 432.5,15C 437.333,17.1667 440.833,20.6667 443,25.5C 443.333,126.5 443.667,227.5 444,328.5C 445.542,331.892 448.042,333.892 451.5,334.5C 451.5,341.5 451.5,348.5 451.5,355.5C 448.215,355.269 445.715,356.603 444,359.5C 443.667,365.833 443.333,372.167 443,378.5C 440.744,383.757 436.91,387.257 431.5,389C 422.84,389.5 414.173,389.666 405.5,389.5C 407.26,386.311 408.76,382.978 410,379.5C 410.667,260.833 410.667,142.167 410,23.5C 408.473,20.4469 406.973,17.4469 405.5,14.5 Z"/></g>
<g><path style="opacity:1" fill="#af3dfb" d="M 109.5,16.5 C 111.167,16.5 112.833,16.5 114.5,16.5C 114.667,141.834 114.5,267.167 114,392.5C 85.2274,407.818 77.8941,430.151 92,459.5C 97.4697,467.971 104.97,473.638 114.5,476.5C 114.5,482.5 114.5,488.5 114.5,494.5C 88.0975,487.592 72.5975,470.592 68,443.5C 67.6667,343.5 67.3333,243.5 67,143.5C 65.7275,140.778 63.5608,139.444 60.5,139.5C 60.5,130.833 60.5,122.167 60.5,113.5C 63.5608,113.556 65.7275,112.222 67,109.5C 67.3333,96.8333 67.6667,84.1667 68,71.5C 71.1894,44.8485 85.0227,26.5152 109.5,16.5 Z"/></g>
<g><path style="opacity:1" fill="#090909" d="M 236.5,46.5 C 260.601,43.9554 276.767,53.9554 285,76.5C 285.495,78.4727 285.662,80.4727 285.5,82.5C 336.706,84.3403 373.206,108.34 395,154.5C 410.655,195.918 405.988,234.918 381,271.5C 371.983,282.017 362.15,291.684 351.5,300.5C 357.168,308.498 362.334,316.831 367,325.5C 369.637,342.067 363.137,353.233 347.5,359C 306.167,359.667 264.833,359.667 223.5,359C 208.381,352.938 201.881,341.771 204,325.5C 208.616,316.437 214.116,307.937 220.5,300C 181.554,272.266 164.054,234.433 168,186.5C 172.413,153.948 187.246,127.282 212.5,106.5C 200.7,78.5651 208.7,58.5651 236.5,46.5 Z"/></g>
<g><path style="opacity:1" fill="#af3dfb" d="M 238.5,61.5 C 261.175,59.6758 271.675,70.0091 270,92.5C 264.115,106.859 253.615,112.359 238.5,109C 221.942,100.661 217.776,88.1606 226,71.5C 229.489,67.1621 233.656,63.8287 238.5,61.5 Z"/></g>
<g><path style="opacity:1" fill="#fdfdfd" d="M 251.5,192.5 C 253.607,193.468 255.941,193.802 258.5,193.5C 258.5,210.167 258.5,226.833 258.5,243.5C 248.916,258.423 238.916,273.09 228.5,287.5C 191.589,260.326 176.756,223.993 184,178.5C 189.949,153.562 203.116,133.562 223.5,118.5C 235.588,125.082 248.255,126.248 261.5,122C 272.118,117.216 279.452,109.382 283.5,98.5C 325.097,97.879 356.264,115.546 377,151.5C 396.067,192.026 392.4,230.36 366,266.5C 358.911,274.427 351.078,281.427 342.5,287.5C 332.471,273.304 322.638,258.971 313,244.5C 312.5,227.503 312.333,210.503 312.5,193.5C 321.161,194.671 324.994,191.004 324,182.5C 323.5,180.667 322.333,179.5 320.5,179C 297.167,178.333 273.833,178.333 250.5,179C 246.304,181.981 245.471,185.814 248,190.5C 248.816,191.823 249.983,192.489 251.5,192.5 Z"/></g>
<g><path style="opacity:1" fill="#0a090a" d="M 302.5,114.5 C 328.325,113.153 339.159,125.153 335,150.5C 328.485,163.464 317.985,168.631 303.5,166C 288.131,160.107 281.964,148.941 285,132.5C 288.353,123.982 294.186,117.982 302.5,114.5 Z"/></g>
<g><path style="opacity:1" fill="#ad3cf7" d="M 307.5,128.5 C 321.277,129.888 324.944,136.721 318.5,149C 310.653,153.554 304.487,152.054 300,144.5C 297.965,136.907 300.465,131.573 307.5,128.5 Z"/></g>
<g><path style="opacity:1" fill="#989898" d="M 251.5,192.5 C 254.167,192.5 256.833,192.5 259.5,192.5C 259.83,209.675 259.497,226.675 258.5,243.5C 258.5,226.833 258.5,210.167 258.5,193.5C 255.941,193.802 253.607,193.468 251.5,192.5 Z"/></g>
<g><path style="opacity:1" fill="#e2eaf0" d="M 274.5,193.5 C 282.167,193.5 289.833,193.5 297.5,193.5C 297.333,211.836 297.5,230.17 298,248.5C 306.043,260.753 314.209,272.92 322.5,285C 297.833,285.667 273.167,285.667 248.5,285C 257,272.5 265.5,260 274,247.5C 274.5,229.503 274.667,211.503 274.5,193.5 Z"/></g>
<g><path style="opacity:1" fill="#b13dfd" d="M 237.5,300.5 C 269.502,300.333 301.502,300.5 333.5,301C 339.333,309.5 345.167,318 351,326.5C 354.322,334.039 352.489,339.872 345.5,344C 305.5,344.667 265.5,344.667 225.5,344C 219.092,340.677 216.925,335.511 219,328.5C 224.996,319.013 231.163,309.68 237.5,300.5 Z"/></g>
<g><path style="opacity:1" fill="#aeb2b5" d="M 124.5,405.5 C 222.999,404.501 321.665,404.167 420.5,404.5C 420.825,412.352 420.492,420.018 419.5,427.5C 419.5,420.167 419.5,412.833 419.5,405.5C 408.833,405.5 398.167,405.5 387.5,405.5C 299.833,405.5 212.167,405.5 124.5,405.5 Z"/></g>
<g><path style="opacity:1" fill="#eff4f9" d="M 124.5,405.5 C 212.167,405.5 299.833,405.5 387.5,405.5C 387.5,412.5 387.5,419.5 387.5,426.5C 339.997,426.168 292.664,426.501 245.5,427.5C 243.097,427.393 241.264,428.393 240,430.5C 239.333,433.167 239.333,435.833 240,438.5C 240.5,440.333 241.667,441.5 243.5,442C 302.166,442.5 360.832,442.667 419.5,442.5C 419.5,449.833 419.5,457.167 419.5,464.5C 321.833,464.5 224.167,464.5 126.5,464.5C 109.852,461.513 100.852,451.513 99.5,434.5C 101.058,418.945 109.391,409.278 124.5,405.5 Z"/></g>
<g><path style="opacity:1" fill="#e0e7ed" d="M 387.5,405.5 C 398.167,405.5 408.833,405.5 419.5,405.5C 419.5,412.833 419.5,420.167 419.5,427.5C 361.5,427.5 303.5,427.5 245.5,427.5C 292.664,426.501 339.997,426.168 387.5,426.5C 387.5,419.5 387.5,412.5 387.5,405.5 Z"/></g>
<g><path style="opacity:1" fill="#818587" d="M 419.5,442.5 C 420.492,449.982 420.825,457.648 420.5,465.5C 322.332,465.833 224.332,465.499 126.5,464.5C 224.167,464.5 321.833,464.5 419.5,464.5C 419.5,457.167 419.5,449.833 419.5,442.5 Z"/></g>
<g><path style="opacity:1" fill="#73d74a" d="M 408.5,480.5 C 411.051,485.742 411.051,491.075 408.5,496.5C 315.5,496.5 222.5,496.5 129.5,496.5C 129.5,491.167 129.5,485.833 129.5,480.5C 222.5,480.5 315.5,480.5 408.5,480.5 Z"/></g>
<g><path style="opacity:1" fill="#56c727" d="M 408.5,480.5 C 418.167,480.5 427.833,480.5 437.5,480.5C 444.105,483.854 445.105,488.521 440.5,494.5C 439.5,495 438.5,495.5 437.5,496C 427.839,496.5 418.172,496.666 408.5,496.5C 411.051,491.075 411.051,485.742 408.5,480.5 Z"/></g>
<g><path style="opacity:1" fill="#2e541f" d="M 437.5,480.5 C 427.833,480.5 418.167,480.5 408.5,480.5C 315.5,480.5 222.5,480.5 129.5,480.5C 129.5,485.833 129.5,491.167 129.5,496.5C 128.511,491.025 128.178,485.358 128.5,479.5C 231.668,479.167 334.668,479.501 437.5,480.5 Z"/></g>
</svg>
