<?xml version="1.0" encoding="UTF-8"?>
<!DOCTYPE svg PUBLIC "-//W3C//DTD SVG 1.1//EN" "http://www.w3.org/Graphics/SVG/1.1/DTD/svg11.dtd">
<svg xmlns="http://www.w3.org/2000/svg" version="1.1" width="512px" height="512px" style="shape-rendering:geometricPrecision; text-rendering:geometricPrecision; image-rendering:optimizeQuality; fill-rule:evenodd; clip-rule:evenodd" xmlns:xlink="http://www.w3.org/1999/xlink">
<g><path style="opacity:0.983" fill="#020101" d="M 403.5,28.5 C 400.754,31.3054 397.421,32.1387 393.5,31C 379.473,21.2355 364.14,17.4022 347.5,19.5C 347.333,41.8358 347.5,64.1692 348,86.5C 351.945,108.945 365.112,122.278 387.5,126.5C 398.988,127.495 410.655,127.828 422.5,127.5C 422.667,110.497 422.5,93.4967 422,76.5C 421.313,72.4204 420.313,68.4204 419,64.5C 416.545,59.2596 414.378,53.9263 412.5,48.5C 412.974,45.6887 414.307,43.3554 416.5,41.5C 419.93,41.1065 423.096,41.7732 426,43.5C 431.439,52.8133 435.106,62.8133 437,73.5C 438.228,93.1369 438.895,112.804 439,132.5C 445.505,141.972 447.172,152.305 444,163.5C 442.69,168.124 440.356,172.124 437,175.5C 436.333,176.5 436.333,177.5 437,178.5C 440,182.833 443,187.167 446,191.5C 457.692,203.249 469.859,214.416 482.5,225C 507.595,249.115 511.095,275.949 493,305.5C 482.067,318.05 468.234,324.883 451.5,326C 457.837,335.682 463.337,345.849 468,356.5C 482.277,392.702 496.777,428.702 511.5,464.5C 511.5,467.5 511.5,470.5 511.5,473.5C 504.307,479.661 498.974,478.328 495.5,469.5C 480.143,427.269 463.31,385.602 445,344.5C 431.743,319.743 412.91,300.41 388.5,286.5C 387.503,294.138 387.169,301.804 387.5,309.5C 385.939,363.368 379.939,416.702 369.5,469.5C 367.924,476.955 363.59,479.122 356.5,476C 354.549,474.266 353.549,472.099 353.5,469.5C 362.227,432.455 367.727,394.788 370,356.5C 370.866,343.512 371.366,330.512 371.5,317.5C 361.406,319.652 351.406,321.652 341.5,323.5C 320.465,324.866 299.798,322.866 279.5,317.5C 280.232,368.827 286.232,419.494 297.5,469.5C 295.92,477.121 291.586,479.121 284.5,475.5C 282.962,473.757 281.962,471.757 281.5,469.5C 276.913,446.313 273.08,422.98 270,399.5C 266.416,360.575 264.083,321.575 263,282.5C 253.882,288.621 245.715,295.787 238.5,304C 239.494,359.137 239.827,414.304 239.5,469.5C 239.917,478.915 239.417,488.248 238,497.5C 235.359,502.144 231.525,505.311 226.5,507C 178.167,507.667 129.833,507.667 81.5,507C 74.9299,504.762 70.7633,500.262 69,493.5C 68.5,449.168 68.3333,404.835 68.5,360.5C 49.8304,360.667 31.1637,360.5 12.5,360C 9.55438,359.194 6.88772,357.861 4.5,356C 2.68589,353.521 1.01922,351.021 -0.5,348.5C -0.5,323.833 -0.5,299.167 -0.5,274.5C 1.37183,272.396 3.70516,271.063 6.5,270.5C 9.58675,271.053 12.0867,272.72 14,275.5C 14.3333,298.167 14.6667,320.833 15,343.5C 15.3826,344.056 15.8826,344.389 16.5,344.5C 33.9921,345.497 51.6588,345.83 69.5,345.5C 69.8266,336.318 69.4933,327.318 68.5,318.5C 47.6792,312.17 35.5126,298.17 32,276.5C 29.8246,264.962 31.8246,254.295 38,244.5C 42.4876,240.363 46.9876,236.363 51.5,232.5C 40.6912,198.809 52.0245,187.309 85.5,198C 97.9764,205.307 104.976,216.14 106.5,230.5C 111.71,231.57 116.71,233.237 121.5,235.5C 134.865,244.578 140.365,257.245 138,273.5C 137.145,278.92 135.978,284.253 134.5,289.5C 133.957,289.56 133.624,289.893 133.5,290.5C 140.656,291.819 147.656,291.819 154.5,290.5C 154.83,246.594 154.497,202.761 153.5,159C 107.665,158.168 61.9982,158.335 16.5,159.5C 15.8826,159.611 15.3826,159.944 15,160.5C 14.6667,189.5 14.3333,218.5 14,247.5C 12.2926,250.59 9.79257,252.59 6.5,253.5C 3.72376,252.911 1.39043,251.578 -0.5,249.5C -0.5,218.167 -0.5,186.833 -0.5,155.5C 1.74947,149.423 6.0828,145.589 12.5,144C 61.5586,143.014 110.559,143.348 159.5,145C 165.85,148.189 169.35,153.356 170,160.5C 170.333,181.5 170.667,202.5 171,223.5C 174.778,217.628 179.944,215.961 186.5,218.5C 186.915,220.747 187.582,222.914 188.5,225C 186.159,230.681 182.326,235.181 177,238.5C 174.667,241.5 172.333,244.5 170,247.5C 169.5,261.829 169.333,276.163 169.5,290.5C 187.836,290.333 206.17,290.5 224.5,291C 225.609,291.638 226.775,292.138 228,292.5C 247.889,274.639 271.056,263.306 297.5,258.5C 297.762,257.022 297.429,255.689 296.5,254.5C 265.17,242.17 246.17,219.504 239.5,186.5C 236.014,185.724 232.514,185.058 229,184.5C 223.591,193.455 217.091,201.622 209.5,209C 205.928,209.847 202.594,209.347 199.5,207.5C 197.076,204.396 196.909,201.062 199,197.5C 205.517,191.485 210.684,184.485 214.5,176.5C 205.848,166.218 203.348,154.551 207,141.5C 207.92,138.062 209.587,135.062 212,132.5C 212.333,115.833 212.667,99.1667 213,82.5C 215.877,48.5711 232.71,24.4044 263.5,10C 270.571,7.06543 277.904,5.06543 285.5,4C 312.167,3.33333 338.833,3.33333 365.5,4C 380.127,5.56955 392.96,11.0696 404,20.5C 404.801,23.367 404.634,26.0336 403.5,28.5 Z"/></g>
<g><path style="opacity:1" fill="#d2694f" d="M 287.5,19.5 C 302.167,19.5 316.833,19.5 331.5,19.5C 331.5,41.8333 331.5,64.1667 331.5,86.5C 327.781,109.386 314.448,122.886 291.5,127C 270.503,127.5 249.503,127.667 228.5,127.5C 228.333,110.497 228.5,93.4967 229,76.5C 233.912,50.917 248.412,33.0836 272.5,23C 277.329,21.0425 282.329,19.8758 287.5,19.5 Z"/></g>
<g><path style="opacity:1" fill="#a4523d" d="M 287.5,19.5 C 302.324,18.5039 317.324,18.1706 332.5,18.5C 332.831,41.3395 332.497,64.0061 331.5,86.5C 331.5,64.1667 331.5,41.8333 331.5,19.5C 316.833,19.5 302.167,19.5 287.5,19.5 Z"/></g>
<g><path style="opacity:1" fill="#d3694f" d="M 347.5,19.5 C 365.118,26.9526 377.618,39.6193 385,57.5C 388.094,64.8754 390.094,72.5421 391,80.5C 391.5,95.8297 391.667,111.163 391.5,126.5C 390.167,126.5 388.833,126.5 387.5,126.5C 365.112,122.278 351.945,108.945 348,86.5C 347.5,64.1692 347.333,41.8358 347.5,19.5 Z"/></g>
<g><path style="opacity:1" fill="#a44a34" d="M 347.5,19.5 C 364.14,17.4022 379.473,21.2355 393.5,31C 397.421,32.1387 400.754,31.3054 403.5,28.5C 408.167,32.5 412.5,36.8333 416.5,41.5C 414.307,43.3554 412.974,45.6887 412.5,48.5C 414.378,53.9263 416.545,59.2596 419,64.5C 420.313,68.4204 421.313,72.4204 422,76.5C 422.5,93.4967 422.667,110.497 422.5,127.5C 410.655,127.828 398.988,127.495 387.5,126.5C 388.833,126.5 390.167,126.5 391.5,126.5C 391.667,111.163 391.5,95.8297 391,80.5C 390.094,72.5421 388.094,64.8754 385,57.5C 377.618,39.6193 365.118,26.9526 347.5,19.5 Z"/></g>
<g><path style="opacity:1" fill="#fccbbd" d="M 374.5,139.5 C 374.872,156.202 374.372,172.868 373,189.5C 366.72,213.242 352.887,231.075 331.5,243C 326.511,243.499 321.511,243.666 316.5,243.5C 284.584,238.091 264.084,219.758 255,188.5C 253.638,172.869 253.138,157.202 253.5,141.5C 267.504,141.667 281.504,141.5 295.5,141C 315.233,137.891 330.066,127.724 340,110.5C 348.026,124.364 359.526,134.03 374.5,139.5 Z"/></g>
<g><path style="opacity:1" fill="#faae9e" d="M 374.5,139.5 C 382.018,141.257 389.685,141.924 397.5,141.5C 397.862,157.202 397.362,172.869 396,188.5C 383.684,227.688 357.184,246.021 316.5,243.5C 321.511,243.666 326.511,243.499 331.5,243C 352.887,231.075 366.72,213.242 373,189.5C 374.372,172.868 374.872,156.202 374.5,139.5 Z"/></g>
<g><path style="opacity:1" fill="#f8ac9d" d="M 224.5,142.5 C 228.833,142.5 233.167,142.5 237.5,142.5C 238.139,152.227 237.472,161.56 235.5,170.5C 229.086,169.259 224.586,165.592 222,159.5C 220.723,155.903 220.39,152.236 221,148.5C 221.424,145.975 222.59,143.975 224.5,142.5 Z"/></g>
<g><path style="opacity:1" fill="#b98175" d="M 224.5,142.5 C 228.97,141.514 233.637,141.181 238.5,141.5C 238.5,151.5 238.5,161.5 238.5,171.5C 237.209,171.737 236.209,171.404 235.5,170.5C 237.472,161.56 238.139,152.227 237.5,142.5C 233.167,142.5 228.833,142.5 224.5,142.5 Z"/></g>
<g><path style="opacity:1" fill="#ab675a" d="M 427.5,142.5 C 422.833,142.5 418.167,142.5 413.5,142.5C 412.861,152.227 413.528,161.56 415.5,170.5C 414.791,171.404 413.791,171.737 412.5,171.5C 412.5,161.5 412.5,151.5 412.5,141.5C 417.695,141.179 422.695,141.513 427.5,142.5 Z"/></g>
<g><path style="opacity:1" fill="#f19280" d="M 427.5,142.5 C 433.357,156.114 429.357,165.448 415.5,170.5C 413.528,161.56 412.861,152.227 413.5,142.5C 418.167,142.5 422.833,142.5 427.5,142.5 Z"/></g>
<g><path style="opacity:1" fill="#0a0707" d="M 284.5,154.5 C 292.658,153.823 296.158,157.49 295,165.5C 293.55,170.308 290.384,172.141 285.5,171C 280.845,168.103 279.345,163.937 281,158.5C 282.376,157.295 283.542,155.962 284.5,154.5 Z"/></g>
<g><path style="opacity:1" fill="#0a0807" d="M 359.5,154.5 C 368.152,153.986 371.652,157.986 370,166.5C 364.854,173.406 360.187,173.073 356,165.5C 354.882,161.077 356.049,157.41 359.5,154.5 Z"/></g>
<g><path style="opacity:0.999" fill="#f2e9e5" d="M 16.5,159.5 C 51.5,159.5 86.5,159.5 121.5,159.5C 121.5,184.833 121.5,210.167 121.5,235.5C 116.71,233.237 111.71,231.57 106.5,230.5C 104.976,216.14 97.9764,205.307 85.5,198C 52.0245,187.309 40.6912,198.809 51.5,232.5C 46.9876,236.363 42.4876,240.363 38,244.5C 31.8246,254.295 29.8246,264.962 32,276.5C 35.5126,298.17 47.6792,312.17 68.5,318.5C 68.5,327.167 68.5,335.833 68.5,344.5C 51.1667,344.5 33.8333,344.5 16.5,344.5C 15.8826,344.389 15.3826,344.056 15,343.5C 14.6667,320.833 14.3333,298.167 14,275.5C 12.0867,272.72 9.58675,271.053 6.5,270.5C 6.5,264.833 6.5,259.167 6.5,253.5C 9.79257,252.59 12.2926,250.59 14,247.5C 14.3333,218.5 14.6667,189.5 15,160.5C 15.3826,159.944 15.8826,159.611 16.5,159.5 Z"/></g>
<g><path style="opacity:1" fill="#ddd0cb" d="M 16.5,159.5 C 61.9982,158.335 107.665,158.168 153.5,159C 154.497,202.761 154.83,246.594 154.5,290.5C 147.646,290.824 140.979,290.491 134.5,289.5C 135.978,284.253 137.145,278.92 138,273.5C 140.365,257.245 134.865,244.578 121.5,235.5C 121.5,210.167 121.5,184.833 121.5,159.5C 86.5,159.5 51.5,159.5 16.5,159.5 Z"/></g>
<g><path style="opacity:1" fill="#050403" d="M 322.5,163.5 C 326.684,162.704 329.85,164.037 332,167.5C 332.667,173.5 332.667,179.5 332,185.5C 327.667,190.833 323.333,190.833 319,185.5C 318.333,179.5 318.333,173.5 319,167.5C 319.69,165.65 320.856,164.316 322.5,163.5 Z"/></g>
<g><path style="opacity:0.999" fill="#a54a34" d="M 186.5,218.5 C 191.152,215.179 195.485,211.513 199.5,207.5C 202.594,209.347 205.928,209.847 209.5,209C 217.091,201.622 223.591,193.455 229,184.5C 232.514,185.058 236.014,185.724 239.5,186.5C 246.17,219.504 265.17,242.17 296.5,254.5C 297.429,255.689 297.762,257.022 297.5,258.5C 271.056,263.306 247.889,274.639 228,292.5C 226.775,292.138 225.609,291.638 224.5,291C 206.17,290.5 187.836,290.333 169.5,290.5C 169.333,276.163 169.5,261.829 170,247.5C 172.333,244.5 174.667,241.5 177,238.5C 182.326,235.181 186.159,230.681 188.5,225C 187.582,222.914 186.915,220.747 186.5,218.5 Z"/></g>
<g><path style="opacity:1" fill="#893c29" d="M 437.5,307.5 C 441.302,306.221 444.469,303.888 447,300.5C 456.07,288.627 459.07,275.293 456,260.5C 454.217,254.933 451.883,249.599 449,244.5C 436.256,229.587 422.089,216.254 406.5,204.5C 408.473,198.613 410.139,192.613 411.5,186.5C 415.144,185.42 418.81,184.92 422.5,185C 425.964,190.762 429.797,196.262 434,201.5C 449.333,216.167 464.667,230.833 480,245.5C 490.186,260.502 491.186,276.168 483,292.5C 471.133,308.067 455.967,313.067 437.5,307.5 Z"/></g>
<g><path style="opacity:1" fill="#050403" d="M 301.5,198.5 C 303.857,198.337 306.19,198.503 308.5,199C 318.959,208.517 329.626,208.85 340.5,200C 346.931,196.794 351.265,198.461 353.5,205C 350.842,211.986 345.842,216.653 338.5,219C 323.222,224.388 310.055,221.222 299,209.5C 296.592,205.034 297.425,201.367 301.5,198.5 Z"/></g>
<g><path style="opacity:1" fill="#a54a34" d="M 406.5,204.5 C 422.089,216.254 436.256,229.587 449,244.5C 451.883,249.599 454.217,254.933 456,260.5C 459.07,275.293 456.07,288.627 447,300.5C 444.469,303.888 441.302,306.221 437.5,307.5C 415.324,281.405 387.324,265.071 353.5,258.5C 353.238,257.022 353.571,255.689 354.5,254.5C 378.707,244.959 396.041,228.292 406.5,204.5 Z"/></g>
<g><path style="opacity:1" fill="#30a3f5" d="M 90.5,226.5 C 84.8333,227.167 79.1667,227.833 73.5,228.5C 70.8806,228.768 68.3806,228.435 66,227.5C 63.0154,221.529 61.8487,215.196 62.5,208.5C 76.5076,207.49 85.841,213.49 90.5,226.5 Z"/></g>
<g><path style="opacity:1" fill="#0f354f" d="M 90.5,226.5 C 91.0431,226.56 91.3764,226.893 91.5,227.5C 85.5368,228.496 79.5368,228.829 73.5,228.5C 79.1667,227.833 84.8333,227.167 90.5,226.5 Z"/></g>
<g><path style="opacity:1" fill="#e03b52" d="M 95.5,243.5 C 101.429,249.943 104.429,257.61 104.5,266.5C 103.851,274.748 102.184,282.748 99.5,290.5C 93.9738,290.179 88.6405,290.512 83.5,291.5C 76.7121,292.95 72.0455,296.95 69.5,303.5C 56.6691,298.498 49.1691,289.164 47,275.5C 43.4296,259.796 49.2629,249.63 64.5,245C 74.7889,242.469 85.1223,241.969 95.5,243.5 Z"/></g>
<g><path style="opacity:1" fill="#a62638" d="M 95.5,243.5 C 118.417,245.24 127.25,257.24 122,279.5C 120.568,283.531 118.734,287.364 116.5,291C 105.505,291.5 94.505,291.667 83.5,291.5C 88.6405,290.512 93.9738,290.179 99.5,290.5C 102.184,282.748 103.851,274.748 104.5,266.5C 104.429,257.61 101.429,249.943 95.5,243.5 Z"/></g>
<g><path style="opacity:1" fill="#f39381" d="M 312.5,258.5 C 321.152,259.717 329.818,259.717 338.5,258.5C 338.077,268.58 338.577,278.58 340,288.5C 344,292.5 348,292.5 352,288.5C 353.325,283.599 353.825,278.599 353.5,273.5C 359.89,274.963 366.223,276.63 372.5,278.5C 372.666,285.841 372.5,293.174 372,300.5C 362.583,304.518 352.75,307.018 342.5,308C 320.665,310.304 299.331,308.138 278.5,301.5C 278.5,293.167 278.5,284.833 278.5,276.5C 284.778,275.176 291.112,274.176 297.5,273.5C 297.175,278.599 297.675,283.599 299,288.5C 304.121,292.875 308.455,292.209 312,286.5C 312.5,277.173 312.666,267.839 312.5,258.5 Z"/></g>
<g><path style="opacity:0.998" fill="#30a5f8" d="M 281.5,469.5 C 267.5,469.5 253.5,469.5 239.5,469.5C 239.827,414.304 239.494,359.137 238.5,304C 245.715,295.787 253.882,288.621 263,282.5C 264.083,321.575 266.416,360.575 270,399.5C 273.08,422.98 276.913,446.313 281.5,469.5 Z"/></g>
<g><path style="opacity:1" fill="#1b95f7" d="M 495.5,469.5 C 484.5,469.5 473.5,469.5 462.5,469.5C 447.438,431.151 432.271,392.818 417,354.5C 409.132,338.066 399.299,323.066 387.5,309.5C 387.169,301.804 387.503,294.138 388.5,286.5C 412.91,300.41 431.743,319.743 445,344.5C 463.31,385.602 480.143,427.269 495.5,469.5 Z"/></g>
<g><path style="opacity:1" fill="#67605e" d="M 134.5,289.5 C 140.979,290.491 147.646,290.824 154.5,290.5C 147.656,291.819 140.656,291.819 133.5,290.5C 133.624,289.893 133.957,289.56 134.5,289.5 Z"/></g>
<g><path style="opacity:1" fill="#f0e7e3" d="M 85.5,306.5 C 120.833,306.5 156.167,306.5 191.5,306.5C 191.5,346.167 191.5,385.833 191.5,425.5C 177.163,425.333 162.829,425.5 148.5,426C 143.167,430.667 143.167,435.333 148.5,440C 149.448,440.483 150.448,440.649 151.5,440.5C 164.656,441.496 177.99,441.829 191.5,441.5C 191.5,446.5 191.5,451.5 191.5,456.5C 177.163,456.333 162.829,456.5 148.5,457C 143.167,461.667 143.167,466.333 148.5,471C 149.448,471.483 150.448,471.649 151.5,471.5C 164.656,472.496 177.99,472.829 191.5,472.5C 191.5,478.833 191.5,485.167 191.5,491.5C 156.167,491.5 120.833,491.5 85.5,491.5C 84.8826,491.389 84.3826,491.056 84,490.5C 83.3333,429.5 83.3333,368.5 84,307.5C 84.3826,306.944 84.8826,306.611 85.5,306.5 Z"/></g>
<g><path style="opacity:1" fill="#d9cdc8" d="M 85.5,306.5 C 130.998,305.335 176.665,305.168 222.5,306C 223,306.5 223.5,307 224,307.5C 224.667,368.5 224.667,429.5 224,490.5C 223.5,491 223,491.5 222.5,492C 176.665,492.832 130.998,492.665 85.5,491.5C 120.833,491.5 156.167,491.5 191.5,491.5C 191.5,485.167 191.5,478.833 191.5,472.5C 177.99,472.829 164.656,472.496 151.5,471.5C 167.837,471.667 184.17,471.5 200.5,471C 207.167,466.333 207.167,461.667 200.5,457C 197.518,456.502 194.518,456.335 191.5,456.5C 191.5,451.5 191.5,446.5 191.5,441.5C 177.99,441.829 164.656,441.496 151.5,440.5C 167.837,440.667 184.17,440.5 200.5,440C 207.167,435.333 207.167,430.667 200.5,426C 197.518,425.502 194.518,425.335 191.5,425.5C 191.5,385.833 191.5,346.167 191.5,306.5C 156.167,306.5 120.833,306.5 85.5,306.5 Z"/></g>
<g><path style="opacity:0.997" fill="#30a6f9" d="M 387.5,309.5 C 399.299,323.066 409.132,338.066 417,354.5C 432.271,392.818 447.438,431.151 462.5,469.5C 431.5,469.5 400.5,469.5 369.5,469.5C 379.939,416.702 385.939,363.368 387.5,309.5 Z"/></g>
<g><path style="opacity:0.999" fill="#f2e9e5" d="M 341.5,323.5 C 342.805,325.397 343.471,327.731 343.5,330.5C 341.462,371.468 336.962,412.135 330,452.5C 328.604,458.19 327.104,463.857 325.5,469.5C 316.167,469.5 306.833,469.5 297.5,469.5C 286.232,419.494 280.232,368.827 279.5,317.5C 299.798,322.866 320.465,324.866 341.5,323.5 Z"/></g>
<g><path style="opacity:1" fill="#ded1cc" d="M 353.5,469.5 C 344.167,469.5 334.833,469.5 325.5,469.5C 327.104,463.857 328.604,458.19 330,452.5C 336.962,412.135 341.462,371.468 343.5,330.5C 343.471,327.731 342.805,325.397 341.5,323.5C 351.406,321.652 361.406,319.652 371.5,317.5C 371.366,330.512 370.866,343.512 370,356.5C 367.727,394.788 362.227,432.455 353.5,469.5 Z"/></g>
<g><path style="opacity:1" fill="#050505" d="M 151.5,325.5 C 155.08,324.923 158.08,325.923 160.5,328.5C 169.667,350.833 178.833,373.167 188,395.5C 189.132,401.537 186.632,404.87 180.5,405.5C 175.469,404.125 172.803,400.791 172.5,395.5C 160.482,395.168 148.482,395.501 136.5,396.5C 133.664,406.152 128.498,407.819 121,401.5C 120.793,395.545 122.127,389.878 125,384.5C 132.276,367.614 139.276,350.614 146,333.5C 147.129,330.206 148.962,327.54 151.5,325.5 Z"/></g>
<g><path style="opacity:1" fill="#8b8583" d="M 68.5,318.5 C 69.4933,327.318 69.8266,336.318 69.5,345.5C 51.6588,345.83 33.9921,345.497 16.5,344.5C 33.8333,344.5 51.1667,344.5 68.5,344.5C 68.5,335.833 68.5,327.167 68.5,318.5 Z"/></g>
<g><path style="opacity:1" fill="#ece3df" d="M 164.5,378.5 C 161.351,379.165 158.018,379.498 154.5,379.5C 150.761,379.486 147.428,378.82 144.5,377.5C 147.286,369.262 150.62,361.262 154.5,353.5C 158.229,361.688 161.562,370.022 164.5,378.5 Z"/></g>
<g><path style="opacity:1" fill="#928c8a" d="M 144.5,377.5 C 147.428,378.82 150.761,379.486 154.5,379.5C 158.018,379.498 161.351,379.165 164.5,378.5C 165.043,378.56 165.376,378.893 165.5,379.5C 158.197,380.497 150.863,380.831 143.5,380.5C 143.263,379.209 143.596,378.209 144.5,377.5 Z"/></g>
<g><path style="opacity:1" fill="#070707" d="M 123.5,420.5 C 131.164,419.666 134.664,423 134,430.5C 130.201,435.301 126.034,439.801 121.5,444C 118.634,445.457 115.634,445.79 112.5,445C 109.667,442.167 106.833,439.333 104,436.5C 102.858,426.313 107.024,423.313 116.5,427.5C 119.188,425.479 121.521,423.146 123.5,420.5 Z"/></g>
<g><path style="opacity:1" fill="#040303" d="M 191.5,425.5 C 194.518,425.335 197.518,425.502 200.5,426C 207.167,430.667 207.167,435.333 200.5,440C 184.17,440.5 167.837,440.667 151.5,440.5C 150.448,440.649 149.448,440.483 148.5,440C 143.167,435.333 143.167,430.667 148.5,426C 162.829,425.5 177.163,425.333 191.5,425.5 Z"/></g>
<g><path style="opacity:1" fill="#070707" d="M 123.5,451.5 C 131.164,450.666 134.664,454 134,461.5C 130.201,466.301 126.034,470.801 121.5,475C 118.634,476.457 115.634,476.79 112.5,476C 109.667,473.167 106.833,470.333 104,467.5C 102.858,457.313 107.024,454.313 116.5,458.5C 119.188,456.479 121.521,454.146 123.5,451.5 Z"/></g>
<g><path style="opacity:1" fill="#040303" d="M 191.5,456.5 C 194.518,456.335 197.518,456.502 200.5,457C 207.167,461.667 207.167,466.333 200.5,471C 184.17,471.5 167.837,471.667 151.5,471.5C 150.448,471.649 149.448,471.483 148.5,471C 143.167,466.333 143.167,461.667 148.5,457C 162.829,456.5 177.163,456.333 191.5,456.5 Z"/></g>
</svg>
