<?xml version="1.0" encoding="UTF-8"?>
<!DOCTYPE svg PUBLIC "-//W3C//DTD SVG 1.1//EN" "http://www.w3.org/Graphics/SVG/1.1/DTD/svg11.dtd">
<svg xmlns="http://www.w3.org/2000/svg" version="1.1" width="512px" height="512px" style="shape-rendering:geometricPrecision; text-rendering:geometricPrecision; image-rendering:optimizeQuality; fill-rule:evenodd; clip-rule:evenodd" xmlns:xlink="http://www.w3.org/1999/xlink">
<g><path style="opacity:0.997" fill="#00a6de" d="M 232.5,-0.5 C 247.833,-0.5 263.167,-0.5 278.5,-0.5C 368.144,10.3879 435.644,54.7213 481,132.5C 497.695,163.971 507.861,197.304 511.5,232.5C 511.5,247.833 511.5,263.167 511.5,278.5C 500.612,368.144 456.279,435.644 378.5,481C 347.029,497.695 313.696,507.861 278.5,511.5C 263.167,511.5 247.833,511.5 232.5,511.5C 142.856,500.612 75.3562,456.279 30,378.5C 13.3053,347.029 3.1386,313.696 -0.5,278.5C -0.5,263.167 -0.5,247.833 -0.5,232.5C 10.3875,142.857 54.7208,75.3573 132.5,30C 163.971,13.3053 197.304,3.1386 232.5,-0.5 Z"/></g>
<g><path style="opacity:1" fill="#fefefe" d="M 292.5,149.5 C 301.626,149.066 310.626,149.899 319.5,152C 328.025,155.427 336.025,159.594 343.5,164.5C 353.351,162.409 362.685,158.909 371.5,154C 373.925,153.014 375.591,153.681 376.5,156C 373.862,164.951 369.195,172.618 362.5,179C 368.572,178.2 374.405,176.366 380,173.5C 381.622,173.954 382.788,174.954 383.5,176.5C 381.582,180.004 379.416,183.337 377,186.5C 370.301,192.864 363.968,199.531 358,206.5C 356.592,261.827 333.758,305.66 289.5,338C 243.803,364.749 196.136,368.749 146.5,350C 139.927,347.133 133.761,343.633 128,339.5C 127.175,337.299 127.675,335.466 129.5,334C 153.148,335.173 174.815,329.34 194.5,316.5C 171.952,311.282 157.618,297.615 151.5,275.5C 155.514,275.666 159.514,275.499 163.5,275C 143.202,263.503 133.202,246.003 133.5,222.5C 138.875,223.433 144.041,225.099 149,227.5C 149.167,227.167 149.333,226.833 149.5,226.5C 132.734,207.757 129.234,186.757 139,163.5C 140.041,161.415 141.541,159.748 143.5,158.5C 163.542,182.352 188.542,198.852 218.5,208C 227.935,211.017 237.601,212.517 247.5,212.5C 245.611,179.234 260.611,158.234 292.5,149.5 Z"/></g>
</svg>
