<svg width="960" height="1070" viewBox="0 0 960 1070" fill="none" xmlns="http://www.w3.org/2000/svg">
<path d="M352 623.397V625.123C351.525 661.656 320.859 689.127 260 707.537C333.332 760.958 406.668 803.697 480 803.697C553.332 803.697 626.668 760.958 700 707.537C639.555 689.106 608.888 661.594 608 624.999C608 618.476 608.048 609.213 608.092 591.82C608.092 589.058 608.099 586.229 608.112 583.334C612.484 583.951 612.112 583.558 608.112 582.444C608.232 536.692 608.428 475.17 608.7 412.645C666.028 338.213 644.968 250.952 627.004 253.128C604.984 255.816 414.172 74.4417 377.572 65.1422C340.972 55.8427 248 85.8647 232 169.504C216 253.144 209.312 463.967 270 548.135C287.269 572.087 314.469 581.456 351.6 576.242C351.652 593.747 351.756 603.572 352 623.397Z" fill="url(#paint0_linear_302_524)"/>
<path d="M352 576.182C440 566.165 496 528.102 496 528.102C496 528.102 435.44 608.704 352 624.262V576.182Z" fill="#FFBE94"/>
<path d="M638 413.912C665.56 347.521 776 212.308 680.8 128.167C648.8 -28.0931 472 -10.7963 354 25.2638C274.692 49.5002 214.8 97.384 202 61.3239C122 128.167 162.064 193.544 214.8 212.308C262.664 229.336 343.6 246.364 481.224 230.338C505.808 227.473 500.66 302.89 513.796 311.044C533.504 323.276 548.8 246.364 602.832 269.459C656.864 292.553 624.8 399.636 566.8 399.636C546.8 399.636 536.8 454.716 590.8 480.759C630 500.055 620.092 457.051 638 413.912Z" fill="url(#paint1_linear_302_524)"/>
<path d="M900 829.837C938.08 907.394 960 1086.26 960 1086.26H0C0 1086.26 21.928 907.374 60 829.837C98.072 752.3 320.4 680.384 320.4 680.384C363.252 768.503 598.432 768.503 639.484 680.356C639.484 680.356 861.92 752.28 900 829.837Z" fill="url(#paint2_linear_302_524)"/>
<mask id="mask0_302_524" style="mask-type:alpha" maskUnits="userSpaceOnUse" x="0" y="680" width="960" height="407">
<path d="M900 829.837C938.08 907.394 960 1086.26 960 1086.26H0C0 1086.26 21.928 907.374 60 829.837C98.072 752.3 320.4 680.384 320.4 680.384C363.252 768.503 598.432 768.503 639.484 680.356C639.484 680.356 861.92 752.28 900 829.837Z" fill="url(#paint3_linear_302_524)"/>
</mask>
<g mask="url(#mask0_302_524)">
<path d="M-40.0002 1004.9V972.844H1000V1004.9H-40.0002ZM-40.0002 924.764V892.711H1000V924.764H-40.0002ZM-40.0002 844.631V812.577H1000V844.631H-40.0002Z" fill="white"/>
</g>
<defs>
<linearGradient id="paint0_linear_302_524" x1="460.487" y1="63.5156" x2="460.487" y2="803.697" gradientUnits="userSpaceOnUse">
<stop stop-color="#FFC989"/>
<stop offset="1" stop-color="#FFDCC2"/>
</linearGradient>
<linearGradient id="paint1_linear_302_524" x1="437.762" y1="485.504" x2="437.762" y2="0.774414" gradientUnits="userSpaceOnUse">
<stop offset="0.9999" stop-color="#051D59"/>
<stop offset="1" stop-color="#E67240"/>
</linearGradient>
<linearGradient id="paint2_linear_302_524" x1="480" y1="1086.26" x2="480" y2="680.356" gradientUnits="userSpaceOnUse">
<stop offset="0.9999" stop-color="#051D59"/>
<stop offset="1" stop-color="#E67240"/>
</linearGradient>
<linearGradient id="paint3_linear_302_524" x1="480" y1="1086.26" x2="480" y2="680.356" gradientUnits="userSpaceOnUse">
<stop stop-color="#E6864E"/>
<stop offset="1" stop-color="#E67240"/>
</linearGradient>
</defs>
</svg>
