<?xml version="1.0" encoding="UTF-8"?>
<!DOCTYPE svg PUBLIC "-//W3C//DTD SVG 1.1//EN" "http://www.w3.org/Graphics/SVG/1.1/DTD/svg11.dtd">
<svg xmlns="http://www.w3.org/2000/svg" version="1.1" width="512px" height="512px" style="shape-rendering:geometricPrecision; text-rendering:geometricPrecision; image-rendering:optimizeQuality; fill-rule:evenodd; clip-rule:evenodd" xmlns:xlink="http://www.w3.org/1999/xlink">
<g><path style="opacity:0.974" fill="#2e2e2e" d="M 232.5,-0.5 C 247.833,-0.5 263.167,-0.5 278.5,-0.5C 368.144,10.3879 435.644,54.7213 481,132.5C 497.695,163.971 507.861,197.304 511.5,232.5C 511.5,247.833 511.5,263.167 511.5,278.5C 500.612,368.144 456.279,435.644 378.5,481C 347.029,497.695 313.696,507.861 278.5,511.5C 263.167,511.5 247.833,511.5 232.5,511.5C 142.856,500.612 75.3562,456.279 30,378.5C 13.3051,347.028 3.13839,313.695 -0.5,278.5C -0.5,263.167 -0.5,247.833 -0.5,232.5C 10.3875,142.857 54.7208,75.3573 132.5,30C 163.971,13.3053 197.304,3.1386 232.5,-0.5 Z M 253.5,29.5 C 338.085,32.3591 403.252,69.0258 449,139.5C 484.718,202.523 490.384,268.19 466,336.5C 453.267,368.222 434.6,395.889 410,419.5C 394.494,371.828 363.994,337.495 318.5,316.5C 358.787,285.826 373.954,245.492 364,195.5C 349.345,146.846 316.845,119.013 266.5,112C 218.243,109.208 181.743,128.375 157,169.5C 137.158,210.504 139.491,250.171 164,288.5C 172.047,299.381 181.547,308.714 192.5,316.5C 147.006,337.495 116.506,371.828 101,419.5C 40.8436,359.344 19.1769,287.344 36,203.5C 52.8549,139.668 89.6882,91.1675 146.5,58C 180.039,39.9785 215.705,30.4785 253.5,29.5 Z M 246.5,142.5 C 284.166,140.739 311.666,156.406 329,189.5C 344.459,231.446 334.292,265.612 298.5,292C 262.593,311.178 229.259,307.511 198.5,281C 172.248,251.567 167.748,219.067 185,183.5C 199.089,160.206 219.589,146.539 246.5,142.5 Z M 241.5,335.5 C 295.126,332.397 336.626,353.063 366,397.5C 373.758,410.938 379.258,425.272 382.5,440.5C 363.299,454.933 341.966,465.433 318.5,472C 251.484,490.189 188.817,480.522 130.5,443C 129.426,442.261 128.759,441.261 128.5,440C 143.664,380.664 181.331,345.83 241.5,335.5 Z"/></g>
</svg>
