<svg version="1.1" id="Layer_1" xmlns="http://www.w3.org/2000/svg" xmlns:xlink="http://www.w3.org/1999/xlink" x="0px" y="0px"
	 width="100%" viewBox="0 0 1000 1000" enable-background="new 0 0 1000 1000" xml:space="preserve">
<path fill="#FFFFFF" opacity="1.000000" stroke="none" 
	d="
M1.000001,565.000000 
	C1.000000,377.036835 1.000000,189.073685 1.000000,1.055266 
	C334.231140,1.055266 667.462341,1.055266 1001.000000,1.055266 
	C1001.000000,187.027924 1001.000000,373.056000 1000.583862,559.497803 
	C989.610291,558.464233 979.016602,557.240295 968.502014,555.529907 
	C930.007751,549.268372 891.308960,544.924805 852.346313,543.208191 
	C796.430908,540.744690 741.339600,546.356445 686.898376,559.554382 
	C644.726013,569.778015 602.411377,579.488159 559.944092,588.397400 
	C529.138611,594.860046 497.793243,595.627869 466.425598,592.746216 
	C435.530731,589.908020 405.260498,583.519775 375.082092,576.573730 
	C325.813782,565.233948 276.841431,552.328369 226.146896,548.493408 
	C194.505814,546.099792 162.837814,546.315247 131.264297,548.691833 
	C105.722137,550.614441 80.273277,553.934509 54.840271,557.095337 
	C36.844013,559.331909 18.943338,562.337585 1.000001,565.000000 
z"/>
<path fill="#1E76E9" opacity="1.000000" stroke="none" 
	d="
M1.000001,565.468628 
	C18.943338,562.337585 36.844013,559.331909 54.840271,557.095337 
	C80.273277,553.934509 105.722137,550.614441 131.264297,548.691833 
	C162.837814,546.315247 194.505814,546.099792 226.146896,548.493408 
	C276.841431,552.328369 325.813782,565.233948 375.082092,576.573730 
	C405.260498,583.519775 435.530731,589.908020 466.425598,592.746216 
	C497.793243,595.627869 529.138611,594.860046 559.944092,588.397400 
	C602.411377,579.488159 644.726013,569.778015 686.898376,559.554382 
	C741.339600,546.356445 796.430908,540.744690 852.346313,543.208191 
	C891.308960,544.924805 930.007751,549.268372 968.502014,555.529907 
	C979.016602,557.240295 989.610291,558.464233 1000.583862,559.955688 
	C1001.000000,594.687561 1001.000000,629.375122 1000.571777,664.531494 
	C990.504517,666.475830 980.858887,667.909607 971.227905,669.435669 
	C951.308167,672.592163 931.427429,676.011536 911.471497,678.916565 
	C895.112427,681.297974 878.678528,683.182678 862.257874,685.118164 
	C847.478699,686.860229 832.695496,688.642517 817.871704,689.911011 
	C802.356812,691.238586 786.795715,692.723633 771.247131,692.813232 
	C739.300110,692.997498 707.347473,692.339233 675.398560,691.919678 
	C669.770874,691.845886 664.136353,691.391724 658.528931,690.860901 
	C645.850708,689.660645 633.186768,688.309387 620.518250,687.007141 
	C607.023132,685.619873 593.502380,684.436951 580.043030,682.761414 
	C566.761292,681.107910 553.547424,678.915222 540.294800,677.021423 
	C523.109802,674.565735 505.894287,672.315186 488.732056,669.711975 
	C470.755493,666.985291 452.872040,663.614929 434.864471,661.130920 
	C414.883789,658.374695 394.844086,655.926086 374.764587,654.041077 
	C355.476746,652.230408 336.119690,650.976440 316.764465,650.138306 
	C306.506805,649.694153 296.182526,650.529419 285.898926,651.012085 
	C274.309753,651.556030 262.596405,651.471191 251.179733,653.232666 
	C230.602097,656.407654 209.973785,659.825745 189.793854,664.856079 
	C166.809753,670.585510 143.929703,677.182922 121.659348,685.218140 
	C89.187950,696.933960 57.310444,710.293701 25.158491,722.898315 
	C17.147490,726.038940 9.055022,728.971680 1.000001,732.000000 
	C1.000000,676.645752 1.000000,621.291565 1.000001,565.468628 
z"/>
<path fill="#050959" opacity="1.000000" stroke="none" 
	d="
M1001.000000,915.000000 
	C1001.000000,943.656555 1001.000000,972.313049 1001.000000,1000.942139 
	C667.666687,1000.942139 334.333313,1000.942139 1.000000,1000.942139 
	C1.000000,957.566162 1.000000,914.248108 1.417541,870.457275 
	C3.304700,870.192993 4.810513,870.261536 6.238595,870.630859 
	C38.009418,878.845032 69.678108,887.476990 101.560097,895.232544 
	C138.121872,904.126526 175.304794,909.853699 212.856964,911.729797 
	C241.376984,913.154663 270.059326,912.900696 298.448029,908.813354 
	C321.028870,905.562134 343.562653,901.880859 365.997223,897.739685 
	C406.164001,890.325256 446.000916,881.002625 486.730713,876.907654 
	C502.372925,875.335022 518.064209,873.298950 533.740784,873.230469 
	C561.153931,873.110901 588.576782,874.232544 615.987610,875.086914 
	C624.583801,875.354919 633.165344,876.326660 641.734619,877.169189 
	C653.748901,878.350403 665.745544,879.711121 677.749573,880.996704 
	C687.948425,882.089050 698.158569,883.087158 708.342712,884.302856 
	C720.653015,885.772278 732.932373,887.500244 745.241638,888.978394 
	C755.261230,890.181580 765.308716,891.149780 775.337341,892.280090 
	C786.016235,893.483765 796.677673,894.848816 807.364746,895.971741 
	C818.557739,897.147888 829.780090,898.043396 840.975037,899.202576 
	C852.322937,900.377625 863.640747,901.850891 874.994324,902.963074 
	C887.186768,904.157532 899.417114,904.964661 911.609802,906.157104 
	C926.917786,907.654175 942.196594,909.448792 957.502380,910.970337 
	C971.991882,912.410767 986.500061,913.664246 1001.000000,915.000000 
z"/>
<path fill="#1C3D9F" opacity="1.000000" stroke="none" 
	d="
M1.000001,815.000000 
	C1.000000,801.645752 1.000000,788.291565 1.468640,774.464111 
	C39.842194,773.333984 77.756454,772.996460 115.648102,771.886780 
	C134.834564,771.324951 154.011200,769.704712 173.134811,767.940186 
	C189.587021,766.422241 206.009537,764.369019 222.353546,761.936768 
	C256.305328,756.884338 289.556122,748.533813 322.652313,739.595520 
	C369.175964,727.030884 415.308929,712.751526 463.171570,705.928040 
	C482.468231,703.177063 501.954712,700.739014 521.400574,700.328857 
	C542.408142,699.885681 563.484802,701.729309 584.501404,703.051819 
	C599.024841,703.965759 613.540100,705.343079 627.983337,707.126038 
	C652.752380,710.183777 677.417297,714.114380 702.209717,716.945312 
	C726.856934,719.759705 751.568970,722.889832 776.322205,723.668396 
	C806.894775,724.629883 837.539124,723.308105 868.152405,722.968567 
	C868.650574,722.963013 869.148560,722.904907 869.645874,722.863159 
	C884.980835,721.576050 900.317932,720.313049 915.649963,718.991882 
	C927.357056,717.983093 939.075378,717.063843 950.757202,715.811401 
	C967.519836,714.014221 984.253784,711.950134 1001.000000,710.000000 
	C1001.000000,743.020874 1001.000000,776.041809 1000.579407,809.533447 
	C994.916077,810.706604 989.668274,811.373169 984.431519,812.117676 
	C961.195374,815.421082 937.976379,818.848816 914.724060,822.033936 
	C894.418152,824.815491 874.105896,827.597229 853.741699,829.893127 
	C833.031372,832.228149 812.274719,834.226624 791.499817,835.891602 
	C774.156189,837.281555 756.756042,838.828979 739.382507,838.810852 
	C696.308594,838.765869 653.203918,840.509460 610.160767,837.098267 
	C595.782043,835.958862 581.334351,835.704224 566.922302,834.964600 
	C561.960571,834.710022 557.007446,834.255737 552.057373,833.814209 
	C538.051636,832.564941 524.047363,831.297913 510.046692,829.993713 
	C499.007629,828.965332 487.959198,828.009521 476.942719,826.773743 
	C460.845032,824.968140 444.782349,822.851440 428.685760,821.035461 
	C415.207062,819.514893 401.696045,818.283569 388.208801,816.835876 
	C373.743134,815.283142 359.305206,813.453796 344.824310,812.067261 
	C331.641113,810.804932 318.425720,809.832825 305.208282,808.985413 
	C282.882446,807.554077 260.555603,805.535095 238.207642,805.199585 
	C208.103043,804.747498 177.977158,805.597107 147.862122,806.011963 
	C135.737122,806.178955 123.614655,806.617126 111.494888,807.041809 
	C104.866905,807.273987 98.240753,807.647156 91.624588,808.110962 
	C73.785828,809.361755 55.950127,810.658875 38.118561,812.008240 
	C25.741123,812.944885 13.372543,813.998657 1.000001,815.000000 
z"/>
<path fill="#13237B" opacity="1.000000" stroke="none" 
	d="
M1.000001,815.468689 
	C13.372543,813.998657 25.741123,812.944885 38.118561,812.008240 
	C55.950127,810.658875 73.785828,809.361755 91.624588,808.110962 
	C98.240753,807.647156 104.866905,807.273987 111.494888,807.041809 
	C123.614655,806.617126 135.737122,806.178955 147.862122,806.011963 
	C177.977158,805.597107 208.103043,804.747498 238.207642,805.199585 
	C260.555603,805.535095 282.882446,807.554077 305.208282,808.985413 
	C318.425720,809.832825 331.641113,810.804932 344.824310,812.067261 
	C359.305206,813.453796 373.743134,815.283142 388.208801,816.835876 
	C401.696045,818.283569 415.207062,819.514893 428.685760,821.035461 
	C444.782349,822.851440 460.845032,824.968140 476.942719,826.773743 
	C487.959198,828.009521 499.007629,828.965332 510.046692,829.993713 
	C524.047363,831.297913 538.051636,832.564941 552.057373,833.814209 
	C557.007446,834.255737 561.960571,834.710022 566.922302,834.964600 
	C581.334351,835.704224 595.782043,835.958862 610.160767,837.098267 
	C653.203918,840.509460 696.308594,838.765869 739.382507,838.810852 
	C756.756042,838.828979 774.156189,837.281555 791.499817,835.891602 
	C812.274719,834.226624 833.031372,832.228149 853.741699,829.893127 
	C874.105896,827.597229 894.418152,824.815491 914.724060,822.033936 
	C937.976379,818.848816 961.195374,815.421082 984.431519,812.117676 
	C989.668274,811.373169 994.916077,810.706604 1000.579407,810.002075 
	C1001.000000,844.687561 1001.000000,879.375122 1001.000000,914.531311 
	C986.500061,913.664246 971.991882,912.410767 957.502380,910.970337 
	C942.196594,909.448792 926.917786,907.654175 911.609802,906.157104 
	C899.417114,904.964661 887.186768,904.157532 874.994324,902.963074 
	C863.640747,901.850891 852.322937,900.377625 840.975037,899.202576 
	C829.780090,898.043396 818.557739,897.147888 807.364746,895.971741 
	C796.677673,894.848816 786.016235,893.483765 775.337341,892.280090 
	C765.308716,891.149780 755.261230,890.181580 745.241638,888.978394 
	C732.932373,887.500244 720.653015,885.772278 708.342712,884.302856 
	C698.158569,883.087158 687.948425,882.089050 677.749573,880.996704 
	C665.745544,879.711121 653.748901,878.350403 641.734619,877.169189 
	C633.165344,876.326660 624.583801,875.354919 615.987610,875.086914 
	C588.576782,874.232544 561.153931,873.110901 533.740784,873.230469 
	C518.064209,873.298950 502.372925,875.335022 486.730713,876.907654 
	C446.000916,881.002625 406.164001,890.325256 365.997223,897.739685 
	C343.562653,901.880859 321.028870,905.562134 298.448029,908.813354 
	C270.059326,912.900696 241.376984,913.154663 212.856964,911.729797 
	C175.304794,909.853699 138.121872,904.126526 101.560097,895.232544 
	C69.678108,887.476990 38.009418,878.845032 6.238595,870.630859 
	C4.810513,870.261536 3.304700,870.192993 1.417541,869.992188 
	C1.000000,851.979126 1.000000,833.958191 1.000001,815.468689 
z"/>
<path fill="#2059C4" opacity="1.000000" stroke="none" 
	d="
M1001.000000,709.531372 
	C984.253784,711.950134 967.519836,714.014221 950.757202,715.811401 
	C939.075378,717.063843 927.357056,717.983093 915.649963,718.991882 
	C900.317932,720.313049 884.980835,721.576050 869.645874,722.863159 
	C869.148560,722.904907 868.650574,722.963013 868.152405,722.968567 
	C837.539124,723.308105 806.894775,724.629883 776.322205,723.668396 
	C751.568970,722.889832 726.856934,719.759705 702.209717,716.945312 
	C677.417297,714.114380 652.752380,710.183777 627.983337,707.126038 
	C613.540100,705.343079 599.024841,703.965759 584.501404,703.051819 
	C563.484802,701.729309 542.408142,699.885681 521.400574,700.328857 
	C501.954712,700.739014 482.468231,703.177063 463.171570,705.928040 
	C415.308929,712.751526 369.175964,727.030884 322.652313,739.595520 
	C289.556122,748.533813 256.305328,756.884338 222.353546,761.936768 
	C206.009537,764.369019 189.587021,766.422241 173.134811,767.940186 
	C154.011200,769.704712 134.834564,771.324951 115.648102,771.886780 
	C77.756454,772.996460 39.842194,773.333984 1.468640,773.995422 
	C1.000000,760.312439 1.000000,746.624878 1.000001,732.468628 
	C9.055022,728.971680 17.147490,726.038940 25.158491,722.898315 
	C57.310444,710.293701 89.187950,696.933960 121.659348,685.218140 
	C143.929703,677.182922 166.809753,670.585510 189.793854,664.856079 
	C209.973785,659.825745 230.602097,656.407654 251.179733,653.232666 
	C262.596405,651.471191 274.309753,651.556030 285.898926,651.012085 
	C296.182526,650.529419 306.506805,649.694153 316.764465,650.138306 
	C336.119690,650.976440 355.476746,652.230408 374.764587,654.041077 
	C394.844086,655.926086 414.883789,658.374695 434.864471,661.130920 
	C452.872040,663.614929 470.755493,666.985291 488.732056,669.711975 
	C505.894287,672.315186 523.109802,674.565735 540.294800,677.021423 
	C553.547424,678.915222 566.761292,681.107910 580.043030,682.761414 
	C593.502380,684.436951 607.023132,685.619873 620.518250,687.007141 
	C633.186768,688.309387 645.850708,689.660645 658.528931,690.860901 
	C664.136353,691.391724 669.770874,691.845886 675.398560,691.919678 
	C707.347473,692.339233 739.300110,692.997498 771.247131,692.813232 
	C786.795715,692.723633 802.356812,691.238586 817.871704,689.911011 
	C832.695496,688.642517 847.478699,686.860229 862.257874,685.118164 
	C878.678528,683.182678 895.112427,681.297974 911.471497,678.916565 
	C931.427429,676.011536 951.308167,672.592163 971.227905,669.435669 
	C980.858887,667.909607 990.504517,666.475830 1000.571777,665.000122 
	C1001.000000,679.687561 1001.000000,694.375122 1001.000000,709.531372 
z"/>
</svg>