<svg id="visual" viewBox="0 0 675 900" width="675" height="900" xmlns="http://www.w3.org/2000/svg" xmlns:xlink="http://www.w3.org/1999/xlink" version="1.1"><rect x="0" y="0" width="675" height="900" fill="#FFFFFF"></rect><path d="M0 511L28.2 505.3C56.3 499.7 112.7 488.3 169 497.8C225.3 507.3 281.7 537.7 337.8 537C394 536.3 450 504.7 506.2 494.5C562.3 484.3 618.7 495.7 646.8 501.3L675 507L675 901L646.8 901C618.7 901 562.3 901 506.2 901C450 901 394 901 337.8 901C281.7 901 225.3 901 169 901C112.7 901 56.3 901 28.2 901L0 901Z" fill="#1e76e9"></path><path d="M0 663L28.2 647.2C56.3 631.3 112.7 599.7 169 590.5C225.3 581.3 281.7 594.7 337.8 606.2C394 617.7 450 627.3 506.2 626C562.3 624.7 618.7 612.3 646.8 606.2L675 600L675 901L646.8 901C618.7 901 562.3 901 506.2 901C450 901 394 901 337.8 901C281.7 901 225.3 901 169 901C112.7 901 56.3 901 28.2 901L0 901Z" fill="#2059c4"></path><path d="M0 699L28.2 698.8C56.3 698.7 112.7 698.3 169 683.3C225.3 668.3 281.7 638.7 337.8 633.7C394 628.7 450 648.3 506.2 653.5C562.3 658.7 618.7 649.3 646.8 644.7L675 640L675 901L646.8 901C618.7 901 562.3 901 506.2 901C450 901 394 901 337.8 901C281.7 901 225.3 901 169 901C112.7 901 56.3 901 28.2 901L0 901Z" fill="#1c3d9f"></path><path d="M0 737L28.2 734.2C56.3 731.3 112.7 725.7 169 728.3C225.3 731 281.7 742 337.8 749.7C394 757.3 450 761.7 506.2 758C562.3 754.3 618.7 742.7 646.8 736.8L675 731L675 901L646.8 901C618.7 901 562.3 901 506.2 901C450 901 394 901 337.8 901C281.7 901 225.3 901 169 901C112.7 901 56.3 901 28.2 901L0 901Z" fill="#13237b"></path><path d="M0 783L28.2 793.5C56.3 804 112.7 825 169 823.3C225.3 821.7 281.7 797.3 337.8 790.3C394 783.3 450 793.7 506.2 802.2C562.3 810.7 618.7 817.3 646.8 820.7L675 824L675 901L646.8 901C618.7 901 562.3 901 506.2 901C450 901 394 901 337.8 901C281.7 901 225.3 901 169 901C112.7 901 56.3 901 28.2 901L0 901Z" fill="#050959"></path></svg>