<?xml version="1.0" encoding="UTF-8"?>
<!DOCTYPE svg PUBLIC "-//W3C//DTD SVG 1.1//EN" "http://www.w3.org/Graphics/SVG/1.1/DTD/svg11.dtd">
<svg xmlns="http://www.w3.org/2000/svg" version="1.1" width="3845px" height="605px" style="shape-rendering:geometricPrecision; text-rendering:geometricPrecision; image-rendering:optimizeQuality; fill-rule:evenodd; clip-rule:evenodd" xmlns:xlink="http://www.w3.org/1999/xlink">
<g><path style="opacity:1" fill="#222222" d="M -0.5,-0.5 C 1281.17,-0.5 2562.83,-0.5 3844.5,-0.5C 3844.5,201.167 3844.5,402.833 3844.5,604.5C 2562.83,604.5 1281.17,604.5 -0.5,604.5C -0.5,402.833 -0.5,201.167 -0.5,-0.5 Z"/></g>
<g><path style="opacity:1" fill="#9b9b9b" d="M 474.5,8.5 C 474.167,8.5 473.833,8.5 473.5,8.5C 452.833,8.5 432.167,8.5 411.5,8.5C 411.5,144.167 411.5,279.833 411.5,415.5C 432.167,415.5 452.833,415.5 473.5,415.5C 473.168,365.664 473.501,315.997 474.5,266.5C 474.5,316.5 474.5,366.5 474.5,416.5C 453.167,416.5 431.833,416.5 410.5,416.5C 410.5,280.167 410.5,143.833 410.5,7.5C 432.007,7.16936 453.34,7.5027 474.5,8.5 Z"/></g>
<g><path style="opacity:1" fill="#fefefe" d="M 473.5,8.5 C 473.333,65.8343 473.5,123.168 474,180.5C 474.717,179.956 475.217,179.289 475.5,178.5C 492.597,147.251 518.93,128.751 554.5,123C 575.282,120.546 595.949,121.213 616.5,125C 649.412,133.58 671.912,153.746 684,185.5C 687.484,195.919 689.817,206.586 691,217.5C 691.5,283.499 691.667,349.499 691.5,415.5C 670.5,415.5 649.5,415.5 628.5,415.5C 628.832,356.998 628.499,298.664 627.5,240.5C 621.13,200.645 597.63,180.645 557,180.5C 516.579,182.548 490.246,202.881 478,241.5C 475.913,249.696 474.747,258.029 474.5,266.5C 473.501,315.997 473.168,365.664 473.5,415.5C 452.833,415.5 432.167,415.5 411.5,415.5C 411.5,279.833 411.5,144.167 411.5,8.5C 432.167,8.5 452.833,8.5 473.5,8.5 Z"/></g>
<g><path style="opacity:1" fill="#c2c2c2" d="M 473.5,8.5 C 473.833,8.5 474.167,8.5 474.5,8.5C 474.168,65.3358 474.501,122.002 475.5,178.5C 475.217,179.289 474.717,179.956 474,180.5C 473.5,123.168 473.333,65.8343 473.5,8.5 Z"/></g>
<g><path style="opacity:1" fill="#8f8f8f" d="M 356.5,31.5 C 253.833,31.5 151.167,31.5 48.5,31.5C 48.5,50.8333 48.5,70.1667 48.5,89.5C 47.5029,70.0071 47.1696,50.3404 47.5,30.5C 150.668,30.1672 253.668,30.5005 356.5,31.5 Z"/></g>
<g><path style="opacity:1" fill="#fefefe" d="M 356.5,31.5 C 356.5,50.8333 356.5,70.1667 356.5,89.5C 315.833,89.5 275.167,89.5 234.5,89.5C 234.5,198.5 234.5,307.5 234.5,416.5C 212.833,416.5 191.167,416.5 169.5,416.5C 169.5,307.5 169.5,198.5 169.5,89.5C 129.167,89.5 88.8333,89.5 48.5,89.5C 48.5,70.1667 48.5,50.8333 48.5,31.5C 151.167,31.5 253.833,31.5 356.5,31.5 Z"/></g>
<g><path style="opacity:1" fill="#fdfdfd" d="M 3672.5,454.5 C 3672.81,452.076 3672.47,449.743 3671.5,447.5C 3670.89,447.624 3670.56,447.957 3670.5,448.5C 3662.4,459.691 3655.57,471.691 3650,484.5C 3648.28,486.444 3646.11,487.444 3643.5,487.5C 3627.93,483.635 3621.43,473.968 3624,458.5C 3629.07,445.127 3634.24,431.794 3639.5,418.5C 3606.29,431.42 3573.29,445.586 3540.5,461C 3529.52,465.827 3518.19,469.494 3506.5,472C 3482.64,474.241 3465.97,464.407 3456.5,442.5C 3438.65,457.167 3419.31,469.667 3398.5,480C 3367.64,492.317 3346.81,482.817 3336,451.5C 3335.34,443.397 3335.67,435.397 3337,427.5C 3318.56,441.304 3300.4,455.471 3282.5,470C 3273.82,476.345 3264.48,481.678 3254.5,486C 3247.24,487.781 3241.07,485.948 3236,480.5C 3233.16,476.828 3230.83,472.828 3229,468.5C 3228.46,463.363 3228.8,458.363 3230,453.5C 3211.66,464.176 3191.99,470.843 3171,473.5C 3161.61,473.445 3153.94,469.778 3148,462.5C 3137.94,449.556 3133.94,434.89 3136,418.5C 3137.88,407.309 3140.55,396.309 3144,385.5C 3155.71,351.712 3167.37,318.045 3179,284.5C 3141.75,325.724 3096.92,355.89 3044.5,375C 3057.87,382.696 3069.03,392.863 3078,405.5C 3092.26,430.988 3091.93,456.321 3077,481.5C 3064.47,498.696 3049.3,513.196 3031.5,525C 3005.06,542.052 2976.73,555.052 2946.5,564C 2918.93,570.497 2892.93,566.831 2868.5,553C 2864.15,549.663 2860.99,545.496 2859,540.5C 2857.49,531.008 2861.32,527.508 2870.5,530C 2888.03,538.749 2906.36,540.749 2925.5,536C 2970.69,523.665 3009.86,501.165 3043,468.5C 3051.92,457.659 3057.92,445.326 3061,431.5C 3062.74,418.141 3057.9,407.974 3046.5,401C 3036.64,396.381 3026.31,393.381 3015.5,392C 3002.84,391.152 2990.18,390.485 2977.5,390C 2969.19,385.569 2963.03,379.069 2959,370.5C 2957.96,367.364 2958.79,364.864 2961.5,363C 3028.57,351.964 3086.9,323.63 3136.5,278C 3154.14,261.367 3168.3,242.2 3179,220.5C 3187.24,200.475 3181.07,187.308 3160.5,181C 3138.5,177.704 3116.5,177.704 3094.5,181C 3033.27,194.623 2975.27,216.623 2920.5,247C 2898.72,260.113 2878.06,274.78 2858.5,291C 2843,305.017 2832.67,322.017 2827.5,342C 2816.86,342.592 2809.03,338.092 2804,328.5C 2801.94,318.756 2803.28,309.423 2808,300.5C 2817.96,281.102 2831.8,264.935 2849.5,252C 2917.82,202.873 2993.49,170.206 3076.5,154C 3099.73,149.115 3123.07,148.448 3146.5,152C 3170.1,156.634 3188.6,168.801 3202,188.5C 3205.17,193.834 3207.5,199.501 3209,205.5C 3222.45,170.607 3236.45,135.94 3251,101.5C 3255.54,97.8367 3260.37,97.6701 3265.5,101C 3274.08,106.201 3278.25,113.701 3278,123.5C 3235.66,224.52 3197.66,327.186 3164,431.5C 3163.5,435.486 3163.33,439.486 3163.5,443.5C 3190.58,438.418 3216.24,429.252 3240.5,416C 3244.61,413.552 3248.45,410.719 3252,407.5C 3262.87,389.286 3278.04,376.119 3297.5,368C 3316.11,364.324 3331.45,369.657 3343.5,384C 3347.64,383.428 3351.8,382.595 3356,381.5C 3363.92,383.401 3370.25,387.734 3375,394.5C 3376.76,397.449 3377.93,400.616 3378.5,404C 3376.15,415.063 3372.98,425.896 3369,436.5C 3367.3,442.76 3366.13,449.093 3365.5,455.5C 3373.02,454.62 3380.35,452.787 3387.5,450C 3413.19,437.938 3437.03,423.105 3459,405.5C 3466.22,386.282 3479.38,373.115 3498.5,366C 3514.9,363.687 3528.73,368.521 3540,380.5C 3547.12,392.335 3543.95,397.835 3530.5,397C 3520.51,391.433 3511.51,392.767 3503.5,401C 3493.11,412.603 3487.28,426.103 3486,441.5C 3486.96,442.894 3488.29,443.561 3490,443.5C 3541.55,430.739 3591.71,413.906 3640.5,393C 3643.82,392.121 3647.15,391.287 3650.5,390.5C 3681.71,312.081 3716.21,235.081 3754,159.5C 3758.88,155.815 3764.04,155.649 3769.5,159C 3778.25,164.057 3782.08,171.557 3781,181.5C 3749.8,244.212 3721.14,307.879 3695,372.5C 3702.79,365.385 3711.62,359.885 3721.5,356C 3737.56,351.681 3749.39,356.848 3757,371.5C 3756.21,386.87 3750.87,400.537 3741,412.5C 3730.73,425.289 3717.9,434.289 3702.5,439.5C 3703.86,455.379 3710.86,468.212 3723.5,478C 3729.59,481.46 3735.42,485.294 3741,489.5C 3741.74,493.402 3741.07,497.068 3739,500.5C 3734.92,505.964 3729.75,510.131 3723.5,513C 3720.83,513.667 3718.17,513.667 3715.5,513C 3690.55,501.26 3676.22,481.76 3672.5,454.5 Z"/></g>
<g><path style="opacity:1" fill="#fefefe" d="M 877.5,121.5 C 912.379,118.074 945.379,124.241 976.5,140C 996.85,153.175 1011.68,171.008 1021,193.5C 1033.1,225.785 1037.27,259.118 1033.5,293.5C 959.83,293.167 886.164,293.5 812.5,294.5C 824.542,341.383 854.709,365.383 903,366.5C 934.829,367.009 961.995,356.176 984.5,334C 985.167,333.333 985.833,333.333 986.5,334C 997,345.167 1007.5,356.333 1018,367.5C 1018.67,368.5 1018.67,369.5 1018,370.5C 984.846,403.226 944.846,418.892 898,417.5C 844.315,418.824 801.982,397.824 771,354.5C 748.771,314.9 742.771,272.9 753,228.5C 765.992,181.847 794.825,149.347 839.5,131C 852.029,126.734 864.695,123.567 877.5,121.5 Z"/></g>
<g><path style="opacity:1" fill="#fdfdfd" d="M 1204.5,121.5 C 1243.44,117.763 1279.78,125.596 1313.5,145C 1353.19,172.198 1374.36,210.032 1377,258.5C 1380.57,310.514 1362.73,353.347 1323.5,387C 1287.16,412.352 1246.82,422.352 1202.5,417C 1148.48,410.931 1109.31,383.765 1085,335.5C 1067.61,292.284 1067.28,248.951 1084,205.5C 1108.7,155.393 1148.87,127.393 1204.5,121.5 Z"/></g>
<g><path style="opacity:1" fill="#fefefe" d="M 1506.5,415.5 C 1485.5,415.5 1464.5,415.5 1443.5,415.5C 1443.5,318.167 1443.5,220.833 1443.5,123.5C 1464.17,123.5 1484.83,123.5 1505.5,123.5C 1505.17,142.845 1505.5,162.178 1506.5,181.5C 1507.11,181.376 1507.44,181.043 1507.5,180.5C 1521.69,150.543 1545.03,131.71 1577.5,124C 1587.39,121.95 1597.39,121.117 1607.5,121.5C 1607.5,141.5 1607.5,161.5 1607.5,181.5C 1571.59,178.617 1542.76,191.284 1521,219.5C 1513.16,231.698 1508.49,245.031 1507,259.5C 1506.5,311.499 1506.33,363.499 1506.5,415.5 Z"/></g>
<g><path style="opacity:1" fill="#fefefe" d="M 1761.5,121.5 C 1785.19,120.232 1808.52,122.398 1831.5,128C 1865.54,137.932 1889.71,159.098 1904,191.5C 1916.32,224.371 1920.82,258.371 1917.5,293.5C 1843.83,293.5 1770.17,293.5 1696.5,293.5C 1705.6,335.365 1731.27,359.532 1773.5,366C 1810.62,369.794 1842.62,358.961 1869.5,333.5C 1880.84,344.838 1891.84,356.505 1902.5,368.5C 1876.95,396.279 1845.28,412.446 1807.5,417C 1777.02,420.364 1747.36,417.031 1718.5,407C 1666.79,383.934 1638.29,344.1 1633,287.5C 1627.32,236.178 1642.82,192.678 1679.5,157C 1703.42,137.203 1730.76,125.37 1761.5,121.5 Z"/></g>
<g><path style="opacity:1" fill="#fefefe" d="M 2471.5,227.5 C 2471.5,290.167 2471.5,352.833 2471.5,415.5C 2450.5,415.5 2429.5,415.5 2408.5,415.5C 2408.67,356.499 2408.5,297.499 2408,238.5C 2403.45,204.618 2384.29,185.452 2350.5,181C 2304.48,178.346 2274.98,199.179 2262,243.5C 2260.78,250.791 2259.94,258.124 2259.5,265.5C 2258.5,315.331 2258.17,365.331 2258.5,415.5C 2237.83,415.5 2217.17,415.5 2196.5,415.5C 2196.83,357.998 2196.5,300.664 2195.5,243.5C 2193.16,207.994 2174.49,187.161 2139.5,181C 2096.72,177.641 2067.22,195.807 2051,235.5C 2048.75,243.361 2047.25,251.361 2046.5,259.5C 2045.5,311.331 2045.17,363.331 2045.5,415.5C 2024.83,415.5 2004.17,415.5 1983.5,415.5C 1983.5,318.167 1983.5,220.833 1983.5,123.5C 2004.17,123.5 2024.83,123.5 2045.5,123.5C 2045.33,142.17 2045.5,160.836 2046,179.5C 2046.51,178.473 2047.01,177.473 2047.5,176.5C 2064.39,146.362 2090.06,128.528 2124.5,123C 2150.11,119.173 2175.11,121.506 2199.5,130C 2226.84,141.838 2244.84,162.004 2253.5,190.5C 2269.15,152.694 2297.15,130.194 2337.5,123C 2363.91,118.96 2389.58,121.626 2414.5,131C 2445.81,147.078 2464.31,172.578 2470,207.5C 2470.83,214.146 2471.33,220.813 2471.5,227.5 Z"/></g>
<g><path style="opacity:1" fill="#868686" d="M 1443.5,123.5 C 1443.5,220.833 1443.5,318.167 1443.5,415.5C 1464.5,415.5 1485.5,415.5 1506.5,415.5C 1485.34,416.497 1464.01,416.831 1442.5,416.5C 1442.17,318.665 1442.5,220.999 1443.5,123.5 Z"/></g>
<g><path style="opacity:1" fill="#d2d2d2" d="M 1505.5,123.5 C 1506.17,142.5 1506.83,161.5 1507.5,180.5C 1507.44,181.043 1507.11,181.376 1506.5,181.5C 1505.5,162.178 1505.17,142.845 1505.5,123.5 Z"/></g>
<g><path style="opacity:1" fill="#7d7d7d" d="M 1983.5,123.5 C 1983.5,220.833 1983.5,318.167 1983.5,415.5C 2004.17,415.5 2024.83,415.5 2045.5,415.5C 2045.17,363.331 2045.5,311.331 2046.5,259.5C 2046.5,311.833 2046.5,364.167 2046.5,416.5C 2025.17,416.5 2003.83,416.5 1982.5,416.5C 1982.17,318.665 1982.5,220.999 1983.5,123.5 Z"/></g>
<g><path style="opacity:1" fill="#fefefe" d="M 2614.5,362.5 C 2613.96,362.56 2613.62,362.893 2613.5,363.5C 2638.82,364.5 2664.16,364.833 2689.5,364.5C 2721.17,364.5 2752.83,364.5 2784.5,364.5C 2784.5,381.833 2784.5,399.167 2784.5,416.5C 2701.17,416.5 2617.83,416.5 2534.5,416.5C 2534.33,401.83 2534.5,387.163 2535,372.5C 2590.38,307.294 2645.54,241.961 2700.5,176.5C 2701.04,176.44 2701.38,176.107 2701.5,175.5C 2647.5,174.5 2593.5,174.167 2539.5,174.5C 2539.5,157.5 2539.5,140.5 2539.5,123.5C 2619.5,123.5 2699.5,123.5 2779.5,123.5C 2779.67,138.17 2779.5,152.837 2779,167.5C 2723.96,232.373 2669.12,297.373 2614.5,362.5 Z"/></g>
<g><path style="opacity:1" fill="#595959" d="M 2045.5,123.5 C 2046.17,141.167 2046.83,158.833 2047.5,176.5C 2047.01,177.473 2046.51,178.473 2046,179.5C 2045.5,160.836 2045.33,142.17 2045.5,123.5 Z"/></g>
<g><path style="opacity:1" fill="#222222" d="M 977.5,240.5 C 977.5,242.833 977.5,245.167 977.5,247.5C 922.167,247.5 866.833,247.5 811.5,247.5C 819.653,199.844 847.82,174.51 896,171.5C 922.243,171.128 944.243,180.461 962,199.5C 971.204,211.609 976.371,225.275 977.5,240.5 Z"/></g>
<g><path style="opacity:1" fill="#222222" d="M 1861.5,244.5 C 1861.5,245.5 1861.5,246.5 1861.5,247.5C 1805.82,248.163 1750.49,247.496 1695.5,245.5C 1702.06,206.775 1724.39,182.608 1762.5,173C 1784.98,169.142 1806.31,172.476 1826.5,183C 1848.63,197.412 1860.3,217.912 1861.5,244.5 Z"/></g>
<g><path style="opacity:1" fill="#909090" d="M 2539.5,174.5 C 2593.5,174.167 2647.5,174.5 2701.5,175.5C 2701.38,176.107 2701.04,176.44 2700.5,176.5C 2646.83,175.833 2593.17,175.167 2539.5,174.5 Z"/></g>
<g><path style="opacity:1" fill="#222222" d="M 1212.5,175.5 C 1265.23,172.765 1298.4,196.765 1312,247.5C 1316.94,275.44 1312.61,301.774 1299,326.5C 1277.75,355.717 1248.92,368.55 1212.5,365C 1168.38,356.547 1142.88,330.047 1136,285.5C 1132.86,260.195 1137.53,236.529 1150,214.5C 1165.26,192.457 1186.1,179.457 1212.5,175.5 Z"/></g>
<g><path style="opacity:1" fill="#7c7c7c" d="M 2471.5,227.5 C 2472.5,290.331 2472.83,353.331 2472.5,416.5C 2450.99,416.831 2429.66,416.497 2408.5,415.5C 2429.5,415.5 2450.5,415.5 2471.5,415.5C 2471.5,352.833 2471.5,290.167 2471.5,227.5 Z"/></g>
<g><path style="opacity:1" fill="#c5c5c5" d="M 977.5,240.5 C 978.473,242.948 978.806,245.615 978.5,248.5C 922.664,248.832 866.998,248.499 811.5,247.5C 866.833,247.5 922.167,247.5 977.5,247.5C 977.5,245.167 977.5,242.833 977.5,240.5 Z"/></g>
<g><path style="opacity:1" fill="#c7c7c7" d="M 1861.5,244.5 C 1862.43,245.568 1862.77,246.901 1862.5,248.5C 1806.5,248.5 1750.5,248.5 1694.5,248.5C 1694.26,247.209 1694.6,246.209 1695.5,245.5C 1750.49,247.496 1805.82,248.163 1861.5,247.5C 1861.5,246.5 1861.5,245.5 1861.5,244.5 Z"/></g>
<g><path style="opacity:1" fill="#fcfcfc" d="M 2972.5,248.5 C 2984.68,248.827 2992.85,254.827 2997,266.5C 2997.67,268.833 2997.67,271.167 2997,273.5C 2947.98,350.234 2922.98,434.234 2922,525.5C 2919.84,529.124 2916.67,530.291 2912.5,529C 2904.03,525.533 2897.87,519.7 2894,511.5C 2894.25,415.929 2920.42,328.263 2972.5,248.5 Z"/></g>
<g><path style="opacity:1" fill="#a5a5a5" d="M 2195.5,243.5 C 2196.5,300.664 2196.83,357.998 2196.5,415.5C 2217.17,415.5 2237.83,415.5 2258.5,415.5C 2258.17,365.331 2258.5,315.331 2259.5,265.5C 2259.5,315.833 2259.5,366.167 2259.5,416.5C 2238.17,416.5 2216.83,416.5 2195.5,416.5C 2195.5,358.833 2195.5,301.167 2195.5,243.5 Z"/></g>
<g><path style="opacity:1" fill="#3a3a3a" d="M 2614.5,362.5 C 2639.5,363.167 2664.5,363.833 2689.5,364.5C 2664.16,364.833 2638.82,364.5 2613.5,363.5C 2613.62,362.893 2613.96,362.56 2614.5,362.5 Z"/></g>
<g><path style="opacity:1" fill="#2f2f2f" d="M 3319.5,394.5 C 3320.87,394.343 3322.21,394.51 3323.5,395C 3310.99,402.511 3299.32,411.177 3288.5,421C 3287.67,421.688 3287,421.521 3286.5,420.5C 3295.25,408.725 3306.25,400.058 3319.5,394.5 Z"/></g>
<g><path style="opacity:1" fill="#7c7c7c" d="M 627.5,240.5 C 628.499,298.664 628.832,356.998 628.5,415.5C 649.5,415.5 670.5,415.5 691.5,415.5C 670.34,416.497 649.007,416.831 627.5,416.5C 627.5,357.833 627.5,299.167 627.5,240.5 Z"/></g>
<g><path style="opacity:1" fill="#929292" d="M 3670.5,448.5 C 3670.56,447.957 3670.89,447.624 3671.5,447.5C 3672.47,449.743 3672.81,452.076 3672.5,454.5C 3671.83,452.5 3671.17,450.5 3670.5,448.5 Z"/></g>
</svg>
