<?xml version="1.0" encoding="UTF-8"?>
<!DOCTYPE svg PUBLIC "-//W3C//DTD SVG 1.1//EN" "http://www.w3.org/Graphics/SVG/1.1/DTD/svg11.dtd">
<svg xmlns="http://www.w3.org/2000/svg" version="1.1" width="2443px" height="2024px" style="shape-rendering:geometricPrecision; text-rendering:geometricPrecision; image-rendering:optimizeQuality; fill-rule:evenodd; clip-rule:evenodd" xmlns:xlink="http://www.w3.org/1999/xlink">
<g><path style="opacity:0.956" fill="#2a4552" d="M 1755.5,554.5 C 1757.08,551.95 1759.08,549.95 1761.5,548.5C 1833.07,591.29 1907.74,597.457 1985.5,567C 2048.15,538.862 2091.65,492.695 2116,428.5C 2144.56,338.995 2128.9,258.329 2069,186.5C 2004.27,119.764 1926.11,95.5971 1834.5,114C 1755.08,135.088 1699.58,183.588 1668,259.5C 1658.35,284.274 1652.85,309.941 1651.5,336.5C 1649.19,394.074 1665.19,445.74 1699.5,491.5C 1698.21,494.117 1696.55,496.45 1694.5,498.5C 1657.17,447.807 1640.17,390.807 1643.5,327.5C 1653.2,237.205 1697.54,170.038 1776.5,126C 1845.98,92.4637 1916.65,89.7971 1988.5,118C 2084.34,163.95 2134.68,240.283 2139.5,347C 2136.39,438.58 2096.73,509.247 2020.5,559C 1947.92,600.441 1872.59,606.107 1794.5,576C 1780.51,570.342 1767.51,563.176 1755.5,554.5 Z"/></g>
<g><path style="opacity:0.999" fill="#60cbfe" d="M 976.5,344.5 C 976.667,417.167 976.5,489.834 976,562.5C 973.131,574.702 965.631,582.202 953.5,585C 891.999,585.167 830.665,585.667 769.5,586.5C 639.833,586.667 510.166,586.5 380.5,586C 365.285,585.12 355.785,577.286 352,562.5C 351.333,428.167 351.333,293.833 352,159.5C 355.068,145.099 363.901,136.932 378.5,135C 571.195,134.007 763.862,134.34 956.5,136C 966.774,139.273 973.274,146.106 976,156.5C 976.5,219.166 976.667,281.832 976.5,344.5 Z"/></g>
<g><path style="opacity:1" fill="#030608" d="M 776.5,199.5 C 778.722,199.178 780.556,199.845 782,201.5C 782.267,214.173 781.933,226.839 781,239.5C 779.174,243.037 776.84,243.371 774,240.5C 773.936,231.135 773.769,221.801 773.5,212.5C 771.415,213.771 769.248,214.771 767,215.5C 764.624,215.457 763.124,214.291 762.5,212C 766.703,207.296 771.369,203.13 776.5,199.5 Z"/></g>
<g><path style="opacity:1" fill="#040608" d="M 554.5,200.5 C 556.722,200.178 558.556,200.845 560,202.5C 607.404,284.394 654.571,366.394 701.5,448.5C 701.471,450.029 700.804,451.196 699.5,452C 651.749,477.539 604.082,503.039 556.5,528.5C 506.396,503.281 456.396,477.781 406.5,452C 405.409,449.936 405.242,447.769 406,445.5C 455.726,363.948 505.226,282.281 554.5,200.5 Z"/></g>
<g><path style="opacity:1" fill="#60cafd" d="M 560.5,220.5 C 603.266,293.855 645.933,367.355 688.5,441C 646.068,428.581 603.734,415.414 561.5,401.5C 560.5,341.17 560.167,280.837 560.5,220.5 Z"/></g>
<g><path style="opacity:1" fill="#04080a" d="M 817.5,225.5 C 820.777,225.216 823.943,225.549 827,226.5C 827.667,228.167 827.667,229.833 827,231.5C 823.694,233.032 820.194,234.199 816.5,235C 814.006,237.423 814.006,239.756 816.5,242C 823.198,244.412 828.365,248.579 832,254.5C 834.782,268.207 829.282,275.873 815.5,277.5C 809.241,277.209 804.908,274.209 802.5,268.5C 805.853,264.454 809.187,264.62 812.5,269C 822.891,269.949 826.724,265.449 824,255.5C 818.656,252.663 813.656,249.329 809,245.5C 804.918,235.988 807.752,229.322 817.5,225.5 Z"/></g>
<g><path style="opacity:1" fill="#04080a" d="M 863.5,225.5 C 865.766,225.141 867.599,225.808 869,227.5C 868.329,234.866 867.662,242.199 867,249.5C 873.137,243.745 878.47,244.412 883,251.5C 883,257.5 883,263.5 883,269.5C 886.18,266.185 889.513,265.851 893,268.5C 892.851,272.016 891.017,274.516 887.5,276C 882.508,278.644 878.341,277.81 875,273.5C 875.052,266.797 874.886,260.131 874.5,253.5C 872.142,255.024 870.309,257.024 869,259.5C 866.405,264.951 864.405,270.618 863,276.5C 861,277.833 859,277.833 857,276.5C 856.924,264.102 857.924,251.769 860,239.5C 860.391,234.503 861.557,229.837 863.5,225.5 Z"/></g>
<g><path style="opacity:1" fill="#040709" d="M 675.5,226.5 C 678.044,226.104 680.211,226.771 682,228.5C 686.743,239.65 691.743,250.65 697,261.5C 701.667,250.833 706.333,240.167 711,229.5C 713.367,226.068 716.034,225.735 719,228.5C 717.63,234.271 715.63,239.938 713,245.5C 708.735,255.976 703.901,266.143 698.5,276C 696.299,276.825 694.466,276.325 693,274.5C 687,260.5 681,246.5 675,232.5C 674.51,230.455 674.677,228.455 675.5,226.5 Z"/></g>
<g><path style="opacity:1" fill="#60cafc" d="M 546.5,228.5 C 547.139,229.097 547.472,229.93 547.5,231C 540.117,284.386 533.284,337.886 527,391.5C 491.508,408.322 455.674,424.155 419.5,439C 462.222,369.055 504.555,298.888 546.5,228.5 Z"/></g>
<g><path style="opacity:1" fill="#030608" d="M 723.5,242.5 C 729.176,242.334 734.843,242.501 740.5,243C 742.418,244.77 742.918,246.937 742,249.5C 735.916,250.642 729.749,250.809 723.5,250C 722.221,247.502 722.221,245.002 723.5,242.5 Z"/></g>
<g><path style="opacity:1" fill="#080d10" d="M 751.5,247.5 C 766.837,247.333 782.17,247.5 797.5,248C 800.192,250.632 799.859,252.966 796.5,255C 781.833,255.667 767.167,255.667 752.5,255C 750.163,252.806 749.83,250.306 751.5,247.5 Z"/></g>
<g><path style="opacity:1" fill="#efc94b" d="M 842.5,248.5 C 848.175,248.86 848.842,250.86 844.5,254.5C 841.61,253.163 840.943,251.163 842.5,248.5 Z"/></g>
<g><path style="opacity:1" fill="#0a0f12" d="M 722.5,252.5 C 728.509,252.334 734.509,252.501 740.5,253C 743.192,255.632 742.859,257.966 739.5,260C 734.167,260.667 728.833,260.667 723.5,260C 720.034,257.806 719.7,255.306 722.5,252.5 Z"/></g>
<g><path style="opacity:1" fill="#05090b" d="M 764.5,259.5 C 771.294,262.141 778.127,262.141 785,259.5C 788.789,259.945 790.123,261.945 789,265.5C 786.116,268.685 782.949,271.518 779.5,274C 788.886,278.828 791.052,285.994 786,295.5C 780.289,302.137 773.123,304.304 764.5,302C 760.205,300.155 759.538,297.488 762.5,294C 766.446,294.649 770.446,294.982 774.5,295C 778.078,293.433 780.078,290.767 780.5,287C 780.91,284.425 779.91,282.758 777.5,282C 773.246,282.051 769.08,281.884 765,281.5C 764.906,276.212 767.406,272.378 772.5,270C 768.873,269.436 765.707,267.936 763,265.5C 762.252,263.16 762.752,261.16 764.5,259.5 Z"/></g>
<g><path style="opacity:0.99" fill="#212121" d="M 1883.5,267.5 C 1926.71,267.235 1954.88,287.568 1968,328.5C 1974.64,370.382 1959.14,400.882 1921.5,420C 1884.87,432.678 1853.7,424.511 1828,395.5C 1804.96,360.514 1806.29,326.514 1832,293.5C 1846.2,278.817 1863.37,270.15 1883.5,267.5 Z"/></g>
<g><path style="opacity:1" fill="#5ec5f7" d="M 543.5,321.5 C 544.889,316.731 545.556,311.731 545.5,306.5C 547.484,288.815 549.65,271.148 552,253.5C 552.833,301.837 552.667,350.17 551.5,398.5C 545.88,396.626 540.213,394.959 534.5,393.5C 537.382,369.449 540.382,345.449 543.5,321.5 Z"/></g>
<g><path style="opacity:0.999" fill="#b7d3fe" d="M 1643.5,327.5 C 1640.17,390.807 1657.17,447.807 1694.5,498.5C 1682.55,518.197 1684.22,536.697 1699.5,554C 1710.83,563.828 1723.83,566.995 1738.5,563.5C 1734.76,613.221 1717.93,657.888 1688,697.5C 1667.38,724.134 1644.54,748.967 1619.5,772C 1600.27,788.739 1580.94,805.239 1561.5,821.5C 1560.67,813.343 1560.17,805.01 1560,796.5C 1557.62,788.225 1552.45,785.725 1544.5,789C 1538.51,794.654 1533.68,801.154 1530,808.5C 1519.22,829.069 1508.72,849.735 1498.5,870.5C 1459.27,900.393 1420.94,931.393 1383.5,963.5C 1368.77,946.595 1353.43,930.095 1337.5,914C 1320.04,897.215 1300.37,883.549 1278.5,873C 1267.05,868.348 1255.39,864.848 1243.5,862.5C 1243.5,856.167 1243.5,849.833 1243.5,843.5C 1245.03,843.573 1246.03,842.906 1246.5,841.5C 1261.8,843.775 1276.8,842.609 1291.5,838C 1307.65,829.896 1316.48,816.73 1318,798.5C 1318.17,793.833 1318.33,789.167 1318.5,784.5C 1317.74,769.435 1316.24,754.435 1314,739.5C 1312.85,724.855 1312.35,710.189 1312.5,695.5C 1311.71,675.338 1306.21,656.672 1296,639.5C 1279.53,624.015 1260.03,614.515 1237.5,611C 1206.83,604.668 1177.49,608.334 1149.5,622C 1128.92,635.969 1117.08,655.469 1114,680.5C 1112.87,687.816 1111.87,695.149 1111,702.5C 1110.5,738.498 1110.33,774.498 1110.5,810.5C 1110.5,828.167 1110.5,845.833 1110.5,863.5C 1082.43,870.239 1056.77,882.072 1033.5,899C 1007.3,919.538 984.129,943.038 964,969.5C 946.347,992.316 930.514,1016.32 916.5,1041.5C 913.167,1046.83 909.833,1052.17 906.5,1057.5C 877.899,1041.59 852.732,1021.26 831,996.5C 825.236,989.277 819.736,981.944 814.5,974.5C 825.088,964.214 836.421,954.88 848.5,946.5C 850.096,949.586 852.429,950.253 855.5,948.5C 866.786,956.463 878.119,956.296 889.5,948C 899.553,938.307 901.886,927.14 896.5,914.5C 899.49,911.137 898.824,908.804 894.5,907.5C 905.976,897.531 917.642,887.698 929.5,878C 923.89,872.544 917.89,867.71 911.5,863.5C 911.822,861.278 911.155,859.444 909.5,858C 906.905,857.4 904.571,857.9 902.5,859.5C 897.221,857.574 891.888,855.74 886.5,854C 868.661,852.304 850.994,849.638 833.5,846C 824.711,838.054 816.377,829.721 808.5,821C 802.855,819.288 797.188,819.122 791.5,820.5C 789.372,817.87 787.039,815.37 784.5,813C 778.671,811.18 775.004,813.18 773.5,819C 774.941,823.382 777.274,827.216 780.5,830.5C 778.798,837.74 779.464,844.74 782.5,851.5C 781.167,853.5 781.167,855.5 782.5,857.5C 777.352,860.913 772.352,864.58 767.5,868.5C 745.659,774.363 746.325,680.363 769.5,586.5C 830.665,585.667 891.999,585.167 953.5,585C 965.631,582.202 973.131,574.702 976,562.5C 976.5,489.834 976.667,417.167 976.5,344.5C 996.161,338.943 1016.16,334.777 1036.5,332C 1086.46,325.708 1136.46,319.708 1186.5,314C 1246.96,304.441 1307.3,294.107 1367.5,283C 1413.18,275.05 1459.18,272.05 1505.5,274C 1557.77,276.465 1603.77,294.299 1643.5,327.5 Z"/></g>
<g><path style="opacity:1" fill="#2f627b" d="M 545.5,306.5 C 545.556,311.731 544.889,316.731 543.5,321.5C 543.444,316.269 544.111,311.269 545.5,306.5 Z"/></g>
<g><path style="opacity:0.992" fill="#b7d3fe" d="M 1651.5,336.5 C 1672.29,356.406 1689.46,379.073 1703,404.5C 1716.16,429.161 1725.66,455.161 1731.5,482.5C 1719.82,481.339 1709.65,484.673 1701,492.5C 1700.62,491.944 1700.12,491.611 1699.5,491.5C 1665.19,445.74 1649.19,394.074 1651.5,336.5 Z"/></g>
<g><path style="opacity:1" fill="#60cafd" d="M 529.5,399.5 C 537.018,402.296 544.684,404.63 552.5,406.5C 552.667,443.835 552.5,481.168 552,518.5C 507.736,494.951 463.236,471.784 418.5,449C 455.59,432.45 492.59,415.95 529.5,399.5 Z"/></g>
<g><path style="opacity:1" fill="#60cbfe" d="M 560.5,409.5 C 602.297,422.71 643.963,436.21 685.5,450C 644.293,472.701 602.96,495.201 561.5,517.5C 560.5,481.506 560.167,445.506 560.5,409.5 Z"/></g>
<g><path style="opacity:0.993" fill="#61cbfe" d="M 1731.5,482.5 C 1747.84,484.092 1759.34,492.425 1766,507.5C 1770.92,521.875 1769.42,535.542 1761.5,548.5C 1759.08,549.95 1757.08,551.95 1755.5,554.5C 1750.57,558.801 1744.9,561.801 1738.5,563.5C 1723.83,566.995 1710.83,563.828 1699.5,554C 1684.22,536.697 1682.55,518.197 1694.5,498.5C 1696.55,496.45 1698.21,494.117 1699.5,491.5C 1700.12,491.611 1700.62,491.944 1701,492.5C 1709.65,484.673 1719.82,481.339 1731.5,482.5 Z"/></g>
<g><path style="opacity:1" fill="#643717" d="M 1312.5,695.5 C 1302.56,695.781 1293.73,692.781 1286,686.5C 1274.72,704.205 1259.22,709.205 1239.5,701.5C 1236.51,720.159 1226.17,732.825 1208.5,739.5C 1200.33,729.498 1191,720.665 1180.5,713C 1161.25,702.871 1147.09,707.704 1138,727.5C 1135.57,743.808 1138.57,759.141 1147,773.5C 1149.97,778.634 1153.14,783.634 1156.5,788.5C 1144.04,801.731 1128.7,809.064 1110.5,810.5C 1110.33,774.498 1110.5,738.498 1111,702.5C 1111.87,695.149 1112.87,687.816 1114,680.5C 1117.08,655.469 1128.92,635.969 1149.5,622C 1177.49,608.334 1206.83,604.668 1237.5,611C 1260.03,614.515 1279.53,624.015 1296,639.5C 1306.21,656.672 1311.71,675.338 1312.5,695.5 Z"/></g>
<g><path style="opacity:1" fill="#f9a277" d="M 1312.5,695.5 C 1312.35,710.189 1312.85,724.855 1314,739.5C 1316.24,754.435 1317.74,769.435 1318.5,784.5C 1318.33,789.167 1318.17,793.833 1318,798.5C 1316.48,816.73 1307.65,829.896 1291.5,838C 1276.8,842.609 1261.8,843.775 1246.5,841.5C 1246.71,839.856 1246.38,838.356 1245.5,837C 1231.6,832.884 1218.27,827.384 1205.5,820.5C 1202.03,821.143 1200.86,823.143 1202,826.5C 1207.31,829.906 1212.81,832.906 1218.5,835.5C 1225.75,843.586 1233.59,851.252 1242,858.5C 1242.49,859.793 1242.66,861.127 1242.5,862.5C 1240.5,896.336 1222.67,913.669 1189,914.5C 1169.09,913.755 1151.59,906.921 1136.5,894C 1126.12,885.136 1117.46,874.97 1110.5,863.5C 1110.5,845.833 1110.5,828.167 1110.5,810.5C 1128.7,809.064 1144.04,801.731 1156.5,788.5C 1153.14,783.634 1149.97,778.634 1147,773.5C 1138.57,759.141 1135.57,743.808 1138,727.5C 1147.09,707.704 1161.25,702.871 1180.5,713C 1191,720.665 1200.33,729.498 1208.5,739.5C 1226.17,732.825 1236.51,720.159 1239.5,701.5C 1259.22,709.205 1274.72,704.205 1286,686.5C 1293.73,692.781 1302.56,695.781 1312.5,695.5 Z"/></g>
<g><path style="opacity:1" fill="#0e0806" d="M 1296.5,737.5 C 1304.06,737.699 1306.06,741.032 1302.5,747.5C 1297.38,749.727 1294.38,748.06 1293.5,742.5C 1294.09,740.577 1295.09,738.911 1296.5,737.5 Z"/></g>
<g><path style="opacity:1" fill="#0b0604" d="M 1166.5,738.5 C 1167.55,738.351 1168.55,738.517 1169.5,739C 1175.33,744.833 1181.17,750.667 1187,756.5C 1187.17,760.333 1185.33,762.167 1181.5,762C 1175.67,756.167 1169.83,750.333 1164,744.5C 1163.33,743.5 1163.33,742.5 1164,741.5C 1165.04,740.627 1165.88,739.627 1166.5,738.5 Z"/></g>
<g><path style="opacity:1" fill="#130d09" d="M 1251.5,739.5 C 1258.58,740.402 1260.25,743.902 1256.5,750C 1250.41,751.73 1247.58,749.563 1248,743.5C 1248.69,741.65 1249.86,740.316 1251.5,739.5 Z"/></g>
<g><path style="opacity:1" fill="#0f0906" d="M 1280.5,753.5 C 1283.04,753.104 1285.21,753.771 1287,755.5C 1288.95,760.008 1289.62,764.674 1289,769.5C 1286.43,773.958 1282.76,775.625 1278,774.5C 1277.83,773.667 1277.67,772.833 1277.5,772C 1278.39,769.438 1279.72,767.104 1281.5,765C 1279.56,761.229 1279.23,757.396 1280.5,753.5 Z"/></g>
<g><path style="opacity:1" fill="#090503" d="M 1260.5,782.5 C 1264.76,781.597 1267.26,783.264 1268,787.5C 1268.9,788.701 1270.07,789.535 1271.5,790C 1274.17,790.333 1276.83,790.667 1279.5,791C 1282.68,796.354 1281.01,798.854 1274.5,798.5C 1264.3,797.65 1259.63,792.317 1260.5,782.5 Z"/></g>
<g><path style="opacity:0.997" fill="#f9a277" d="M 1561.5,821.5 C 1560.67,828.475 1560,835.475 1559.5,842.5C 1557.97,843.067 1556.47,843.733 1555,844.5C 1552.87,850.012 1551.87,855.679 1552,861.5C 1563.99,877.626 1571.83,895.626 1575.5,915.5C 1581.66,917.238 1583.83,914.904 1582,908.5C 1578.18,890.526 1570.84,874.193 1560,859.5C 1560.8,854.251 1561.3,848.917 1561.5,843.5C 1569.76,834.403 1579.1,826.57 1589.5,820C 1598.38,815.818 1607.38,815.484 1616.5,819C 1621.06,821.956 1623.73,826.123 1624.5,831.5C 1623.31,832.364 1622.15,833.364 1621,834.5C 1619.72,845.258 1617.05,855.592 1613,865.5C 1610.71,871.251 1607.54,876.418 1603.5,881C 1600.04,882.123 1597.21,881.29 1595,878.5C 1592.97,868.817 1593.14,859.15 1595.5,849.5C 1593.99,845.165 1591.49,844.498 1588,847.5C 1585.64,857.009 1584.97,866.676 1586,876.5C 1587.86,886.176 1593.69,890.676 1603.5,890C 1605.56,898.149 1610.56,903.482 1618.5,906C 1621.9,914.92 1628.23,919.753 1637.5,920.5C 1637.33,924.816 1638.33,928.816 1640.5,932.5C 1629.3,950.677 1613.46,962.677 1593,968.5C 1587.15,1023.25 1573.48,1075.92 1552,1126.5C 1539.8,1155.03 1521.3,1178.53 1496.5,1197C 1476.43,1208.96 1454.77,1213.29 1431.5,1210C 1406.24,1206.75 1383.24,1197.92 1362.5,1183.5C 1363.38,1183.63 1364.04,1183.3 1364.5,1182.5C 1357.55,1167.6 1350.88,1152.6 1344.5,1137.5C 1344.5,1137.17 1344.5,1136.83 1344.5,1136.5C 1368.17,1092.5 1391.83,1048.5 1415.5,1004.5C 1418.39,1007.27 1421.06,1010.27 1423.5,1013.5C 1422.86,1014.1 1422.53,1014.93 1422.5,1016C 1423.35,1026.15 1424.02,1036.32 1424.5,1046.5C 1423.5,1049.83 1422.5,1053.17 1421.5,1056.5C 1422.37,1060.26 1424.53,1061.26 1428,1059.5C 1432.3,1049.72 1436.47,1039.89 1440.5,1030C 1439.69,1028.36 1438.69,1026.86 1437.5,1025.5C 1456.46,973.284 1476.79,921.618 1498.5,870.5C 1508.72,849.735 1519.22,829.069 1530,808.5C 1533.68,801.154 1538.51,794.654 1544.5,789C 1552.45,785.725 1557.62,788.225 1560,796.5C 1560.17,805.01 1560.67,813.343 1561.5,821.5 Z"/></g>
<g><path style="opacity:1" fill="#1a1b1d" d="M 791.5,820.5 C 787.233,823.097 783.566,826.43 780.5,830.5C 777.274,827.216 774.941,823.382 773.5,819C 775.004,813.18 778.671,811.18 784.5,813C 787.039,815.37 789.372,817.87 791.5,820.5 Z"/></g>
<g><path style="opacity:1" fill="#1e75e8" d="M 902.5,859.5 C 868.463,888.204 834.13,916.537 799.5,944.5C 798.235,938.072 797.568,931.572 797.5,925C 798.781,910.183 799.781,895.349 800.5,880.5C 802.478,879.683 803.478,878.183 803.5,876C 800.229,866.386 794.896,858.053 787.5,851C 785.735,850.36 784.068,850.527 782.5,851.5C 779.464,844.74 778.798,837.74 780.5,830.5C 783.566,826.43 787.233,823.097 791.5,820.5C 797.188,819.122 802.855,819.288 808.5,821C 816.377,829.721 824.711,838.054 833.5,846C 850.994,849.638 868.661,852.304 886.5,854C 891.888,855.74 897.221,857.574 902.5,859.5 Z"/></g>
<g><path style="opacity:1" fill="#0c0705" d="M 1246.5,841.5 C 1246.03,842.906 1245.03,843.573 1243.5,843.5C 1234.7,842.267 1226.37,839.6 1218.5,835.5C 1212.81,832.906 1207.31,829.906 1202,826.5C 1200.86,823.143 1202.03,821.143 1205.5,820.5C 1218.27,827.384 1231.6,832.884 1245.5,837C 1246.38,838.356 1246.71,839.856 1246.5,841.5 Z"/></g>
<g><path style="opacity:0.994" fill="#0b0705" d="M 1624.5,831.5 C 1626.77,831.957 1628.11,833.29 1628.5,835.5C 1626.29,853.733 1620.29,870.566 1610.5,886C 1615.83,900.459 1623,901.292 1632,888.5C 1638.78,875.842 1643.78,862.509 1647,848.5C 1647.99,847.934 1648.83,847.267 1649.5,846.5C 1653.36,846.69 1655.02,848.69 1654.5,852.5C 1650.79,868.602 1644.29,883.602 1635,897.5C 1632.96,899.874 1630.63,901.874 1628,903.5C 1627.61,907.165 1629.11,909.998 1632.5,912C 1636.7,912.922 1640.7,912.422 1644.5,910.5C 1647.19,907.646 1649.69,904.646 1652,901.5C 1656,891.677 1659.5,881.677 1662.5,871.5C 1663.69,870.571 1665.02,870.238 1666.5,870.5C 1668.73,871.401 1669.73,873.067 1669.5,875.5C 1666.4,888.608 1661.24,900.941 1654,912.5C 1651.63,915.206 1648.96,917.539 1646,919.5C 1646.3,923.906 1646.13,928.239 1645.5,932.5C 1643.83,933.833 1642.17,933.833 1640.5,932.5C 1638.33,928.816 1637.33,924.816 1637.5,920.5C 1628.23,919.753 1621.9,914.92 1618.5,906C 1610.56,903.482 1605.56,898.149 1603.5,890C 1593.69,890.676 1587.86,886.176 1586,876.5C 1584.97,866.676 1585.64,857.009 1588,847.5C 1591.49,844.498 1593.99,845.165 1595.5,849.5C 1593.14,859.15 1592.97,868.817 1595,878.5C 1597.21,881.29 1600.04,882.123 1603.5,881C 1607.54,876.418 1610.71,871.251 1613,865.5C 1617.05,855.592 1619.72,845.258 1621,834.5C 1622.15,833.364 1623.31,832.364 1624.5,831.5 Z"/></g>
<g><path style="opacity:0.996" fill="#f5a075" d="M 1649.5,846.5 C 1648.83,847.267 1647.99,847.934 1647,848.5C 1643.78,862.509 1638.78,875.842 1632,888.5C 1623,901.292 1615.83,900.459 1610.5,886C 1620.29,870.566 1626.29,853.733 1628.5,835.5C 1638.65,833.074 1645.65,836.74 1649.5,846.5 Z"/></g>
<g><path style="opacity:1" fill="#c98769" d="M 1218.5,835.5 C 1226.37,839.6 1234.7,842.267 1243.5,843.5C 1243.5,849.833 1243.5,856.167 1243.5,862.5C 1243.17,862.5 1242.83,862.5 1242.5,862.5C 1242.66,861.127 1242.49,859.793 1242,858.5C 1233.59,851.252 1225.75,843.586 1218.5,835.5 Z"/></g>
<g><path style="opacity:1" fill="#0a0604" d="M 1559.5,842.5 C 1559.84,843.338 1560.51,843.672 1561.5,843.5C 1561.3,848.917 1560.8,854.251 1560,859.5C 1570.84,874.193 1578.18,890.526 1582,908.5C 1583.83,914.904 1581.66,917.238 1575.5,915.5C 1571.83,895.626 1563.99,877.626 1552,861.5C 1551.87,855.679 1552.87,850.012 1555,844.5C 1556.47,843.733 1557.97,843.067 1559.5,842.5 Z"/></g>
<g><path style="opacity:1" fill="#191923" d="M 800.5,880.5 C 799.041,880.567 797.708,880.234 796.5,879.5C 793.83,870.843 789.164,863.51 782.5,857.5C 781.167,855.5 781.167,853.5 782.5,851.5C 784.068,850.527 785.735,850.36 787.5,851C 794.896,858.053 800.229,866.386 803.5,876C 803.478,878.183 802.478,879.683 800.5,880.5 Z"/></g>
<g><path style="opacity:0.996" fill="#f49f75" d="M 1654.5,852.5 C 1662.12,856.117 1666.12,862.117 1666.5,870.5C 1665.02,870.238 1663.69,870.571 1662.5,871.5C 1659.5,881.677 1656,891.677 1652,901.5C 1649.69,904.646 1647.19,907.646 1644.5,910.5C 1640.7,912.422 1636.7,912.922 1632.5,912C 1629.11,909.998 1627.61,907.165 1628,903.5C 1630.63,901.874 1632.96,899.874 1635,897.5C 1644.29,883.602 1650.79,868.602 1654.5,852.5 Z"/></g>
<g><path style="opacity:0.985" fill="#1e75e8" d="M 782.5,857.5 C 789.164,863.51 793.83,870.843 796.5,879.5C 789.221,884.446 782.554,890.113 776.5,896.5C 750.758,917.033 725.425,938.033 700.5,959.5C 697.919,950.005 692.252,943.005 683.5,938.5C 711.183,914.82 739.183,891.486 767.5,868.5C 772.352,864.58 777.352,860.913 782.5,857.5 Z"/></g>
<g><path style="opacity:0.996" fill="#181720" d="M 911.5,863.5 C 875.124,893.878 838.457,923.878 801.5,953.5C 797.322,952.812 795.989,950.478 797.5,946.5C 798.5,946.167 799.167,945.5 799.5,944.5C 834.13,916.537 868.463,888.204 902.5,859.5C 904.571,857.9 906.905,857.4 909.5,858C 911.155,859.444 911.822,861.278 911.5,863.5 Z"/></g>
<g><path style="opacity:0.999" fill="#61cbfe" d="M 1242.5,862.5 C 1242.83,862.5 1243.17,862.5 1243.5,862.5C 1255.39,864.848 1267.05,868.348 1278.5,873C 1300.37,883.549 1320.04,897.215 1337.5,914C 1353.43,930.095 1368.77,946.595 1383.5,963.5C 1394.9,976.653 1405.57,990.32 1415.5,1004.5C 1391.83,1048.5 1368.17,1092.5 1344.5,1136.5C 1333.65,1113.95 1322.98,1091.29 1312.5,1068.5C 1311.86,1063.15 1311.03,1057.82 1310,1052.5C 1306.27,1050.61 1303.77,1051.61 1302.5,1055.5C 1305.21,1083.56 1308.37,1111.56 1312,1139.5C 1313.47,1140.27 1314.97,1140.93 1316.5,1141.5C 1319.83,1173.83 1323.17,1206.17 1326.5,1238.5C 1310.68,1239.5 1294.68,1239.83 1278.5,1239.5C 1277.71,1238.6 1276.71,1237.93 1275.5,1237.5C 1262.62,1231.89 1249.62,1226.56 1236.5,1221.5C 1236.5,1221.17 1236.5,1220.83 1236.5,1220.5C 1250.76,1223.32 1265.09,1225.82 1279.5,1228C 1286.83,1228.67 1294.17,1228.67 1301.5,1228C 1303.09,1227.14 1304.75,1226.47 1306.5,1226C 1308.21,1224.87 1308.71,1223.37 1308,1221.5C 1306.54,1219.04 1304.71,1216.87 1302.5,1215C 1288.61,1206.72 1273.94,1200.06 1258.5,1195C 1201.79,1180.23 1144.46,1168.73 1086.5,1160.5C 1086.66,1157.66 1085.32,1155.99 1082.5,1155.5C 1081.84,1129.84 1081.51,1104.17 1081.5,1078.5C 1083.49,1074.72 1084.32,1070.72 1084,1066.5C 1081.37,1063.81 1079.03,1064.14 1077,1067.5C 1070.76,1082.31 1064.26,1096.98 1057.5,1111.5C 1011.21,1086.86 964.211,1063.52 916.5,1041.5C 930.514,1016.32 946.347,992.316 964,969.5C 984.129,943.038 1007.3,919.538 1033.5,899C 1056.77,882.072 1082.43,870.239 1110.5,863.5C 1117.46,874.97 1126.12,885.136 1136.5,894C 1151.59,906.921 1169.09,913.755 1189,914.5C 1222.67,913.669 1240.5,896.336 1242.5,862.5 Z"/></g>
<g><path style="opacity:0.998" fill="#1f75e7" d="M 911.5,863.5 C 917.89,867.71 923.89,872.544 929.5,878C 917.642,887.698 905.976,897.531 894.5,907.5C 878.555,919.779 863.221,932.779 848.5,946.5C 836.421,954.88 825.088,964.214 814.5,974.5C 813.504,974.586 812.671,974.252 812,973.5C 807.708,967.248 804.208,960.582 801.5,953.5C 838.457,923.878 875.124,893.878 911.5,863.5 Z"/></g>
<g><path style="opacity:0.979" fill="#f7a176" d="M 1669.5,875.5 C 1675.6,878.786 1678.6,883.953 1678.5,891C 1677.31,908.726 1669.64,922.726 1655.5,933C 1652.13,933.543 1648.8,933.376 1645.5,932.5C 1646.13,928.239 1646.3,923.906 1646,919.5C 1648.96,917.539 1651.63,915.206 1654,912.5C 1661.24,900.941 1666.4,888.608 1669.5,875.5 Z"/></g>
<g><path style="opacity:0.981" fill="#b5d2fe" d="M 796.5,879.5 C 797.708,880.234 799.041,880.567 800.5,880.5C 799.781,895.349 798.781,910.183 797.5,925C 797.568,931.572 798.235,938.072 799.5,944.5C 799.167,945.5 798.5,946.167 797.5,946.5C 789.414,930.324 782.414,913.657 776.5,896.5C 782.554,890.113 789.221,884.446 796.5,879.5 Z"/></g>
<g><path style="opacity:1" fill="#1c1a21" d="M 894.5,907.5 C 898.824,908.804 899.49,911.137 896.5,914.5C 882.225,925.109 868.558,936.442 855.5,948.5C 852.429,950.253 850.096,949.586 848.5,946.5C 863.221,932.779 878.555,919.779 894.5,907.5 Z"/></g>
<g><path style="opacity:1" fill="#fcc734" d="M 896.5,914.5 C 901.886,927.14 899.553,938.307 889.5,948C 878.119,956.296 866.786,956.463 855.5,948.5C 868.558,936.442 882.225,925.109 896.5,914.5 Z"/></g>
<g><path style="opacity:0.981" fill="#171718" d="M 683.5,938.5 C 692.252,943.005 697.919,950.005 700.5,959.5C 701.512,971.469 697.178,980.803 687.5,987.5C 667.596,995.193 653.929,989.193 646.5,969.5C 644.49,952.355 651.824,941.521 668.5,937C 673.668,936.183 678.668,936.683 683.5,938.5 Z"/></g>
<g><path style="opacity:1" fill="#1f73e1" d="M 669.5,953.5 C 680.673,953.496 684.839,958.829 682,969.5C 678.1,974.533 673.267,975.7 667.5,973C 660.524,965.713 661.191,959.213 669.5,953.5 Z"/></g>
<g><path style="opacity:0.993" fill="#1d75e8" d="M 646.5,969.5 C 653.929,989.193 667.596,995.193 687.5,987.5C 687.5,1052.5 687.5,1117.5 687.5,1182.5C 678.314,1175.07 669.314,1167.4 660.5,1159.5C 660.667,1103.83 660.5,1048.17 660,992.5C 629.408,1017.88 598.908,1043.38 568.5,1069C 556.676,1074.28 549.342,1070.62 546.5,1058C 547.027,1052.95 549.361,1048.95 553.5,1046C 584.374,1020.29 615.374,994.788 646.5,969.5 Z"/></g>
<g><path style="opacity:0.935" fill="#b8d3ff" d="M 199.5,1014.5 C 266.91,1036.64 333.91,1059.97 400.5,1084.5C 401.801,1091.02 399.134,1093.18 392.5,1091C 328.178,1068.67 263.844,1046.34 199.5,1024C 196.888,1020.84 196.888,1017.67 199.5,1014.5 Z"/></g>
<g><path style="opacity:0.999" fill="#cb8563" d="M 1423.5,1013.5 C 1426.83,1017.83 1430.17,1022.17 1433.5,1026.5C 1430.87,1033.41 1427.87,1040.08 1424.5,1046.5C 1424.02,1036.32 1423.35,1026.15 1422.5,1016C 1422.53,1014.93 1422.86,1014.1 1423.5,1013.5 Z"/></g>
<g><path style="opacity:0.989" fill="#090503" d="M 1437.5,1025.5 C 1438.69,1026.86 1439.69,1028.36 1440.5,1030C 1436.47,1039.89 1432.3,1049.72 1428,1059.5C 1424.53,1061.26 1422.37,1060.26 1421.5,1056.5C 1422.5,1053.17 1423.5,1049.83 1424.5,1046.5C 1427.87,1040.08 1430.87,1033.41 1433.5,1026.5C 1434.71,1025.77 1436.04,1025.43 1437.5,1025.5 Z"/></g>
<g><path style="opacity:0.998" fill="#1e75e8" d="M 1934.5,1238.5 C 1791.49,1239.83 1648.49,1239.83 1505.5,1238.5C 1500.13,1232.96 1498.13,1226.29 1499.5,1218.5C 1553.5,1218.67 1607.5,1218.5 1661.5,1218C 1679.86,1161.26 1698.03,1104.42 1716,1047.5C 1719.45,1040.39 1724.61,1034.89 1731.5,1031C 1812.78,1029.34 1894.11,1029.01 1975.5,1030C 1991.37,1035.57 1998.21,1046.74 1996,1063.5C 1978.87,1118.56 1961.54,1173.56 1944,1228.5C 1941.3,1232.36 1938.14,1235.69 1934.5,1238.5 Z"/></g>
<g><path style="opacity:0.999" fill="#f9a277" d="M 916.5,1041.5 C 964.211,1063.52 1011.21,1086.86 1057.5,1111.5C 1057.22,1113.41 1057.55,1115.08 1058.5,1116.5C 1053.95,1127.93 1048.62,1138.93 1042.5,1149.5C 1037.79,1149.47 1036.29,1151.8 1038,1156.5C 1052.13,1159.57 1066.47,1161.9 1081,1163.5C 1082.5,1163.33 1084,1163.17 1085.5,1163C 1086.25,1162.33 1086.59,1161.5 1086.5,1160.5C 1144.46,1168.73 1201.79,1180.23 1258.5,1195C 1273.94,1200.06 1288.61,1206.72 1302.5,1215C 1304.71,1216.87 1306.54,1219.04 1308,1221.5C 1308.71,1223.37 1308.21,1224.87 1306.5,1226C 1304.75,1226.47 1303.09,1227.14 1301.5,1228C 1294.17,1228.67 1286.83,1228.67 1279.5,1228C 1265.09,1225.82 1250.76,1223.32 1236.5,1220.5C 1236.76,1219.02 1236.43,1217.69 1235.5,1216.5C 1227.63,1213.6 1219.79,1210.6 1212,1207.5C 1206.33,1210.14 1206.16,1212.97 1211.5,1216C 1218.6,1218.7 1225.77,1221.2 1233,1223.5C 1234.43,1223.14 1235.6,1222.47 1236.5,1221.5C 1249.62,1226.56 1262.62,1231.89 1275.5,1237.5C 1253.34,1238.5 1231.01,1238.83 1208.5,1238.5C 1205.8,1238.04 1203.13,1237.38 1200.5,1236.5C 1199,1236.45 1198,1237.12 1197.5,1238.5C 1086.43,1239.83 975.432,1239.83 864.5,1238.5C 855.322,1215.31 854.156,1191.64 861,1167.5C 871.777,1129 886.944,1092.33 906.5,1057.5C 909.833,1052.17 913.167,1046.83 916.5,1041.5 Z"/></g>
<g><path style="opacity:0.999" fill="#040709" d="M 1312.5,1068.5 C 1314.56,1090.15 1316.56,1111.82 1318.5,1133.5C 1318.39,1136.22 1318.05,1138.88 1317.5,1141.5C 1317.17,1141.5 1316.83,1141.5 1316.5,1141.5C 1314.97,1140.93 1313.47,1140.27 1312,1139.5C 1308.37,1111.56 1305.21,1083.56 1302.5,1055.5C 1303.77,1051.61 1306.27,1050.61 1310,1052.5C 1311.03,1057.82 1311.86,1063.15 1312.5,1068.5 Z"/></g>
<g><path style="opacity:1" fill="#04070a" d="M 1081.5,1078.5 C 1075.44,1090.96 1069.61,1103.62 1064,1116.5C 1062.17,1117.75 1060.34,1117.75 1058.5,1116.5C 1057.55,1115.08 1057.22,1113.41 1057.5,1111.5C 1064.26,1096.98 1070.76,1082.31 1077,1067.5C 1079.03,1064.14 1081.37,1063.81 1084,1066.5C 1084.32,1070.72 1083.49,1074.72 1081.5,1078.5 Z"/></g>
<g><path style="opacity:1" fill="#4da1c9" d="M 1312.5,1068.5 C 1322.98,1091.29 1333.65,1113.95 1344.5,1136.5C 1344.5,1136.83 1344.5,1137.17 1344.5,1137.5C 1340.25,1144.34 1336.25,1151.34 1332.5,1158.5C 1327.1,1153.1 1322.1,1147.44 1317.5,1141.5C 1318.05,1138.88 1318.39,1136.22 1318.5,1133.5C 1316.56,1111.82 1314.56,1090.15 1312.5,1068.5 Z"/></g>
<g><path style="opacity:1" fill="#4fa1c9" d="M 1081.5,1078.5 C 1081.51,1104.17 1081.84,1129.84 1082.5,1155.5C 1068.89,1154.32 1055.56,1152.32 1042.5,1149.5C 1048.62,1138.93 1053.95,1127.93 1058.5,1116.5C 1060.34,1117.75 1062.17,1117.75 1064,1116.5C 1069.61,1103.62 1075.44,1090.96 1081.5,1078.5 Z"/></g>
<g><path style="opacity:1" fill="#b2d0fe" d="M 1850.5,1083.5 C 1851.82,1083.33 1852.99,1083.66 1854,1084.5C 1855.07,1092.57 1853.73,1100.24 1850,1107.5C 1848.94,1110.06 1847.1,1111.73 1844.5,1112.5C 1843.56,1112.39 1842.72,1112.06 1842,1111.5C 1840.92,1100.91 1843.75,1091.58 1850.5,1083.5 Z"/></g>
<g><path style="opacity:1" fill="#b6d2fe" d="M 1812.5,1114.5 C 1817.08,1114.11 1821.41,1114.95 1825.5,1117C 1831.34,1121.68 1836.68,1126.84 1841.5,1132.5C 1850.17,1126.5 1859.17,1121 1868.5,1116C 1882.79,1111.27 1886.29,1115.1 1879,1127.5C 1864.92,1144.44 1849.08,1159.44 1831.5,1172.5C 1829.97,1172.47 1828.8,1171.8 1828,1170.5C 1817.21,1156.98 1810.38,1141.64 1807.5,1124.5C 1807.59,1122.08 1808.09,1119.74 1809,1117.5C 1810.52,1116.84 1811.69,1115.84 1812.5,1114.5 Z"/></g>
<g><path style="opacity:1" fill="#ca8361" d="M 1344.5,1137.5 C 1350.88,1152.6 1357.55,1167.6 1364.5,1182.5C 1364.04,1183.3 1363.38,1183.63 1362.5,1183.5C 1351.35,1176.59 1341.35,1168.25 1332.5,1158.5C 1336.25,1151.34 1340.25,1144.34 1344.5,1137.5 Z"/></g>
<g><path style="opacity:1" fill="#0a0706" d="M 1042.5,1149.5 C 1055.56,1152.32 1068.89,1154.32 1082.5,1155.5C 1085.32,1155.99 1086.66,1157.66 1086.5,1160.5C 1086.59,1161.5 1086.25,1162.33 1085.5,1163C 1084,1163.17 1082.5,1163.33 1081,1163.5C 1066.47,1161.9 1052.13,1159.57 1038,1156.5C 1036.29,1151.8 1037.79,1149.47 1042.5,1149.5 Z"/></g>
<g><path style="opacity:0.984" fill="#1c63bf" d="M 660.5,1159.5 C 669.314,1167.4 678.314,1175.07 687.5,1182.5C 687.5,1187.5 687.5,1192.5 687.5,1197.5C 678.5,1197.5 669.5,1197.5 660.5,1197.5C 660.5,1184.83 660.5,1172.17 660.5,1159.5 Z"/></g>
<g><path style="opacity:0.981" fill="#17151d" d="M 660.5,1197.5 C 669.5,1197.5 678.5,1197.5 687.5,1197.5C 690.297,1197.97 691.631,1199.63 691.5,1202.5C 690.373,1203.12 689.373,1203.96 688.5,1205C 678.5,1205.67 668.5,1205.67 658.5,1205C 657.934,1204.01 657.267,1203.17 656.5,1202.5C 656.369,1199.63 657.703,1197.97 660.5,1197.5 Z"/></g>
<g><path style="opacity:0.991" fill="#1e74e6" d="M 656.5,1202.5 C 657.267,1203.17 657.934,1204.01 658.5,1205C 668.5,1205.67 678.5,1205.67 688.5,1205C 689.373,1203.96 690.373,1203.12 691.5,1202.5C 706.177,1205.92 720.51,1210.42 734.5,1216C 742.113,1221.74 746.779,1229.24 748.5,1238.5C 698.833,1239.83 649.167,1239.83 599.5,1238.5C 601.334,1227.66 607,1219.5 616.5,1214C 629.762,1209.85 643.095,1206.02 656.5,1202.5 Z"/></g>
<g><path style="opacity:1" fill="#0b0604" d="M 1236.5,1220.5 C 1236.5,1220.83 1236.5,1221.17 1236.5,1221.5C 1235.6,1222.47 1234.43,1223.14 1233,1223.5C 1225.77,1221.2 1218.6,1218.7 1211.5,1216C 1206.16,1212.97 1206.33,1210.14 1212,1207.5C 1219.79,1210.6 1227.63,1213.6 1235.5,1216.5C 1236.43,1217.69 1236.76,1219.02 1236.5,1220.5 Z"/></g>
<g><path style="opacity:0.936" fill="#b7d3ff" d="M 357.5,1223.5 C 360.77,1223.3 362.77,1224.8 363.5,1228C 361.833,1231 359.5,1233.33 356.5,1235C 272.671,1282.08 189.004,1329.41 105.5,1377C 102.28,1378.78 98.9467,1380.28 95.5,1381.5C 89.0173,1378.32 89.0173,1374.82 95.5,1371C 183.122,1322.03 270.455,1272.86 357.5,1223.5 Z"/></g>
<g><path style="opacity:0.988" fill="#222222" d="M 1208.5,1238.5 C 1231.66,1239.5 1254.99,1239.83 1278.5,1239.5C 1294.68,1239.83 1310.68,1239.5 1326.5,1238.5C 1386.17,1238.5 1445.83,1238.5 1505.5,1238.5C 1648.49,1239.83 1791.49,1239.83 1934.5,1238.5C 1969.83,1238.5 2005.17,1238.5 2040.5,1238.5C 2040.5,1256.83 2040.5,1275.17 2040.5,1293.5C 1865.5,1293.5 1690.5,1293.5 1515.5,1293.5C 1514.5,1293.5 1513.5,1293.5 1512.5,1293.5C 1470.34,1292.5 1428,1292.17 1385.5,1292.5C 1382.17,1292.5 1378.83,1292.5 1375.5,1292.5C 1335.17,1292.5 1294.83,1292.5 1254.5,1292.5C 1231.83,1292.5 1209.17,1292.5 1186.5,1292.5C 1124.5,1292.5 1062.5,1292.5 1000.5,1292.5C 958.997,1292.17 917.663,1292.5 876.5,1293.5C 764.167,1293.5 651.833,1293.5 539.5,1293.5C 539.5,1275.17 539.5,1256.83 539.5,1238.5C 559.5,1238.5 579.5,1238.5 599.5,1238.5C 649.167,1239.83 698.833,1239.83 748.5,1238.5C 787.167,1238.5 825.833,1238.5 864.5,1238.5C 975.432,1239.83 1086.43,1239.83 1197.5,1238.5C 1198,1237.12 1199,1236.45 1200.5,1236.5C 1203.13,1237.38 1205.8,1238.04 1208.5,1238.5 Z"/></g>
<g><path style="opacity:1" fill="#a37056" d="M 1275.5,1237.5 C 1276.71,1237.93 1277.71,1238.6 1278.5,1239.5C 1254.99,1239.83 1231.66,1239.5 1208.5,1238.5C 1231.01,1238.83 1253.34,1238.5 1275.5,1237.5 Z"/></g>
<g><path style="opacity:1" fill="#cfa52c" d="M 1254.5,1293.5 C 1254.5,1293.17 1254.5,1292.83 1254.5,1292.5C 1294.83,1292.5 1335.17,1292.5 1375.5,1292.5C 1375.5,1293.83 1375.5,1295.17 1375.5,1296.5C 1374.6,1295.79 1374.26,1294.79 1374.5,1293.5C 1334.5,1293.5 1294.5,1293.5 1254.5,1293.5 Z"/></g>
<g><path style="opacity:1" fill="#d1a62c" d="M 1385.5,1292.5 C 1428,1292.17 1470.34,1292.5 1512.5,1293.5C 1471.33,1293.17 1430.33,1293.5 1389.5,1294.5C 1387.85,1294.34 1386.51,1293.67 1385.5,1292.5 Z"/></g>
<g><path style="opacity:0.994" fill="#1e75e7" d="M 1000.5,1292.5 C 997.725,1299.27 995.725,1306.27 994.5,1313.5C 993.167,1314.93 991.667,1316.27 990,1317.5C 989.252,1319.84 989.752,1321.84 991.5,1323.5C 991.567,1324.96 991.234,1326.29 990.5,1327.5C 980.167,1327.5 969.833,1327.5 959.5,1327.5C 956.4,1320.88 953.4,1320.88 950.5,1327.5C 940.161,1327.67 929.828,1327.5 919.5,1327C 905.649,1325.16 894.149,1318.99 885,1308.5C 881.13,1304.09 878.297,1299.09 876.5,1293.5C 917.663,1292.5 958.997,1292.17 1000.5,1292.5 Z"/></g>
<g><path style="opacity:1" fill="#cfa42a" d="M 1000.5,1292.5 C 1062.5,1292.5 1124.5,1292.5 1186.5,1292.5C 1186.5,1292.83 1186.5,1293.17 1186.5,1293.5C 1173.5,1293.33 1160.5,1293.5 1147.5,1294C 1116.53,1303.83 1085.53,1313.33 1054.5,1322.5C 1054.77,1324.1 1054.43,1325.43 1053.5,1326.5C 1053.55,1321.43 1051.21,1317.93 1046.5,1316C 1028.8,1316.16 1011.47,1315.32 994.5,1313.5C 995.725,1306.27 997.725,1299.27 1000.5,1292.5 Z"/></g>
<g><path style="opacity:0.999" fill="#fec82f" d="M 1186.5,1293.5 C 1201.11,1296.27 1215.77,1298.6 1230.5,1300.5C 1239.24,1300.43 1247.24,1298.09 1254.5,1293.5C 1294.5,1293.5 1334.5,1293.5 1374.5,1293.5C 1374.26,1294.79 1374.6,1295.79 1375.5,1296.5C 1391.23,1303.7 1406.9,1311.2 1422.5,1319C 1444.93,1330.76 1464.43,1346.26 1481,1365.5C 1491.35,1380.56 1497.35,1397.22 1499,1415.5C 1499.81,1431.86 1499.47,1448.19 1498,1464.5C 1489.8,1514.21 1476.8,1562.54 1459,1609.5C 1458.13,1612.52 1458.63,1615.19 1460.5,1617.5C 1458.06,1626.37 1455.06,1635.04 1451.5,1643.5C 1449.67,1648.1 1447.84,1652.77 1446,1657.5C 1445.51,1659.13 1445.34,1660.8 1445.5,1662.5C 1438,1680.68 1431.66,1699.34 1426.5,1718.5C 1359.83,1718.5 1293.17,1718.5 1226.5,1718.5C 1233.62,1682.67 1242.62,1647.34 1253.5,1612.5C 1256.45,1606.48 1258.78,1600.15 1260.5,1593.5C 1267.44,1573.67 1274.78,1554 1282.5,1534.5C 1284.14,1533.25 1285.3,1531.58 1286,1529.5C 1291.85,1516.48 1297.68,1503.48 1303.5,1490.5C 1305.47,1490.74 1307.3,1490.41 1309,1489.5C 1319.75,1469.01 1330.75,1448.67 1342,1428.5C 1342.8,1424.14 1340.97,1422.3 1336.5,1423C 1335.63,1424.04 1334.63,1424.88 1333.5,1425.5C 1326.92,1426.42 1320.58,1428.25 1314.5,1431C 1296.17,1441.33 1277.83,1451.67 1259.5,1462C 1218.97,1484.2 1175.64,1492.37 1129.5,1486.5C 1125.17,1486.5 1120.83,1486.5 1116.5,1486.5C 1085.13,1483.43 1056.46,1472.93 1030.5,1455C 1016.85,1444.17 1006.18,1431 998.5,1415.5C 1024.6,1414.57 1040.1,1401.24 1045,1375.5C 1047.62,1359.1 1050.45,1342.77 1053.5,1326.5C 1054.43,1325.43 1054.77,1324.1 1054.5,1322.5C 1085.53,1313.33 1116.53,1303.83 1147.5,1294C 1160.5,1293.5 1173.5,1293.33 1186.5,1293.5 Z"/></g>
<g><path style="opacity:1" fill="#f3a072" d="M 1186.5,1293.5 C 1186.5,1293.17 1186.5,1292.83 1186.5,1292.5C 1209.17,1292.5 1231.83,1292.5 1254.5,1292.5C 1254.5,1292.83 1254.5,1293.17 1254.5,1293.5C 1247.24,1298.09 1239.24,1300.43 1230.5,1300.5C 1215.77,1298.6 1201.11,1296.27 1186.5,1293.5 Z"/></g>
<g><path style="opacity:1" fill="#221d12" d="M 1375.5,1292.5 C 1378.83,1292.5 1382.17,1292.5 1385.5,1292.5C 1386.51,1293.67 1387.85,1294.34 1389.5,1294.5C 1417.31,1305.85 1442.97,1320.68 1466.5,1339C 1476.11,1347.61 1484.61,1357.11 1492,1367.5C 1498.39,1378.83 1502.89,1390.83 1505.5,1403.5C 1507.41,1420.11 1507.91,1436.78 1507,1453.5C 1503,1487.49 1496,1520.83 1486,1553.5C 1479.17,1573.99 1472.34,1594.49 1465.5,1615C 1464.87,1616.31 1463.87,1617.14 1462.5,1617.5C 1461.83,1617.5 1461.17,1617.5 1460.5,1617.5C 1458.63,1615.19 1458.13,1612.52 1459,1609.5C 1476.8,1562.54 1489.8,1514.21 1498,1464.5C 1499.47,1448.19 1499.81,1431.86 1499,1415.5C 1497.35,1397.22 1491.35,1380.56 1481,1365.5C 1464.43,1346.26 1444.93,1330.76 1422.5,1319C 1406.9,1311.2 1391.23,1303.7 1375.5,1296.5C 1375.5,1295.17 1375.5,1293.83 1375.5,1292.5 Z"/></g>
<g><path style="opacity:0.997" fill="#fec82f" d="M 1389.5,1294.5 C 1430.33,1293.5 1471.33,1293.17 1512.5,1293.5C 1513.5,1293.5 1514.5,1293.5 1515.5,1293.5C 1558.75,1312.25 1589.92,1343.25 1609,1386.5C 1621.03,1416.26 1630.03,1446.92 1636,1478.5C 1645.96,1534.25 1656.12,1589.92 1666.5,1645.5C 1606.86,1674.98 1546.86,1703.98 1486.5,1732.5C 1482.68,1717.54 1479.01,1702.54 1475.5,1687.5C 1496.64,1642.92 1513.14,1596.58 1525,1548.5C 1531.85,1516.7 1533.18,1484.7 1529,1452.5C 1525.42,1434.02 1517.59,1417.68 1505.5,1403.5C 1502.89,1390.83 1498.39,1378.83 1492,1367.5C 1484.61,1357.11 1476.11,1347.61 1466.5,1339C 1442.97,1320.68 1417.31,1305.85 1389.5,1294.5 Z"/></g>
<g><path style="opacity:0.997" fill="#221e12" d="M 994.5,1313.5 C 1011.47,1315.32 1028.8,1316.16 1046.5,1316C 1051.21,1317.93 1053.55,1321.43 1053.5,1326.5C 1050.45,1342.77 1047.62,1359.1 1045,1375.5C 1040.1,1401.24 1024.6,1414.57 998.5,1415.5C 994.647,1414.44 993.647,1412.1 995.5,1408.5C 1020,1408.18 1034.16,1395.84 1038,1371.5C 1040.36,1356.46 1042.86,1341.46 1045.5,1326.5C 1045.5,1325.5 1045.5,1324.5 1045.5,1323.5C 1027.5,1323.5 1009.5,1323.5 991.5,1323.5C 989.752,1321.84 989.252,1319.84 990,1317.5C 991.667,1316.27 993.167,1314.93 994.5,1313.5 Z"/></g>
<g><path style="opacity:0.913" fill="#222222" d="M 959.5,1327.5 C 969.956,1380.45 980.289,1433.45 990.5,1486.5C 987.167,1486.5 983.833,1486.5 980.5,1486.5C 970.243,1433.55 960.243,1380.55 950.5,1327.5C 953.4,1320.88 956.4,1320.88 959.5,1327.5 Z"/></g>
<g><path style="opacity:1" fill="#d2a62a" d="M 991.5,1323.5 C 1009.5,1323.5 1027.5,1323.5 1045.5,1323.5C 1045.5,1324.5 1045.5,1325.5 1045.5,1326.5C 1026.47,1331.45 1007.64,1337.12 989,1343.5C 988.51,1342.21 988.343,1340.87 988.5,1339.5C 988.529,1335.36 989.196,1331.36 990.5,1327.5C 991.234,1326.29 991.567,1324.96 991.5,1323.5 Z"/></g>
<g><path style="opacity:0.994" fill="#fec82f" d="M 1045.5,1326.5 C 1042.86,1341.46 1040.36,1356.46 1038,1371.5C 1034.16,1395.84 1020,1408.18 995.5,1408.5C 986.651,1386.06 984.318,1363.06 988.5,1339.5C 988.343,1340.87 988.51,1342.21 989,1343.5C 1007.64,1337.12 1026.47,1331.45 1045.5,1326.5 Z"/></g>
<g><path style="opacity:0.939" fill="#b8d4ff" d="M 1724.5,1402.5 C 1725.87,1402.34 1727.21,1402.51 1728.5,1403C 1762.06,1444.2 1805.4,1461.53 1858.5,1455C 1878.44,1453.01 1898.11,1449.51 1917.5,1444.5C 1922.22,1445.7 1923.39,1448.37 1921,1452.5C 1895.82,1482.85 1876.82,1516.85 1864,1554.5C 1859.51,1567.9 1859.51,1581.23 1864,1594.5C 1869.42,1605.24 1877.92,1612.41 1889.5,1616C 1907.17,1621.81 1925.17,1623.31 1943.5,1620.5C 1970.33,1566.83 2007.33,1521.33 2054.5,1484C 2077.69,1466.91 2103.36,1454.91 2131.5,1448C 2144.52,1444.79 2157.52,1444.79 2170.5,1448C 2184.17,1453.16 2189.67,1463 2187,1477.5C 2182.8,1492.58 2175.46,1505.91 2165,1517.5C 2116.36,1567.76 2058.19,1602.59 1990.5,1622C 1976.73,1625.85 1962.73,1628.35 1948.5,1629.5C 1942.91,1642.76 1938.41,1656.43 1935,1670.5C 1928.17,1716.17 1947.84,1740.17 1994,1742.5C 2022.64,1740.46 2050.14,1733.63 2076.5,1722C 2169.45,1678.38 2242.95,1612.88 2297,1525.5C 2307.07,1507.35 2316.07,1488.69 2324,1469.5C 2326.33,1466.83 2328.67,1466.83 2331,1469.5C 2331.67,1471.5 2331.67,1473.5 2331,1475.5C 2315.09,1514.69 2294.09,1550.69 2268,1583.5C 2224.71,1635.81 2173.87,1678.98 2115.5,1713C 2086.54,1729.21 2055.88,1740.87 2023.5,1748C 2001.41,1752.47 1979.74,1751.14 1958.5,1744C 1932.15,1730.14 1920.98,1708.3 1925,1678.5C 1926.86,1662.06 1931.36,1646.39 1938.5,1631.5C 1856.18,1632.33 1832.35,1595.33 1867,1520.5C 1878.29,1498.07 1891.46,1476.91 1906.5,1457C 1890.63,1459.75 1874.63,1462.09 1858.5,1464C 1803.38,1470.64 1758.22,1452.81 1723,1410.5C 1720.68,1407.15 1721.18,1404.48 1724.5,1402.5 Z M 2144.5,1454.5 C 2178.48,1452.47 2186.98,1466.14 2170,1495.5C 2161.61,1508.73 2151.44,1520.56 2139.5,1531C 2095.24,1568.98 2044.9,1596.31 1988.5,1613C 1976.97,1616.37 1965.3,1618.71 1953.5,1620C 1980.31,1569.07 2016.31,1525.74 2061.5,1490C 2086.64,1472.09 2114.3,1460.26 2144.5,1454.5 Z"/></g>
<g><path style="opacity:1" fill="#d0a429" d="M 1505.5,1403.5 C 1517.59,1417.68 1525.42,1434.02 1529,1452.5C 1533.18,1484.7 1531.85,1516.7 1525,1548.5C 1513.14,1596.58 1496.64,1642.92 1475.5,1687.5C 1469.91,1664.52 1465.57,1641.18 1462.5,1617.5C 1463.87,1617.14 1464.87,1616.31 1465.5,1615C 1472.34,1594.49 1479.17,1573.99 1486,1553.5C 1496,1520.83 1503,1487.49 1507,1453.5C 1507.91,1436.78 1507.41,1420.11 1505.5,1403.5 Z"/></g>
<g><path style="opacity:1" fill="#302a18" d="M 1303.5,1490.5 C 1303.07,1489.29 1302.4,1488.29 1301.5,1487.5C 1312.17,1466.83 1322.83,1446.17 1333.5,1425.5C 1334.63,1424.88 1335.63,1424.04 1336.5,1423C 1340.97,1422.3 1342.8,1424.14 1342,1428.5C 1330.75,1448.67 1319.75,1469.01 1309,1489.5C 1307.3,1490.41 1305.47,1490.74 1303.5,1490.5 Z"/></g>
<g><path style="opacity:1" fill="#cfa52f" d="M 1333.5,1425.5 C 1322.83,1446.17 1312.17,1466.83 1301.5,1487.5C 1254.5,1487.5 1207.5,1487.5 1160.5,1487.5C 1149.99,1487.83 1139.65,1487.49 1129.5,1486.5C 1175.64,1492.37 1218.97,1484.2 1259.5,1462C 1277.83,1451.67 1296.17,1441.33 1314.5,1431C 1320.58,1428.25 1326.92,1426.42 1333.5,1425.5 Z"/></g>
<g><path style="opacity:1" fill="#222223" d="M 980.5,1486.5 C 983.833,1486.5 987.167,1486.5 990.5,1486.5C 1032.5,1486.5 1074.5,1486.5 1116.5,1486.5C 1120.83,1486.5 1125.17,1486.5 1129.5,1486.5C 1139.65,1487.49 1149.99,1487.83 1160.5,1487.5C 1176.91,1494.87 1181.41,1506.87 1174,1523.5C 1169.87,1528.8 1164.71,1532.46 1158.5,1534.5C 1154.83,1534.5 1151.17,1534.5 1147.5,1534.5C 1144.17,1534.5 1140.83,1534.5 1137.5,1534.5C 1080.17,1534.5 1022.83,1534.5 965.5,1534.5C 962.167,1534.5 958.833,1534.5 955.5,1534.5C 939.284,1534.57 930.284,1526.57 928.5,1510.5C 929.387,1498.78 935.387,1490.94 946.5,1487C 957.828,1486.5 969.162,1486.33 980.5,1486.5 Z"/></g>
<g><path style="opacity:0.996" fill="#1e75e8" d="M 1160.5,1487.5 C 1207.5,1487.5 1254.5,1487.5 1301.5,1487.5C 1302.4,1488.29 1303.07,1489.29 1303.5,1490.5C 1297.68,1503.48 1291.85,1516.48 1286,1529.5C 1285.3,1531.58 1284.14,1533.25 1282.5,1534.5C 1271.17,1534.5 1259.83,1534.5 1248.5,1534.5C 1245.5,1534.5 1242.5,1534.5 1239.5,1534.5C 1212.5,1534.5 1185.5,1534.5 1158.5,1534.5C 1164.71,1532.46 1169.87,1528.8 1174,1523.5C 1181.41,1506.87 1176.91,1494.87 1160.5,1487.5 Z"/></g>
<g><path style="opacity:0.908" fill="#212121" d="M 955.5,1534.5 C 958.833,1534.5 962.167,1534.5 965.5,1534.5C 940.071,1666.15 914.571,1797.81 889,1929.5C 886.633,1932.93 883.966,1933.27 881,1930.5C 880.333,1927.5 880.333,1924.5 881,1921.5C 905.836,1792.48 930.669,1663.48 955.5,1534.5 Z"/></g>
<g><path style="opacity:0.908" fill="#212121" d="M 1137.5,1534.5 C 1140.83,1534.5 1144.17,1534.5 1147.5,1534.5C 1122.19,1666.53 1096.69,1798.53 1071,1930.5C 1068.41,1933.03 1065.75,1933.03 1063,1930.5C 1062.58,1926.13 1062.91,1921.8 1064,1917.5C 1088.72,1789.86 1113.22,1662.19 1137.5,1534.5 Z"/></g>
<g><path style="opacity:0.91" fill="#222221" d="M 1239.5,1534.5 C 1242.5,1534.5 1245.5,1534.5 1248.5,1534.5C 1252.27,1554.33 1256.27,1574 1260.5,1593.5C 1258.78,1600.15 1256.45,1606.48 1253.5,1612.5C 1248.96,1586.48 1244.3,1560.48 1239.5,1534.5 Z"/></g>
<g><path style="opacity:0.907" fill="#222221" d="M 1451.5,1643.5 C 1470.63,1738.58 1488.79,1833.91 1506,1929.5C 1502.53,1933.72 1499.53,1933.38 1497,1928.5C 1480.02,1839.75 1462.85,1751.09 1445.5,1662.5C 1445.34,1660.8 1445.51,1659.13 1446,1657.5C 1447.84,1652.77 1449.67,1648.1 1451.5,1643.5 Z"/></g>
<g><path style="opacity:0.995" fill="#221e13" d="M 1666.5,1645.5 C 1668.96,1646.56 1670.62,1648.39 1671.5,1651C 1670.84,1652.52 1669.84,1653.69 1668.5,1654.5C 1608.53,1683.15 1548.53,1711.82 1488.5,1740.5C 1485.43,1738.51 1484.77,1735.84 1486.5,1732.5C 1546.86,1703.98 1606.86,1674.98 1666.5,1645.5 Z"/></g>
<g><path style="opacity:0.999" fill="#f8a277" d="M 1668.5,1654.5 C 1670.99,1668.62 1673.99,1682.62 1677.5,1696.5C 1664.61,1702.19 1651.94,1708.35 1639.5,1715C 1626.09,1727.72 1624.25,1741.89 1634,1757.5C 1641.28,1767.09 1647.78,1777.09 1653.5,1787.5C 1653.5,1788.17 1653.17,1788.5 1652.5,1788.5C 1602.9,1777.19 1554.9,1781.86 1508.5,1802.5C 1500.86,1782.24 1494.19,1761.57 1488.5,1740.5C 1548.53,1711.82 1608.53,1683.15 1668.5,1654.5 Z"/></g>
<g><path style="opacity:0.994" fill="#222222" d="M 1677.5,1696.5 C 1681.64,1704.1 1685.8,1711.77 1690,1719.5C 1694.27,1726.6 1699.44,1732.94 1705.5,1738.5C 1698.21,1746.96 1690.71,1755.3 1683,1763.5C 1682.17,1768 1684,1769.83 1688.5,1769C 1696.37,1760.63 1704.04,1752.13 1711.5,1743.5C 1716.5,1747.33 1721.83,1750.67 1727.5,1753.5C 1723.46,1763.1 1719.13,1772.6 1714.5,1782C 1716,1786.5 1718.5,1787.34 1722,1784.5C 1726.55,1775.41 1731.05,1766.41 1735.5,1757.5C 1748.12,1761.43 1760.79,1765.26 1773.5,1769C 1780.62,1771.4 1787.29,1774.56 1793.5,1778.5C 1760.64,1795.51 1727.48,1812.18 1694,1828.5C 1682.98,1815.81 1672.31,1802.81 1662,1789.5C 1659.76,1785.35 1656.93,1784.68 1653.5,1787.5C 1647.78,1777.09 1641.28,1767.09 1634,1757.5C 1624.25,1741.89 1626.09,1727.72 1639.5,1715C 1651.94,1708.35 1664.61,1702.19 1677.5,1696.5 Z"/></g>
<g><path style="opacity:0.996" fill="#251f15" d="M 1226.5,1718.5 C 1293.17,1718.5 1359.83,1718.5 1426.5,1718.5C 1428.44,1720.01 1428.94,1722.01 1428,1724.5C 1426.89,1726.04 1425.39,1726.7 1423.5,1726.5C 1357.43,1726.83 1291.43,1726.5 1225.5,1725.5C 1223.56,1723.99 1223.06,1721.99 1224,1719.5C 1224.67,1718.75 1225.5,1718.41 1226.5,1718.5 Z"/></g>
<g><path style="opacity:0.999" fill="#f8a277" d="M 1225.5,1725.5 C 1291.43,1726.5 1357.43,1726.83 1423.5,1726.5C 1419.61,1739.3 1416.61,1752.3 1414.5,1765.5C 1396.83,1765.33 1379.16,1765.5 1361.5,1766C 1350.14,1770.05 1343.81,1778.05 1342.5,1790C 1344.74,1805.48 1346.74,1820.98 1348.5,1836.5C 1348.16,1837.34 1347.49,1837.67 1346.5,1837.5C 1308.42,1806.69 1264.75,1790.02 1215.5,1787.5C 1218.02,1766.68 1221.35,1746.01 1225.5,1725.5 Z"/></g>
<g><path style="opacity:0.989" fill="#010101" d="M 1705.5,1738.5 C 1709.35,1738.02 1711.35,1739.69 1711.5,1743.5C 1704.04,1752.13 1696.37,1760.63 1688.5,1769C 1684,1769.83 1682.17,1768 1683,1763.5C 1690.71,1755.3 1698.21,1746.96 1705.5,1738.5 Z"/></g>
<g><path style="opacity:0.986" fill="#010101" d="M 1735.5,1757.5 C 1731.05,1766.41 1726.55,1775.41 1722,1784.5C 1718.5,1787.34 1716,1786.5 1714.5,1782C 1719.13,1772.6 1723.46,1763.1 1727.5,1753.5C 1731.43,1752.13 1734.09,1753.46 1735.5,1757.5 Z"/></g>
<g><path style="opacity:0.995" fill="#222222" d="M 1414.5,1765.5 C 1413.6,1782.71 1414.94,1799.71 1418.5,1816.5C 1406.87,1820.1 1395.71,1824.76 1385,1830.5C 1384.34,1835.5 1386.5,1837.33 1391.5,1836C 1401.41,1831.54 1411.41,1827.38 1421.5,1823.5C 1424.59,1830.02 1427.92,1836.35 1431.5,1842.5C 1423.2,1847.99 1414.86,1853.49 1406.5,1859C 1402.36,1862.6 1402.86,1865.43 1408,1867.5C 1417.94,1861.78 1427.44,1855.45 1436.5,1848.5C 1447.77,1859.61 1459.27,1870.61 1471,1881.5C 1474.66,1885.51 1477.83,1889.84 1480.5,1894.5C 1441.83,1894.5 1403.17,1894.5 1364.5,1894.5C 1361.45,1875.09 1357.45,1855.92 1352.5,1837C 1351.21,1836.51 1349.87,1836.34 1348.5,1836.5C 1346.74,1820.98 1344.74,1805.48 1342.5,1790C 1343.81,1778.05 1350.14,1770.05 1361.5,1766C 1379.16,1765.5 1396.83,1765.33 1414.5,1765.5 Z"/></g>
<g><path style="opacity:0.983" fill="#000000" d="M 1793.5,1778.5 C 1804.87,1786.37 1813.53,1796.53 1819.5,1809C 1735.71,1850.98 1651.88,1892.81 1568,1934.5C 1561.63,1923.09 1555.8,1911.42 1550.5,1899.5C 1595.6,1877.45 1640.6,1855.12 1685.5,1832.5C 1675.57,1819.07 1665.07,1806.07 1654,1793.5C 1652.99,1791.98 1652.49,1790.31 1652.5,1788.5C 1653.17,1788.5 1653.5,1788.17 1653.5,1787.5C 1656.93,1784.68 1659.76,1785.35 1662,1789.5C 1672.31,1802.81 1682.98,1815.81 1694,1828.5C 1727.48,1812.18 1760.64,1795.51 1793.5,1778.5 Z"/></g>
<g><path style="opacity:0.996" fill="#222222" d="M 1652.5,1788.5 C 1652.49,1790.31 1652.99,1791.98 1654,1793.5C 1665.07,1806.07 1675.57,1819.07 1685.5,1832.5C 1640.6,1855.12 1595.6,1877.45 1550.5,1899.5C 1534.57,1868.07 1520.57,1835.73 1508.5,1802.5C 1554.9,1781.86 1602.9,1777.19 1652.5,1788.5 Z"/></g>
<g><path style="opacity:0.997" fill="#222121" d="M 1215.5,1787.5 C 1264.75,1790.02 1308.42,1806.69 1346.5,1837.5C 1346.02,1838.42 1345.69,1839.42 1345.5,1840.5C 1349.04,1858.87 1352.71,1877.21 1356.5,1895.5C 1307.5,1895.5 1258.5,1895.5 1209.5,1895.5C 1209.59,1859.39 1211.59,1823.39 1215.5,1787.5 Z"/></g>
<g><path style="opacity:0.986" fill="#010101" d="M 1418.5,1816.5 C 1421.96,1817.76 1422.96,1820.1 1421.5,1823.5C 1411.41,1827.38 1401.41,1831.54 1391.5,1836C 1386.5,1837.33 1384.34,1835.5 1385,1830.5C 1395.71,1824.76 1406.87,1820.1 1418.5,1816.5 Z"/></g>
<g><path style="opacity:0.983" fill="#000000" d="M 1348.5,1836.5 C 1349.87,1836.34 1351.21,1836.51 1352.5,1837C 1357.45,1855.92 1361.45,1875.09 1364.5,1894.5C 1403.17,1894.5 1441.83,1894.5 1480.5,1894.5C 1487.25,1906.93 1490.59,1920.26 1490.5,1934.5C 1396.83,1934.67 1303.17,1934.5 1209.5,1934C 1208.17,1921.07 1208.17,1908.24 1209.5,1895.5C 1258.5,1895.5 1307.5,1895.5 1356.5,1895.5C 1352.71,1877.21 1349.04,1858.87 1345.5,1840.5C 1345.69,1839.42 1346.02,1838.42 1346.5,1837.5C 1347.49,1837.67 1348.16,1837.34 1348.5,1836.5 Z"/></g>
<g><path style="opacity:0.985" fill="#010101" d="M 1431.5,1842.5 C 1435.31,1842.65 1436.98,1844.65 1436.5,1848.5C 1427.44,1855.45 1417.94,1861.78 1408,1867.5C 1402.86,1865.43 1402.36,1862.6 1406.5,1859C 1414.86,1853.49 1423.2,1847.99 1431.5,1842.5 Z"/></g>
</svg>
