<?xml version="1.0" encoding="UTF-8"?>
<!DOCTYPE svg PUBLIC "-//W3C//DTD SVG 1.1//EN" "http://www.w3.org/Graphics/SVG/1.1/DTD/svg11.dtd">
<svg xmlns="http://www.w3.org/2000/svg" version="1.1" width="512px" height="512px" style="shape-rendering:geometricPrecision; text-rendering:geometricPrecision; image-rendering:optimizeQuality; fill-rule:evenodd; clip-rule:evenodd" xmlns:xlink="http://www.w3.org/1999/xlink">
<g><path style="opacity:0.996" fill="#f20000" d="M 232.5,-0.5 C 247.833,-0.5 263.167,-0.5 278.5,-0.5C 368.144,10.3879 435.644,54.7213 481,132.5C 497.695,163.971 507.861,197.304 511.5,232.5C 511.5,247.833 511.5,263.167 511.5,278.5C 500.612,368.144 456.279,435.644 378.5,481C 347.029,497.695 313.696,507.861 278.5,511.5C 263.167,511.5 247.833,511.5 232.5,511.5C 142.856,500.612 75.3562,456.279 30,378.5C 13.3053,347.029 3.1386,313.696 -0.5,278.5C -0.5,263.167 -0.5,247.833 -0.5,232.5C 10.3875,142.857 54.7208,75.3573 132.5,30C 163.971,13.3053 197.304,3.1386 232.5,-0.5 Z"/></g>
<g><path style="opacity:1" fill="#fffefe" d="M 212.5,162.5 C 241.169,162.333 269.835,162.5 298.5,163C 312.871,163.936 327.205,165.269 341.5,167C 367.244,171.749 380.411,187.249 381,213.5C 385.198,248.72 383.864,283.72 377,318.5C 368.377,335.242 354.543,344.075 335.5,345C 279.126,349.953 222.792,349.62 166.5,344C 151.739,340.385 140.906,331.885 134,318.5C 125.73,277.238 125.396,235.904 133,194.5C 141.079,177.525 154.579,168.025 173.5,166C 186.659,164.891 199.659,163.725 212.5,162.5 Z"/></g>
<g><path style="opacity:1" fill="#f76363" d="M 226.5,207.5 C 225.167,239.5 225.167,271.5 226.5,303.5C 226.44,304.043 226.107,304.376 225.5,304.5C 224.167,271.833 224.167,239.167 225.5,206.5C 226.107,206.624 226.44,206.957 226.5,207.5 Z"/></g>
<g><path style="opacity:1" fill="#f20402" d="M 226.5,207.5 C 252.472,223.489 278.472,239.489 304.5,255.5C 278.472,271.511 252.472,287.511 226.5,303.5C 225.167,271.5 225.167,239.5 226.5,207.5 Z"/></g>
</svg>
